<svg width="1866" height="1248" viewBox="0 0 1866 1248" fill="none" xmlns="http://www.w3.org/2000/svg">
<rect y="105" width="1437" height="1143" rx="30" fill="#F5EAEA"/>
<path d="M98.0273 294V243.586H108.855V263.766H129V243.586H139.793V294H129V273.469H108.855V294H98.0273ZM179.766 289.5C176.438 292.969 171.867 294.703 166.055 294.703C160.242 294.703 155.672 292.969 152.344 289.5C149.016 286.031 147.352 281.18 147.352 274.945C147.352 268.688 149.016 263.824 152.344 260.355C155.672 256.863 160.242 255.117 166.055 255.117C171.867 255.117 176.438 256.863 179.766 260.355C183.117 263.824 184.793 268.688 184.793 274.945C184.793 281.18 183.117 286.031 179.766 289.5ZM159.867 283.031C161.508 284.812 163.57 285.703 166.055 285.703C168.562 285.703 170.625 284.812 172.242 283.031C173.883 281.227 174.703 278.531 174.703 274.945C174.703 271.336 173.883 268.629 172.242 266.824C170.625 265.02 168.562 264.117 166.055 264.117C163.57 264.117 161.508 265.02 159.867 266.824C158.227 268.629 157.406 271.336 157.406 274.945C157.406 278.531 158.227 281.227 159.867 283.031ZM198.082 294L187.641 255.855H198.082L204.586 281.414H204.938L211.406 255.855H221.848L228.316 281.414H228.703L235.172 255.855H244.875L234.434 294H223.289L216.82 269.883H216.434L209.965 294H198.082ZM268.254 294L257.812 255.855H268.254L274.758 281.414H275.109L281.578 255.855H292.02L298.488 281.414H298.875L305.344 255.855H315.047L304.605 294H293.461L286.992 269.883H286.605L280.137 294H268.254ZM335.93 294.703C330.117 294.703 325.547 292.969 322.219 289.5C318.891 286.031 317.227 281.18 317.227 274.945C317.227 268.688 318.891 263.824 322.219 260.355C325.547 256.863 330.117 255.117 335.93 255.117C341.461 255.117 345.902 256.898 349.254 260.461C352.605 264 354.281 268.582 354.281 274.207L353.93 278.145H327.668C328.535 283.184 331.289 285.703 335.93 285.703C337.758 285.703 339.152 285.422 340.113 284.859C341.074 284.273 341.965 283.359 342.785 282.117H353.578C352.57 285.773 350.625 288.785 347.742 291.152C344.859 293.52 340.922 294.703 335.93 294.703ZM327.668 270.586H343.84C343.465 268.758 342.586 267.223 341.203 265.98C339.844 264.738 338.086 264.117 335.93 264.117C331.711 264.117 328.957 266.273 327.668 270.586ZM394.641 308.414C384.797 308.414 378.797 304.09 376.641 295.441H387.082C387.855 298.09 390.375 299.414 394.641 299.414C397.125 299.414 399.059 298.805 400.441 297.586C401.848 296.391 402.551 294.715 402.551 292.559V287.145H402.199C401.285 288.293 399.938 289.371 398.156 290.379C396.398 291.363 394.383 291.855 392.109 291.855C387.164 291.855 383.227 290.262 380.297 287.074C377.391 283.863 375.938 279.328 375.938 273.469C375.938 267.609 377.402 263.086 380.332 259.898C383.262 256.711 387.188 255.117 392.109 255.117C396.188 255.117 399.668 256.793 402.551 260.145H402.938L403.992 255.855H412.641V292.559C412.641 297.691 411.141 301.617 408.141 304.336C405.141 307.055 400.641 308.414 394.641 308.414ZM388.207 280.324C389.707 282.012 391.723 282.855 394.254 282.855C396.809 282.855 398.824 282.012 400.301 280.324C401.801 278.637 402.551 276.352 402.551 273.469C402.551 270.586 401.801 268.312 400.301 266.648C398.824 264.961 396.809 264.117 394.254 264.117C391.723 264.117 389.707 264.961 388.207 266.648C386.73 268.312 385.992 270.586 385.992 273.469C385.992 276.352 386.73 278.637 388.207 280.324ZM451.945 289.5C448.617 292.969 444.047 294.703 438.234 294.703C432.422 294.703 427.852 292.969 424.523 289.5C421.195 286.031 419.531 281.18 419.531 274.945C419.531 268.688 421.195 263.824 424.523 260.355C427.852 256.863 432.422 255.117 438.234 255.117C444.047 255.117 448.617 256.863 451.945 260.355C455.297 263.824 456.973 268.688 456.973 274.945C456.973 281.18 455.297 286.031 451.945 289.5ZM432.047 283.031C433.688 284.812 435.75 285.703 438.234 285.703C440.742 285.703 442.805 284.812 444.422 283.031C446.062 281.227 446.883 278.531 446.883 274.945C446.883 271.336 446.062 268.629 444.422 266.824C442.805 265.02 440.742 264.117 438.234 264.117C435.75 264.117 433.688 265.02 432.047 266.824C430.406 268.629 429.586 271.336 429.586 274.945C429.586 278.531 430.406 281.227 432.047 283.031ZM483.621 294V265.207H477.504V255.855H483.621V252.586C483.621 245.156 487.582 241.441 495.504 241.441H502.711V250.441H497.297C496.195 250.441 495.316 250.77 494.66 251.426C494.027 252.059 493.711 252.926 493.711 254.027V255.855H502.711V265.207H493.711V294H483.621ZM508.441 294V255.855H517.09L518.145 260.145H518.531C520.453 257.262 523.453 255.832 527.531 255.855H532.207V265.559H528.234C525.211 265.559 522.832 266.402 521.098 268.09C519.387 269.754 518.531 272.027 518.531 274.91V294H508.441ZM566.766 289.5C563.438 292.969 558.867 294.703 553.055 294.703C547.242 294.703 542.672 292.969 539.344 289.5C536.016 286.031 534.352 281.18 534.352 274.945C534.352 268.688 536.016 263.824 539.344 260.355C542.672 256.863 547.242 255.117 553.055 255.117C558.867 255.117 563.438 256.863 566.766 260.355C570.117 263.824 571.793 268.688 571.793 274.945C571.793 281.18 570.117 286.031 566.766 289.5ZM546.867 283.031C548.508 284.812 550.57 285.703 553.055 285.703C555.562 285.703 557.625 284.812 559.242 283.031C560.883 281.227 561.703 278.531 561.703 274.945C561.703 271.336 560.883 268.629 559.242 266.824C557.625 265.02 555.562 264.117 553.055 264.117C550.57 264.117 548.508 265.02 546.867 266.824C545.227 268.629 544.406 271.336 544.406 274.945C544.406 278.531 545.227 281.227 546.867 283.031ZM578.613 294V255.855H587.262L588.316 260.145H588.703C590.953 256.793 593.953 255.117 597.703 255.117C602.648 255.117 606.129 257.156 608.145 261.234H608.496C609.223 259.758 610.559 258.375 612.504 257.086C614.473 255.773 616.969 255.117 619.992 255.117C624.164 255.117 627.551 256.488 630.152 259.23C632.754 261.973 634.055 265.641 634.055 270.234V294H623.965V271.676C623.965 269.121 623.367 267.223 622.172 265.98C620.977 264.738 619.418 264.117 617.496 264.117C615.762 264.117 614.309 264.785 613.137 266.121C611.965 267.434 611.379 269.285 611.379 271.676V294H601.289V271.676C601.289 269.121 600.691 267.223 599.496 265.98C598.301 264.738 596.742 264.117 594.82 264.117C593.133 264.117 591.691 264.82 590.496 266.227C589.301 267.609 588.703 269.426 588.703 271.676V294H578.613ZM672.234 301.91V294.352C667.711 293.672 664.055 292.02 661.266 289.395C658.5 286.746 656.871 283.242 656.379 278.883H667.172C667.547 280.898 668.59 282.48 670.301 283.629C672.012 284.777 674.215 285.352 676.91 285.352C683.145 285.352 686.262 283.312 686.262 279.234C686.262 277.688 685.559 276.457 684.152 275.543C682.77 274.605 681.047 273.984 678.984 273.68C676.922 273.352 674.66 272.871 672.199 272.238C669.762 271.582 667.512 270.82 665.449 269.953C663.387 269.086 661.652 267.609 660.246 265.523C658.863 263.438 658.172 260.812 658.172 257.648C658.172 253.664 659.461 250.441 662.039 247.98C664.617 245.496 668.016 243.914 672.234 243.234V235.676H683.027V243.516C686.965 244.383 690.047 246.07 692.273 248.578C694.5 251.062 695.859 254.086 696.352 257.648H685.559C685.184 255.961 684.281 254.637 682.852 253.676C681.422 252.715 679.559 252.234 677.262 252.234C674.707 252.234 672.75 252.75 671.391 253.781C670.031 254.812 669.352 256.102 669.352 257.648C669.352 259.242 670.043 260.543 671.426 261.551C672.832 262.535 674.566 263.227 676.629 263.625C678.691 264 680.941 264.527 683.379 265.207C685.84 265.863 688.102 266.613 690.164 267.457C692.227 268.301 693.949 269.73 695.332 271.746C696.738 273.762 697.441 276.258 697.441 279.234C697.441 282.938 696.176 286.137 693.645 288.832C691.137 291.504 687.598 293.273 683.027 294.141V301.91H672.234ZM739.875 288.094C736.008 292.5 730.734 294.703 724.055 294.703C717.398 294.703 712.137 292.5 708.27 288.094C704.402 283.688 702.469 277.266 702.469 268.828C702.469 260.367 704.402 253.934 708.27 249.527C712.137 245.098 717.398 242.883 724.055 242.883C730.734 242.883 736.008 245.098 739.875 249.527C743.742 253.934 745.676 260.367 745.676 268.828C745.676 277.266 743.742 283.688 739.875 288.094ZM716.355 280.852C718.418 283.617 720.984 285 724.055 285C727.125 285 729.691 283.617 731.754 280.852C733.84 278.086 734.883 274.066 734.883 268.793C734.883 263.52 733.84 259.5 731.754 256.734C729.691 253.969 727.125 252.586 724.055 252.586C720.984 252.586 718.418 253.969 716.355 256.734C714.293 259.5 713.262 263.52 713.262 268.793C713.262 274.066 714.293 278.086 716.355 280.852ZM770.145 294V243.586H786L797.883 278.531H798.234L810.117 243.586H825.973V294H815.145V258.352H814.793L802.559 294H793.559L781.324 258.352H780.973V294H770.145ZM836.027 294V243.586H857.648C862.734 243.586 866.824 245.098 869.918 248.121C873.012 251.145 874.559 255.152 874.559 260.145C874.559 262.488 874.195 264.645 873.469 266.613C872.766 268.559 871.91 270.082 870.902 271.184C869.895 272.285 868.875 273.234 867.844 274.031C866.812 274.805 865.934 275.32 865.207 275.578L864.117 276L876.352 294H864.117L852.586 276.703H846.855V294H836.027ZM846.855 267H856.91C858.926 267 860.566 266.391 861.832 265.172C863.121 263.953 863.766 262.289 863.766 260.18C863.766 258.047 863.121 256.371 861.832 255.152C860.566 253.934 858.926 253.324 856.91 253.324H846.855V267ZM883.207 294V243.586H904.828C909.914 243.586 914.004 245.098 917.098 248.121C920.191 251.145 921.738 255.152 921.738 260.145C921.738 262.488 921.375 264.645 920.648 266.613C919.945 268.559 919.09 270.082 918.082 271.184C917.074 272.285 916.055 273.234 915.023 274.031C913.992 274.805 913.113 275.32 912.387 275.578L911.297 276L923.531 294H911.297L899.766 276.703H894.035V294H883.207ZM894.035 267H904.09C906.105 267 907.746 266.391 909.012 265.172C910.301 263.953 910.945 262.289 910.945 260.18C910.945 258.047 910.301 256.371 909.012 255.152C907.746 253.934 906.105 253.324 904.09 253.324H894.035V267ZM961.395 294C953.473 294 949.512 290.285 949.512 282.855V265.207H943.395V255.855H949.512L950.953 245.766H959.602V255.855H968.602V265.207H959.602V281.027C959.602 282.082 959.918 282.949 960.551 283.629C961.207 284.309 962.086 284.648 963.188 284.648H968.602V294H961.395ZM1005.73 289.5C1002.4 292.969 997.828 294.703 992.016 294.703C986.203 294.703 981.633 292.969 978.305 289.5C974.977 286.031 973.312 281.18 973.312 274.945C973.312 268.688 974.977 263.824 978.305 260.355C981.633 256.863 986.203 255.117 992.016 255.117C997.828 255.117 1002.4 256.863 1005.73 260.355C1009.08 263.824 1010.75 268.688 1010.75 274.945C1010.75 281.18 1009.08 286.031 1005.73 289.5ZM985.828 283.031C987.469 284.812 989.531 285.703 992.016 285.703C994.523 285.703 996.586 284.812 998.203 283.031C999.844 281.227 1000.66 278.531 1000.66 274.945C1000.66 271.336 999.844 268.629 998.203 266.824C996.586 265.02 994.523 264.117 992.016 264.117C989.531 264.117 987.469 265.02 985.828 266.824C984.188 268.629 983.367 271.336 983.367 274.945C983.367 278.531 984.188 281.227 985.828 283.031ZM110.648 391.91V384.352C106.125 383.672 102.469 382.02 99.6797 379.395C96.9141 376.746 95.2852 373.242 94.793 368.883H105.586C105.961 370.898 107.004 372.48 108.715 373.629C110.426 374.777 112.629 375.352 115.324 375.352C121.559 375.352 124.676 373.312 124.676 369.234C124.676 367.688 123.973 366.457 122.566 365.543C121.184 364.605 119.461 363.984 117.398 363.68C115.336 363.352 113.074 362.871 110.613 362.238C108.176 361.582 105.926 360.82 103.863 359.953C101.801 359.086 100.066 357.609 98.6602 355.523C97.2773 353.438 96.5859 350.812 96.5859 347.648C96.5859 343.664 97.875 340.441 100.453 337.98C103.031 335.496 106.43 333.914 110.648 333.234V325.676H121.441V333.516C125.379 334.383 128.461 336.07 130.688 338.578C132.914 341.062 134.273 344.086 134.766 347.648H123.973C123.598 345.961 122.695 344.637 121.266 343.676C119.836 342.715 117.973 342.234 115.676 342.234C113.121 342.234 111.164 342.75 109.805 343.781C108.445 344.812 107.766 346.102 107.766 347.648C107.766 349.242 108.457 350.543 109.84 351.551C111.246 352.535 112.98 353.227 115.043 353.625C117.105 354 119.355 354.527 121.793 355.207C124.254 355.863 126.516 356.613 128.578 357.457C130.641 358.301 132.363 359.73 133.746 361.746C135.152 363.762 135.855 366.258 135.855 369.234C135.855 372.938 134.59 376.137 132.059 378.832C129.551 381.504 126.012 383.273 121.441 384.141V391.91H110.648ZM150.586 384V349.09H140.531V339.352H147.703C149.625 339.352 150.586 338.391 150.586 336.469V333.586H161.414V384H150.586ZM206.695 378.094C202.828 382.5 197.555 384.703 190.875 384.703C184.219 384.703 178.957 382.5 175.09 378.094C171.223 373.688 169.289 367.266 169.289 358.828C169.289 350.367 171.223 343.934 175.09 339.527C178.957 335.098 184.219 332.883 190.875 332.883C197.555 332.883 202.828 335.098 206.695 339.527C210.562 343.934 212.496 350.367 212.496 358.828C212.496 367.266 210.562 373.688 206.695 378.094ZM183.176 370.852C185.238 373.617 187.805 375 190.875 375C193.945 375 196.512 373.617 198.574 370.852C200.66 368.086 201.703 364.066 201.703 358.793C201.703 353.52 200.66 349.5 198.574 346.734C196.512 343.969 193.945 342.586 190.875 342.586C187.805 342.586 185.238 343.969 183.176 346.734C181.113 349.5 180.082 353.52 180.082 358.793C180.082 364.066 181.113 368.086 183.176 370.852ZM255.633 378.094C251.766 382.5 246.492 384.703 239.812 384.703C233.156 384.703 227.895 382.5 224.027 378.094C220.16 373.688 218.227 367.266 218.227 358.828C218.227 350.367 220.16 343.934 224.027 339.527C227.895 335.098 233.156 332.883 239.812 332.883C246.492 332.883 251.766 335.098 255.633 339.527C259.5 343.934 261.434 350.367 261.434 358.828C261.434 367.266 259.5 373.688 255.633 378.094ZM232.113 370.852C234.176 373.617 236.742 375 239.812 375C242.883 375 245.449 373.617 247.512 370.852C249.598 368.086 250.641 364.066 250.641 358.793C250.641 353.52 249.598 349.5 247.512 346.734C245.449 343.969 242.883 342.586 239.812 342.586C236.742 342.586 234.176 343.969 232.113 346.734C230.051 349.5 229.02 353.52 229.02 358.793C229.02 364.066 230.051 368.086 232.113 370.852ZM304.57 378.094C300.703 382.5 295.43 384.703 288.75 384.703C282.094 384.703 276.832 382.5 272.965 378.094C269.098 373.688 267.164 367.266 267.164 358.828C267.164 350.367 269.098 343.934 272.965 339.527C276.832 335.098 282.094 332.883 288.75 332.883C295.43 332.883 300.703 335.098 304.57 339.527C308.438 343.934 310.371 350.367 310.371 358.828C310.371 367.266 308.438 373.688 304.57 378.094ZM281.051 370.852C283.113 373.617 285.68 375 288.75 375C291.82 375 294.387 373.617 296.449 370.852C298.535 368.086 299.578 364.066 299.578 358.793C299.578 353.52 298.535 349.5 296.449 346.734C294.387 343.969 291.82 342.586 288.75 342.586C285.68 342.586 283.113 343.969 281.051 346.734C278.988 349.5 277.957 353.52 277.957 358.793C277.957 364.066 278.988 368.086 281.051 370.852ZM334.84 384V333.586H350.695L362.578 368.531H362.93L374.812 333.586H390.668V384H379.84V348.352H379.488L367.254 384H358.254L346.02 348.352H345.668V384H334.84ZM400.723 384V333.586H422.344C427.43 333.586 431.52 335.098 434.613 338.121C437.707 341.145 439.254 345.152 439.254 350.145C439.254 352.488 438.891 354.645 438.164 356.613C437.461 358.559 436.605 360.082 435.598 361.184C434.59 362.285 433.57 363.234 432.539 364.031C431.508 364.805 430.629 365.32 429.902 365.578L428.812 366L441.047 384H428.812L417.281 366.703H411.551V384H400.723ZM411.551 357H421.605C423.621 357 425.262 356.391 426.527 355.172C427.816 353.953 428.461 352.289 428.461 350.18C428.461 348.047 427.816 346.371 426.527 345.152C425.262 343.934 423.621 343.324 421.605 343.324H411.551V357ZM447.902 384V333.586H469.523C474.609 333.586 478.699 335.098 481.793 338.121C484.887 341.145 486.434 345.152 486.434 350.145C486.434 352.488 486.07 354.645 485.344 356.613C484.641 358.559 483.785 360.082 482.777 361.184C481.77 362.285 480.75 363.234 479.719 364.031C478.688 364.805 477.809 365.32 477.082 365.578L475.992 366L488.227 384H475.992L464.461 366.703H458.73V384H447.902ZM458.73 357H468.785C470.801 357 472.441 356.391 473.707 355.172C474.996 353.953 475.641 352.289 475.641 350.18C475.641 348.047 474.996 346.371 473.707 345.152C472.441 343.934 470.801 343.324 468.785 343.324H458.73V357ZM510.973 384V345.855H521.062V384H510.973ZM520.113 340.23C519.012 341.332 517.641 341.883 516 341.883C514.383 341.883 513.012 341.332 511.887 340.23C510.785 339.129 510.234 337.758 510.234 336.117C510.234 334.477 510.785 333.105 511.887 332.004C513.012 330.902 514.383 330.352 516 330.352C517.641 330.352 519.012 330.902 520.113 332.004C521.215 333.105 521.766 334.477 521.766 336.117C521.766 337.758 521.215 339.129 520.113 340.23ZM529.676 384V345.855H538.324L539.379 350.145H539.766C542.367 346.793 545.719 345.117 549.82 345.117C554.039 345.117 557.438 346.5 560.016 349.266C562.594 352.031 563.883 355.805 563.883 360.586V384H553.793V362.027C553.793 359.543 553.195 357.609 552 356.227C550.805 354.82 549.117 354.117 546.938 354.117C544.781 354.117 543.047 354.855 541.734 356.332C540.422 357.785 539.766 359.684 539.766 362.027V384H529.676ZM586.945 384V374.297L608.883 354.855C611.273 352.793 612.48 350.742 612.504 348.703C612.504 344.625 610.102 342.586 605.297 342.586C603.281 342.586 601.594 343.125 600.234 344.203C598.898 345.258 598.066 346.758 597.738 348.703H586.945C587.531 343.992 589.324 340.184 592.324 337.277C595.348 334.348 599.672 332.883 605.297 332.883C611.344 332.883 615.914 334.266 619.008 337.031C622.102 339.773 623.648 343.43 623.648 348C623.648 352.617 621.375 356.941 616.828 360.973L601.711 374.297H624.387V384H586.945ZM648.152 384V345.855H656.801L657.855 350.145H658.242C660.492 346.793 663.492 345.117 667.242 345.117C672.188 345.117 675.668 347.156 677.684 351.234H678.035C678.762 349.758 680.098 348.375 682.043 347.086C684.012 345.773 686.508 345.117 689.531 345.117C693.703 345.117 697.09 346.488 699.691 349.23C702.293 351.973 703.594 355.641 703.594 360.234V384H693.504V361.676C693.504 359.121 692.906 357.223 691.711 355.98C690.516 354.738 688.957 354.117 687.035 354.117C685.301 354.117 683.848 354.785 682.676 356.121C681.504 357.434 680.918 359.285 680.918 361.676V384H670.828V361.676C670.828 359.121 670.23 357.223 669.035 355.98C667.84 354.738 666.281 354.117 664.359 354.117C662.672 354.117 661.23 354.82 660.035 356.227C658.84 357.609 658.242 359.426 658.242 361.676V384H648.152ZM742.477 379.5C739.148 382.969 734.578 384.703 728.766 384.703C722.953 384.703 718.383 382.969 715.055 379.5C711.727 376.031 710.062 371.18 710.062 364.945C710.062 358.688 711.727 353.824 715.055 350.355C718.383 346.863 722.953 345.117 728.766 345.117C734.578 345.117 739.148 346.863 742.477 350.355C745.828 353.824 747.504 358.688 747.504 364.945C747.504 371.18 745.828 376.031 742.477 379.5ZM722.578 373.031C724.219 374.812 726.281 375.703 728.766 375.703C731.273 375.703 733.336 374.812 734.953 373.031C736.594 371.227 737.414 368.531 737.414 364.945C737.414 361.336 736.594 358.629 734.953 356.824C733.336 355.02 731.273 354.117 728.766 354.117C726.281 354.117 724.219 355.02 722.578 356.824C720.938 358.629 720.117 361.336 720.117 364.945C720.117 368.531 720.938 371.227 722.578 373.031ZM754.324 384V345.855H762.973L764.027 350.145H764.414C767.016 346.793 770.367 345.117 774.469 345.117C778.688 345.117 782.086 346.5 784.664 349.266C787.242 352.031 788.531 355.805 788.531 360.586V384H778.441V362.027C778.441 359.543 777.844 357.609 776.648 356.227C775.453 354.82 773.766 354.117 771.586 354.117C769.43 354.117 767.695 354.855 766.383 356.332C765.07 357.785 764.414 359.684 764.414 362.027V384H754.324ZM811.91 384C803.988 384 800.027 380.285 800.027 372.855V355.207H793.91V345.855H800.027L801.469 335.766H810.117V345.855H819.117V355.207H810.117V371.027C810.117 372.082 810.434 372.949 811.066 373.629C811.723 374.309 812.602 374.648 813.703 374.648H819.117V384H811.91ZM826.676 384V333.586H836.766V349.793H837.117C839.859 346.676 843.105 345.117 846.855 345.117C851.074 345.117 854.461 346.5 857.016 349.266C859.594 352.031 860.883 355.805 860.883 360.586V384H850.793V362.027C850.793 359.543 850.195 357.609 849 356.227C847.805 354.82 846.117 354.117 843.938 354.117C841.781 354.117 840.047 354.855 838.734 356.332C837.422 357.785 836.766 359.684 836.766 362.027V384H826.676ZM883.172 384.703C877.945 384.703 873.961 383.543 871.219 381.223C868.5 378.902 866.848 375.867 866.262 372.117H877.055C877.242 373.078 877.887 373.922 878.988 374.648C880.113 375.352 881.508 375.703 883.172 375.703C887.484 375.703 889.652 374.754 889.676 372.855C889.676 371.988 889.125 371.297 888.023 370.781C886.945 370.242 885.586 369.867 883.945 369.656C882.328 369.422 880.57 369.047 878.672 368.531C876.773 367.992 875.004 367.359 873.363 366.633C871.746 365.883 870.398 364.652 869.32 362.941C868.242 361.23 867.703 359.133 867.703 356.648C867.703 353.297 869.051 350.543 871.746 348.387C874.465 346.207 878.273 345.117 883.172 345.117C888.258 345.117 892.148 346.207 894.844 348.387C897.539 350.566 899.168 353.438 899.73 357H888.938C888.469 355.078 886.547 354.117 883.172 354.117C881.578 354.117 880.336 354.363 879.445 354.855C878.578 355.324 878.145 355.922 878.145 356.648C878.145 357.516 878.684 358.219 879.762 358.758C880.84 359.273 882.188 359.637 883.805 359.848C885.445 360.059 887.215 360.434 889.113 360.973C891.012 361.488 892.77 362.121 894.387 362.871C896.027 363.621 897.387 364.852 898.465 366.562C899.566 368.25 900.117 370.348 900.117 372.855C900.117 376.301 898.793 379.137 896.145 381.363C893.496 383.59 889.172 384.703 883.172 384.703Z" fill="#44474F" fill-opacity="0.5"/>
<path d="M102.861 451.264C100.286 451.264 98.2207 450.42 96.665 448.732C95.1182 447.036 94.3447 444.641 94.3447 441.547C94.3447 438.454 95.1182 436.063 96.665 434.375C98.2207 432.679 100.286 431.831 102.861 431.831C106.641 431.831 109.203 433.584 110.547 437.091H108.122C107.111 434.929 105.357 433.853 102.861 433.861C100.989 433.861 99.4819 434.534 98.3394 435.878C97.2056 437.214 96.6387 439.108 96.6387 441.561C96.6387 444.004 97.2056 445.898 98.3394 447.243C99.4819 448.579 100.989 449.247 102.861 449.247C105.366 449.247 107.12 448.166 108.122 446.003H110.547C109.203 449.51 106.641 451.264 102.861 451.264ZM113.527 451V436.959H115.148L115.425 438.845H115.557C116.313 437.588 117.574 436.959 119.341 436.959H120.817V438.845H119.341C118.26 438.845 117.359 439.179 116.638 439.847C115.917 440.515 115.557 441.354 115.557 442.365V451H113.527ZM128.385 451.264C126.442 451.264 124.874 450.626 123.678 449.352C122.492 448.078 121.898 446.289 121.898 443.986C121.898 441.675 122.487 439.882 123.665 438.607C124.843 437.333 126.368 436.696 128.24 436.696C129.268 436.696 130.2 436.898 131.035 437.302C131.878 437.707 132.551 438.234 133.052 438.884C133.553 439.526 133.935 440.216 134.199 440.954C134.462 441.692 134.594 442.431 134.594 443.169L134.449 444.514H123.929C123.999 446.078 124.443 447.282 125.26 448.126C126.078 448.961 127.119 449.378 128.385 449.378C130.002 449.378 131.215 448.706 132.023 447.361H134.186C133.72 448.618 132.977 449.585 131.958 450.262C130.947 450.93 129.756 451.264 128.385 451.264ZM123.929 442.76H132.564C132.441 441.442 131.984 440.418 131.193 439.688C130.402 438.95 129.417 438.581 128.24 438.581C127.071 438.581 126.091 438.95 125.3 439.688C124.509 440.418 124.052 441.442 123.929 442.76ZM141.74 449.378C143.058 449.378 144.104 449.005 144.877 448.258C145.66 447.511 146.051 446.579 146.051 445.463V444.514H142.135C141.072 444.514 140.268 444.733 139.723 445.173C139.178 445.604 138.905 446.197 138.905 446.953C138.905 447.691 139.156 448.28 139.657 448.719C140.167 449.159 140.861 449.378 141.74 449.378ZM141.74 451.264C140.281 451.264 139.103 450.855 138.207 450.038C137.319 449.22 136.875 448.192 136.875 446.953C136.875 445.696 137.341 444.663 138.272 443.854C139.213 443.037 140.5 442.628 142.135 442.628H146.051V441.679C146.051 440.748 145.739 440 145.115 439.438C144.5 438.867 143.687 438.581 142.676 438.581C140.962 438.581 139.881 439.258 139.433 440.611H137.284C137.609 439.354 138.246 438.388 139.195 437.711C140.153 437.034 141.313 436.696 142.676 436.696C144.346 436.696 145.664 437.148 146.631 438.054C147.598 438.959 148.081 440.167 148.081 441.679V451H146.459L146.183 449.115H146.051C145.743 449.651 145.194 450.143 144.403 450.591C143.621 451.04 142.733 451.264 141.74 451.264ZM156.163 451C155.152 451 154.312 450.666 153.645 449.998C152.985 449.33 152.656 448.495 152.656 447.493V438.845H150.494V436.959H152.656L152.933 433.176H154.686V436.959H158.325V438.845H154.686V447.493C154.686 447.959 154.835 448.346 155.134 448.653C155.442 448.961 155.833 449.115 156.308 449.115H158.325V451H156.163ZM166.854 451.264C164.912 451.264 163.343 450.626 162.148 449.352C160.961 448.078 160.368 446.289 160.368 443.986C160.368 441.675 160.957 439.882 162.135 438.607C163.312 437.333 164.837 436.696 166.709 436.696C167.738 436.696 168.669 436.898 169.504 437.302C170.348 437.707 171.021 438.234 171.521 438.884C172.022 439.526 172.405 440.216 172.668 440.954C172.932 441.692 173.064 442.431 173.064 443.169L172.919 444.514H162.398C162.469 446.078 162.913 447.282 163.73 448.126C164.547 448.961 165.589 449.378 166.854 449.378C168.472 449.378 169.685 448.706 170.493 447.361H172.655C172.189 448.618 171.447 449.585 170.427 450.262C169.417 450.93 168.226 451.264 166.854 451.264ZM162.398 442.76H171.034C170.911 441.442 170.454 440.418 169.663 439.688C168.872 438.95 167.887 438.581 166.709 438.581C165.541 438.581 164.561 438.95 163.77 439.688C162.979 440.418 162.521 441.442 162.398 442.76ZM178.68 447.981C179.462 448.913 180.508 449.378 181.818 449.378C183.136 449.378 184.187 448.913 184.969 447.981C185.751 447.041 186.142 445.709 186.142 443.986C186.142 442.255 185.751 440.923 184.969 439.992C184.187 439.051 183.136 438.581 181.818 438.581C180.508 438.581 179.462 439.051 178.68 439.992C177.898 440.923 177.507 442.255 177.507 443.986C177.507 445.709 177.898 447.041 178.68 447.981ZM181.554 451.264C179.752 451.264 178.289 450.626 177.164 449.352C176.039 448.078 175.477 446.289 175.477 443.986C175.477 441.675 176.039 439.882 177.164 438.607C178.289 437.333 179.752 436.696 181.554 436.696C183.479 436.696 184.964 437.368 186.01 438.713H186.142V432.095H188.172V451H186.551L186.274 449.115H186.142C185.131 450.547 183.602 451.264 181.554 451.264ZM202.068 449.378C203.386 449.378 204.432 449.005 205.206 448.258C205.988 447.511 206.379 446.579 206.379 445.463V444.514H202.463C201.4 444.514 200.596 444.733 200.051 445.173C199.506 445.604 199.233 446.197 199.233 446.953C199.233 447.691 199.484 448.28 199.985 448.719C200.495 449.159 201.189 449.378 202.068 449.378ZM202.068 451.264C200.609 451.264 199.431 450.855 198.535 450.038C197.647 449.22 197.203 448.192 197.203 446.953C197.203 445.696 197.669 444.663 198.601 443.854C199.541 443.037 200.829 442.628 202.463 442.628H206.379V441.679C206.379 440.748 206.067 440 205.443 439.438C204.828 438.867 204.015 438.581 203.004 438.581C201.29 438.581 200.209 439.258 199.761 440.611H197.612C197.937 439.354 198.574 438.388 199.523 437.711C200.481 437.034 201.642 436.696 203.004 436.696C204.674 436.696 205.992 437.148 206.959 438.054C207.926 438.959 208.409 440.167 208.409 441.679V451H206.788L206.511 449.115H206.379C206.071 449.651 205.522 450.143 204.731 450.591C203.949 451.04 203.061 451.264 202.068 451.264ZM216.491 451C215.48 451 214.641 450.666 213.973 449.998C213.313 449.33 212.984 448.495 212.984 447.493V438.845H210.822V436.959H212.984L213.261 433.176H215.014V436.959H218.653V438.845H215.014V447.493C215.014 447.959 215.164 448.346 215.462 448.653C215.77 448.961 216.161 449.115 216.636 449.115H218.653V451H216.491ZM226.893 451V448.97L235.396 440.334C236.477 439.253 237.018 438.221 237.018 437.236C237.018 436.155 236.688 435.325 236.029 434.745C235.378 434.156 234.447 433.861 233.234 433.861C232.135 433.861 231.221 434.173 230.492 434.797C229.771 435.413 229.336 436.177 229.187 437.091H226.893C227.183 435.492 227.873 434.217 228.962 433.268C230.052 432.31 231.476 431.831 233.234 431.831C235.106 431.831 236.587 432.323 237.677 433.308C238.767 434.283 239.312 435.593 239.312 437.236C239.312 438.678 238.547 440.159 237.018 441.679L229.859 448.97H239.588V451H226.893ZM241.605 451V448.97L250.109 440.334C251.19 439.253 251.73 438.221 251.73 437.236C251.73 436.155 251.401 435.325 250.742 434.745C250.091 434.156 249.16 433.861 247.947 433.861C246.848 433.861 245.934 434.173 245.205 434.797C244.484 435.413 244.049 436.177 243.899 437.091H241.605C241.896 435.492 242.585 434.217 243.675 433.268C244.765 432.31 246.189 431.831 247.947 431.831C249.819 431.831 251.3 432.323 252.39 433.308C253.479 434.283 254.024 435.593 254.024 437.236C254.024 438.678 253.26 440.159 251.73 441.679L244.572 448.97H254.301V451H241.605ZM266.997 451.264C265.362 451.264 264.031 450.82 263.002 449.932C261.974 449.044 261.324 447.735 261.051 446.003H263.358C263.771 448.166 264.984 449.247 266.997 449.247C268.166 449.247 269.089 448.842 269.766 448.034C270.442 447.225 270.781 446.052 270.781 444.514V432.095H273.075V444.514C273.075 446.693 272.53 448.363 271.44 449.523C270.35 450.684 268.869 451.264 266.997 451.264ZM282.382 451.264C280.871 451.264 279.614 450.75 278.612 449.721C277.61 448.684 277.109 447.309 277.109 445.595V436.959H279.139V445.595C279.139 446.781 279.46 447.708 280.102 448.376C280.752 449.044 281.6 449.378 282.646 449.378C283.709 449.378 284.606 449.005 285.335 448.258C286.065 447.511 286.43 446.623 286.43 445.595V436.959H288.46V451H286.838L286.562 449.115H286.43C285.586 450.547 284.237 451.264 282.382 451.264ZM292.217 451V436.959H293.839L294.116 438.845H294.248C295.091 437.403 296.44 436.687 298.295 436.696C299.807 436.696 301.063 437.214 302.065 438.251C303.067 439.28 303.568 440.651 303.568 442.365V451H301.538V442.365C301.538 441.178 301.213 440.251 300.562 439.583C299.912 438.915 299.068 438.581 298.031 438.581C296.968 438.581 296.071 438.955 295.342 439.702C294.612 440.449 294.248 441.336 294.248 442.365V451H292.217ZM313.008 451.264C311.065 451.264 309.497 450.626 308.301 449.352C307.115 448.078 306.521 446.289 306.521 443.986C306.521 441.675 307.11 439.882 308.288 438.607C309.466 437.333 310.991 436.696 312.863 436.696C313.891 436.696 314.823 436.898 315.658 437.302C316.501 437.707 317.174 438.234 317.675 438.884C318.176 439.526 318.558 440.216 318.822 440.954C319.085 441.692 319.217 442.431 319.217 443.169L319.072 444.514H308.552C308.622 446.078 309.066 447.282 309.883 448.126C310.701 448.961 311.742 449.378 313.008 449.378C314.625 449.378 315.838 448.706 316.646 447.361H318.809C318.343 448.618 317.6 449.585 316.581 450.262C315.57 450.93 314.379 451.264 313.008 451.264ZM308.552 442.76H317.187C317.064 441.442 316.607 440.418 315.816 439.688C315.025 438.95 314.041 438.581 312.863 438.581C311.694 438.581 310.714 438.95 309.923 439.688C309.132 440.418 308.675 441.442 308.552 442.76ZM327.562 451V448.97L336.066 440.334C337.147 439.253 337.688 438.221 337.688 437.236C337.688 436.155 337.358 435.325 336.699 434.745C336.048 434.156 335.117 433.861 333.904 433.861C332.805 433.861 331.891 434.173 331.162 434.797C330.441 435.413 330.006 436.177 329.856 437.091H327.562C327.853 435.492 328.542 434.217 329.632 433.268C330.722 432.31 332.146 431.831 333.904 431.831C335.776 431.831 337.257 432.323 338.347 433.308C339.437 434.283 339.981 435.593 339.981 437.236C339.981 438.678 339.217 440.159 337.688 441.679L330.529 448.97H340.258V451H327.562ZM355.683 448.759C354.268 450.429 352.409 451.264 350.106 451.264C347.804 451.264 345.945 450.429 344.53 448.759C343.115 447.089 342.407 444.689 342.407 441.561C342.407 438.423 343.115 436.019 344.53 434.349C345.945 432.67 347.804 431.831 350.106 431.831C352.409 431.831 354.268 432.67 355.683 434.349C357.098 436.019 357.806 438.423 357.806 441.561C357.806 444.689 357.098 447.089 355.683 448.759ZM346.217 447.295C347.228 448.596 348.524 449.247 350.106 449.247C351.688 449.247 352.985 448.596 353.996 447.295C355.006 445.986 355.512 444.07 355.512 441.547C355.512 439.025 355.006 437.113 353.996 435.812C352.985 434.512 351.688 433.861 350.106 433.861C348.524 433.861 347.228 434.512 346.217 435.812C345.207 437.113 344.701 439.025 344.701 441.547C344.701 444.07 345.207 445.986 346.217 447.295ZM359.81 451V448.97L368.313 440.334C369.394 439.253 369.935 438.221 369.935 437.236C369.935 436.155 369.605 435.325 368.946 434.745C368.295 434.156 367.364 433.861 366.151 433.861C365.052 433.861 364.138 434.173 363.409 434.797C362.688 435.413 362.253 436.177 362.104 437.091H359.81C360.1 435.492 360.79 434.217 361.879 433.268C362.969 432.31 364.393 431.831 366.151 431.831C368.023 431.831 369.504 432.323 370.594 433.308C371.684 434.283 372.229 435.593 372.229 437.236C372.229 438.678 371.464 440.159 369.935 441.679L362.776 448.97H372.505V451H359.81ZM381.286 451.264C379.554 451.264 378.091 450.802 376.896 449.879C375.7 448.957 375.006 447.665 374.812 446.003H377.106C377.229 446.935 377.687 447.708 378.478 448.324C379.269 448.939 380.205 449.247 381.286 449.247C382.604 449.247 383.632 448.926 384.371 448.284C385.109 447.643 385.478 446.838 385.478 445.872C385.478 444.896 385.109 444.092 384.371 443.459C383.632 442.817 382.604 442.497 381.286 442.497H379.941V440.611H381.286C382.525 440.611 383.487 440.295 384.173 439.662C384.858 439.029 385.201 438.221 385.201 437.236C385.201 436.243 384.858 435.435 384.173 434.811C383.496 434.178 382.534 433.861 381.286 433.861C380.275 433.861 379.405 434.165 378.675 434.771C377.955 435.369 377.52 436.142 377.37 437.091H375.076C375.349 435.439 376.043 434.151 377.159 433.229C378.275 432.297 379.651 431.831 381.286 431.831C383.21 431.831 384.727 432.336 385.834 433.347C386.941 434.349 387.495 435.646 387.495 437.236C387.495 439.363 386.55 440.756 384.661 441.416C385.654 441.741 386.418 442.303 386.955 443.103C387.5 443.903 387.772 444.826 387.772 445.872C387.772 447.418 387.192 448.706 386.032 449.734C384.88 450.754 383.298 451.264 381.286 451.264Z" fill="#74777F"/>
<rect x="93" y="594" width="1167" height="30" rx="9" fill="#74777F" fill-opacity="0.6"/>
<rect x="93" y="648" width="1167" height="30" rx="9" fill="#74777F" fill-opacity="0.6"/>
<rect x="93" y="702" width="1167" height="30" rx="9" fill="#74777F" fill-opacity="0.6"/>
<rect x="93" y="756" width="1167" height="30" rx="9" fill="#74777F" fill-opacity="0.6"/>
<rect x="93" y="810" width="1167" height="30" rx="9" fill="#74777F" fill-opacity="0.6"/>
<rect x="93" y="864" width="750" height="30" rx="9" fill="#74777F" fill-opacity="0.6"/>
<rect x="1087.5" y="1.5" width="777" height="141" rx="16.5" fill="#212332"/>
<path d="M1132.5 89V62.75H1123.05V59.5918H1145.52V62.75H1136.07V89H1132.5ZM1149.5 97.4082L1152.86 89L1143.82 67.1592H1147.18L1154.32 84.5908H1154.53L1161.46 67.1592H1164.82L1152.86 97.4082H1149.5ZM1167.96 97.4082V67.1592H1170.48L1170.91 70.0918H1171.12C1172.69 67.8496 1175.07 66.7354 1178.25 66.749C1181.06 66.749 1183.33 67.7402 1185.08 69.7227C1186.83 71.7051 1187.71 74.4941 1187.71 78.0898C1187.71 81.6719 1186.83 84.4541 1185.08 86.4365C1183.33 88.4189 1181.06 89.4102 1178.25 89.4102C1175.26 89.4102 1172.95 88.3643 1171.32 86.2725H1171.12V97.4082H1167.96ZM1172.94 84.3037C1174.16 85.7529 1175.79 86.4775 1177.82 86.4775C1179.87 86.4775 1181.51 85.7529 1182.72 84.3037C1183.94 82.8408 1184.55 80.7695 1184.55 78.0898C1184.55 75.3965 1183.94 73.3252 1182.72 71.876C1181.51 70.4131 1179.87 69.6816 1177.82 69.6816C1175.79 69.6816 1174.16 70.4131 1172.94 71.876C1171.72 73.3252 1171.12 75.3965 1171.12 78.0898C1171.12 80.7695 1171.72 82.8408 1172.94 84.3037ZM1201.57 89.4102C1198.55 89.4102 1196.11 88.4189 1194.25 86.4365C1192.4 84.4541 1191.48 81.6719 1191.48 78.0898C1191.48 74.4941 1192.4 71.7051 1194.23 69.7227C1196.06 67.7402 1198.43 66.749 1201.34 66.749C1202.94 66.749 1204.39 67.0635 1205.69 67.6924C1207 68.3213 1208.05 69.1416 1208.83 70.1533C1209.61 71.1514 1210.2 72.2246 1210.61 73.373C1211.02 74.5215 1211.23 75.6699 1211.23 76.8184L1211 78.9102H1194.64C1194.75 81.3438 1195.44 83.2168 1196.71 84.5293C1197.98 85.8281 1199.6 86.4775 1201.57 86.4775C1204.09 86.4775 1205.97 85.4316 1207.23 83.3398H1210.59C1209.87 85.2949 1208.71 86.7988 1207.13 87.8516C1205.56 88.8906 1203.7 89.4102 1201.57 89.4102ZM1194.64 76.1826H1208.07C1207.88 74.1318 1207.17 72.5391 1205.94 71.4043C1204.71 70.2559 1203.18 69.6816 1201.34 69.6816C1199.53 69.6816 1198 70.2559 1196.77 71.4043C1195.54 72.5391 1194.83 74.1318 1194.64 76.1826ZM1241.6 86.4365C1239.76 88.4189 1237.32 89.4102 1234.28 89.4102C1231.26 89.4102 1228.83 88.4189 1226.98 86.4365C1225.13 84.4541 1224.21 81.6719 1224.21 78.0898C1224.21 74.4941 1225.13 71.7051 1226.98 69.7227C1228.83 67.7402 1231.26 66.749 1234.28 66.749C1237.32 66.749 1239.76 67.7402 1241.6 69.7227C1243.45 71.7051 1244.37 74.4941 1244.37 78.0898C1244.37 81.6719 1243.45 84.4541 1241.6 86.4365ZM1229.28 84.2832C1230.55 85.7461 1232.22 86.4775 1234.28 86.4775C1236.36 86.4775 1238.03 85.7461 1239.3 84.2832C1240.59 82.8066 1241.23 80.7422 1241.23 78.0898C1241.23 75.4238 1240.59 73.3594 1239.3 71.8965C1238.03 70.4199 1236.36 69.6816 1234.28 69.6816C1232.22 69.6816 1230.55 70.4199 1229.28 71.8965C1228 73.3594 1227.37 75.4238 1227.37 78.0898C1227.37 80.7422 1228 82.8066 1229.28 84.2832ZM1250.69 89V70.0918H1247.32V67.1592H1250.69V65.0674C1250.69 63.4951 1251.21 62.1895 1252.25 61.1504C1253.28 60.1113 1254.58 59.5918 1256.14 59.5918H1259.5V62.5449H1256.37C1255.64 62.5449 1255.04 62.7842 1254.56 63.2627C1254.08 63.7275 1253.84 64.3291 1253.84 65.0674V67.1592H1259.5V70.0918H1253.84V89H1250.69ZM1272.51 97.4082V67.1592H1275.03L1275.46 70.0918H1275.67C1277.24 67.8496 1279.62 66.7354 1282.8 66.749C1285.6 66.749 1287.88 67.7402 1289.63 69.7227C1291.38 71.7051 1292.26 74.4941 1292.26 78.0898C1292.26 81.6719 1291.38 84.4541 1289.63 86.4365C1287.88 88.4189 1285.6 89.4102 1282.8 89.4102C1279.81 89.4102 1277.5 88.3643 1275.87 86.2725H1275.67V97.4082H1272.51ZM1277.49 84.3037C1278.71 85.7529 1280.33 86.4775 1282.37 86.4775C1284.42 86.4775 1286.06 85.7529 1287.27 84.3037C1288.49 82.8408 1289.1 80.7695 1289.1 78.0898C1289.1 75.3965 1288.49 73.3252 1287.27 71.876C1286.06 70.4131 1284.42 69.6816 1282.37 69.6816C1280.33 69.6816 1278.71 70.4131 1277.49 71.876C1276.27 73.3252 1275.67 75.3965 1275.67 78.0898C1275.67 80.7695 1276.27 82.8408 1277.49 84.3037ZM1297.08 89V67.1592H1299.6L1300.03 70.0918H1300.23C1301.41 68.1367 1303.37 67.1592 1306.12 67.1592H1308.42V70.0918H1306.12C1304.44 70.0918 1303.04 70.6113 1301.92 71.6504C1300.79 72.6895 1300.23 73.9951 1300.23 75.5674V89H1297.08ZM1327.49 86.4365C1325.64 88.4189 1323.2 89.4102 1320.17 89.4102C1317.15 89.4102 1314.71 88.4189 1312.87 86.4365C1311.02 84.4541 1310.1 81.6719 1310.1 78.0898C1310.1 74.4941 1311.02 71.7051 1312.87 69.7227C1314.71 67.7402 1317.15 66.749 1320.17 66.749C1323.2 66.749 1325.64 67.7402 1327.49 69.7227C1329.33 71.7051 1330.26 74.4941 1330.26 78.0898C1330.26 81.6719 1329.33 84.4541 1327.49 86.4365ZM1315.16 84.2832C1316.43 85.7461 1318.1 86.4775 1320.17 86.4775C1322.25 86.4775 1323.92 85.7461 1325.19 84.2832C1326.48 82.8066 1327.12 80.7422 1327.12 78.0898C1327.12 75.4238 1326.48 73.3594 1325.19 71.8965C1323.92 70.4199 1322.25 69.6816 1320.17 69.6816C1318.1 69.6816 1316.43 70.4199 1315.16 71.8965C1313.89 73.3594 1313.26 75.4238 1313.26 78.0898C1313.26 80.7422 1313.89 82.8066 1315.16 84.2832ZM1335.1 89V67.1592H1337.62L1338.05 70.0918H1338.25C1339.57 67.8496 1341.53 66.7354 1344.14 66.749C1345.51 66.749 1346.74 67.0977 1347.83 67.7949C1348.93 68.4922 1349.79 69.4697 1350.44 70.7275H1350.64C1352.06 68.0615 1354.37 66.7354 1357.57 66.749C1359.73 66.749 1361.53 67.5557 1362.97 69.1689C1364.42 70.7686 1365.14 72.9014 1365.14 75.5674V89H1361.98V75.5674C1361.98 73.7217 1361.52 72.2793 1360.59 71.2402C1359.67 70.2012 1358.46 69.6816 1356.94 69.6816C1355.45 69.6816 1354.2 70.2422 1353.18 71.3633C1352.19 72.4844 1351.69 73.8857 1351.69 75.5674V89H1348.55V75.5674C1348.55 73.7217 1348.08 72.2793 1347.16 71.2402C1346.24 70.2012 1345.02 69.6816 1343.5 69.6816C1342.11 69.6816 1340.89 70.249 1339.83 71.3838C1338.78 72.5186 1338.25 73.9131 1338.25 75.5674V89H1335.1ZM1370.78 97.4082V67.1592H1373.3L1373.73 70.0918H1373.94C1375.51 67.8496 1377.89 66.7354 1381.08 66.749C1383.88 66.749 1386.15 67.7402 1387.9 69.7227C1389.65 71.7051 1390.53 74.4941 1390.53 78.0898C1390.53 81.6719 1389.65 84.4541 1387.9 86.4365C1386.15 88.4189 1383.88 89.4102 1381.08 89.4102C1378.08 89.4102 1375.77 88.3643 1374.14 86.2725H1373.94V97.4082H1370.78ZM1375.76 84.3037C1376.98 85.7529 1378.61 86.4775 1380.64 86.4775C1382.7 86.4775 1384.33 85.7529 1385.55 84.3037C1386.76 82.8408 1387.37 80.7695 1387.37 78.0898C1387.37 75.3965 1386.76 73.3252 1385.55 71.876C1384.33 70.4131 1382.7 69.6816 1380.64 69.6816C1378.61 69.6816 1376.98 70.4131 1375.76 71.876C1374.55 73.3252 1373.94 75.3965 1373.94 78.0898C1373.94 80.7695 1374.55 82.8408 1375.76 84.3037ZM1402.28 89C1400.71 89 1399.4 88.4805 1398.36 87.4414C1397.34 86.4023 1396.83 85.1035 1396.83 83.5449V70.0918H1393.46V67.1592H1396.83L1397.26 61.2734H1399.98V67.1592H1405.64V70.0918H1399.98V83.5449C1399.98 84.2695 1400.22 84.8711 1400.68 85.3496C1401.16 85.8281 1401.77 86.0674 1402.51 86.0674H1405.64V89H1402.28Z" fill="white" fill-opacity="0.6"/>
<path d="M1794 66L1806 78L1818 66" stroke="#94A3B8" stroke-width="4" stroke-linecap="round" stroke-linejoin="round"/>
<rect x="1087.5" y="1.5" width="777" height="141" rx="16.5" stroke="#CBD5E1" stroke-width="3"/>
<rect x="1086" y="156" width="780" height="372" rx="18" fill="#040711"/>
<path d="M1141.77 271.001H1150.39C1151.75 271.001 1152.86 270.604 1153.71 269.812C1154.57 269.019 1155 267.952 1155 266.612C1155 265.259 1154.57 264.186 1153.71 263.393C1152.86 262.586 1151.75 262.183 1150.39 262.183H1141.77V271.001ZM1137.36 275V245.592H1150.26C1153.04 245.592 1155.18 246.323 1156.7 247.786C1158.23 249.235 1159 251.238 1159 253.795C1159 255.217 1158.65 256.488 1157.95 257.609C1157.27 258.73 1156.35 259.558 1155.21 260.091C1156.44 260.651 1157.44 261.526 1158.22 262.716C1159.01 263.905 1159.41 265.272 1159.41 266.817C1159.41 269.36 1158.64 271.363 1157.11 272.826C1155.59 274.275 1153.45 275 1150.67 275H1137.36ZM1141.77 258.409H1149.96C1151.32 258.409 1152.44 258.013 1153.3 257.22C1154.16 256.413 1154.59 255.34 1154.59 254C1154.59 252.66 1154.16 251.594 1153.3 250.801C1152.45 249.994 1151.34 249.591 1149.96 249.591H1141.77V258.409ZM1172.43 275.41C1170 275.41 1168.02 274.59 1166.5 272.949C1165 271.295 1164.25 269.107 1164.25 266.387V252.749H1168.25V266.182C1168.25 267.918 1168.71 269.265 1169.62 270.222C1170.55 271.165 1171.77 271.637 1173.27 271.637C1174.82 271.637 1176.12 271.097 1177.17 270.017C1178.22 268.937 1178.75 267.658 1178.75 266.182V252.749H1182.73V275H1179.59L1178.95 272.067H1178.75C1177.37 274.296 1175.26 275.41 1172.43 275.41ZM1188.41 275V245.592H1192.41V275H1188.41ZM1198.29 275V245.592H1202.29V275H1198.29ZM1217.43 275.41C1214.24 275.41 1211.69 274.392 1209.78 272.354C1207.88 270.304 1206.93 267.474 1206.93 263.864C1206.93 260.255 1207.86 257.432 1209.74 255.395C1211.61 253.344 1214.1 252.318 1217.22 252.318C1220.38 252.318 1222.88 253.385 1224.73 255.518C1226.57 257.637 1227.5 260.07 1227.5 262.818L1227.29 265.136H1211.09C1211.2 267.214 1211.83 268.82 1212.98 269.955C1214.12 271.076 1215.61 271.637 1217.43 271.637C1219.72 271.637 1221.47 270.728 1222.68 268.909H1227.08C1226.33 270.864 1225.12 272.437 1223.43 273.626C1221.75 274.815 1219.75 275.41 1217.43 275.41ZM1211.09 261.772H1223.39C1223.15 259.981 1222.48 258.587 1221.38 257.589C1220.29 256.591 1218.9 256.092 1217.22 256.092C1215.54 256.092 1214.15 256.591 1213.06 257.589C1211.96 258.587 1211.31 259.981 1211.09 261.772ZM1239.49 275C1237.73 275 1236.31 274.453 1235.23 273.359C1234.15 272.266 1233.61 270.851 1233.61 269.114V256.522H1230.04V252.749H1233.61L1234.24 246.863H1237.61V252.749H1243.06V256.522H1237.61V268.704C1237.61 269.456 1237.8 270.064 1238.2 270.529C1238.61 270.994 1239.18 271.227 1239.9 271.227H1243.06V275H1239.49ZM1256.7 283.408V252.749H1259.86L1260.47 255.682H1260.7C1262.43 253.439 1264.74 252.318 1267.63 252.318C1270.46 252.318 1272.74 253.33 1274.46 255.354C1276.19 257.363 1277.06 260.207 1277.06 263.885C1277.06 267.549 1276.19 270.386 1274.46 272.396C1272.72 274.405 1270.45 275.41 1267.63 275.41C1264.72 275.41 1262.47 274.364 1260.9 272.272H1260.7V283.408H1256.7ZM1266.99 271.637C1268.84 271.637 1270.32 270.98 1271.42 269.668C1272.53 268.355 1273.08 266.428 1273.08 263.885C1273.08 261.328 1272.53 259.394 1271.42 258.081C1270.32 256.755 1268.84 256.092 1266.99 256.092C1265.12 256.092 1263.6 256.762 1262.44 258.102C1261.28 259.428 1260.7 261.355 1260.7 263.885C1260.7 266.4 1261.28 268.321 1262.44 269.647C1263.6 270.974 1265.12 271.637 1266.99 271.637ZM1298.19 272.354C1296.31 274.392 1293.82 275.41 1290.7 275.41C1287.6 275.41 1285.11 274.392 1283.24 272.354C1281.36 270.304 1280.43 267.474 1280.43 263.864C1280.43 260.255 1281.36 257.432 1283.24 255.395C1285.11 253.344 1287.6 252.318 1290.7 252.318C1293.82 252.318 1296.31 253.344 1298.19 255.395C1300.06 257.432 1301 260.255 1301 263.864C1301 267.474 1300.06 270.304 1298.19 272.354ZM1286.15 269.647C1287.31 270.974 1288.83 271.637 1290.7 271.637C1292.59 271.637 1294.11 270.974 1295.27 269.647C1296.44 268.321 1297.02 266.4 1297.02 263.885C1297.02 261.355 1296.44 259.428 1295.27 258.102C1294.11 256.762 1292.59 256.092 1290.7 256.092C1288.83 256.092 1287.31 256.762 1286.15 258.102C1284.99 259.428 1284.4 261.355 1284.4 263.885C1284.4 266.4 1284.99 268.321 1286.15 269.647ZM1305.42 275V252.749H1309.42V275H1305.42ZM1307.43 250.227C1306.66 250.227 1306.02 249.98 1305.53 249.488C1305.04 248.996 1304.79 248.374 1304.79 247.622C1304.79 246.843 1305.04 246.207 1305.53 245.715C1306.02 245.223 1306.66 244.977 1307.43 244.977C1308.19 244.977 1308.81 245.223 1309.3 245.715C1309.79 246.193 1310.04 246.829 1310.04 247.622C1310.04 248.374 1309.79 248.996 1309.3 249.488C1308.81 249.98 1308.19 250.227 1307.43 250.227ZM1314.86 275V252.749H1318.02L1318.63 255.682H1318.86C1320.22 253.439 1322.32 252.318 1325.15 252.318C1327.59 252.318 1329.56 253.146 1331.06 254.8C1332.58 256.454 1333.34 258.635 1333.34 261.342V275H1329.36V261.567C1329.36 259.831 1328.89 258.484 1327.96 257.527C1327.05 256.57 1325.83 256.092 1324.31 256.092C1322.77 256.092 1321.47 256.632 1320.42 257.712C1319.38 258.792 1318.86 260.077 1318.86 261.567V275H1314.86ZM1346.17 275C1344.41 275 1342.99 274.453 1341.91 273.359C1340.83 272.266 1340.29 270.851 1340.29 269.114V256.522H1336.72V252.749H1340.29L1340.92 246.863H1344.29V252.749H1349.74V256.522H1344.29V268.704C1344.29 269.456 1344.49 270.064 1344.88 270.529C1345.29 270.994 1345.86 271.227 1346.58 271.227H1349.74V275H1346.17ZM1361.1 275.41C1358.75 275.41 1356.76 274.809 1355.14 273.605C1353.51 272.402 1352.48 270.837 1352.06 268.909H1356.47C1357.03 270.728 1358.57 271.637 1361.1 271.637C1362.7 271.637 1363.91 271.377 1364.71 270.857C1365.52 270.338 1365.92 269.688 1365.92 268.909C1365.92 268.157 1365.6 267.556 1364.96 267.104C1364.32 266.653 1363.51 266.339 1362.54 266.161C1361.58 265.983 1360.54 265.744 1359.42 265.443C1358.3 265.129 1357.25 264.773 1356.28 264.377C1355.31 263.98 1354.51 263.311 1353.86 262.367C1353.22 261.41 1352.9 260.234 1352.9 258.84C1352.9 256.994 1353.62 255.449 1355.05 254.205C1356.5 252.947 1358.44 252.318 1360.88 252.318C1363.15 252.318 1365.08 252.879 1366.68 254C1368.28 255.121 1369.29 256.591 1369.7 258.409H1365.29C1364.51 256.864 1363.04 256.092 1360.88 256.092C1358.21 256.092 1356.89 257.008 1356.9 258.84C1356.9 259.592 1357.22 260.2 1357.86 260.665C1358.51 261.116 1359.31 261.438 1360.26 261.629C1361.23 261.807 1362.28 262.06 1363.4 262.388C1364.52 262.702 1365.56 263.058 1366.52 263.454C1367.49 263.837 1368.29 264.5 1368.94 265.443C1369.59 266.387 1369.92 267.542 1369.92 268.909C1369.92 270.755 1369.14 272.3 1367.56 273.544C1366 274.788 1363.85 275.41 1361.1 275.41ZM1385.65 275L1379.36 252.749H1383.35L1388.17 269.75H1388.4L1392.81 252.749H1397.22L1401.63 269.75H1401.83L1406.65 252.749H1410.65L1404.35 275H1399.51L1395.11 258.84H1394.9L1390.49 275H1385.65ZM1413.58 275V252.749H1417.58V275H1413.58ZM1415.59 250.227C1414.81 250.227 1414.18 249.98 1413.69 249.488C1413.19 248.996 1412.95 248.374 1412.95 247.622C1412.95 246.843 1413.19 246.207 1413.69 245.715C1414.18 245.223 1414.81 244.977 1415.59 244.977C1416.34 244.977 1416.97 245.223 1417.46 245.715C1417.95 246.193 1418.2 246.829 1418.2 247.622C1418.2 248.374 1417.95 248.996 1417.46 249.488C1416.97 249.98 1416.34 250.227 1415.59 250.227ZM1430.58 275C1428.82 275 1427.4 274.453 1426.32 273.359C1425.24 272.266 1424.7 270.851 1424.7 269.114V256.522H1421.13V252.749H1424.7L1425.33 246.863H1428.7V252.749H1434.15V256.522H1428.7V268.704C1428.7 269.456 1428.9 270.064 1429.29 270.529C1429.7 270.994 1430.27 271.227 1430.99 271.227H1434.15V275H1430.58ZM1438.77 275V245.592H1442.77V255.477H1442.97C1443.59 254.465 1444.44 253.686 1445.53 253.139C1446.63 252.592 1447.8 252.318 1449.06 252.318C1451.5 252.318 1453.46 253.146 1454.97 254.8C1456.49 256.454 1457.24 258.635 1457.24 261.342V275H1453.27V261.567C1453.27 259.831 1452.8 258.484 1451.87 257.527C1450.96 256.57 1449.74 256.092 1448.22 256.092C1446.68 256.092 1445.38 256.632 1444.32 257.712C1443.29 258.792 1442.77 260.077 1442.77 261.567V275H1438.77ZM1479.11 275.41C1476.75 275.41 1474.76 274.809 1473.14 273.605C1471.51 272.402 1470.49 270.837 1470.06 268.909H1474.47C1475.03 270.728 1476.58 271.637 1479.11 271.637C1480.71 271.637 1481.91 271.377 1482.71 270.857C1483.52 270.338 1483.92 269.688 1483.92 268.909C1483.92 268.157 1483.6 267.556 1482.96 267.104C1482.32 266.653 1481.51 266.339 1480.54 266.161C1479.58 265.983 1478.54 265.744 1477.42 265.443C1476.3 265.129 1475.26 264.773 1474.29 264.377C1473.32 263.98 1472.51 263.311 1471.87 262.367C1471.22 261.41 1470.9 260.234 1470.9 258.84C1470.9 256.994 1471.62 255.449 1473.06 254.205C1474.5 252.947 1476.45 252.318 1478.88 252.318C1481.15 252.318 1483.08 252.879 1484.68 254C1486.28 255.121 1487.29 256.591 1487.7 258.409H1483.29C1482.51 256.864 1481.04 256.092 1478.88 256.092C1476.21 256.092 1474.89 257.008 1474.9 258.84C1474.9 259.592 1475.22 260.2 1475.87 260.665C1476.51 261.116 1477.31 261.438 1478.26 261.629C1479.24 261.807 1480.28 262.06 1481.4 262.388C1482.52 262.702 1483.56 263.058 1484.52 263.454C1485.49 263.837 1486.3 264.5 1486.94 265.443C1487.6 266.387 1487.92 267.542 1487.92 268.909C1487.92 270.755 1487.14 272.3 1485.57 273.544C1484.01 274.788 1481.85 275.41 1479.11 275.41ZM1500.11 275.41C1497.67 275.41 1495.7 274.59 1494.18 272.949C1492.67 271.295 1491.92 269.107 1491.92 266.387V252.749H1495.92V266.182C1495.92 267.918 1496.38 269.265 1497.3 270.222C1498.23 271.165 1499.44 271.637 1500.95 271.637C1502.49 271.637 1503.79 271.097 1504.84 270.017C1505.9 268.937 1506.42 267.658 1506.42 266.182V252.749H1510.4V275H1507.26L1506.63 272.067H1506.42C1505.04 274.296 1502.94 275.41 1500.11 275.41ZM1515.88 275V252.749H1519.03L1519.65 255.682H1519.88C1521.3 253.439 1523.18 252.318 1525.54 252.318C1527.05 252.318 1528.34 252.688 1529.41 253.426C1530.49 254.15 1531.3 255.114 1531.83 256.317H1532.06C1532.7 255.114 1533.62 254.15 1534.83 253.426C1536.03 252.688 1537.42 252.318 1538.99 252.318C1541.26 252.318 1543.12 253.132 1544.57 254.759C1546.02 256.386 1546.74 258.58 1546.74 261.342V275H1542.76V261.567C1542.76 259.831 1542.34 258.484 1541.49 257.527C1540.66 256.57 1539.54 256.092 1538.15 256.092C1536.83 256.092 1535.7 256.598 1534.74 257.609C1533.79 258.621 1533.31 259.94 1533.31 261.567V275H1529.31V261.567C1529.31 259.831 1528.89 258.484 1528.06 257.527C1527.22 256.57 1526.1 256.092 1524.69 256.092C1523.38 256.092 1522.25 256.598 1521.29 257.609C1520.35 258.621 1519.88 259.94 1519.88 261.567V275H1515.88ZM1552.01 275V252.749H1555.17L1555.78 255.682H1556.01C1557.43 253.439 1559.32 252.318 1561.67 252.318C1563.19 252.318 1564.48 252.688 1565.55 253.426C1566.63 254.15 1567.43 255.114 1567.97 256.317H1568.19C1568.83 255.114 1569.76 254.15 1570.96 253.426C1572.16 252.688 1573.55 252.318 1575.12 252.318C1577.39 252.318 1579.25 253.132 1580.7 254.759C1582.15 256.386 1582.88 258.58 1582.88 261.342V275H1578.9V261.567C1578.9 259.831 1578.47 258.484 1577.62 257.527C1576.79 256.57 1575.68 256.092 1574.28 256.092C1572.97 256.092 1571.83 256.598 1570.88 257.609C1569.92 258.621 1569.44 259.94 1569.44 261.567V275H1565.44V261.567C1565.44 259.831 1565.03 258.484 1564.19 257.527C1563.36 256.57 1562.24 256.092 1560.83 256.092C1559.52 256.092 1558.38 256.598 1557.42 257.609C1556.48 258.621 1556.01 259.94 1556.01 261.567V275H1552.01ZM1595.08 271.842C1596.92 271.842 1598.4 271.336 1599.51 270.324C1600.61 269.299 1601.17 267.986 1601.17 266.387V265.136H1595.28C1593.83 265.136 1592.73 265.437 1591.98 266.038C1591.24 266.64 1590.87 267.46 1590.87 268.499C1590.87 269.524 1591.24 270.338 1591.98 270.939C1592.73 271.541 1593.76 271.842 1595.08 271.842ZM1594.44 275.41C1592.2 275.41 1590.38 274.74 1588.99 273.4C1587.59 272.061 1586.89 270.427 1586.89 268.499C1586.89 266.517 1587.63 264.869 1589.11 263.557C1590.6 262.23 1592.66 261.567 1595.28 261.567H1601.17V260.501C1601.17 259.134 1600.73 258.061 1599.86 257.281C1598.99 256.488 1597.82 256.092 1596.33 256.092C1595.12 256.092 1594.15 256.352 1593.4 256.871C1592.64 257.391 1592.15 258.047 1591.92 258.84H1587.74C1588.16 256.994 1589.16 255.449 1590.73 254.205C1592.32 252.947 1594.18 252.318 1596.33 252.318C1599.1 252.318 1601.27 253.07 1602.83 254.574C1604.39 256.064 1605.17 258.04 1605.17 260.501V275H1601.8L1601.37 272.272H1601.17C1600.69 273.079 1599.84 273.804 1598.62 274.446C1597.41 275.089 1596.01 275.41 1594.44 275.41ZM1610.42 275V252.749H1613.58L1614.19 255.682H1614.42C1615.59 253.727 1617.48 252.749 1620.08 252.749H1622.6V256.522H1620.28C1618.52 256.522 1617.1 257.035 1616.02 258.061C1614.95 259.072 1614.42 260.378 1614.42 261.978V275H1610.42ZM1628.89 283.408L1632.26 275L1623.23 252.749H1627.44L1634.14 269.75H1634.37L1641.08 252.749H1645.28L1633.1 283.408H1628.89Z" fill="white"/>
<rect x="1110" y="360" width="732" height="132" rx="15" fill="#33415B"/>
<path d="M1174 414L1152 436L1142 426" stroke="white" stroke-width="4" stroke-linecap="round" stroke-linejoin="round"/>
<path d="M1209.36 443V413.592H1221.11C1223.94 413.592 1226.23 414.419 1227.96 416.073C1229.7 417.728 1230.57 419.915 1230.57 422.636C1230.57 424.058 1230.33 425.35 1229.85 426.512C1229.37 427.674 1228.75 428.604 1227.98 429.301C1227.22 429.984 1226.43 430.524 1225.63 430.921C1224.83 431.304 1224.03 431.55 1223.23 431.659L1231.2 443H1226.16L1218.18 431.659H1213.77V443H1209.36ZM1213.77 427.66H1220.7C1222.39 427.66 1223.71 427.216 1224.68 426.327C1225.67 425.425 1226.16 424.194 1226.16 422.636C1226.16 421.063 1225.67 419.833 1224.68 418.944C1223.71 418.042 1222.39 417.591 1220.7 417.591H1213.77V427.66ZM1244.19 443.41C1241 443.41 1238.45 442.392 1236.54 440.354C1234.64 438.304 1233.69 435.474 1233.69 431.864C1233.69 428.255 1234.62 425.432 1236.5 423.395C1238.37 421.344 1240.86 420.318 1243.98 420.318C1247.14 420.318 1249.64 421.385 1251.49 423.518C1253.33 425.637 1254.25 428.07 1254.25 430.818L1254.05 433.136H1237.85C1237.96 435.214 1238.59 436.82 1239.74 437.955C1240.88 439.076 1242.37 439.637 1244.19 439.637C1246.48 439.637 1248.23 438.728 1249.44 436.909H1253.84C1253.09 438.864 1251.88 440.437 1250.19 441.626C1248.51 442.815 1246.51 443.41 1244.19 443.41ZM1237.85 429.772H1250.15C1249.91 427.981 1249.24 426.587 1248.14 425.589C1247.05 424.591 1245.66 424.092 1243.98 424.092C1242.3 424.092 1240.91 424.591 1239.82 425.589C1238.72 426.587 1238.07 427.981 1237.85 429.772ZM1260.37 443V424.522H1256.8V420.749H1260.37V419.067C1260.37 417.276 1260.9 415.848 1261.97 414.781C1263.03 413.715 1264.46 413.182 1266.25 413.182H1269.82V416.955H1266.66C1265.94 416.955 1265.37 417.167 1264.96 417.591C1264.56 418.015 1264.37 418.575 1264.37 419.272V420.749H1277.37V443H1273.39V424.522H1264.37V443H1260.37ZM1275.4 418.227C1274.62 418.227 1273.98 417.98 1273.49 417.488C1273 416.996 1272.75 416.374 1272.75 415.622C1272.75 414.843 1273 414.207 1273.49 413.715C1273.98 413.223 1274.62 412.977 1275.4 412.977C1276.15 412.977 1276.77 413.223 1277.26 413.715C1277.76 414.193 1278 414.829 1278 415.622C1278 416.374 1277.76 416.996 1277.26 417.488C1276.77 417.98 1276.15 418.227 1275.4 418.227ZM1282.84 443V420.749H1286L1286.62 423.682H1286.84C1288.21 421.439 1290.31 420.318 1293.14 420.318C1295.57 420.318 1297.54 421.146 1299.04 422.8C1300.56 424.454 1301.32 426.635 1301.32 429.342V443H1297.34V429.567C1297.34 427.831 1296.88 426.484 1295.95 425.527C1295.03 424.57 1293.81 424.092 1292.3 424.092C1290.75 424.092 1289.45 424.632 1288.4 425.712C1287.36 426.792 1286.84 428.077 1286.84 429.567V443H1282.84ZM1316.04 443.41C1312.86 443.41 1310.31 442.392 1308.4 440.354C1306.5 438.304 1305.54 435.474 1305.54 431.864C1305.54 428.255 1306.48 425.432 1308.35 423.395C1310.23 421.344 1312.72 420.318 1315.84 420.318C1319 420.318 1321.5 421.385 1323.35 423.518C1325.19 425.637 1326.11 428.07 1326.11 430.818L1325.91 433.136H1309.71C1309.82 435.214 1310.45 436.82 1311.59 437.955C1312.74 439.076 1314.23 439.637 1316.04 439.637C1318.34 439.637 1320.09 438.728 1321.29 436.909H1325.7C1324.95 438.864 1323.74 440.437 1322.05 441.626C1320.37 442.815 1318.37 443.41 1316.04 443.41ZM1309.71 429.772H1322.01C1321.77 427.981 1321.1 426.587 1320 425.589C1318.91 424.591 1317.52 424.092 1315.84 424.092C1314.16 424.092 1312.77 424.591 1311.68 425.589C1310.58 426.587 1309.93 427.981 1309.71 429.772ZM1339.77 443V420.749H1342.93L1343.55 423.682H1343.77C1345.19 421.439 1347.08 420.318 1349.43 420.318C1350.95 420.318 1352.24 420.688 1353.31 421.426C1354.39 422.15 1355.19 423.114 1355.73 424.317H1355.95C1356.6 423.114 1357.52 422.15 1358.72 421.426C1359.92 420.688 1361.31 420.318 1362.88 420.318C1365.15 420.318 1367.01 421.132 1368.46 422.759C1369.91 424.386 1370.64 426.58 1370.64 429.342V443H1366.66V429.567C1366.66 427.831 1366.23 426.484 1365.39 425.527C1364.55 424.57 1363.44 424.092 1362.04 424.092C1360.73 424.092 1359.6 424.598 1358.64 425.609C1357.68 426.621 1357.2 427.94 1357.2 429.567V443H1353.21V429.567C1353.21 427.831 1352.79 426.484 1351.95 425.527C1351.12 424.57 1350 424.092 1348.59 424.092C1347.28 424.092 1346.14 424.598 1345.19 425.609C1344.24 426.621 1343.77 427.94 1343.77 429.567V443H1339.77ZM1378.43 451.408L1381.79 443L1372.77 420.749H1376.97L1383.68 437.75H1383.91L1390.61 420.749H1394.82L1382.63 451.408H1378.43ZM1408.02 443L1401.73 420.749H1405.73L1410.54 437.75H1410.77L1415.18 420.749H1419.59L1424 437.75H1424.2L1429.02 420.749H1433.02L1426.73 443H1421.89L1417.48 426.84H1417.27L1412.86 443H1408.02ZM1452.26 440.354C1450.38 442.392 1447.89 443.41 1444.77 443.41C1441.67 443.41 1439.18 442.392 1437.31 440.354C1435.43 438.304 1434.5 435.474 1434.5 431.864C1434.5 428.255 1435.43 425.432 1437.31 423.395C1439.18 421.344 1441.67 420.318 1444.77 420.318C1447.89 420.318 1450.38 421.344 1452.26 423.395C1454.13 425.432 1455.07 428.255 1455.07 431.864C1455.07 435.474 1454.13 438.304 1452.26 440.354ZM1440.22 437.647C1441.38 438.974 1442.9 439.637 1444.77 439.637C1446.66 439.637 1448.18 438.974 1449.35 437.647C1450.51 436.321 1451.09 434.4 1451.09 431.885C1451.09 429.355 1450.51 427.428 1449.35 426.102C1448.18 424.762 1446.66 424.092 1444.77 424.092C1442.9 424.092 1441.38 424.762 1440.22 426.102C1439.06 427.428 1438.48 429.355 1438.48 431.885C1438.48 434.4 1439.06 436.321 1440.22 437.647ZM1459.5 443V420.749H1462.66L1463.27 423.682H1463.5C1464.67 421.727 1466.56 420.749 1469.16 420.749H1471.68V424.522H1469.36C1467.6 424.522 1466.18 425.035 1465.1 426.061C1464.03 427.072 1463.5 428.378 1463.5 429.978V443H1459.5ZM1483.2 439.637C1485.08 439.637 1486.59 438.974 1487.76 437.647C1488.93 436.321 1489.52 434.4 1489.52 431.885C1489.52 429.355 1488.94 427.428 1487.78 426.102C1486.62 424.762 1485.09 424.092 1483.2 424.092C1481.36 424.092 1479.88 424.755 1478.77 426.081C1477.67 427.394 1477.11 429.328 1477.11 431.885C1477.11 434.428 1477.67 436.355 1478.77 437.668C1479.88 438.98 1481.36 439.637 1483.2 439.637ZM1482.59 443.41C1479.76 443.41 1477.48 442.405 1475.74 440.396C1474 438.386 1473.13 435.542 1473.13 431.864C1473.13 428.173 1474.02 425.329 1475.78 423.333C1477.54 421.323 1479.88 420.318 1482.79 420.318C1485.57 420.318 1487.74 421.371 1489.29 423.477H1489.52V413.592H1493.5V443H1490.36L1489.73 440.067H1489.52C1487.78 442.296 1485.47 443.41 1482.59 443.41ZM1506.52 443.41C1504.17 443.41 1502.18 442.809 1500.55 441.605C1498.93 440.402 1497.9 438.837 1497.48 436.909H1501.89C1502.45 438.728 1503.99 439.637 1506.52 439.637C1508.12 439.637 1509.32 439.377 1510.13 438.857C1510.94 438.338 1511.34 437.688 1511.34 436.909C1511.34 436.157 1511.02 435.556 1510.38 435.104C1509.73 434.653 1508.93 434.339 1507.96 434.161C1507 433.983 1505.96 433.744 1504.84 433.443C1503.72 433.129 1502.67 432.773 1501.7 432.377C1500.73 431.98 1499.92 431.311 1499.28 430.367C1498.64 429.41 1498.32 428.234 1498.32 426.84C1498.32 424.994 1499.04 423.449 1500.47 422.205C1501.92 420.947 1503.86 420.318 1506.3 420.318C1508.57 420.318 1510.5 420.879 1512.1 422C1513.7 423.121 1514.7 424.591 1515.11 426.409H1510.71C1509.93 424.864 1508.46 424.092 1506.3 424.092C1503.63 424.092 1502.3 425.008 1502.32 426.84C1502.32 427.592 1502.64 428.2 1503.28 428.665C1503.92 429.116 1504.72 429.438 1505.68 429.629C1506.65 429.807 1507.7 430.06 1508.82 430.388C1509.94 430.702 1510.98 431.058 1511.94 431.454C1512.91 431.837 1513.71 432.5 1514.36 433.443C1515.01 434.387 1515.34 435.542 1515.34 436.909C1515.34 438.755 1514.55 440.3 1512.98 441.544C1511.42 442.788 1509.27 443.41 1506.52 443.41ZM1535.5 439.842C1537.34 439.842 1538.82 439.336 1539.93 438.324C1541.04 437.299 1541.59 435.986 1541.59 434.387V433.136H1535.7C1534.25 433.136 1533.15 433.437 1532.4 434.038C1531.66 434.64 1531.29 435.46 1531.29 436.499C1531.29 437.524 1531.66 438.338 1532.4 438.939C1533.15 439.541 1534.19 439.842 1535.5 439.842ZM1534.86 443.41C1532.62 443.41 1530.8 442.74 1529.41 441.4C1528.01 440.061 1527.32 438.427 1527.32 436.499C1527.32 434.517 1528.05 432.869 1529.53 431.557C1531.02 430.23 1533.08 429.567 1535.7 429.567H1541.59V428.501C1541.59 427.134 1541.15 426.061 1540.28 425.281C1539.42 424.488 1538.24 424.092 1536.75 424.092C1535.55 424.092 1534.57 424.352 1533.82 424.871C1533.07 425.391 1532.57 426.047 1532.34 426.84H1528.16C1528.58 424.994 1529.58 423.449 1531.15 422.205C1532.74 420.947 1534.6 420.318 1536.75 420.318C1539.53 420.318 1541.69 421.07 1543.25 422.574C1544.81 424.064 1545.59 426.04 1545.59 428.501V443H1542.23L1541.79 440.272H1541.59C1541.11 441.079 1540.26 441.804 1539.05 442.446C1537.83 443.089 1536.44 443.41 1534.86 443.41ZM1550.84 443V420.749H1554L1554.61 423.682H1554.84C1556.21 421.439 1558.3 420.318 1561.13 420.318C1563.57 420.318 1565.54 421.146 1567.04 422.8C1568.56 424.454 1569.32 426.635 1569.32 429.342V443H1565.34V429.567C1565.34 427.831 1564.87 426.484 1563.94 425.527C1563.03 424.57 1561.81 424.092 1560.29 424.092C1558.75 424.092 1557.45 424.632 1556.4 425.712C1555.36 426.792 1554.84 428.077 1554.84 429.567V443H1550.84ZM1583.61 439.637C1585.48 439.637 1587 438.974 1588.16 437.647C1589.34 436.321 1589.93 434.4 1589.93 431.885C1589.93 429.355 1589.35 427.428 1588.18 426.102C1587.02 424.762 1585.5 424.092 1583.61 424.092C1581.76 424.092 1580.29 424.755 1579.18 426.081C1578.07 427.394 1577.52 429.328 1577.52 431.885C1577.52 434.428 1578.07 436.355 1579.18 437.668C1580.29 438.98 1581.76 439.637 1583.61 439.637ZM1583 443.41C1580.17 443.41 1577.88 442.405 1576.15 440.396C1574.41 438.386 1573.54 435.542 1573.54 431.864C1573.54 428.173 1574.42 425.329 1576.19 423.333C1577.95 421.323 1580.29 420.318 1583.2 420.318C1585.98 420.318 1588.14 421.371 1589.7 423.477H1589.93V413.592H1593.91V443H1590.77L1590.13 440.067H1589.93C1588.19 442.296 1585.88 443.41 1583 443.41ZM1608.79 451.408V420.749H1611.95L1612.57 423.682H1612.79C1614.53 421.439 1616.84 420.318 1619.72 420.318C1622.55 420.318 1624.83 421.33 1626.55 423.354C1628.29 425.363 1629.16 428.207 1629.16 431.885C1629.16 435.549 1628.29 438.386 1626.55 440.396C1624.82 442.405 1622.54 443.41 1619.72 443.41C1616.81 443.41 1614.57 442.364 1613 440.272H1612.79V451.408H1608.79ZM1619.09 439.637C1620.93 439.637 1622.41 438.98 1623.52 437.668C1624.63 436.355 1625.18 434.428 1625.18 431.885C1625.18 429.328 1624.63 427.394 1623.52 426.081C1622.41 424.755 1620.93 424.092 1619.09 424.092C1617.22 424.092 1615.7 424.762 1614.54 426.102C1613.37 427.428 1612.79 429.355 1612.79 431.885C1612.79 434.4 1613.37 436.321 1614.54 437.647C1615.7 438.974 1617.22 439.637 1619.09 439.637ZM1633.77 443V413.592H1637.77V423.477H1637.98C1638.59 422.465 1639.45 421.686 1640.54 421.139C1641.63 420.592 1642.81 420.318 1644.07 420.318C1646.5 420.318 1648.47 421.146 1649.97 422.8C1651.49 424.454 1652.25 426.635 1652.25 429.342V443H1648.27V429.567C1648.27 427.831 1647.81 426.484 1646.88 425.527C1645.96 424.57 1644.74 424.092 1643.23 424.092C1641.68 424.092 1640.38 424.632 1639.33 425.712C1638.29 426.792 1637.77 428.077 1637.77 429.567V443H1633.77ZM1657.52 443V420.749H1660.68L1661.29 423.682H1661.52C1662.7 421.727 1664.58 420.749 1667.18 420.749H1669.7V424.522H1667.38C1665.62 424.522 1664.2 425.035 1663.12 426.061C1662.05 427.072 1661.52 428.378 1661.52 429.978V443H1657.52ZM1679.59 439.842C1681.43 439.842 1682.91 439.336 1684.02 438.324C1685.12 437.299 1685.68 435.986 1685.68 434.387V433.136H1679.79C1678.34 433.136 1677.24 433.437 1676.49 434.038C1675.75 434.64 1675.38 435.46 1675.38 436.499C1675.38 437.524 1675.75 438.338 1676.49 438.939C1677.24 439.541 1678.27 439.842 1679.59 439.842ZM1678.95 443.41C1676.71 443.41 1674.89 442.74 1673.5 441.4C1672.1 440.061 1671.4 438.427 1671.4 436.499C1671.4 434.517 1672.14 432.869 1673.62 431.557C1675.11 430.23 1677.17 429.567 1679.79 429.567H1685.68V428.501C1685.68 427.134 1685.24 426.061 1684.37 425.281C1683.5 424.488 1682.33 424.092 1680.84 424.092C1679.63 424.092 1678.66 424.352 1677.91 424.871C1677.15 425.391 1676.66 426.047 1676.43 426.84H1672.25C1672.67 424.994 1673.67 423.449 1675.24 422.205C1676.83 420.947 1678.69 420.318 1680.84 420.318C1683.61 420.318 1685.78 421.07 1687.34 422.574C1688.9 424.064 1689.68 426.04 1689.68 428.501V443H1686.31L1685.88 440.272H1685.68C1685.2 441.079 1684.35 441.804 1683.13 442.446C1681.92 443.089 1680.52 443.41 1678.95 443.41ZM1702.29 443.41C1699.94 443.41 1697.95 442.809 1696.32 441.605C1694.69 440.402 1693.67 438.837 1693.25 436.909H1697.65C1698.21 438.728 1699.76 439.637 1702.29 439.637C1703.89 439.637 1705.09 439.377 1705.9 438.857C1706.71 438.338 1707.11 437.688 1707.11 436.909C1707.11 436.157 1706.79 435.556 1706.14 435.104C1705.5 434.653 1704.7 434.339 1703.72 434.161C1702.77 433.983 1701.73 433.744 1700.61 433.443C1699.49 433.129 1698.44 432.773 1697.47 432.377C1696.5 431.98 1695.69 431.311 1695.05 430.367C1694.41 429.41 1694.09 428.234 1694.09 426.84C1694.09 424.994 1694.8 423.449 1696.24 422.205C1697.69 420.947 1699.63 420.318 1702.06 420.318C1704.33 420.318 1706.27 420.879 1707.87 422C1709.47 423.121 1710.47 424.591 1710.88 426.409H1706.47C1705.69 424.864 1704.22 424.092 1702.06 424.092C1699.4 424.092 1698.07 425.008 1698.08 426.84C1698.08 427.592 1698.41 428.2 1699.05 428.665C1699.69 429.116 1700.49 429.438 1701.45 429.629C1702.42 429.807 1703.46 430.06 1704.59 430.388C1705.71 430.702 1706.75 431.058 1707.7 431.454C1708.67 431.837 1709.48 432.5 1710.12 433.443C1710.78 434.387 1711.11 435.542 1711.11 436.909C1711.11 438.755 1710.32 440.3 1708.75 441.544C1707.19 442.788 1705.04 443.41 1702.29 443.41ZM1724.56 443.41C1721.38 443.41 1718.83 442.392 1716.91 440.354C1715.01 438.304 1714.06 435.474 1714.06 431.864C1714.06 428.255 1715 425.432 1716.87 423.395C1718.74 421.344 1721.24 420.318 1724.36 420.318C1727.51 420.318 1730.02 421.385 1731.86 423.518C1733.71 425.637 1734.63 428.07 1734.63 430.818L1734.42 433.136H1718.22C1718.33 435.214 1718.96 436.82 1720.11 437.955C1721.26 439.076 1722.74 439.637 1724.56 439.637C1726.86 439.637 1728.61 438.728 1729.81 436.909H1734.22C1733.47 438.864 1732.25 440.437 1730.57 441.626C1728.89 442.815 1726.88 443.41 1724.56 443.41ZM1718.22 429.772H1730.53C1730.28 427.981 1729.61 426.587 1728.52 425.589C1727.42 424.591 1726.04 424.092 1724.36 424.092C1722.67 424.092 1721.29 424.591 1720.19 425.589C1719.1 426.587 1718.44 427.981 1718.22 429.772ZM1746.42 443.41C1744.07 443.41 1742.08 442.809 1740.45 441.605C1738.83 440.402 1737.8 438.837 1737.38 436.909H1741.79C1742.35 438.728 1743.89 439.637 1746.42 439.637C1748.02 439.637 1749.22 439.377 1750.03 438.857C1750.84 438.338 1751.24 437.688 1751.24 436.909C1751.24 436.157 1750.92 435.556 1750.28 435.104C1749.63 434.653 1748.83 434.339 1747.86 434.161C1746.9 433.983 1745.86 433.744 1744.74 433.443C1743.62 433.129 1742.57 432.773 1741.6 432.377C1740.63 431.98 1739.83 431.311 1739.18 430.367C1738.54 429.41 1738.22 428.234 1738.22 426.84C1738.22 424.994 1738.94 423.449 1740.37 422.205C1741.82 420.947 1743.76 420.318 1746.2 420.318C1748.47 420.318 1750.4 420.879 1752 422C1753.6 423.121 1754.6 424.591 1755.01 426.409H1750.61C1749.83 424.864 1748.36 424.092 1746.2 424.092C1743.53 424.092 1742.2 425.008 1742.22 426.84C1742.22 427.592 1742.54 428.2 1743.18 428.665C1743.82 429.116 1744.62 429.438 1745.58 429.629C1746.55 429.807 1747.6 430.06 1748.72 430.388C1749.84 430.702 1750.88 431.058 1751.84 431.454C1752.81 431.837 1753.61 432.5 1754.26 433.443C1754.91 434.387 1755.24 435.542 1755.24 436.909C1755.24 438.755 1754.45 440.3 1752.88 441.544C1751.32 442.788 1749.17 443.41 1746.42 443.41Z" fill="white"/>
</svg>
