<svg width="204" height="278" viewBox="0 0 204 278" fill="none" xmlns="http://www.w3.org/2000/svg">
<rect x="0.5" y="0.5" width="203" height="31" rx="5.5" fill="#212332"/>
<path d="M10.9492 20.0977C10.2624 20.0977 9.69759 19.9284 9.25488 19.5898C8.81217 19.2513 8.52734 18.7874 8.40039 18.1982H9.25C9.50391 18.9665 10.0703 19.3506 10.9492 19.3506C11.5026 19.3506 11.9242 19.235 12.2139 19.0039C12.5036 18.7695 12.6484 18.4684 12.6484 18.1006C12.6484 17.8597 12.5736 17.6579 12.4238 17.4951C12.2741 17.3324 12.0804 17.2103 11.8428 17.1289C11.6084 17.0443 11.3464 16.9694 11.0566 16.9043C10.7669 16.8359 10.4772 16.7562 10.1875 16.665C9.90104 16.5739 9.639 16.46 9.40137 16.3232C9.16699 16.1865 8.97493 15.9912 8.8252 15.7373C8.67546 15.4801 8.60059 15.1676 8.60059 14.7998C8.60059 14.2529 8.81055 13.8005 9.23047 13.4424C9.65039 13.0811 10.2233 12.9004 10.9492 12.9004C11.584 12.9004 12.1113 13.0469 12.5312 13.3398C12.9512 13.6328 13.2246 14.0527 13.3516 14.5996H12.502C12.2676 13.9648 11.75 13.6491 10.9492 13.6523C10.4707 13.6523 10.1012 13.7598 9.84082 13.9746C9.5804 14.1862 9.4502 14.4613 9.4502 14.7998C9.4502 15.0928 9.54948 15.3353 9.74805 15.5273C9.94987 15.7161 10.2005 15.8496 10.5 15.9277C10.7995 16.0026 11.1234 16.0905 11.4717 16.1914C11.8232 16.2891 12.1488 16.3949 12.4482 16.5088C12.751 16.6227 13.0016 16.8148 13.2002 17.085C13.3988 17.3551 13.498 17.6937 13.498 18.1006C13.498 18.654 13.2702 19.126 12.8145 19.5166C12.3587 19.904 11.737 20.0977 10.9492 20.0977ZM16.1006 19.3994C16.5889 19.3994 16.9762 19.2611 17.2627 18.9844C17.5524 18.7077 17.6973 18.3626 17.6973 17.9492V17.5977H16.2471C15.8532 17.5977 15.5553 17.679 15.3535 17.8418C15.1517 18.0013 15.0508 18.221 15.0508 18.501C15.0508 18.7744 15.1436 18.9925 15.3291 19.1553C15.5179 19.318 15.7751 19.3994 16.1006 19.3994ZM16.1006 20.0977C15.5602 20.0977 15.124 19.9463 14.792 19.6436C14.4632 19.3408 14.2988 18.96 14.2988 18.501C14.2988 18.0355 14.4714 17.653 14.8164 17.3535C15.1647 17.0508 15.6416 16.8994 16.2471 16.8994H17.6973V16.5479C17.6973 16.2028 17.5817 15.9261 17.3506 15.7178C17.1227 15.5062 16.8216 15.4004 16.4473 15.4004C15.8125 15.4004 15.4121 15.651 15.2461 16.1523H14.4502C14.5706 15.6868 14.8066 15.3288 15.1582 15.0781C15.513 14.8275 15.9427 14.7021 16.4473 14.7021C17.0658 14.7021 17.554 14.8698 17.9121 15.2051C18.2702 15.5404 18.4492 15.988 18.4492 16.5479V20H17.8486L17.7461 19.3018H17.6973C17.5833 19.5003 17.3799 19.6826 17.0869 19.8486C16.7972 20.0146 16.4684 20.0977 16.1006 20.0977ZM19.792 20V14.7998H20.3926L20.4951 15.498H20.5439C20.8564 14.9642 21.3236 14.6989 21.9453 14.7021C22.2708 14.7021 22.5638 14.7852 22.8242 14.9512C23.0846 15.1172 23.2913 15.3499 23.4443 15.6494H23.4932C23.8317 15.0146 24.3818 14.6989 25.1436 14.7021C25.6579 14.7021 26.0859 14.8942 26.4277 15.2783C26.7728 15.6592 26.9453 16.167 26.9453 16.8018V20H26.1934V16.8018C26.1934 16.3623 26.0827 16.0189 25.8613 15.7715C25.6432 15.5241 25.3535 15.4004 24.9922 15.4004C24.6374 15.4004 24.3395 15.5339 24.0986 15.8008C23.861 16.0677 23.7422 16.4014 23.7422 16.8018V20H22.9951V16.8018C22.9951 16.3623 22.8844 16.0189 22.6631 15.7715C22.445 15.5241 22.1553 15.4004 21.7939 15.4004C21.4619 15.4004 21.1706 15.5355 20.9199 15.8057C20.6693 16.0758 20.5439 16.4079 20.5439 16.8018V20H19.792ZM30.4414 20.0977C29.722 20.0977 29.141 19.8617 28.6982 19.3896C28.2588 18.9176 28.0391 18.2552 28.0391 17.4023C28.0391 16.5462 28.2572 15.8822 28.6934 15.4102C29.1296 14.9382 29.6943 14.7021 30.3877 14.7021C30.7686 14.7021 31.1136 14.777 31.4229 14.9268C31.7354 15.0765 31.9844 15.2718 32.1699 15.5127C32.3555 15.7503 32.4971 16.0059 32.5947 16.2793C32.6924 16.5527 32.7412 16.8262 32.7412 17.0996L32.6875 17.5977H28.791C28.8171 18.1771 28.9814 18.623 29.2842 18.9355C29.5869 19.2448 29.9727 19.3994 30.4414 19.3994C31.0404 19.3994 31.4896 19.1504 31.7891 18.6523H32.5898C32.4173 19.1178 32.1423 19.4759 31.7646 19.7266C31.3903 19.974 30.9492 20.0977 30.4414 20.0977ZM28.791 16.9482H31.9893C31.9437 16.46 31.7744 16.0807 31.4814 15.8105C31.1885 15.5371 30.8239 15.4004 30.3877 15.4004C29.9548 15.4004 29.5918 15.5371 29.2988 15.8105C29.0059 16.0807 28.8366 16.46 28.791 16.9482ZM37.585 19.3994C38.0732 19.3994 38.4606 19.2611 38.7471 18.9844C39.0368 18.7077 39.1816 18.3626 39.1816 17.9492V17.5977H37.7314C37.3376 17.5977 37.0397 17.679 36.8379 17.8418C36.6361 18.0013 36.5352 18.221 36.5352 18.501C36.5352 18.7744 36.6279 18.9925 36.8135 19.1553C37.0023 19.318 37.2594 19.3994 37.585 19.3994ZM37.585 20.0977C37.0446 20.0977 36.6084 19.9463 36.2764 19.6436C35.9476 19.3408 35.7832 18.96 35.7832 18.501C35.7832 18.0355 35.9557 17.653 36.3008 17.3535C36.6491 17.0508 37.126 16.8994 37.7314 16.8994H39.1816V16.5479C39.1816 16.2028 39.0661 15.9261 38.835 15.7178C38.6071 15.5062 38.306 15.4004 37.9316 15.4004C37.2969 15.4004 36.8965 15.651 36.7305 16.1523H35.9346C36.055 15.6868 36.291 15.3288 36.6426 15.0781C36.9974 14.8275 37.4271 14.7021 37.9316 14.7021C38.5501 14.7021 39.0384 14.8698 39.3965 15.2051C39.7546 15.5404 39.9336 15.988 39.9336 16.5479V20H39.333L39.2305 19.3018H39.1816C39.0677 19.5003 38.8643 19.6826 38.5713 19.8486C38.2816 20.0146 37.9528 20.0977 37.585 20.0977ZM42.9268 20.0977C42.4124 20.0977 41.9746 19.9658 41.6133 19.7021C41.2552 19.4352 41.0273 19.0853 40.9297 18.6523H41.7305C41.8053 18.8932 41.9518 19.0788 42.1699 19.209C42.388 19.3359 42.6403 19.3994 42.9268 19.3994C43.3337 19.3994 43.6429 19.3262 43.8545 19.1797C44.0693 19.0332 44.1768 18.8395 44.1768 18.5986C44.1768 18.4001 44.1003 18.2389 43.9473 18.1152C43.7943 17.9915 43.6022 17.9053 43.3711 17.8564C43.1432 17.8044 42.8958 17.7425 42.6289 17.6709C42.362 17.596 42.113 17.5163 41.8818 17.4316C41.654 17.3438 41.4619 17.1908 41.3057 16.9727C41.1527 16.7513 41.0762 16.4779 41.0762 16.1523C41.0762 15.7585 41.2454 15.4183 41.584 15.1318C41.9258 14.8454 42.3734 14.7021 42.9268 14.7021C43.3923 14.7021 43.8008 14.8161 44.1523 15.0439C44.5039 15.2686 44.7285 15.5876 44.8262 16.001H44.0303C43.8577 15.6006 43.4899 15.4004 42.9268 15.4004C42.5589 15.4004 42.2839 15.4671 42.1016 15.6006C41.9193 15.734 41.8281 15.918 41.8281 16.1523C41.8281 16.3997 41.9339 16.5918 42.1455 16.7285C42.3604 16.862 42.6191 16.9629 42.9219 17.0312C43.2246 17.0964 43.5273 17.1712 43.8301 17.2559C44.1361 17.3372 44.3949 17.4902 44.6064 17.7148C44.8213 17.9395 44.9287 18.234 44.9287 18.5986C44.9287 19.012 44.7464 19.3652 44.3818 19.6582C44.0173 19.9512 43.5322 20.0977 42.9268 20.0977ZM49.8213 20C49.4469 20 49.1361 19.8763 48.8887 19.6289C48.6445 19.3815 48.5225 19.0723 48.5225 18.7012V15.498H47.7217V14.7998H48.5225L48.625 13.3984H49.2744V14.7998H50.6221V15.498H49.2744V18.7012C49.2744 18.8737 49.3298 19.0169 49.4404 19.1309C49.5544 19.2448 49.6992 19.3018 49.875 19.3018H50.6221V20H49.8213ZM51.7256 20V14.7998H52.3262L52.4287 15.498H52.4775C52.7575 15.0326 53.2246 14.7998 53.8789 14.7998H54.4258V15.498H53.8789C53.4785 15.498 53.1449 15.6217 52.8779 15.8691C52.611 16.1165 52.4775 16.4274 52.4775 16.8018V20H51.7256ZM56.6865 19.3994C57.1748 19.3994 57.5622 19.2611 57.8486 18.9844C58.1383 18.7077 58.2832 18.3626 58.2832 17.9492V17.5977H56.833C56.4391 17.5977 56.1413 17.679 55.9395 17.8418C55.7376 18.0013 55.6367 18.221 55.6367 18.501C55.6367 18.7744 55.7295 18.9925 55.915 19.1553C56.1038 19.318 56.361 19.3994 56.6865 19.3994ZM56.6865 20.0977C56.1462 20.0977 55.71 19.9463 55.3779 19.6436C55.0492 19.3408 54.8848 18.96 54.8848 18.501C54.8848 18.0355 55.0573 17.653 55.4023 17.3535C55.7507 17.0508 56.2275 16.8994 56.833 16.8994H58.2832V16.5479C58.2832 16.2028 58.1676 15.9261 57.9365 15.7178C57.7087 15.5062 57.4076 15.4004 57.0332 15.4004C56.3984 15.4004 55.998 15.651 55.832 16.1523H55.0361C55.1566 15.6868 55.3926 15.3288 55.7441 15.0781C56.099 14.8275 56.5286 14.7021 57.0332 14.7021C57.6517 14.7021 58.14 14.8698 58.498 15.2051C58.8561 15.5404 59.0352 15.988 59.0352 16.5479V20H58.4346L58.332 19.3018H58.2832C58.1693 19.5003 57.9658 19.6826 57.6729 19.8486C57.3831 20.0146 57.0544 20.0977 56.6865 20.0977ZM60.3779 20V14.7998H60.9785L61.0811 15.498H61.1299C61.4424 14.9642 61.9421 14.6989 62.6289 14.7021C63.1888 14.7021 63.6543 14.8942 64.0254 15.2783C64.3965 15.6592 64.582 16.167 64.582 16.8018V20H63.8301V16.8018C63.8301 16.3623 63.7096 16.0189 63.4688 15.7715C63.2279 15.5241 62.9154 15.4004 62.5312 15.4004C62.1374 15.4004 61.8053 15.5387 61.5352 15.8154C61.265 16.0921 61.1299 16.4209 61.1299 16.8018V20H60.3779ZM67.5752 20.0977C67.0609 20.0977 66.623 19.9658 66.2617 19.7021C65.9036 19.4352 65.6758 19.0853 65.5781 18.6523H66.3789C66.4538 18.8932 66.6003 19.0788 66.8184 19.209C67.0365 19.3359 67.2887 19.3994 67.5752 19.3994C67.9821 19.3994 68.2913 19.3262 68.5029 19.1797C68.7178 19.0332 68.8252 18.8395 68.8252 18.5986C68.8252 18.4001 68.7487 18.2389 68.5957 18.1152C68.4427 17.9915 68.2507 17.9053 68.0195 17.8564C67.7917 17.8044 67.5443 17.7425 67.2773 17.6709C67.0104 17.596 66.7614 17.5163 66.5303 17.4316C66.3024 17.3438 66.1104 17.1908 65.9541 16.9727C65.8011 16.7513 65.7246 16.4779 65.7246 16.1523C65.7246 15.7585 65.8939 15.4183 66.2324 15.1318C66.5742 14.8454 67.0218 14.7021 67.5752 14.7021C68.0407 14.7021 68.4492 14.8161 68.8008 15.0439C69.1523 15.2686 69.377 15.5876 69.4746 16.001H68.6787C68.5062 15.6006 68.1383 15.4004 67.5752 15.4004C67.2074 15.4004 66.9323 15.4671 66.75 15.6006C66.5677 15.734 66.4766 15.918 66.4766 16.1523C66.4766 16.3997 66.5824 16.5918 66.7939 16.7285C67.0088 16.862 67.2676 16.9629 67.5703 17.0312C67.873 17.0964 68.1758 17.1712 68.4785 17.2559C68.7845 17.3372 69.0433 17.4902 69.2549 17.7148C69.4697 17.9395 69.5771 18.234 69.5771 18.5986C69.5771 19.012 69.3949 19.3652 69.0303 19.6582C68.6657 19.9512 68.1807 20.0977 67.5752 20.0977ZM72.7754 20.0977C72.056 20.0977 71.4749 19.8617 71.0322 19.3896C70.5928 18.9176 70.373 18.2552 70.373 17.4023C70.373 16.5462 70.5928 15.8822 71.0322 15.4102C71.4717 14.9382 72.0527 14.7021 72.7754 14.7021C73.2832 14.7021 73.7243 14.8275 74.0986 15.0781C74.4762 15.3255 74.7513 15.6836 74.9238 16.1523H74.123C73.8236 15.651 73.3743 15.4004 72.7754 15.4004C72.2806 15.4004 71.8818 15.5762 71.5791 15.9277C71.2764 16.276 71.125 16.7676 71.125 17.4023C71.125 18.0339 71.2764 18.5254 71.5791 18.877C71.8818 19.2253 72.2806 19.3994 72.7754 19.3994C73.3743 19.3994 73.8236 19.1504 74.123 18.6523H74.9238C74.7513 19.1178 74.4762 19.4759 74.0986 19.7266C73.7243 19.974 73.2832 20.0977 72.7754 20.0977ZM75.9736 20V14.7998H76.5742L76.6768 15.498H76.7256C77.0055 15.0326 77.4727 14.7998 78.127 14.7998H78.6738V15.498H78.127C77.7266 15.498 77.3929 15.6217 77.126 15.8691C76.859 16.1165 76.7256 16.4274 76.7256 16.8018V20H75.9736ZM79.5283 20V14.7998H80.2803V20H79.5283ZM80.2803 13.8965C80.1794 13.9974 80.0557 14.0479 79.9092 14.0479C79.7627 14.0479 79.6374 13.999 79.5332 13.9014C79.4323 13.8005 79.3818 13.6768 79.3818 13.5303C79.3818 13.3838 79.4323 13.2585 79.5332 13.1543C79.6374 13.0501 79.7627 12.998 79.9092 12.998C80.0557 12.998 80.1794 13.0501 80.2803 13.1543C80.3812 13.2585 80.4316 13.3838 80.4316 13.5303C80.4316 13.6702 80.3812 13.7923 80.2803 13.8965ZM81.6768 22.002V14.7998H82.2773L82.3799 15.498H82.4287C82.8031 14.9642 83.3695 14.6989 84.1279 14.7021C84.7952 14.7021 85.3372 14.9382 85.7539 15.4102C86.1706 15.8822 86.3789 16.5462 86.3789 17.4023C86.3789 18.2552 86.1706 18.9176 85.7539 19.3896C85.3372 19.8617 84.7952 20.0977 84.1279 20.0977C83.415 20.0977 82.8649 19.8486 82.4775 19.3506H82.4287V22.002H81.6768ZM82.8633 18.8818C83.153 19.2269 83.5404 19.3994 84.0254 19.3994C84.5137 19.3994 84.9027 19.2269 85.1924 18.8818C85.4821 18.5335 85.627 18.0404 85.627 17.4023C85.627 16.7611 85.4821 16.2679 85.1924 15.9229C84.9027 15.5745 84.5137 15.4004 84.0254 15.4004C83.5404 15.4004 83.153 15.5745 82.8633 15.9229C82.5736 16.2679 82.4287 16.7611 82.4287 17.4023C82.4287 18.0404 82.5736 18.5335 82.8633 18.8818ZM89.1768 20C88.8024 20 88.4915 19.8763 88.2441 19.6289C88 19.3815 87.8779 19.0723 87.8779 18.7012V15.498H87.0771V14.7998H87.8779L87.9805 13.3984H88.6299V14.7998H89.9775V15.498H88.6299V18.7012C88.6299 18.8737 88.6852 19.0169 88.7959 19.1309C88.9098 19.2448 89.0547 19.3018 89.2305 19.3018H89.9775V20H89.1768Z" fill="white" fill-opacity="0.6"/>
<path d="M187 14.5L190 17.5L193 14.5" stroke="#94A3B8" stroke-width="1.33333" stroke-linecap="round" stroke-linejoin="round"/>
<rect x="0.5" y="0.5" width="203" height="31" rx="5.5" stroke="#CBD5E1"/>
<rect width="204" height="240" transform="translate(0 38)" fill="url(#paint0_linear_135_1771)"/>
<path d="M7.95117 54L10.5488 46.998H11.7988L14.4014 54H13.2979L12.7217 52.3984H9.63086L9.0498 54H7.95117ZM9.96777 51.4512H12.3799L11.1982 48.1992H11.1494L9.96777 51.4512ZM14.9971 54V48.7021H15.749L15.8955 49.4004H15.9492C16.2292 48.9349 16.6784 48.7021 17.2969 48.7021H17.8975V49.6006H17.3457C16.9258 49.6006 16.5872 49.7227 16.3301 49.9668C16.0762 50.2077 15.9492 50.5186 15.9492 50.8994V54H14.9971ZM20.251 53.248C20.6904 53.248 21.042 53.1276 21.3057 52.8867C21.5693 52.6426 21.7012 52.3301 21.7012 51.9492V51.6514H20.2998C19.9548 51.6514 19.6927 51.723 19.5137 51.8662C19.3379 52.0094 19.25 52.2048 19.25 52.4521C19.25 52.6963 19.3379 52.89 19.5137 53.0332C19.6927 53.1764 19.9385 53.248 20.251 53.248ZM20.0996 54.0977C19.5658 54.0977 19.1328 53.9382 18.8008 53.6191C18.4688 53.3001 18.3027 52.9111 18.3027 52.4521C18.3027 51.9801 18.4785 51.5879 18.8301 51.2754C19.1849 50.9596 19.6748 50.8018 20.2998 50.8018H21.7012V50.5479C21.7012 50.2223 21.597 49.9668 21.3887 49.7812C21.1836 49.5924 20.9036 49.498 20.5488 49.498C20.2624 49.498 20.0296 49.5599 19.8506 49.6836C19.6715 49.8073 19.5544 49.9635 19.499 50.1523H18.5029C18.6038 49.7129 18.8415 49.3451 19.2158 49.0488C19.5934 48.7493 20.0378 48.5996 20.5488 48.5996C21.2096 48.5996 21.7256 48.7786 22.0967 49.1367C22.4678 49.4915 22.6533 49.9619 22.6533 50.5479V54H21.8525L21.75 53.3506H21.7012C21.5872 53.5426 21.3854 53.7152 21.0957 53.8682C20.806 54.0212 20.474 54.0977 20.0996 54.0977ZM26.4033 53.1992C26.8428 53.1992 27.1943 53.043 27.458 52.7305C27.7217 52.418 27.8535 51.959 27.8535 51.3535C27.8535 50.7448 27.7217 50.2842 27.458 49.9717C27.1943 49.6559 26.8428 49.498 26.4033 49.498C25.9574 49.498 25.596 49.6576 25.3193 49.9766C25.0426 50.2923 24.9043 50.7513 24.9043 51.3535C24.9043 51.9525 25.0426 52.4098 25.3193 52.7256C25.596 53.0413 25.9574 53.1992 26.4033 53.1992ZM26.5547 54.0977C25.8678 54.0977 25.3177 53.8324 24.9043 53.3018H24.8555L24.7041 54H23.9521V46.998H24.9043V49.3516H24.9531C25.3275 48.8503 25.8613 48.5996 26.5547 48.5996C27.2285 48.5996 27.7721 48.8405 28.1855 49.3223C28.599 49.8008 28.8057 50.4779 28.8057 51.3535C28.8057 52.2259 28.599 52.9014 28.1855 53.3799C27.7721 53.8584 27.2285 54.0977 26.5547 54.0977ZM29.8506 54V48.7021H30.8027V54H29.8506ZM30.3291 48.1016C30.1436 48.1016 29.9922 48.043 29.875 47.9258C29.7578 47.8086 29.6992 47.6605 29.6992 47.4814C29.6992 47.2959 29.7578 47.1445 29.875 47.0273C29.9922 46.9102 30.1436 46.8516 30.3291 46.8516C30.5081 46.8516 30.6562 46.9102 30.7734 47.0273C30.8906 47.1413 30.9492 47.2926 30.9492 47.4814C30.9492 47.6605 30.8906 47.8086 30.7734 47.9258C30.6562 48.043 30.5081 48.1016 30.3291 48.1016ZM34.3477 54.0977C33.5892 54.0977 32.9821 53.8551 32.5264 53.3701C32.0739 52.8818 31.8477 52.208 31.8477 51.3486C31.8477 50.4893 32.0739 49.8171 32.5264 49.332C32.9788 48.8438 33.5859 48.5996 34.3477 48.5996C34.9076 48.5996 35.3844 48.7445 35.7783 49.0342C36.1722 49.3239 36.4456 49.7129 36.5986 50.2012H35.5977C35.3372 49.7357 34.9206 49.5013 34.3477 49.498C33.8887 49.498 33.5143 49.6608 33.2246 49.9863C32.9382 50.3086 32.7949 50.7643 32.7949 51.3535C32.7949 51.9395 32.9382 52.3936 33.2246 52.7158C33.5143 53.0381 33.8887 53.1992 34.3477 53.1992C34.9206 53.1992 35.3372 52.9665 35.5977 52.501H36.5986C36.4456 52.9893 36.1722 53.3783 35.7783 53.668C35.3844 53.9544 34.9076 54.0977 34.3477 54.0977Z" fill="white"/>
<path d="M9.85059 77.0479H11.9014C12.2269 77.0479 12.4906 76.9535 12.6924 76.7646C12.8975 76.5758 13 76.3219 13 76.0029C13 75.6807 12.8975 75.4251 12.6924 75.2363C12.4906 75.0443 12.2269 74.9482 11.9014 74.9482H9.85059V77.0479ZM8.80078 78V70.998H11.8721C12.5329 70.998 13.0439 71.1722 13.4053 71.5205C13.7699 71.8656 13.9521 72.3424 13.9521 72.9512C13.9521 73.2897 13.8691 73.5924 13.7031 73.8594C13.5404 74.1263 13.3223 74.3232 13.0488 74.4502C13.3418 74.5837 13.5811 74.792 13.7666 75.0752C13.9554 75.3584 14.0498 75.6839 14.0498 76.0518C14.0498 76.6572 13.8675 77.1341 13.5029 77.4824C13.1416 77.8275 12.6305 78 11.9697 78H8.80078ZM9.85059 74.0498H11.7988C12.1243 74.0498 12.3896 73.9554 12.5947 73.7666C12.7998 73.5745 12.9023 73.319 12.9023 73C12.9023 72.681 12.7998 72.4271 12.5947 72.2383C12.3929 72.0462 12.1276 71.9502 11.7988 71.9502H9.85059V74.0498ZM16.8525 77.248C17.292 77.248 17.6436 77.1276 17.9072 76.8867C18.1709 76.6426 18.3027 76.3301 18.3027 75.9492V75.6514H16.9014C16.5563 75.6514 16.2943 75.723 16.1152 75.8662C15.9395 76.0094 15.8516 76.2048 15.8516 76.4521C15.8516 76.6963 15.9395 76.89 16.1152 77.0332C16.2943 77.1764 16.54 77.248 16.8525 77.248ZM16.7012 78.0977C16.1673 78.0977 15.7344 77.9382 15.4023 77.6191C15.0703 77.3001 14.9043 76.9111 14.9043 76.4521C14.9043 75.9801 15.0801 75.5879 15.4316 75.2754C15.7865 74.9596 16.2764 74.8018 16.9014 74.8018H18.3027V74.5479C18.3027 74.2223 18.1986 73.9668 17.9902 73.7812C17.7852 73.5924 17.5052 73.498 17.1504 73.498C16.8639 73.498 16.6312 73.5599 16.4521 73.6836C16.2731 73.8073 16.1559 73.9635 16.1006 74.1523H15.1045C15.2054 73.7129 15.443 73.3451 15.8174 73.0488C16.195 72.7493 16.6393 72.5996 17.1504 72.5996C17.8112 72.5996 18.3271 72.7786 18.6982 73.1367C19.0693 73.4915 19.2549 73.9619 19.2549 74.5479V78H18.4541L18.3516 77.3506H18.3027C18.1888 77.5426 17.987 77.7152 17.6973 77.8682C17.4076 78.0212 17.0755 78.0977 16.7012 78.0977ZM20.5537 78V70.998H21.5059V73.3516H21.5547C21.7012 73.1107 21.9046 72.9251 22.165 72.7949C22.4255 72.6647 22.7054 72.5996 23.0049 72.5996C23.5843 72.5996 24.0531 72.7965 24.4111 73.1904C24.7725 73.5843 24.9531 74.1035 24.9531 74.748V78H24.0059V74.8018C24.0059 74.3883 23.8952 74.0677 23.6738 73.8398C23.4557 73.612 23.166 73.498 22.8047 73.498C22.4368 73.498 22.1276 73.6266 21.877 73.8838C21.6296 74.141 21.5059 74.4469 21.5059 74.8018V78H20.5537ZM27.8584 77.248C28.2979 77.248 28.6494 77.1276 28.9131 76.8867C29.1768 76.6426 29.3086 76.3301 29.3086 75.9492V75.6514H27.9072C27.5622 75.6514 27.3001 75.723 27.1211 75.8662C26.9453 76.0094 26.8574 76.2048 26.8574 76.4521C26.8574 76.6963 26.9453 76.89 27.1211 77.0332C27.3001 77.1764 27.5459 77.248 27.8584 77.248ZM27.707 78.0977C27.1732 78.0977 26.7402 77.9382 26.4082 77.6191C26.0762 77.3001 25.9102 76.9111 25.9102 76.4521C25.9102 75.9801 26.0859 75.5879 26.4375 75.2754C26.7923 74.9596 27.2822 74.8018 27.9072 74.8018H29.3086V74.5479C29.3086 74.2223 29.2044 73.9668 28.9961 73.7812C28.791 73.5924 28.5111 73.498 28.1562 73.498C27.8698 73.498 27.637 73.5599 27.458 73.6836C27.279 73.8073 27.1618 73.9635 27.1064 74.1523H26.1104C26.2113 73.7129 26.4489 73.3451 26.8232 73.0488C27.2008 72.7493 27.6452 72.5996 28.1562 72.5996C28.8171 72.5996 29.333 72.7786 29.7041 73.1367C30.0752 73.4915 30.2607 73.9619 30.2607 74.5479V78H29.46L29.3574 77.3506H29.3086C29.1947 77.5426 28.9928 77.7152 28.7031 77.8682C28.4134 78.0212 28.0814 78.0977 27.707 78.0977ZM33.2637 78.0977C32.7038 78.0977 32.2301 77.9544 31.8428 77.668C31.4554 77.3815 31.2113 77.0088 31.1104 76.5498H32.1602C32.2936 76.9827 32.6615 77.1992 33.2637 77.1992C33.6445 77.1992 33.931 77.1374 34.123 77.0137C34.3151 76.89 34.4111 76.7354 34.4111 76.5498C34.4111 76.3708 34.3346 76.2275 34.1816 76.1201C34.0286 76.0127 33.8366 75.9378 33.6055 75.8955C33.3776 75.8532 33.1302 75.7962 32.8633 75.7246C32.5964 75.6497 32.3473 75.5651 32.1162 75.4707C31.8851 75.3763 31.693 75.2168 31.54 74.9922C31.387 74.7643 31.3105 74.4844 31.3105 74.1523C31.3105 73.7129 31.4814 73.3451 31.8232 73.0488C32.1683 72.7493 32.6305 72.5996 33.21 72.5996C33.7503 72.5996 34.2109 72.7331 34.5918 73C34.9727 73.2669 35.2119 73.6169 35.3096 74.0498H34.2598C34.0742 73.682 33.7243 73.498 33.21 73.498C32.5752 73.498 32.2594 73.7161 32.2627 74.1523C32.2627 74.3314 32.3392 74.4762 32.4922 74.5869C32.6452 74.6943 32.8356 74.7708 33.0635 74.8164C33.2946 74.8587 33.5436 74.9189 33.8105 74.9971C34.0775 75.0719 34.3249 75.1566 34.5527 75.251C34.7839 75.3421 34.9759 75.5 35.1289 75.7246C35.2852 75.9492 35.3633 76.2243 35.3633 76.5498C35.3633 76.9893 35.1761 77.3571 34.8018 77.6533C34.4307 77.9495 33.918 78.0977 33.2637 78.0977ZM37.9658 77.248C38.4053 77.248 38.7568 77.1276 39.0205 76.8867C39.2842 76.6426 39.416 76.3301 39.416 75.9492V75.6514H38.0146C37.6696 75.6514 37.4076 75.723 37.2285 75.8662C37.0527 76.0094 36.9648 76.2048 36.9648 76.4521C36.9648 76.6963 37.0527 76.89 37.2285 77.0332C37.4076 77.1764 37.6533 77.248 37.9658 77.248ZM37.8145 78.0977C37.2806 78.0977 36.8477 77.9382 36.5156 77.6191C36.1836 77.3001 36.0176 76.9111 36.0176 76.4521C36.0176 75.9801 36.1934 75.5879 36.5449 75.2754C36.8997 74.9596 37.3896 74.8018 38.0146 74.8018H39.416V74.5479C39.416 74.2223 39.3118 73.9668 39.1035 73.7812C38.8984 73.5924 38.6185 73.498 38.2637 73.498C37.9772 73.498 37.7445 73.5599 37.5654 73.6836C37.3864 73.8073 37.2692 73.9635 37.2139 74.1523H36.2178C36.3187 73.7129 36.5563 73.3451 36.9307 73.0488C37.3083 72.7493 37.7526 72.5996 38.2637 72.5996C38.9245 72.5996 39.4404 72.7786 39.8115 73.1367C40.1826 73.4915 40.3682 73.9619 40.3682 74.5479V78H39.5674L39.4648 77.3506H39.416C39.3021 77.5426 39.1003 77.7152 38.8105 77.8682C38.5208 78.0212 38.1888 78.0977 37.8145 78.0977ZM43.9668 78V70.998H45.0166V78H43.9668ZM46.4619 78V72.7021H47.2139L47.3604 73.4004H47.4141C47.7396 72.8665 48.2393 72.5996 48.9131 72.5996C49.4925 72.5996 49.9613 72.7965 50.3193 73.1904C50.6807 73.5843 50.8613 74.1035 50.8613 74.748V78H49.9141V74.8018C49.9141 74.3883 49.8034 74.0677 49.582 73.8398C49.3639 73.612 49.0742 73.498 48.7129 73.498C48.3451 73.498 48.0358 73.6266 47.7852 73.8838C47.5378 74.141 47.4141 74.4469 47.4141 74.8018V78H46.4619ZM54.2646 77.1992C54.7106 77.1992 55.0719 77.0413 55.3486 76.7256C55.6286 76.4098 55.7686 75.9525 55.7686 75.3535C55.7686 74.7513 55.6302 74.2923 55.3535 73.9766C55.0768 73.6576 54.7139 73.498 54.2646 73.498C53.8252 73.498 53.4736 73.6559 53.21 73.9717C52.9463 74.2842 52.8145 74.7448 52.8145 75.3535C52.8145 75.959 52.9463 76.418 53.21 76.7305C53.4736 77.043 53.8252 77.1992 54.2646 77.1992ZM54.1182 78.0977C53.4443 78.0977 52.9007 77.8584 52.4873 77.3799C52.0739 76.9014 51.8672 76.2243 51.8672 75.3486C51.8672 74.4697 52.0771 73.7926 52.4971 73.3174C52.917 72.8389 53.4736 72.5996 54.167 72.5996C54.8278 72.5996 55.3438 72.8503 55.7148 73.3516H55.7686V70.998H56.7158V78H55.9688L55.8174 77.3018H55.7686C55.3551 77.8324 54.805 78.0977 54.1182 78.0977ZM62.043 77.3701C61.597 77.8551 61.0029 78.0977 60.2607 78.0977C59.5218 78.0977 58.9294 77.8551 58.4834 77.3701C58.0374 76.8818 57.8145 76.208 57.8145 75.3486C57.8145 74.4893 58.0374 73.8171 58.4834 73.332C58.9294 72.8438 59.5218 72.5996 60.2607 72.5996C61.0029 72.5996 61.597 72.8438 62.043 73.332C62.4889 73.8171 62.7119 74.4893 62.7119 75.3486C62.7119 76.208 62.4889 76.8818 62.043 77.3701ZM59.1768 76.7256C59.4535 77.0413 59.8148 77.1992 60.2607 77.1992C60.71 77.1992 61.0729 77.0413 61.3496 76.7256C61.6263 76.4098 61.7646 75.9525 61.7646 75.3535C61.7646 74.7513 61.6263 74.2923 61.3496 73.9766C61.0729 73.6576 60.71 73.498 60.2607 73.498C59.8148 73.498 59.4535 73.6576 59.1768 73.9766C58.9001 74.2923 58.7617 74.7513 58.7617 75.3535C58.7617 75.9525 58.9001 76.4098 59.1768 76.7256ZM63.7666 78V72.7021H64.5186L64.665 73.4004H64.7188C65.0443 72.8665 65.5439 72.5996 66.2178 72.5996C66.7972 72.5996 67.266 72.7965 67.624 73.1904C67.9854 73.5843 68.166 74.1035 68.166 74.748V78H67.2188V74.8018C67.2188 74.3883 67.1081 74.0677 66.8867 73.8398C66.6686 73.612 66.3789 73.498 66.0176 73.498C65.6497 73.498 65.3405 73.6266 65.0898 73.8838C64.8424 74.141 64.7188 74.4469 64.7188 74.8018V78H63.7666ZM71.6719 78.0977C70.9134 78.0977 70.3063 77.8551 69.8506 77.3701C69.3981 76.8818 69.1719 76.208 69.1719 75.3486C69.1719 74.4893 69.3949 73.8171 69.8408 73.332C70.2868 72.8438 70.8809 72.5996 71.623 72.5996C72.375 72.5996 72.9707 72.8535 73.4102 73.3613C73.8496 73.8659 74.0693 74.4453 74.0693 75.0996L74.0205 75.6514H70.1631C70.1891 76.1462 70.3389 76.5286 70.6123 76.7988C70.8857 77.0658 71.2389 77.1992 71.6719 77.1992C72.2188 77.1992 72.6354 76.9827 72.9219 76.5498H73.9717C73.7926 77.0153 73.5029 77.3896 73.1025 77.6729C72.7021 77.9561 72.2253 78.0977 71.6719 78.0977ZM70.1631 74.8506H73.0928C73.0342 74.4242 72.8747 74.0921 72.6143 73.8545C72.3538 73.6169 72.0234 73.498 71.623 73.498C71.2227 73.498 70.8923 73.6169 70.6318 73.8545C70.3714 74.0921 70.2152 74.4242 70.1631 74.8506ZM76.877 78.0977C76.3171 78.0977 75.8434 77.9544 75.4561 77.668C75.0687 77.3815 74.8245 77.0088 74.7236 76.5498H75.7734C75.9069 76.9827 76.2747 77.1992 76.877 77.1992C77.2578 77.1992 77.5443 77.1374 77.7363 77.0137C77.9284 76.89 78.0244 76.7354 78.0244 76.5498C78.0244 76.3708 77.9479 76.2275 77.7949 76.1201C77.6419 76.0127 77.4499 75.9378 77.2188 75.8955C76.9909 75.8532 76.7435 75.7962 76.4766 75.7246C76.2096 75.6497 75.9606 75.5651 75.7295 75.4707C75.4984 75.3763 75.3063 75.2168 75.1533 74.9922C75.0003 74.7643 74.9238 74.4844 74.9238 74.1523C74.9238 73.7129 75.0947 73.3451 75.4365 73.0488C75.7816 72.7493 76.2438 72.5996 76.8232 72.5996C77.3636 72.5996 77.8242 72.7331 78.2051 73C78.5859 73.2669 78.8252 73.6169 78.9229 74.0498H77.873C77.6875 73.682 77.3376 73.498 76.8232 73.498C76.1885 73.498 75.8727 73.7161 75.876 74.1523C75.876 74.3314 75.9525 74.4762 76.1055 74.5869C76.2585 74.6943 76.4489 74.7708 76.6768 74.8164C76.9079 74.8587 77.1569 74.9189 77.4238 74.9971C77.6908 75.0719 77.9382 75.1566 78.166 75.251C78.3971 75.3421 78.5892 75.5 78.7422 75.7246C78.8984 75.9492 78.9766 76.2243 78.9766 76.5498C78.9766 76.9893 78.7894 77.3571 78.415 77.6533C78.0439 77.9495 77.5312 78.0977 76.877 78.0977ZM79.9287 78V72.7021H80.8809V78H79.9287ZM80.4072 72.1016C80.2217 72.1016 80.0703 72.043 79.9531 71.9258C79.8359 71.8086 79.7773 71.6605 79.7773 71.4814C79.7773 71.2959 79.8359 71.1445 79.9531 71.0273C80.0703 70.9102 80.2217 70.8516 80.4072 70.8516C80.5863 70.8516 80.7344 70.9102 80.8516 71.0273C80.9688 71.1413 81.0273 71.2926 81.0273 71.4814C81.0273 71.6605 80.9688 71.8086 80.8516 71.9258C80.7344 72.043 80.5863 72.1016 80.4072 72.1016ZM83.8252 77.248C84.2646 77.248 84.6162 77.1276 84.8799 76.8867C85.1436 76.6426 85.2754 76.3301 85.2754 75.9492V75.6514H83.874C83.529 75.6514 83.2669 75.723 83.0879 75.8662C82.9121 76.0094 82.8242 76.2048 82.8242 76.4521C82.8242 76.6963 82.9121 76.89 83.0879 77.0332C83.2669 77.1764 83.5127 77.248 83.8252 77.248ZM83.6738 78.0977C83.14 78.0977 82.707 77.9382 82.375 77.6191C82.043 77.3001 81.877 76.9111 81.877 76.4521C81.877 75.9801 82.0527 75.5879 82.4043 75.2754C82.7591 74.9596 83.249 74.8018 83.874 74.8018H85.2754V74.5479C85.2754 74.2223 85.1712 73.9668 84.9629 73.7812C84.7578 73.5924 84.4779 73.498 84.123 73.498C83.8366 73.498 83.6038 73.5599 83.4248 73.6836C83.2458 73.8073 83.1286 73.9635 83.0732 74.1523H82.0771C82.1781 73.7129 82.4157 73.3451 82.79 73.0488C83.1676 72.7493 83.612 72.5996 84.123 72.5996C84.7839 72.5996 85.2998 72.7786 85.6709 73.1367C86.042 73.4915 86.2275 73.9619 86.2275 74.5479V78H85.4268L85.3242 77.3506H85.2754C85.1615 77.5426 84.9596 77.7152 84.6699 77.8682C84.3802 78.0212 84.0482 78.0977 83.6738 78.0977Z" fill="white"/>
<g opacity="0.9">
<path d="M11.6523 102.098C10.679 102.098 9.90104 101.785 9.31836 101.16C8.73893 100.532 8.44922 99.6449 8.44922 98.499C8.44922 97.3532 8.73893 96.4678 9.31836 95.8428C9.90104 95.2145 10.679 94.9004 11.6523 94.9004C13.1139 94.9004 14.0791 95.584 14.5479 96.9512H13.4492C13.1107 96.2188 12.5117 95.8509 11.6523 95.8477C11.0046 95.8477 10.4837 96.0771 10.0898 96.5361C9.69596 96.9919 9.49902 97.6462 9.49902 98.499C9.49902 99.3519 9.69434 100.008 10.085 100.467C10.4756 100.923 10.998 101.15 11.6523 101.15C12.5117 101.15 13.1107 100.784 13.4492 100.052H14.5479C14.0791 101.416 13.1139 102.098 11.6523 102.098ZM15.6025 102V94.998H16.5547V97.3516H16.6035C16.75 97.1107 16.9535 96.9251 17.2139 96.7949C17.4743 96.6647 17.7542 96.5996 18.0537 96.5996C18.6331 96.5996 19.1019 96.7965 19.46 97.1904C19.8213 97.5843 20.002 98.1035 20.002 98.748V102H19.0547V98.8018C19.0547 98.3883 18.944 98.0677 18.7227 97.8398C18.5046 97.612 18.2148 97.498 17.8535 97.498C17.4857 97.498 17.1764 97.6266 16.9258 97.8838C16.6784 98.141 16.5547 98.4469 16.5547 98.8018V102H15.6025ZM21.2568 102V96.7021H22.209V102H21.2568ZM21.7354 96.1016C21.5498 96.1016 21.3984 96.043 21.2812 95.9258C21.1641 95.8086 21.1055 95.6605 21.1055 95.4814C21.1055 95.2959 21.1641 95.1445 21.2812 95.0273C21.3984 94.9102 21.5498 94.8516 21.7354 94.8516C21.9144 94.8516 22.0625 94.9102 22.1797 95.0273C22.2969 95.1413 22.3555 95.2926 22.3555 95.4814C22.3555 95.6605 22.2969 95.8086 22.1797 95.9258C22.0625 96.043 21.9144 96.1016 21.7354 96.1016ZM23.5029 102V96.7021H24.2549L24.4014 97.4004H24.4551C24.7806 96.8665 25.2803 96.5996 25.9541 96.5996C26.5335 96.5996 27.0023 96.7965 27.3604 97.1904C27.7217 97.5843 27.9023 98.1035 27.9023 98.748V102H26.9551V98.8018C26.9551 98.3883 26.8444 98.0677 26.623 97.8398C26.4049 97.612 26.1152 97.498 25.7539 97.498C25.3861 97.498 25.0768 97.6266 24.8262 97.8838C24.5788 98.141 24.4551 98.4469 24.4551 98.8018V102H23.5029ZM31.4082 102.098C30.6497 102.098 30.0426 101.855 29.5869 101.37C29.1344 100.882 28.9082 100.208 28.9082 99.3486C28.9082 98.4893 29.1312 97.8171 29.5771 97.332C30.0231 96.8438 30.6172 96.5996 31.3594 96.5996C32.1113 96.5996 32.707 96.8535 33.1465 97.3613C33.5859 97.8659 33.8057 98.4453 33.8057 99.0996L33.7568 99.6514H29.8994C29.9255 100.146 30.0752 100.529 30.3486 100.799C30.6221 101.066 30.9753 101.199 31.4082 101.199C31.9551 101.199 32.3717 100.983 32.6582 100.55H33.708C33.529 101.015 33.2393 101.39 32.8389 101.673C32.4385 101.956 31.9616 102.098 31.4082 102.098ZM29.8994 98.8506H32.8291C32.7705 98.4242 32.611 98.0921 32.3506 97.8545C32.0902 97.6169 31.7598 97.498 31.3594 97.498C30.959 97.498 30.6286 97.6169 30.3682 97.8545C30.1077 98.0921 29.9515 98.4242 29.8994 98.8506ZM36.6133 102.098C36.0534 102.098 35.5798 101.954 35.1924 101.668C34.805 101.382 34.5609 101.009 34.46 100.55H35.5098C35.6432 100.983 36.0111 101.199 36.6133 101.199C36.9941 101.199 37.2806 101.137 37.4727 101.014C37.6647 100.89 37.7607 100.735 37.7607 100.55C37.7607 100.371 37.6842 100.228 37.5312 100.12C37.3783 100.013 37.1862 99.9378 36.9551 99.8955C36.7272 99.8532 36.4798 99.7962 36.2129 99.7246C35.946 99.6497 35.6969 99.5651 35.4658 99.4707C35.2347 99.3763 35.0426 99.2168 34.8896 98.9922C34.7367 98.7643 34.6602 98.4844 34.6602 98.1523C34.6602 97.7129 34.8311 97.3451 35.1729 97.0488C35.5179 96.7493 35.9801 96.5996 36.5596 96.5996C37.0999 96.5996 37.5605 96.7331 37.9414 97C38.3223 97.2669 38.5615 97.6169 38.6592 98.0498H37.6094C37.4238 97.682 37.0739 97.498 36.5596 97.498C35.9248 97.498 35.609 97.7161 35.6123 98.1523C35.6123 98.3314 35.6888 98.4762 35.8418 98.5869C35.9948 98.6943 36.1852 98.7708 36.4131 98.8164C36.6442 98.8587 36.8932 98.9189 37.1602 98.9971C37.4271 99.0719 37.6745 99.1566 37.9023 99.251C38.1335 99.3421 38.3255 99.5 38.4785 99.7246C38.6348 99.9492 38.7129 100.224 38.7129 100.55C38.7129 100.989 38.5257 101.357 38.1514 101.653C37.7803 101.95 37.2676 102.098 36.6133 102.098ZM41.916 102.098C41.1576 102.098 40.5505 101.855 40.0947 101.37C39.6423 100.882 39.416 100.208 39.416 99.3486C39.416 98.4893 39.639 97.8171 40.085 97.332C40.5309 96.8438 41.125 96.5996 41.8672 96.5996C42.6191 96.5996 43.2148 96.8535 43.6543 97.3613C44.0938 97.8659 44.3135 98.4453 44.3135 99.0996L44.2646 99.6514H40.4072C40.4333 100.146 40.583 100.529 40.8564 100.799C41.1299 101.066 41.4831 101.199 41.916 101.199C42.4629 101.199 42.8796 100.983 43.166 100.55H44.2158C44.0368 101.015 43.7471 101.39 43.3467 101.673C42.9463 101.956 42.4694 102.098 41.916 102.098ZM40.4072 98.8506H43.3369C43.2783 98.4242 43.1188 98.0921 42.8584 97.8545C42.598 97.6169 42.2676 97.498 41.8672 97.498C41.4668 97.498 41.1364 97.6169 40.876 97.8545C40.6156 98.0921 40.4593 98.4242 40.4072 98.8506Z" fill="white"/>
</g>
<g opacity="0.8">
<path d="M8.80078 126V118.998H13.2979V119.95H9.85059V122.001H13.0977V122.948H9.85059V125.048H13.4004V126H8.80078ZM14.5479 126V120.702H15.2998L15.4463 121.4H15.5C15.8255 120.867 16.3252 120.6 16.999 120.6C17.5785 120.6 18.0472 120.797 18.4053 121.19C18.7666 121.584 18.9473 122.104 18.9473 122.748V126H18V122.802C18 122.388 17.8893 122.068 17.668 121.84C17.4499 121.612 17.1602 121.498 16.7988 121.498C16.431 121.498 16.1217 121.627 15.8711 121.884C15.6237 122.141 15.5 122.447 15.5 122.802V126H14.5479ZM22.4531 128.002C21.8542 128.002 21.348 127.857 20.9346 127.567C20.5212 127.281 20.2266 126.876 20.0508 126.352H21.0518C21.2503 126.853 21.7174 127.102 22.4531 127.099C22.8926 127.099 23.236 126.993 23.4834 126.781C23.7308 126.573 23.8545 126.262 23.8545 125.849V124.999H23.8008C23.446 125.465 22.9137 125.699 22.2041 125.702C21.5368 125.702 20.9948 125.479 20.5781 125.033C20.1615 124.584 19.9531 123.959 19.9531 123.158C19.9531 122.351 20.1615 121.723 20.5781 121.273C20.9948 120.824 21.5368 120.6 22.2041 120.6C22.5492 120.6 22.8649 120.674 23.1514 120.824C23.4378 120.974 23.6722 121.166 23.8545 121.4H23.9033L24.0547 120.702H24.8018V125.849C24.8018 126.529 24.5967 127.058 24.1865 127.436C23.7764 127.813 23.1986 128.002 22.4531 128.002ZM22.3506 124.799C22.79 124.799 23.1497 124.652 23.4297 124.359C23.7129 124.066 23.8545 123.666 23.8545 123.158C23.8545 122.644 23.7145 122.239 23.4346 121.942C23.1546 121.646 22.7933 121.498 22.3506 121.498C21.9176 121.498 21.5677 121.646 21.3008 121.942C21.0339 122.235 20.9004 122.641 20.9004 123.158C20.9004 123.673 21.0339 124.075 21.3008 124.364C21.5677 124.654 21.9176 124.799 22.3506 124.799ZM26.1494 126V118.998H27.1016V126H26.1494ZM28.4541 126V120.702H29.4062V126H28.4541ZM28.9326 120.102C28.7471 120.102 28.5957 120.043 28.4785 119.926C28.3613 119.809 28.3027 119.66 28.3027 119.481C28.3027 119.296 28.3613 119.145 28.4785 119.027C28.5957 118.91 28.7471 118.852 28.9326 118.852C29.1117 118.852 29.2598 118.91 29.377 119.027C29.4941 119.141 29.5527 119.293 29.5527 119.481C29.5527 119.66 29.4941 119.809 29.377 119.926C29.2598 120.043 29.1117 120.102 28.9326 120.102ZM32.4531 126.098C31.8932 126.098 31.4196 125.954 31.0322 125.668C30.6449 125.382 30.4007 125.009 30.2998 124.55H31.3496C31.4831 124.983 31.8509 125.199 32.4531 125.199C32.834 125.199 33.1204 125.137 33.3125 125.014C33.5046 124.89 33.6006 124.735 33.6006 124.55C33.6006 124.371 33.5241 124.228 33.3711 124.12C33.2181 124.013 33.026 123.938 32.7949 123.896C32.5671 123.853 32.3197 123.796 32.0527 123.725C31.7858 123.65 31.5368 123.565 31.3057 123.471C31.0745 123.376 30.8825 123.217 30.7295 122.992C30.5765 122.764 30.5 122.484 30.5 122.152C30.5 121.713 30.6709 121.345 31.0127 121.049C31.3577 120.749 31.82 120.6 32.3994 120.6C32.9398 120.6 33.4004 120.733 33.7812 121C34.1621 121.267 34.4014 121.617 34.499 122.05H33.4492C33.2637 121.682 32.9137 121.498 32.3994 121.498C31.7646 121.498 31.4489 121.716 31.4521 122.152C31.4521 122.331 31.5286 122.476 31.6816 122.587C31.8346 122.694 32.0251 122.771 32.2529 122.816C32.484 122.859 32.7331 122.919 33 122.997C33.2669 123.072 33.5143 123.157 33.7422 123.251C33.9733 123.342 34.1654 123.5 34.3184 123.725C34.4746 123.949 34.5527 124.224 34.5527 124.55C34.5527 124.989 34.3656 125.357 33.9912 125.653C33.6201 125.95 33.1074 126.098 32.4531 126.098ZM35.5537 126V118.998H36.5059V121.352H36.5547C36.7012 121.111 36.9046 120.925 37.165 120.795C37.4255 120.665 37.7054 120.6 38.0049 120.6C38.5843 120.6 39.0531 120.797 39.4111 121.19C39.7725 121.584 39.9531 122.104 39.9531 122.748V126H39.0059V122.802C39.0059 122.388 38.8952 122.068 38.6738 121.84C38.4557 121.612 38.166 121.498 37.8047 121.498C37.4368 121.498 37.1276 121.627 36.877 121.884C36.6296 122.141 36.5059 122.447 36.5059 122.802V126H35.5537Z" fill="white"/>
</g>
<g opacity="0.7">
<path d="M8.80078 150V142.998H13.2979V143.95H9.85059V146.152H13.0488V147.1H9.85059V150H8.80078ZM14.1475 150V144.702H14.8994L15.0459 145.4H15.0996C15.3796 144.935 15.8288 144.702 16.4473 144.702H17.0479V145.601H16.4961C16.0762 145.601 15.7376 145.723 15.4805 145.967C15.2266 146.208 15.0996 146.519 15.0996 146.899V150H14.1475ZM19.8945 150.098C19.1361 150.098 18.529 149.855 18.0732 149.37C17.6208 148.882 17.3945 148.208 17.3945 147.349C17.3945 146.489 17.6175 145.817 18.0635 145.332C18.5094 144.844 19.1035 144.6 19.8457 144.6C20.5977 144.6 21.1934 144.854 21.6328 145.361C22.0723 145.866 22.292 146.445 22.292 147.1L22.2432 147.651H18.3857C18.4118 148.146 18.5615 148.529 18.835 148.799C19.1084 149.066 19.4616 149.199 19.8945 149.199C20.4414 149.199 20.8581 148.983 21.1445 148.55H22.1943C22.0153 149.015 21.7256 149.39 21.3252 149.673C20.9248 149.956 20.4479 150.098 19.8945 150.098ZM18.3857 146.851H21.3154C21.2568 146.424 21.0973 146.092 20.8369 145.854C20.5765 145.617 20.2461 145.498 19.8457 145.498C19.4453 145.498 19.1149 145.617 18.8545 145.854C18.5941 146.092 18.4378 146.424 18.3857 146.851ZM23.3467 150V144.702H24.0986L24.2451 145.4H24.2988C24.6243 144.867 25.124 144.6 25.7979 144.6C26.3773 144.6 26.846 144.797 27.2041 145.19C27.5654 145.584 27.7461 146.104 27.7461 146.748V150H26.7988V146.802C26.7988 146.388 26.6882 146.068 26.4668 145.84C26.2487 145.612 25.959 145.498 25.5977 145.498C25.2298 145.498 24.9206 145.627 24.6699 145.884C24.4225 146.141 24.2988 146.447 24.2988 146.802V150H23.3467ZM31.252 150.098C30.4935 150.098 29.8864 149.855 29.4307 149.37C28.9782 148.882 28.752 148.208 28.752 147.349C28.752 146.489 28.9782 145.817 29.4307 145.332C29.8831 144.844 30.4902 144.6 31.252 144.6C31.8118 144.6 32.2887 144.744 32.6826 145.034C33.0765 145.324 33.3499 145.713 33.5029 146.201H32.502C32.2415 145.736 31.8249 145.501 31.252 145.498C30.793 145.498 30.4186 145.661 30.1289 145.986C29.8424 146.309 29.6992 146.764 29.6992 147.354C29.6992 147.939 29.8424 148.394 30.1289 148.716C30.4186 149.038 30.793 149.199 31.252 149.199C31.8249 149.199 32.2415 148.966 32.502 148.501H33.5029C33.3499 148.989 33.0765 149.378 32.6826 149.668C32.2887 149.954 31.8118 150.098 31.252 150.098ZM34.5479 150V142.998H35.5V145.352H35.5488C35.6953 145.111 35.8988 144.925 36.1592 144.795C36.4196 144.665 36.6995 144.6 36.999 144.6C37.5785 144.6 38.0472 144.797 38.4053 145.19C38.7666 145.584 38.9473 146.104 38.9473 146.748V150H38V146.802C38 146.388 37.8893 146.068 37.668 145.84C37.4499 145.612 37.1602 145.498 36.7988 145.498C36.431 145.498 36.1217 145.627 35.8711 145.884C35.6237 146.141 35.5 146.447 35.5 146.802V150H34.5479Z" fill="white"/>
</g>
<g opacity="0.5">
<path d="M8.80078 174V166.998H9.85059V170.001H13.249V166.998H14.2988V174H13.249V170.948H9.85059V174H8.80078ZM15.749 174V168.702H16.7012V174H15.749ZM16.2275 168.102C16.042 168.102 15.8906 168.043 15.7734 167.926C15.6562 167.809 15.5977 167.66 15.5977 167.481C15.5977 167.296 15.6562 167.145 15.7734 167.027C15.8906 166.91 16.042 166.852 16.2275 166.852C16.4066 166.852 16.5547 166.91 16.6719 167.027C16.7891 167.141 16.8477 167.293 16.8477 167.481C16.8477 167.66 16.7891 167.809 16.6719 167.926C16.5547 168.043 16.4066 168.102 16.2275 168.102ZM17.9951 174V168.702H18.7471L18.8936 169.4H18.9473C19.2728 168.867 19.7725 168.6 20.4463 168.6C21.0257 168.6 21.4945 168.797 21.8525 169.19C22.2139 169.584 22.3945 170.104 22.3945 170.748V174H21.4473V170.802C21.4473 170.388 21.3366 170.068 21.1152 169.84C20.8971 169.612 20.6074 169.498 20.2461 169.498C19.8783 169.498 19.569 169.627 19.3184 169.884C19.071 170.141 18.9473 170.447 18.9473 170.802V174H17.9951ZM25.7979 173.199C26.2438 173.199 26.6051 173.041 26.8818 172.726C27.1618 172.41 27.3018 171.952 27.3018 171.354C27.3018 170.751 27.1634 170.292 26.8867 169.977C26.61 169.658 26.2471 169.498 25.7979 169.498C25.3584 169.498 25.0068 169.656 24.7432 169.972C24.4795 170.284 24.3477 170.745 24.3477 171.354C24.3477 171.959 24.4795 172.418 24.7432 172.73C25.0068 173.043 25.3584 173.199 25.7979 173.199ZM25.6514 174.098C24.9775 174.098 24.4339 173.858 24.0205 173.38C23.6071 172.901 23.4004 172.224 23.4004 171.349C23.4004 170.47 23.6104 169.793 24.0303 169.317C24.4502 168.839 25.0068 168.6 25.7002 168.6C26.361 168.6 26.877 168.85 27.248 169.352H27.3018V166.998H28.249V174H27.502L27.3506 173.302H27.3018C26.8883 173.832 26.3382 174.098 25.6514 174.098ZM29.5967 174V168.702H30.5488V174H29.5967ZM30.0752 168.102C29.8896 168.102 29.7383 168.043 29.6211 167.926C29.5039 167.809 29.4453 167.66 29.4453 167.481C29.4453 167.296 29.5039 167.145 29.6211 167.027C29.7383 166.91 29.8896 166.852 30.0752 166.852C30.2542 166.852 30.4023 166.91 30.5195 167.027C30.6367 167.141 30.6953 167.293 30.6953 167.481C30.6953 167.66 30.6367 167.809 30.5195 167.926C30.4023 168.043 30.2542 168.102 30.0752 168.102Z" fill="white"/>
</g>
<g opacity="0.4">
<path d="M10.5488 198.098C9.89453 198.098 9.37207 197.925 8.98145 197.58C8.59408 197.232 8.34993 196.722 8.24902 196.052H9.29883C9.44531 196.784 9.86198 197.15 10.5488 197.15C10.9362 197.15 11.2406 197.02 11.4619 196.76C11.6865 196.499 11.7988 196.112 11.7988 195.598V190.998H12.8486V195.598C12.8486 196.405 12.6436 197.023 12.2334 197.453C11.8232 197.883 11.2617 198.098 10.5488 198.098ZM15.8955 197.248C16.335 197.248 16.6865 197.128 16.9502 196.887C17.2139 196.643 17.3457 196.33 17.3457 195.949V195.651H15.9443C15.5993 195.651 15.3372 195.723 15.1582 195.866C14.9824 196.009 14.8945 196.205 14.8945 196.452C14.8945 196.696 14.9824 196.89 15.1582 197.033C15.3372 197.176 15.583 197.248 15.8955 197.248ZM15.7441 198.098C15.2103 198.098 14.7773 197.938 14.4453 197.619C14.1133 197.3 13.9473 196.911 13.9473 196.452C13.9473 195.98 14.123 195.588 14.4746 195.275C14.8294 194.96 15.3193 194.802 15.9443 194.802H17.3457V194.548C17.3457 194.222 17.2415 193.967 17.0332 193.781C16.8281 193.592 16.5482 193.498 16.1934 193.498C15.9069 193.498 15.6742 193.56 15.4951 193.684C15.3161 193.807 15.1989 193.964 15.1436 194.152H14.1475C14.2484 193.713 14.486 193.345 14.8604 193.049C15.238 192.749 15.6823 192.6 16.1934 192.6C16.8542 192.6 17.3701 192.779 17.7412 193.137C18.1123 193.492 18.2979 193.962 18.2979 194.548V198H17.4971L17.3945 197.351H17.3457C17.2318 197.543 17.0299 197.715 16.7402 197.868C16.4505 198.021 16.1185 198.098 15.7441 198.098ZM19.5479 200.002V192.702H20.2998L20.4463 193.4H20.5C20.9134 192.867 21.4635 192.6 22.1504 192.6C22.8242 192.6 23.3662 192.84 23.7764 193.322C24.1898 193.801 24.3965 194.478 24.3965 195.354C24.3965 196.226 24.1898 196.901 23.7764 197.38C23.363 197.858 22.821 198.098 22.1504 198.098C21.457 198.098 20.9232 197.849 20.5488 197.351H20.5V200.002H19.5479ZM21.999 197.199C22.4385 197.199 22.79 197.043 23.0537 196.73C23.3174 196.418 23.4492 195.959 23.4492 195.354C23.4492 194.745 23.3174 194.284 23.0537 193.972C22.79 193.656 22.4385 193.498 21.999 193.498C21.5531 193.498 21.1917 193.658 20.915 193.977C20.6383 194.292 20.5 194.751 20.5 195.354C20.5 195.952 20.6383 196.41 20.915 196.726C21.1917 197.041 21.5531 197.199 21.999 197.199ZM27.0967 197.248C27.5361 197.248 27.8877 197.128 28.1514 196.887C28.415 196.643 28.5469 196.33 28.5469 195.949V195.651H27.1455C26.8005 195.651 26.5384 195.723 26.3594 195.866C26.1836 196.009 26.0957 196.205 26.0957 196.452C26.0957 196.696 26.1836 196.89 26.3594 197.033C26.5384 197.176 26.7842 197.248 27.0967 197.248ZM26.9453 198.098C26.4115 198.098 25.9785 197.938 25.6465 197.619C25.3145 197.3 25.1484 196.911 25.1484 196.452C25.1484 195.98 25.3242 195.588 25.6758 195.275C26.0306 194.96 26.5205 194.802 27.1455 194.802H28.5469V194.548C28.5469 194.222 28.4427 193.967 28.2344 193.781C28.0293 193.592 27.7493 193.498 27.3945 193.498C27.1081 193.498 26.8753 193.56 26.6963 193.684C26.5173 193.807 26.4001 193.964 26.3447 194.152H25.3486C25.4495 193.713 25.6872 193.345 26.0615 193.049C26.4391 192.749 26.8835 192.6 27.3945 192.6C28.0553 192.6 28.5713 192.779 28.9424 193.137C29.3135 193.492 29.499 193.962 29.499 194.548V198H28.6982L28.5957 197.351H28.5469C28.4329 197.543 28.2311 197.715 27.9414 197.868C27.6517 198.021 27.3197 198.098 26.9453 198.098ZM30.749 198V192.702H31.501L31.6475 193.4H31.7012C32.0267 192.867 32.5264 192.6 33.2002 192.6C33.7796 192.6 34.2484 192.797 34.6064 193.19C34.9678 193.584 35.1484 194.104 35.1484 194.748V198H34.2012V194.802C34.2012 194.388 34.0905 194.068 33.8691 193.84C33.651 193.612 33.3613 193.498 33 193.498C32.6322 193.498 32.3229 193.627 32.0723 193.884C31.8249 194.141 31.7012 194.447 31.7012 194.802V198H30.749ZM38.6543 198.098C37.8958 198.098 37.2887 197.855 36.833 197.37C36.3805 196.882 36.1543 196.208 36.1543 195.349C36.1543 194.489 36.3773 193.817 36.8232 193.332C37.2692 192.844 37.8633 192.6 38.6055 192.6C39.3574 192.6 39.9531 192.854 40.3926 193.361C40.832 193.866 41.0518 194.445 41.0518 195.1L41.0029 195.651H37.1455C37.1715 196.146 37.3213 196.529 37.5947 196.799C37.8682 197.066 38.2214 197.199 38.6543 197.199C39.2012 197.199 39.6178 196.983 39.9043 196.55H40.9541C40.7751 197.015 40.4854 197.39 40.085 197.673C39.6846 197.956 39.2077 198.098 38.6543 198.098ZM37.1455 194.851H40.0752C40.0166 194.424 39.8571 194.092 39.5967 193.854C39.3363 193.617 39.0059 193.498 38.6055 193.498C38.2051 193.498 37.8747 193.617 37.6143 193.854C37.3538 194.092 37.1976 194.424 37.1455 194.851ZM43.8594 198.098C43.2995 198.098 42.8258 197.954 42.4385 197.668C42.0511 197.382 41.807 197.009 41.7061 196.55H42.7559C42.8893 196.983 43.2572 197.199 43.8594 197.199C44.2402 197.199 44.5267 197.137 44.7188 197.014C44.9108 196.89 45.0068 196.735 45.0068 196.55C45.0068 196.371 44.9303 196.228 44.7773 196.12C44.6243 196.013 44.4323 195.938 44.2012 195.896C43.9733 195.853 43.7259 195.796 43.459 195.725C43.1921 195.65 42.943 195.565 42.7119 195.471C42.4808 195.376 42.2887 195.217 42.1357 194.992C41.9827 194.764 41.9062 194.484 41.9062 194.152C41.9062 193.713 42.0771 193.345 42.4189 193.049C42.764 192.749 43.2262 192.6 43.8057 192.6C44.346 192.6 44.8066 192.733 45.1875 193C45.5684 193.267 45.8076 193.617 45.9053 194.05H44.8555C44.6699 193.682 44.32 193.498 43.8057 193.498C43.1709 193.498 42.8551 193.716 42.8584 194.152C42.8584 194.331 42.9349 194.476 43.0879 194.587C43.2409 194.694 43.4313 194.771 43.6592 194.816C43.8903 194.859 44.1393 194.919 44.4062 194.997C44.6732 195.072 44.9206 195.157 45.1484 195.251C45.3796 195.342 45.5716 195.5 45.7246 195.725C45.8809 195.949 45.959 196.224 45.959 196.55C45.959 196.989 45.7718 197.357 45.3975 197.653C45.0264 197.95 44.5137 198.098 43.8594 198.098ZM49.1621 198.098C48.4036 198.098 47.7965 197.855 47.3408 197.37C46.8883 196.882 46.6621 196.208 46.6621 195.349C46.6621 194.489 46.8851 193.817 47.3311 193.332C47.777 192.844 48.3711 192.6 49.1133 192.6C49.8652 192.6 50.4609 192.854 50.9004 193.361C51.3398 193.866 51.5596 194.445 51.5596 195.1L51.5107 195.651H47.6533C47.6794 196.146 47.8291 196.529 48.1025 196.799C48.376 197.066 48.7292 197.199 49.1621 197.199C49.709 197.199 50.1257 196.983 50.4121 196.55H51.4619C51.2829 197.015 50.9932 197.39 50.5928 197.673C50.1924 197.956 49.7155 198.098 49.1621 198.098ZM47.6533 194.851H50.583C50.5244 194.424 50.3649 194.092 50.1045 193.854C49.8441 193.617 49.5137 193.498 49.1133 193.498C48.7129 193.498 48.3825 193.617 48.1221 193.854C47.8617 194.092 47.7054 194.424 47.6533 194.851Z" fill="white"/>
</g>
<g opacity="0.3">
<path d="M8.80078 222V214.998H11.5986C12.2725 214.998 12.8161 215.195 13.2295 215.589C13.6429 215.983 13.8496 216.504 13.8496 217.151C13.8496 217.49 13.7926 217.798 13.6787 218.074C13.5648 218.351 13.4167 218.572 13.2344 218.738C13.0521 218.901 12.8649 219.03 12.6729 219.124C12.484 219.215 12.2936 219.274 12.1016 219.3L14.001 222H12.7998L10.9004 219.3H9.85059V222H8.80078ZM9.85059 218.348H11.501C11.9014 218.348 12.2171 218.242 12.4482 218.03C12.6826 217.815 12.7998 217.522 12.7998 217.151C12.7998 216.777 12.6826 216.484 12.4482 216.272C12.2171 216.058 11.9014 215.95 11.501 215.95H9.85059V218.348ZM16.7891 222.098C16.2096 222.098 15.7393 221.902 15.3779 221.512C15.0199 221.118 14.8408 220.597 14.8408 219.949V216.702H15.793V219.9C15.793 220.314 15.902 220.634 16.1201 220.862C16.3415 221.087 16.6312 221.199 16.9893 221.199C17.3571 221.199 17.6663 221.071 17.917 220.813C18.1676 220.556 18.293 220.252 18.293 219.9V216.702H19.2402V222H18.4932L18.3418 221.302H18.293C17.9642 221.832 17.4629 222.098 16.7891 222.098ZM22.2969 222.098C21.737 222.098 21.2633 221.954 20.876 221.668C20.4886 221.382 20.2445 221.009 20.1436 220.55H21.1934C21.3268 220.983 21.6947 221.199 22.2969 221.199C22.6777 221.199 22.9642 221.137 23.1562 221.014C23.3483 220.89 23.4443 220.735 23.4443 220.55C23.4443 220.371 23.3678 220.228 23.2148 220.12C23.0618 220.013 22.8698 219.938 22.6387 219.896C22.4108 219.853 22.1634 219.796 21.8965 219.725C21.6296 219.65 21.3805 219.565 21.1494 219.471C20.9183 219.376 20.7262 219.217 20.5732 218.992C20.4202 218.764 20.3438 218.484 20.3438 218.152C20.3438 217.713 20.5146 217.345 20.8564 217.049C21.2015 216.749 21.6637 216.6 22.2432 216.6C22.7835 216.6 23.2441 216.733 23.625 217C24.0059 217.267 24.2451 217.617 24.3428 218.05H23.293C23.1074 217.682 22.7575 217.498 22.2432 217.498C21.6084 217.498 21.2926 217.716 21.2959 218.152C21.2959 218.331 21.3724 218.476 21.5254 218.587C21.6784 218.694 21.8688 218.771 22.0967 218.816C22.3278 218.859 22.5768 218.919 22.8438 218.997C23.1107 219.072 23.3581 219.157 23.5859 219.251C23.8171 219.342 24.0091 219.5 24.1621 219.725C24.3184 219.949 24.3965 220.224 24.3965 220.55C24.3965 220.989 24.2093 221.357 23.835 221.653C23.4639 221.95 22.9512 222.098 22.2969 222.098ZM27.1016 222.098C26.5417 222.098 26.068 221.954 25.6807 221.668C25.2933 221.382 25.0492 221.009 24.9482 220.55H25.998C26.1315 220.983 26.4993 221.199 27.1016 221.199C27.4824 221.199 27.7689 221.137 27.9609 221.014C28.153 220.89 28.249 220.735 28.249 220.55C28.249 220.371 28.1725 220.228 28.0195 220.12C27.8665 220.013 27.6745 219.938 27.4434 219.896C27.2155 219.853 26.9681 219.796 26.7012 219.725C26.4342 219.65 26.1852 219.565 25.9541 219.471C25.723 219.376 25.5309 219.217 25.3779 218.992C25.2249 218.764 25.1484 218.484 25.1484 218.152C25.1484 217.713 25.3193 217.345 25.6611 217.049C26.0062 216.749 26.4684 216.6 27.0479 216.6C27.5882 216.6 28.0488 216.733 28.4297 217C28.8105 217.267 29.0498 217.617 29.1475 218.05H28.0977C27.9121 217.682 27.5622 217.498 27.0479 217.498C26.4131 217.498 26.0973 217.716 26.1006 218.152C26.1006 218.331 26.1771 218.476 26.3301 218.587C26.4831 218.694 26.6735 218.771 26.9014 218.816C27.1325 218.859 27.3815 218.919 27.6484 218.997C27.9154 219.072 28.1628 219.157 28.3906 219.251C28.6217 219.342 28.8138 219.5 28.9668 219.725C29.123 219.949 29.2012 220.224 29.2012 220.55C29.2012 220.989 29.014 221.357 28.6396 221.653C28.2686 221.95 27.7559 222.098 27.1016 222.098ZM30.1533 222V216.702H31.1055V222H30.1533ZM30.6318 216.102C30.4463 216.102 30.2949 216.043 30.1777 215.926C30.0605 215.809 30.002 215.66 30.002 215.481C30.002 215.296 30.0605 215.145 30.1777 215.027C30.2949 214.91 30.4463 214.852 30.6318 214.852C30.8109 214.852 30.959 214.91 31.0762 215.027C31.1934 215.141 31.252 215.293 31.252 215.481C31.252 215.66 31.1934 215.809 31.0762 215.926C30.959 216.043 30.8109 216.102 30.6318 216.102ZM34.0498 221.248C34.4893 221.248 34.8408 221.128 35.1045 220.887C35.3682 220.643 35.5 220.33 35.5 219.949V219.651H34.0986C33.7536 219.651 33.4915 219.723 33.3125 219.866C33.1367 220.009 33.0488 220.205 33.0488 220.452C33.0488 220.696 33.1367 220.89 33.3125 221.033C33.4915 221.176 33.7373 221.248 34.0498 221.248ZM33.8984 222.098C33.3646 222.098 32.9316 221.938 32.5996 221.619C32.2676 221.3 32.1016 220.911 32.1016 220.452C32.1016 219.98 32.2773 219.588 32.6289 219.275C32.9837 218.96 33.4736 218.802 34.0986 218.802H35.5V218.548C35.5 218.222 35.3958 217.967 35.1875 217.781C34.9824 217.592 34.7025 217.498 34.3477 217.498C34.0612 217.498 33.8285 217.56 33.6494 217.684C33.4704 217.807 33.3532 217.964 33.2979 218.152H32.3018C32.4027 217.713 32.6403 217.345 33.0146 217.049C33.3923 216.749 33.8366 216.6 34.3477 216.6C35.0085 216.6 35.5244 216.779 35.8955 217.137C36.2666 217.492 36.4521 217.962 36.4521 218.548V222H35.6514L35.5488 221.351H35.5C35.3861 221.543 35.1842 221.715 34.8945 221.868C34.6048 222.021 34.2728 222.098 33.8984 222.098ZM37.7021 222V216.702H38.4541L38.6006 217.4H38.6543C38.9798 216.867 39.4795 216.6 40.1533 216.6C40.7327 216.6 41.2015 216.797 41.5596 217.19C41.9209 217.584 42.1016 218.104 42.1016 218.748V222H41.1543V218.802C41.1543 218.388 41.0436 218.068 40.8223 217.84C40.6042 217.612 40.3145 217.498 39.9531 217.498C39.5853 217.498 39.276 217.627 39.0254 217.884C38.778 218.141 38.6543 218.447 38.6543 218.802V222H37.7021Z" fill="white"/>
</g>
<g opacity="0.1">
<path d="M10.9492 246.098C10.2233 246.098 9.62435 245.922 9.15234 245.57C8.68359 245.215 8.39876 244.726 8.29785 244.101H9.34766C9.54622 244.8 10.0801 245.15 10.9492 245.15C11.457 245.15 11.8428 245.053 12.1064 244.857C12.3701 244.659 12.502 244.39 12.502 244.052C12.502 243.83 12.4271 243.646 12.2773 243.5C12.1309 243.354 11.9388 243.244 11.7012 243.173C11.4668 243.098 11.208 243.031 10.9248 242.973C10.6416 242.911 10.3584 242.836 10.0752 242.748C9.79199 242.657 9.53158 242.543 9.29395 242.406C9.05957 242.27 8.86751 242.069 8.71777 241.806C8.57129 241.542 8.49805 241.223 8.49805 240.849C8.49805 240.269 8.7194 239.8 9.16211 239.442C9.60807 239.081 10.2038 238.9 10.9492 238.9C11.6361 238.9 12.1927 239.062 12.6191 239.384C13.0456 239.703 13.3223 240.142 13.4492 240.702H12.3994C12.1715 240.136 11.6882 239.851 10.9492 239.848C10.5163 239.848 10.1745 239.944 9.92383 240.136C9.67318 240.325 9.54785 240.562 9.54785 240.849C9.54785 241.083 9.62272 241.278 9.77246 241.435C9.92546 241.591 10.1191 241.711 10.3535 241.796C10.5911 241.877 10.8548 241.952 11.1445 242.021C11.4342 242.086 11.7223 242.164 12.0088 242.255C12.2952 242.346 12.5573 242.457 12.7949 242.587C13.0326 242.717 13.2262 242.906 13.376 243.153C13.5257 243.397 13.6006 243.697 13.6006 244.052C13.6006 244.625 13.363 245.11 12.8877 245.507C12.4157 245.901 11.7695 246.098 10.9492 246.098ZM14.5967 248.002V240.702H15.3486L15.4951 241.4H15.5488C15.9622 240.867 16.5124 240.6 17.1992 240.6C17.873 240.6 18.415 240.84 18.8252 241.322C19.2386 241.801 19.4453 242.478 19.4453 243.354C19.4453 244.226 19.2386 244.901 18.8252 245.38C18.4118 245.858 17.8698 246.098 17.1992 246.098C16.5059 246.098 15.972 245.849 15.5977 245.351H15.5488V248.002H14.5967ZM17.0479 245.199C17.4873 245.199 17.8389 245.043 18.1025 244.73C18.3662 244.418 18.498 243.959 18.498 243.354C18.498 242.745 18.3662 242.284 18.1025 241.972C17.8389 241.656 17.4873 241.498 17.0479 241.498C16.6019 241.498 16.2406 241.658 15.9639 241.977C15.6872 242.292 15.5488 242.751 15.5488 243.354C15.5488 243.952 15.6872 244.41 15.9639 244.726C16.2406 245.041 16.6019 245.199 17.0479 245.199ZM22.1455 245.248C22.585 245.248 22.9365 245.128 23.2002 244.887C23.4639 244.643 23.5957 244.33 23.5957 243.949V243.651H22.1943C21.8493 243.651 21.5872 243.723 21.4082 243.866C21.2324 244.009 21.1445 244.205 21.1445 244.452C21.1445 244.696 21.2324 244.89 21.4082 245.033C21.5872 245.176 21.833 245.248 22.1455 245.248ZM21.9941 246.098C21.4603 246.098 21.0273 245.938 20.6953 245.619C20.3633 245.3 20.1973 244.911 20.1973 244.452C20.1973 243.98 20.373 243.588 20.7246 243.275C21.0794 242.96 21.5693 242.802 22.1943 242.802H23.5957V242.548C23.5957 242.222 23.4915 241.967 23.2832 241.781C23.0781 241.592 22.7982 241.498 22.4434 241.498C22.1569 241.498 21.9242 241.56 21.7451 241.684C21.5661 241.807 21.4489 241.964 21.3936 242.152H20.3975C20.4984 241.713 20.736 241.345 21.1104 241.049C21.488 240.749 21.9323 240.6 22.4434 240.6C23.1042 240.6 23.6201 240.779 23.9912 241.137C24.3623 241.492 24.5479 241.962 24.5479 242.548V246H23.7471L23.6445 245.351H23.5957C23.4818 245.543 23.2799 245.715 22.9902 245.868C22.7005 246.021 22.3685 246.098 21.9941 246.098ZM25.7979 246V240.702H26.5498L26.6963 241.4H26.75C27.0755 240.867 27.5752 240.6 28.249 240.6C28.8285 240.6 29.2972 240.797 29.6553 241.19C30.0166 241.584 30.1973 242.104 30.1973 242.748V246H29.25V242.802C29.25 242.388 29.1393 242.068 28.918 241.84C28.6999 241.612 28.4102 241.498 28.0488 241.498C27.681 241.498 27.3717 241.627 27.1211 241.884C26.8737 242.141 26.75 242.447 26.75 242.802V246H25.7979ZM31.4521 246V240.702H32.4043V246H31.4521ZM31.9307 240.102C31.7451 240.102 31.5938 240.043 31.4766 239.926C31.3594 239.809 31.3008 239.66 31.3008 239.481C31.3008 239.296 31.3594 239.145 31.4766 239.027C31.5938 238.91 31.7451 238.852 31.9307 238.852C32.1097 238.852 32.2578 238.91 32.375 239.027C32.4922 239.141 32.5508 239.293 32.5508 239.481C32.5508 239.66 32.4922 239.809 32.375 239.926C32.2578 240.043 32.1097 240.102 31.9307 240.102ZM35.4512 246.098C34.8913 246.098 34.4176 245.954 34.0303 245.668C33.6429 245.382 33.3988 245.009 33.2979 244.55H34.3477C34.4811 244.983 34.849 245.199 35.4512 245.199C35.832 245.199 36.1185 245.137 36.3105 245.014C36.5026 244.89 36.5986 244.735 36.5986 244.55C36.5986 244.371 36.5221 244.228 36.3691 244.12C36.2161 244.013 36.0241 243.938 35.793 243.896C35.5651 243.853 35.3177 243.796 35.0508 243.725C34.7839 243.65 34.5348 243.565 34.3037 243.471C34.0726 243.376 33.8805 243.217 33.7275 242.992C33.5745 242.764 33.498 242.484 33.498 242.152C33.498 241.713 33.6689 241.345 34.0107 241.049C34.3558 240.749 34.818 240.6 35.3975 240.6C35.9378 240.6 36.3984 240.733 36.7793 241C37.1602 241.267 37.3994 241.617 37.4971 242.05H36.4473C36.2617 241.682 35.9118 241.498 35.3975 241.498C34.7627 241.498 34.4469 241.716 34.4502 242.152C34.4502 242.331 34.5267 242.476 34.6797 242.587C34.8327 242.694 35.0231 242.771 35.251 242.816C35.4821 242.859 35.7311 242.919 35.998 242.997C36.265 243.072 36.5124 243.157 36.7402 243.251C36.9714 243.342 37.1634 243.5 37.3164 243.725C37.4727 243.949 37.5508 244.224 37.5508 244.55C37.5508 244.989 37.3636 245.357 36.9893 245.653C36.6182 245.95 36.1055 246.098 35.4512 246.098ZM38.5518 246V238.998H39.5039V241.352H39.5527C39.6992 241.111 39.9027 240.925 40.1631 240.795C40.4235 240.665 40.7035 240.6 41.0029 240.6C41.5824 240.6 42.0511 240.797 42.4092 241.19C42.7705 241.584 42.9512 242.104 42.9512 242.748V246H42.0039V242.802C42.0039 242.388 41.8932 242.068 41.6719 241.84C41.4538 241.612 41.1641 241.498 40.8027 241.498C40.4349 241.498 40.1257 241.627 39.875 241.884C39.6276 242.141 39.5039 242.447 39.5039 242.802V246H38.5518Z" fill="white"/>
</g>
<g opacity="0.05">
<path d="M13.5176 269.302C13.0326 269.832 12.3604 270.098 11.501 270.098C10.6416 270.098 9.96777 269.832 9.47949 269.302C8.99447 268.768 8.75195 268.018 8.75195 267.051V262.998H9.80176V267.051C9.80176 267.712 9.95638 268.228 10.2656 268.599C10.5749 268.966 10.985 269.15 11.4961 269.15C12.0104 269.15 12.4222 268.966 12.7314 268.599C13.0439 268.228 13.2002 267.712 13.2002 267.051V262.998H14.25V267.051C14.25 268.018 14.0059 268.768 13.5176 269.302ZM15.6514 270V264.702H16.4033L16.5498 265.4H16.6035C16.8835 264.935 17.3327 264.702 17.9512 264.702H18.5518V265.601H18C17.5801 265.601 17.2415 265.723 16.9844 265.967C16.7305 266.208 16.6035 266.519 16.6035 266.899V270H15.6514ZM21.2959 269.199C21.7419 269.199 22.1032 269.041 22.3799 268.726C22.6598 268.41 22.7998 267.952 22.7998 267.354C22.7998 266.751 22.6615 266.292 22.3848 265.977C22.1081 265.658 21.7451 265.498 21.2959 265.498C20.8564 265.498 20.5049 265.656 20.2412 265.972C19.9775 266.284 19.8457 266.745 19.8457 267.354C19.8457 267.959 19.9775 268.418 20.2412 268.73C20.5049 269.043 20.8564 269.199 21.2959 269.199ZM21.1494 270.098C20.4756 270.098 19.932 269.858 19.5186 269.38C19.1051 268.901 18.8984 268.224 18.8984 267.349C18.8984 266.47 19.1084 265.793 19.5283 265.317C19.9482 264.839 20.5049 264.6 21.1982 264.6C21.859 264.6 22.375 264.85 22.7461 265.352H22.7998V262.998H23.7471V270H23L22.8486 269.302H22.7998C22.3864 269.832 21.8363 270.098 21.1494 270.098ZM27.043 270.098C26.4635 270.098 25.9932 269.902 25.6318 269.512C25.2738 269.118 25.0947 268.597 25.0947 267.949V264.702H26.0469V267.9C26.0469 268.314 26.1559 268.634 26.374 268.862C26.5954 269.087 26.8851 269.199 27.2432 269.199C27.611 269.199 27.9202 269.071 28.1709 268.813C28.4215 268.556 28.5469 268.252 28.5469 267.9V264.702H29.4941V270H28.7471L28.5957 269.302H28.5469C28.2181 269.832 27.7168 270.098 27.043 270.098Z" fill="white"/>
</g>
<defs>
<linearGradient id="paint0_linear_135_1771" x1="102" y1="0" x2="102" y2="240" gradientUnits="userSpaceOnUse">
<stop stop-color="#212332"/>
<stop offset="0.776042" stop-color="#212332" stop-opacity="0"/>
</linearGradient>
</defs>
</svg>
