<svg width="308" height="272" viewBox="0 0 308 272" fill="none" xmlns="http://www.w3.org/2000/svg">
<rect width="308" height="278" rx="24" fill="url(#paint0_linear_135_1757)"/>
<g filter="url(#filter0_i_135_1757)">
<rect x="72" y="20" width="164" height="32" rx="16" fill="#F7F9FB"/>
<rect x="84" y="22" width="78" height="28" rx="14" fill="black"/>
<path d="M102.688 37.125V39.75C102.688 39.9986 102.589 40.2371 102.413 40.4129C102.237 40.5887 101.999 40.6875 101.75 40.6875H94.25C94.0014 40.6875 93.7629 40.5887 93.5871 40.4129C93.4113 40.2371 93.3125 39.9986 93.3125 39.75V37.125C93.3125 36.9758 93.3718 36.8327 93.4773 36.7272C93.5827 36.6217 93.7258 36.5625 93.875 36.5625C94.0242 36.5625 94.1673 36.6217 94.2727 36.7272C94.3782 36.8327 94.4375 36.9758 94.4375 37.125V39.5625H101.562V37.125C101.562 36.9758 101.622 36.8327 101.727 36.7272C101.833 36.6217 101.976 36.5625 102.125 36.5625C102.274 36.5625 102.417 36.6217 102.523 36.7272C102.628 36.8327 102.688 36.9758 102.688 37.125ZM96.523 34.1479L97.4375 33.2343V37.125C97.4375 37.2741 97.4968 37.4172 97.6023 37.5227C97.7077 37.6282 97.8508 37.6875 98 37.6875C98.1492 37.6875 98.2923 37.6282 98.3977 37.5227C98.5032 37.4172 98.5625 37.2741 98.5625 37.125V33.2343L99.477 34.1493C99.5827 34.255 99.726 34.3144 99.8755 34.3144C100.025 34.3144 100.168 34.255 100.274 34.1493C100.38 34.0437 100.439 33.9003 100.439 33.7509C100.439 33.6014 100.38 33.4581 100.274 33.3525L98.3989 31.4775C98.3466 31.425 98.2846 31.3834 98.2162 31.355C98.1478 31.3266 98.0745 31.312 98.0005 31.312C97.9264 31.312 97.8531 31.3266 97.7848 31.355C97.7164 31.3834 97.6543 31.425 97.602 31.4775L95.727 33.3525C95.6747 33.4048 95.6332 33.4669 95.6049 33.5353C95.5766 33.6036 95.562 33.6769 95.562 33.7509C95.562 33.9003 95.6214 34.0437 95.727 34.1493C95.8327 34.255 95.976 34.3144 96.1255 34.3144C96.2749 34.3144 96.4182 34.255 96.5239 34.1493L96.523 34.1479Z" fill="#FDFBFF"/>
<path d="M108.703 39V33.3984H110.266L112.383 37.2383H112.426V33.3984H113.625V39H112.066L109.945 35.1602H109.906V39H108.703ZM116.543 39.0781C115.897 39.0781 115.389 38.8854 115.02 38.5C114.65 38.1146 114.465 37.5755 114.465 36.8828C114.465 36.1875 114.65 35.6471 115.02 35.2617C115.389 34.8737 115.897 34.6797 116.543 34.6797C117.158 34.6797 117.651 34.8776 118.023 35.2734C118.396 35.6667 118.582 36.1758 118.582 36.8008L118.543 37.2383H115.625C115.721 37.7982 116.027 38.0781 116.543 38.0781C116.746 38.0781 116.901 38.0469 117.008 37.9844C117.115 37.9193 117.214 37.8177 117.305 37.6797H118.504C118.392 38.0859 118.176 38.4206 117.855 38.6836C117.535 38.9466 117.098 39.0781 116.543 39.0781ZM115.625 36.3984H117.422C117.38 36.1953 117.283 36.0247 117.129 35.8867C116.978 35.7487 116.783 35.6797 116.543 35.6797C116.074 35.6797 115.768 35.9193 115.625 36.3984ZM120.062 39L118.902 34.7617H120.062L120.785 37.6016H120.824L121.543 34.7617H122.703L123.422 37.6016H123.465L124.184 34.7617H125.262L124.102 39H122.863L122.145 36.3203H122.102L121.383 39H120.062ZM131.504 38.4219C131.082 38.8594 130.508 39.0781 129.781 39.0781C129.057 39.0781 128.483 38.8594 128.059 38.4219C127.634 37.9818 127.422 37.375 127.422 36.6016V33.3984H128.621V36.6016C128.621 37.0495 128.727 37.3945 128.938 37.6367C129.148 37.8789 129.43 38 129.781 38C130.133 38 130.414 37.8789 130.625 37.6367C130.836 37.3945 130.941 37.0495 130.941 36.6016V33.3984H132.141V36.6016C132.141 37.375 131.928 37.9818 131.504 38.4219ZM133.141 40.6016V34.7617H134.102L134.219 35.2383H134.262C134.582 34.8659 134.982 34.6797 135.461 34.6797C136.016 34.6797 136.461 34.8711 136.797 35.2539C137.133 35.6341 137.301 36.1771 137.301 36.8828C137.301 37.5859 137.133 38.1276 136.797 38.5078C136.461 38.888 136.016 39.0781 135.461 39.0781C134.966 39.0781 134.579 38.9049 134.301 38.5586H134.262V40.6016H133.141ZM134.531 37.7812C134.714 37.9792 134.943 38.0781 135.219 38.0781C135.497 38.0781 135.727 37.9792 135.906 37.7812C136.089 37.5807 136.18 37.2812 136.18 36.8828C136.18 36.4818 136.089 36.181 135.906 35.9805C135.727 35.7799 135.497 35.6797 135.219 35.6797C134.943 35.6797 134.714 35.7799 134.531 35.9805C134.352 36.181 134.262 36.4818 134.262 36.8828C134.262 37.2812 134.352 37.5807 134.531 37.7812ZM138.102 39V33.3984H139.223V39H138.102ZM143.621 38.5C143.251 38.8854 142.743 39.0781 142.098 39.0781C141.452 39.0781 140.944 38.8854 140.574 38.5C140.204 38.1146 140.02 37.5755 140.02 36.8828C140.02 36.1875 140.204 35.6471 140.574 35.2617C140.944 34.8737 141.452 34.6797 142.098 34.6797C142.743 34.6797 143.251 34.8737 143.621 35.2617C143.993 35.6471 144.18 36.1875 144.18 36.8828C144.18 37.5755 143.993 38.1146 143.621 38.5ZM141.41 37.7812C141.592 37.9792 141.822 38.0781 142.098 38.0781C142.376 38.0781 142.605 37.9792 142.785 37.7812C142.967 37.5807 143.059 37.2812 143.059 36.8828C143.059 36.4818 142.967 36.181 142.785 35.9805C142.605 35.7799 142.376 35.6797 142.098 35.6797C141.822 35.6797 141.592 35.7799 141.41 35.9805C141.228 36.181 141.137 36.4818 141.137 36.8828C141.137 37.2812 141.228 37.5807 141.41 37.7812ZM146.457 38.1602C146.717 38.1602 146.928 38.0872 147.09 37.9414C147.254 37.793 147.336 37.599 147.336 37.3594V37.2383H146.379C146.191 37.2383 146.051 37.2799 145.957 37.3633C145.863 37.4466 145.816 37.5521 145.816 37.6797C145.816 37.8229 145.87 37.9388 145.977 38.0273C146.083 38.1159 146.243 38.1602 146.457 38.1602ZM146.176 39.0781C145.723 39.0781 145.362 38.9557 145.094 38.7109C144.828 38.4661 144.695 38.1497 144.695 37.7617C144.695 37.3659 144.839 37.0469 145.125 36.8047C145.411 36.5625 145.815 36.4414 146.336 36.4414H147.336V36.2383C147.336 36.0404 147.272 35.8919 147.145 35.793C147.017 35.6914 146.841 35.6406 146.617 35.6406C146.464 35.6406 146.329 35.6758 146.215 35.7461C146.1 35.8138 146.021 35.8984 145.977 36H144.855C144.947 35.6224 145.143 35.3086 145.445 35.0586C145.747 34.806 146.151 34.6797 146.656 34.6797C147.221 34.6797 147.663 34.819 147.98 35.0977C148.298 35.3737 148.457 35.7682 148.457 36.2812V39H147.496L147.379 38.5195H147.336C147.086 38.8919 146.699 39.0781 146.176 39.0781ZM150.566 37.7812C150.749 37.9792 150.978 38.0781 151.254 38.0781C151.533 38.0781 151.762 37.9792 151.941 37.7812C152.124 37.5807 152.215 37.2812 152.215 36.8828C152.215 36.4818 152.124 36.181 151.941 35.9805C151.762 35.7799 151.533 35.6797 151.254 35.6797C150.978 35.6797 150.749 35.7799 150.566 35.9805C150.384 36.181 150.293 36.4818 150.293 36.8828C150.293 37.2812 150.384 37.5807 150.566 37.7812ZM151.016 39.0781C150.461 39.0781 150.016 38.888 149.68 38.5078C149.344 38.1276 149.176 37.5859 149.176 36.8828C149.176 36.1771 149.344 35.6341 149.68 35.2539C150.016 34.8711 150.461 34.6797 151.016 34.6797C151.51 34.6797 151.897 34.8529 152.176 35.1992H152.215V33.3984H153.336V39H152.375L152.254 38.5195H152.215C151.895 38.8919 151.495 39.0781 151.016 39.0781Z" fill="white"/>
<rect x="166" y="25" width="58" height="22" rx="11" fill="#F7F9FB"/>
<path d="M180 38.25C180.597 38.2494 181.168 38.0121 181.59 37.5903C182.012 37.1685 182.249 36.5965 182.25 36V33C182.25 32.4033 182.013 31.831 181.591 31.409C181.169 30.9871 180.597 30.75 180 30.75C179.403 30.75 178.831 30.9871 178.409 31.409C177.987 31.831 177.75 32.4033 177.75 33V36C177.751 36.5965 177.988 37.1685 178.41 37.5903C178.832 38.0121 179.403 38.2494 180 38.25ZM178.5 33C178.5 32.6022 178.658 32.2206 178.939 31.9393C179.221 31.658 179.602 31.5 180 31.5C180.398 31.5 180.779 31.658 181.061 31.9393C181.342 32.2206 181.5 32.6022 181.5 33V36C181.5 36.3978 181.342 36.7794 181.061 37.0607C180.779 37.342 180.398 37.5 180 37.5C179.602 37.5 179.221 37.342 178.939 37.0607C178.658 36.7794 178.5 36.3978 178.5 36V33ZM180.375 39.7313V40.875C180.375 40.9745 180.335 41.0698 180.265 41.1402C180.195 41.2105 180.099 41.25 180 41.25C179.901 41.25 179.805 41.2105 179.735 41.1402C179.665 41.0698 179.625 40.9745 179.625 40.875V39.7313C178.7 39.6372 177.844 39.2036 177.22 38.5144C176.597 37.8252 176.251 36.9293 176.25 36C176.25 35.9005 176.29 35.8052 176.36 35.7348C176.43 35.6645 176.526 35.625 176.625 35.625C176.724 35.625 176.82 35.6645 176.89 35.7348C176.96 35.8052 177 35.9005 177 36C177 36.7956 177.316 37.5587 177.879 38.1213C178.441 38.6839 179.204 39 180 39C180.796 39 181.559 38.6839 182.121 38.1213C182.684 37.5587 183 36.7956 183 36C183 35.9005 183.04 35.8052 183.11 35.7348C183.18 35.6645 183.276 35.625 183.375 35.625C183.474 35.625 183.57 35.6645 183.64 35.7348C183.71 35.8052 183.75 35.9005 183.75 36C183.749 36.9293 183.403 37.8252 182.78 38.5144C182.156 39.2036 181.3 39.6372 180.375 39.7313Z" fill="black"/>
<path d="M190.863 39V33.3984H193.023C193.562 33.3984 193.991 33.5534 194.309 33.8633C194.626 34.1732 194.785 34.5781 194.785 35.0781C194.785 35.5911 194.632 35.9883 194.324 36.2695C194.017 36.5482 193.663 36.7122 193.262 36.7617L194.863 39H194.105L192.504 36.7617H191.543V39H190.863ZM191.543 36.1602H192.984C193.336 36.1602 193.611 36.0612 193.809 35.8633C194.007 35.6654 194.105 35.4049 194.105 35.082C194.105 34.7565 194.007 34.4948 193.809 34.2969C193.611 34.099 193.336 34 192.984 34H191.543V36.1602ZM197.379 39.0781C196.803 39.0781 196.339 38.8893 195.984 38.5117C195.633 38.1341 195.457 37.6042 195.457 36.9219C195.457 36.237 195.632 35.7057 195.98 35.3281C196.329 34.9505 196.781 34.7617 197.336 34.7617C197.641 34.7617 197.917 34.8216 198.164 34.9414C198.414 35.0612 198.613 35.2174 198.762 35.4102C198.91 35.6003 199.023 35.8047 199.102 36.0234C199.18 36.2422 199.219 36.4609 199.219 36.6797L199.176 37.0781H196.059C196.079 37.5417 196.211 37.8984 196.453 38.1484C196.695 38.3958 197.004 38.5195 197.379 38.5195C197.858 38.5195 198.217 38.3203 198.457 37.9219H199.098C198.96 38.2943 198.74 38.5807 198.438 38.7812C198.138 38.9792 197.785 39.0781 197.379 39.0781ZM196.059 36.5586H198.617C198.581 36.168 198.445 35.8646 198.211 35.6484C197.977 35.4297 197.685 35.3203 197.336 35.3203C196.99 35.3203 196.699 35.4297 196.465 35.6484C196.23 35.8646 196.095 36.168 196.059 36.5586ZM201.855 39.0781C201.28 39.0781 200.815 38.8893 200.461 38.5117C200.109 38.1341 199.934 37.6042 199.934 36.9219C199.934 36.237 200.109 35.7057 200.461 35.3281C200.812 34.9505 201.277 34.7617 201.855 34.7617C202.262 34.7617 202.615 34.862 202.914 35.0625C203.216 35.2604 203.436 35.5469 203.574 35.9219H202.934C202.694 35.5208 202.335 35.3203 201.855 35.3203C201.46 35.3203 201.141 35.4609 200.898 35.7422C200.656 36.0208 200.535 36.4141 200.535 36.9219C200.535 37.4271 200.656 37.8203 200.898 38.1016C201.141 38.3802 201.46 38.5195 201.855 38.5195C202.335 38.5195 202.694 38.3203 202.934 37.9219H203.574C203.436 38.2943 203.216 38.5807 202.914 38.7812C202.615 38.9792 202.262 39.0781 201.855 39.0781ZM207.527 38.5117C207.176 38.8893 206.711 39.0781 206.133 39.0781C205.557 39.0781 205.094 38.8893 204.742 38.5117C204.391 38.1341 204.215 37.6042 204.215 36.9219C204.215 36.237 204.391 35.7057 204.742 35.3281C205.094 34.9505 205.557 34.7617 206.133 34.7617C206.711 34.7617 207.176 34.9505 207.527 35.3281C207.879 35.7057 208.055 36.237 208.055 36.9219C208.055 37.6042 207.879 38.1341 207.527 38.5117ZM205.18 38.1016C205.422 38.3802 205.74 38.5195 206.133 38.5195C206.529 38.5195 206.848 38.3802 207.09 38.1016C207.335 37.8203 207.457 37.4271 207.457 36.9219C207.457 36.4141 207.335 36.0208 207.09 35.7422C206.848 35.4609 206.529 35.3203 206.133 35.3203C205.74 35.3203 205.422 35.4609 205.18 35.7422C204.938 36.0208 204.816 36.4141 204.816 36.9219C204.816 37.4271 204.938 37.8203 205.18 38.1016ZM208.977 39V34.8398H209.457L209.539 35.3984H209.578C209.802 35.026 210.176 34.8398 210.699 34.8398H211.137V35.3984H210.699C210.379 35.3984 210.112 35.4974 209.898 35.6953C209.685 35.8932 209.578 36.1419 209.578 36.4414V39H208.977ZM212.406 38.1055C212.638 38.3815 212.948 38.5195 213.336 38.5195C213.727 38.5195 214.038 38.3815 214.27 38.1055C214.501 37.8268 214.617 37.4323 214.617 36.9219C214.617 36.4089 214.501 36.0143 214.27 35.7383C214.038 35.4596 213.727 35.3203 213.336 35.3203C212.948 35.3203 212.638 35.4596 212.406 35.7383C212.174 36.0143 212.059 36.4089 212.059 36.9219C212.059 37.4323 212.174 37.8268 212.406 38.1055ZM213.258 39.0781C212.724 39.0781 212.29 38.8893 211.957 38.5117C211.624 38.1341 211.457 37.6042 211.457 36.9219C211.457 36.237 211.624 35.7057 211.957 35.3281C212.29 34.9505 212.724 34.7617 213.258 34.7617C213.828 34.7617 214.268 34.9609 214.578 35.3594H214.617V33.3984H215.219V39H214.738L214.656 38.4414H214.617C214.318 38.8659 213.865 39.0781 213.258 39.0781Z" fill="black"/>
</g>
<path d="M276 59.5H32V60.5H276V59.5Z" fill="url(#paint1_radial_135_1757)" mask="url(#path-2-inside-1_135_1757)"/>
<path opacity="0.5" d="M117.354 198.098C116.401 198.098 115.636 197.785 115.06 197.16C114.487 196.532 114.2 195.645 114.2 194.499C114.2 193.353 114.487 192.468 115.06 191.843C115.636 191.215 116.401 190.9 117.354 190.9C118.754 190.9 119.703 191.55 120.201 192.849H119.303C118.928 192.048 118.279 191.649 117.354 191.652C116.661 191.652 116.103 191.901 115.68 192.399C115.26 192.894 115.05 193.596 115.05 194.504C115.05 195.409 115.26 196.11 115.68 196.608C116.103 197.103 116.661 197.351 117.354 197.351C118.282 197.351 118.932 196.95 119.303 196.149H120.201C119.703 197.448 118.754 198.098 117.354 198.098ZM121.358 198V190.998H122.105V198H121.358ZM123.551 198V192.8H124.303V198H123.551ZM124.303 191.896C124.202 191.997 124.078 192.048 123.932 192.048C123.785 192.048 123.66 191.999 123.556 191.901C123.455 191.8 123.404 191.677 123.404 191.53C123.404 191.384 123.455 191.258 123.556 191.154C123.66 191.05 123.785 190.998 123.932 190.998C124.078 190.998 124.202 191.05 124.303 191.154C124.404 191.258 124.454 191.384 124.454 191.53C124.454 191.67 124.404 191.792 124.303 191.896ZM127.853 198.098C127.133 198.098 126.552 197.862 126.109 197.39C125.67 196.918 125.45 196.255 125.45 195.402C125.45 194.546 125.67 193.882 126.109 193.41C126.549 192.938 127.13 192.702 127.853 192.702C128.36 192.702 128.801 192.827 129.176 193.078C129.553 193.326 129.828 193.684 130.001 194.152H129.2C128.901 193.651 128.451 193.4 127.853 193.4C127.358 193.4 126.959 193.576 126.656 193.928C126.354 194.276 126.202 194.768 126.202 195.402C126.202 196.034 126.354 196.525 126.656 196.877C126.959 197.225 127.358 197.399 127.853 197.399C128.451 197.399 128.901 197.15 129.2 196.652H130.001C129.828 197.118 129.553 197.476 129.176 197.727C128.801 197.974 128.36 198.098 127.853 198.098ZM131.104 198V190.998H131.852V195.251L134.303 192.8H135.255L132.701 195.349L135.401 198H134.454L131.852 195.451V198H131.104ZM139.547 198C139.173 198 138.862 197.876 138.614 197.629C138.37 197.382 138.248 197.072 138.248 196.701V193.498H137.447V192.8H138.248L138.351 191.398H139V192.8H140.348V193.498H139V196.701C139 196.874 139.055 197.017 139.166 197.131C139.28 197.245 139.425 197.302 139.601 197.302H140.348V198H139.547ZM145.245 197.39C144.806 197.862 144.225 198.098 143.502 198.098C142.783 198.098 142.203 197.862 141.764 197.39C141.324 196.918 141.104 196.255 141.104 195.402C141.104 194.546 141.324 193.882 141.764 193.41C142.203 192.938 142.783 192.702 143.502 192.702C144.225 192.702 144.806 192.938 145.245 193.41C145.685 193.882 145.904 194.546 145.904 195.402C145.904 196.255 145.685 196.918 145.245 197.39ZM142.311 196.877C142.613 197.225 143.01 197.399 143.502 197.399C143.997 197.399 144.396 197.225 144.698 196.877C145.004 196.525 145.157 196.034 145.157 195.402C145.157 194.768 145.004 194.276 144.698 193.928C144.396 193.576 143.997 193.4 143.502 193.4C143.01 193.4 142.613 193.576 142.311 193.928C142.008 194.276 141.856 194.768 141.856 195.402C141.856 196.034 142.008 196.525 142.311 196.877ZM150.489 196.882C150.779 197.227 151.166 197.399 151.651 197.399C152.14 197.399 152.529 197.227 152.818 196.882C153.111 196.534 153.258 196.04 153.258 195.402C153.258 194.761 153.111 194.268 152.818 193.923C152.529 193.575 152.14 193.4 151.651 193.4C151.166 193.4 150.779 193.575 150.489 193.923C150.2 194.268 150.055 194.761 150.055 195.402C150.055 196.04 150.2 196.534 150.489 196.882ZM151.754 198.098C150.995 198.098 150.429 197.832 150.055 197.302H150.006L149.903 198H149.308V190.998H150.055V193.449H150.104C150.491 192.948 151.041 192.699 151.754 192.702C152.421 192.702 152.963 192.938 153.38 193.41C153.797 193.882 154.005 194.546 154.005 195.402C154.005 196.255 153.797 196.918 153.38 197.39C152.963 197.862 152.421 198.098 151.754 198.098ZM155.152 198V192.8H155.753L155.855 193.498H155.904C156.184 193.033 156.651 192.8 157.306 192.8H157.853V193.498H157.306C156.905 193.498 156.572 193.622 156.305 193.869C156.038 194.117 155.904 194.427 155.904 194.802V198H155.152ZM162.394 197.39C161.954 197.862 161.373 198.098 160.65 198.098C159.931 198.098 159.352 197.862 158.912 197.39C158.473 196.918 158.253 196.255 158.253 195.402C158.253 194.546 158.473 193.882 158.912 193.41C159.352 192.938 159.931 192.702 160.65 192.702C161.373 192.702 161.954 192.938 162.394 193.41C162.833 193.882 163.053 194.546 163.053 195.402C163.053 196.255 162.833 196.918 162.394 197.39ZM159.459 196.877C159.762 197.225 160.159 197.399 160.65 197.399C161.145 197.399 161.544 197.225 161.847 196.877C162.153 196.525 162.306 196.034 162.306 195.402C162.306 194.768 162.153 194.276 161.847 193.928C161.544 193.576 161.145 193.4 160.65 193.4C160.159 193.4 159.762 193.576 159.459 193.928C159.156 194.276 159.005 194.768 159.005 195.402C159.005 196.034 159.156 196.525 159.459 196.877ZM165.055 198L163.604 192.8H164.356L165.509 196.999H165.558L166.705 192.8H167.555L168.707 196.999H168.756L169.908 192.8H170.655L169.205 198H168.258L167.159 193.952H167.105L166.007 198H165.055ZM173.004 198.098C172.49 198.098 172.052 197.966 171.69 197.702C171.332 197.435 171.104 197.085 171.007 196.652H171.808C171.882 196.893 172.029 197.079 172.247 197.209C172.465 197.336 172.717 197.399 173.004 197.399C173.411 197.399 173.72 197.326 173.932 197.18C174.146 197.033 174.254 196.84 174.254 196.599C174.254 196.4 174.177 196.239 174.024 196.115C173.871 195.992 173.679 195.905 173.448 195.856C173.22 195.804 172.973 195.743 172.706 195.671C172.439 195.596 172.19 195.516 171.959 195.432C171.731 195.344 171.539 195.191 171.383 194.973C171.23 194.751 171.153 194.478 171.153 194.152C171.153 193.758 171.323 193.418 171.661 193.132C172.003 192.845 172.451 192.702 173.004 192.702C173.469 192.702 173.878 192.816 174.229 193.044C174.581 193.269 174.806 193.588 174.903 194.001H174.107C173.935 193.601 173.567 193.4 173.004 193.4C172.636 193.4 172.361 193.467 172.179 193.601C171.996 193.734 171.905 193.918 171.905 194.152C171.905 194.4 172.011 194.592 172.223 194.729C172.438 194.862 172.696 194.963 172.999 195.031C173.302 195.096 173.604 195.171 173.907 195.256C174.213 195.337 174.472 195.49 174.684 195.715C174.898 195.939 175.006 196.234 175.006 196.599C175.006 197.012 174.824 197.365 174.459 197.658C174.094 197.951 173.609 198.098 173.004 198.098ZM178.204 198.098C177.485 198.098 176.904 197.862 176.461 197.39C176.021 196.918 175.802 196.255 175.802 195.402C175.802 194.546 176.02 193.882 176.456 193.41C176.892 192.938 177.457 192.702 178.15 192.702C178.531 192.702 178.876 192.777 179.186 192.927C179.498 193.076 179.747 193.272 179.933 193.513C180.118 193.75 180.26 194.006 180.357 194.279C180.455 194.553 180.504 194.826 180.504 195.1L180.45 195.598H176.554C176.58 196.177 176.744 196.623 177.047 196.936C177.35 197.245 177.735 197.399 178.204 197.399C178.803 197.399 179.252 197.15 179.552 196.652H180.353C180.18 197.118 179.905 197.476 179.527 197.727C179.153 197.974 178.712 198.098 178.204 198.098ZM176.554 194.948H179.752C179.706 194.46 179.537 194.081 179.244 193.811C178.951 193.537 178.587 193.4 178.15 193.4C177.717 193.4 177.354 193.537 177.062 193.811C176.769 194.081 176.599 194.46 176.554 194.948ZM187.735 197.39C187.296 197.862 186.715 198.098 185.992 198.098C185.273 198.098 184.693 197.862 184.254 197.39C183.814 196.918 183.595 196.255 183.595 195.402C183.595 194.546 183.814 193.882 184.254 193.41C184.693 192.938 185.273 192.702 185.992 192.702C186.715 192.702 187.296 192.938 187.735 193.41C188.175 193.882 188.395 194.546 188.395 195.402C188.395 196.255 188.175 196.918 187.735 197.39ZM184.801 196.877C185.104 197.225 185.501 197.399 185.992 197.399C186.487 197.399 186.886 197.225 187.188 196.877C187.494 196.525 187.647 196.034 187.647 195.402C187.647 194.768 187.494 194.276 187.188 193.928C186.886 193.576 186.487 193.4 185.992 193.4C185.501 193.4 185.104 193.576 184.801 193.928C184.498 194.276 184.347 194.768 184.347 195.402C184.347 196.034 184.498 196.525 184.801 196.877ZM189.547 198V192.8H190.147L190.25 193.498H190.299C190.579 193.033 191.046 192.8 191.7 192.8H192.247V193.498H191.7C191.3 193.498 190.966 193.622 190.699 193.869C190.432 194.117 190.299 194.427 190.299 194.802V198H189.547ZM103.678 209.882C103.967 210.227 104.355 210.399 104.84 210.399C105.328 210.399 105.717 210.227 106.007 209.882C106.297 209.534 106.441 209.04 106.441 208.402C106.441 207.761 106.297 207.268 106.007 206.923C105.717 206.575 105.328 206.4 104.84 206.4C104.355 206.4 103.967 206.575 103.678 206.923C103.388 207.268 103.243 207.761 103.243 208.402C103.243 209.04 103.388 209.534 103.678 209.882ZM104.742 211.098C104.075 211.098 103.533 210.862 103.116 210.39C102.7 209.918 102.491 209.255 102.491 208.402C102.491 207.546 102.7 206.882 103.116 206.41C103.533 205.938 104.075 205.702 104.742 205.702C105.455 205.702 106.005 205.951 106.393 206.449H106.441V203.998H107.193V211H106.593L106.49 210.302H106.441C106.067 210.832 105.501 211.098 104.742 211.098ZM108.639 211V205.8H109.239L109.342 206.498H109.391C109.671 206.033 110.138 205.8 110.792 205.8H111.339V206.498H110.792C110.392 206.498 110.058 206.622 109.791 206.869C109.524 207.117 109.391 207.427 109.391 207.802V211H108.639ZM113.6 210.399C114.088 210.399 114.475 210.261 114.762 209.984C115.051 209.708 115.196 209.363 115.196 208.949V208.598H113.746C113.352 208.598 113.054 208.679 112.853 208.842C112.651 209.001 112.55 209.221 112.55 209.501C112.55 209.774 112.643 209.993 112.828 210.155C113.017 210.318 113.274 210.399 113.6 210.399ZM113.6 211.098C113.059 211.098 112.623 210.946 112.291 210.644C111.962 210.341 111.798 209.96 111.798 209.501C111.798 209.035 111.97 208.653 112.315 208.354C112.664 208.051 113.141 207.899 113.746 207.899H115.196V207.548C115.196 207.203 115.081 206.926 114.85 206.718C114.622 206.506 114.321 206.4 113.946 206.4C113.312 206.4 112.911 206.651 112.745 207.152H111.949C112.07 206.687 112.306 206.329 112.657 206.078C113.012 205.827 113.442 205.702 113.946 205.702C114.565 205.702 115.053 205.87 115.411 206.205C115.769 206.54 115.948 206.988 115.948 207.548V211H115.348L115.245 210.302H115.196C115.082 210.5 114.879 210.683 114.586 210.849C114.296 211.015 113.967 211.098 113.6 211.098ZM119.444 213.002C118.897 213.002 118.419 212.87 118.009 212.606C117.599 212.343 117.311 211.957 117.145 211.449H117.94C118.201 212.016 118.702 212.299 119.444 212.299C119.91 212.299 120.284 212.18 120.567 211.942C120.851 211.708 120.992 211.361 120.992 210.902V209.999H120.943C120.582 210.465 120.032 210.699 119.293 210.702C118.626 210.702 118.084 210.481 117.667 210.038C117.25 209.592 117.042 208.98 117.042 208.202C117.042 207.421 117.25 206.809 117.667 206.366C118.084 205.924 118.626 205.702 119.293 205.702C120.038 205.702 120.605 205.951 120.992 206.449H121.041L121.144 205.8H121.744V210.902C121.744 211.563 121.534 212.077 121.114 212.445C120.694 212.816 120.138 213.002 119.444 213.002ZM118.229 209.525C118.518 209.841 118.906 209.999 119.391 209.999C119.879 209.999 120.268 209.841 120.558 209.525C120.847 209.21 120.992 208.769 120.992 208.202C120.992 207.632 120.847 207.19 120.558 206.874C120.268 206.558 119.879 206.4 119.391 206.4C118.906 206.4 118.518 206.558 118.229 206.874C117.939 207.19 117.794 207.632 117.794 208.202C117.794 208.769 117.939 209.21 118.229 209.525ZM126.842 210.399C127.33 210.399 127.717 210.261 128.004 209.984C128.294 209.708 128.438 209.363 128.438 208.949V208.598H126.988C126.594 208.598 126.297 208.679 126.095 208.842C125.893 209.001 125.792 209.221 125.792 209.501C125.792 209.774 125.885 209.993 126.07 210.155C126.259 210.318 126.516 210.399 126.842 210.399ZM126.842 211.098C126.301 211.098 125.865 210.946 125.533 210.644C125.204 210.341 125.04 209.96 125.04 209.501C125.04 209.035 125.213 208.653 125.558 208.354C125.906 208.051 126.383 207.899 126.988 207.899H128.438V207.548C128.438 207.203 128.323 206.926 128.092 206.718C127.864 206.506 127.563 206.4 127.188 206.4C126.554 206.4 126.153 206.651 125.987 207.152H125.191C125.312 206.687 125.548 206.329 125.899 206.078C126.254 205.827 126.684 205.702 127.188 205.702C127.807 205.702 128.295 205.87 128.653 206.205C129.011 206.54 129.19 206.988 129.19 207.548V211H128.59L128.487 210.302H128.438C128.325 210.5 128.121 210.683 127.828 210.849C127.538 211.015 127.21 211.098 126.842 211.098ZM130.533 211V205.8H131.134L131.236 206.498H131.285C131.598 205.964 132.097 205.699 132.784 205.702C133.344 205.702 133.81 205.894 134.181 206.278C134.552 206.659 134.737 207.167 134.737 207.802V211H133.985V207.802C133.985 207.362 133.865 207.019 133.624 206.771C133.383 206.524 133.071 206.4 132.687 206.4C132.293 206.4 131.961 206.539 131.69 206.815C131.42 207.092 131.285 207.421 131.285 207.802V211H130.533ZM137.018 209.882C137.307 210.227 137.695 210.399 138.18 210.399C138.668 210.399 139.057 210.227 139.347 209.882C139.636 209.534 139.781 209.04 139.781 208.402C139.781 207.761 139.636 207.268 139.347 206.923C139.057 206.575 138.668 206.4 138.18 206.4C137.695 206.4 137.307 206.575 137.018 206.923C136.728 207.268 136.583 207.761 136.583 208.402C136.583 209.04 136.728 209.534 137.018 209.882ZM138.082 211.098C137.415 211.098 136.873 210.862 136.456 210.39C136.039 209.918 135.831 209.255 135.831 208.402C135.831 207.546 136.039 206.882 136.456 206.41C136.873 205.938 137.415 205.702 138.082 205.702C138.795 205.702 139.345 205.951 139.732 206.449H139.781V203.998H140.533V211H139.933L139.83 210.302H139.781C139.407 210.832 138.84 211.098 138.082 211.098ZM145.113 209.882C145.403 210.227 145.79 210.399 146.275 210.399C146.764 210.399 147.153 210.227 147.442 209.882C147.732 209.534 147.877 209.04 147.877 208.402C147.877 207.761 147.732 207.268 147.442 206.923C147.153 206.575 146.764 206.4 146.275 206.4C145.79 206.4 145.403 206.575 145.113 206.923C144.824 207.268 144.679 207.761 144.679 208.402C144.679 209.04 144.824 209.534 145.113 209.882ZM146.178 211.098C145.51 211.098 144.968 210.862 144.552 210.39C144.135 209.918 143.927 209.255 143.927 208.402C143.927 207.546 144.135 206.882 144.552 206.41C144.968 205.938 145.51 205.702 146.178 205.702C146.891 205.702 147.441 205.951 147.828 206.449H147.877V203.998H148.629V211H148.028L147.926 210.302H147.877C147.503 210.832 146.936 211.098 146.178 211.098ZM150.074 211V205.8H150.675L150.777 206.498H150.826C151.106 206.033 151.573 205.8 152.228 205.8H152.774V206.498H152.228C151.827 206.498 151.493 206.622 151.227 206.869C150.96 207.117 150.826 207.427 150.826 207.802V211H150.074ZM157.315 210.39C156.876 210.862 156.295 211.098 155.572 211.098C154.853 211.098 154.273 210.862 153.834 210.39C153.395 209.918 153.175 209.255 153.175 208.402C153.175 207.546 153.395 206.882 153.834 206.41C154.273 205.938 154.853 205.702 155.572 205.702C156.295 205.702 156.876 205.938 157.315 206.41C157.755 206.882 157.975 207.546 157.975 208.402C157.975 209.255 157.755 209.918 157.315 210.39ZM154.381 209.877C154.684 210.225 155.081 210.399 155.572 210.399C156.067 210.399 156.466 210.225 156.769 209.877C157.075 209.525 157.228 209.034 157.228 208.402C157.228 207.768 157.075 207.276 156.769 206.928C156.466 206.576 156.067 206.4 155.572 206.4C155.081 206.4 154.684 206.576 154.381 206.928C154.078 207.276 153.927 207.768 153.927 208.402C153.927 209.034 154.078 209.525 154.381 209.877ZM159.127 213.002V205.8H159.728L159.83 206.498H159.879C160.253 205.964 160.82 205.699 161.578 205.702C162.245 205.702 162.787 205.938 163.204 206.41C163.621 206.882 163.829 207.546 163.829 208.402C163.829 209.255 163.621 209.918 163.204 210.39C162.787 210.862 162.245 211.098 161.578 211.098C160.865 211.098 160.315 210.849 159.928 210.351H159.879V213.002H159.127ZM160.313 209.882C160.603 210.227 160.991 210.399 161.476 210.399C161.964 210.399 162.353 210.227 162.643 209.882C162.932 209.534 163.077 209.04 163.077 208.402C163.077 207.761 162.932 207.268 162.643 206.923C162.353 206.575 161.964 206.4 161.476 206.4C160.991 206.4 160.603 206.575 160.313 206.923C160.024 207.268 159.879 207.761 159.879 208.402C159.879 209.04 160.024 209.534 160.313 209.882ZM167.574 213.002L168.375 211L166.222 205.8H167.022L168.722 209.95H168.771L170.421 205.8H171.222L168.375 213.002H167.574ZM175.763 210.39C175.323 210.862 174.742 211.098 174.02 211.098C173.3 211.098 172.721 210.862 172.281 210.39C171.842 209.918 171.622 209.255 171.622 208.402C171.622 207.546 171.842 206.882 172.281 206.41C172.721 205.938 173.3 205.702 174.02 205.702C174.742 205.702 175.323 205.938 175.763 206.41C176.202 206.882 176.422 207.546 176.422 208.402C176.422 209.255 176.202 209.918 175.763 210.39ZM172.828 209.877C173.131 210.225 173.528 210.399 174.02 210.399C174.514 210.399 174.913 210.225 175.216 209.877C175.522 209.525 175.675 209.034 175.675 208.402C175.675 207.768 175.522 207.276 175.216 206.928C174.913 206.576 174.514 206.4 174.02 206.4C173.528 206.4 173.131 206.576 172.828 206.928C172.525 207.276 172.374 207.768 172.374 208.402C172.374 209.034 172.525 209.525 172.828 209.877ZM179.527 211.098C178.967 211.098 178.502 210.907 178.131 210.526C177.76 210.142 177.574 209.633 177.574 208.998V205.8H178.326V208.998C178.326 209.438 178.445 209.781 178.683 210.028C178.924 210.276 179.238 210.399 179.625 210.399C180.019 210.399 180.351 210.261 180.621 209.984C180.891 209.708 181.026 209.379 181.026 208.998V205.8H181.778V211H181.178L181.075 210.302H181.026C180.714 210.832 180.214 211.098 179.527 211.098ZM183.17 211V205.8H183.771L183.873 206.498H183.922C184.202 206.033 184.669 205.8 185.323 205.8H185.87V206.498H185.323C184.923 206.498 184.589 206.622 184.322 206.869C184.055 207.117 183.922 207.427 183.922 207.802V211H183.17ZM188.971 211V206.498H188.17V205.8H188.971V205.302C188.971 204.927 189.094 204.617 189.342 204.369C189.589 204.122 189.898 203.998 190.27 203.998H191.07V204.701H190.323C190.151 204.701 190.007 204.758 189.894 204.872C189.78 204.983 189.723 205.126 189.723 205.302V205.8H192.721V211H191.969V206.498H189.723V211H188.971ZM192.721 204.896C192.62 204.997 192.496 205.048 192.35 205.048C192.203 205.048 192.078 204.999 191.974 204.901C191.873 204.8 191.822 204.677 191.822 204.53C191.822 204.384 191.873 204.258 191.974 204.154C192.078 204.05 192.203 203.998 192.35 203.998C192.496 203.998 192.62 204.05 192.721 204.154C192.822 204.258 192.872 204.384 192.872 204.53C192.872 204.67 192.822 204.792 192.721 204.896ZM194.171 211V203.998H194.918V211H194.171ZM198.517 211.098C197.797 211.098 197.216 210.862 196.773 210.39C196.334 209.918 196.114 209.255 196.114 208.402C196.114 207.546 196.332 206.882 196.769 206.41C197.205 205.938 197.77 205.702 198.463 205.702C198.844 205.702 199.189 205.777 199.498 205.927C199.811 206.076 200.06 206.272 200.245 206.513C200.431 206.75 200.572 207.006 200.67 207.279C200.768 207.553 200.816 207.826 200.816 208.1L200.763 208.598H196.866C196.892 209.177 197.057 209.623 197.359 209.936C197.662 210.245 198.048 210.399 198.517 210.399C199.116 210.399 199.565 210.15 199.864 209.652H200.665C200.493 210.118 200.217 210.476 199.84 210.727C199.465 210.974 199.024 211.098 198.517 211.098ZM196.866 207.948H200.064C200.019 207.46 199.85 207.081 199.557 206.811C199.264 206.537 198.899 206.4 198.463 206.4C198.03 206.4 197.667 206.537 197.374 206.811C197.081 207.081 196.912 207.46 196.866 207.948ZM203.609 211.098C203.095 211.098 202.657 210.966 202.296 210.702C201.938 210.435 201.71 210.085 201.612 209.652H202.413C202.488 209.893 202.634 210.079 202.853 210.209C203.071 210.336 203.323 210.399 203.609 210.399C204.016 210.399 204.326 210.326 204.537 210.18C204.752 210.033 204.859 209.84 204.859 209.599C204.859 209.4 204.783 209.239 204.63 209.115C204.477 208.992 204.285 208.905 204.054 208.856C203.826 208.804 203.578 208.743 203.312 208.671C203.045 208.596 202.796 208.516 202.564 208.432C202.337 208.344 202.145 208.191 201.988 207.973C201.835 207.751 201.759 207.478 201.759 207.152C201.759 206.758 201.928 206.418 202.267 206.132C202.608 205.845 203.056 205.702 203.609 205.702C204.075 205.702 204.483 205.816 204.835 206.044C205.187 206.269 205.411 206.588 205.509 207.001H204.713C204.54 206.601 204.173 206.4 203.609 206.4C203.242 206.4 202.966 206.467 202.784 206.601C202.602 206.734 202.511 206.918 202.511 207.152C202.511 207.4 202.617 207.592 202.828 207.729C203.043 207.862 203.302 207.963 203.604 208.031C203.907 208.096 204.21 208.171 204.513 208.256C204.819 208.337 205.077 208.49 205.289 208.715C205.504 208.939 205.611 209.234 205.611 209.599C205.611 210.012 205.429 210.365 205.064 210.658C204.7 210.951 204.215 211.098 203.609 211.098Z" fill="white"/>
<rect x="32.5" y="80.5" width="243" height="239" rx="23.5" stroke="url(#paint2_linear_135_1757)" stroke-dasharray="8 4"/>
<defs>
<filter id="filter0_i_135_1757" x="72" y="20" width="164" height="32" filterUnits="userSpaceOnUse" color-interpolation-filters="sRGB">
<feFlood flood-opacity="0" result="BackgroundImageFix"/>
<feBlend mode="normal" in="SourceGraphic" in2="BackgroundImageFix" result="shape"/>
<feColorMatrix in="SourceAlpha" type="matrix" values="0 0 0 0 0 0 0 0 0 0 0 0 0 0 0 0 0 0 127 0" result="hardAlpha"/>
<feOffset/>
<feGaussianBlur stdDeviation="1"/>
<feComposite in2="hardAlpha" operator="arithmetic" k2="-1" k3="1"/>
<feColorMatrix type="matrix" values="0 0 0 0 0 0 0 0 0 0 0 0 0 0 0 0 0 0 0.1 0"/>
<feBlend mode="normal" in2="shape" result="effect1_innerShadow_135_1757"/>
</filter>
<linearGradient id="paint0_linear_135_1757" x1="154" y1="0" x2="154" y2="278" gradientUnits="userSpaceOnUse">
<stop stop-color="#212332"/>
<stop offset="0.776042" stop-color="#212332" stop-opacity="0"/>
</linearGradient>
<radialGradient id="paint1_radial_135_1757" cx="0" cy="0" r="1" gradientUnits="userSpaceOnUse" gradientTransform="translate(32 59.9999) scale(244 7942.15)">
<stop stop-color="#E2E8F0" stop-opacity="0.5"/>
<stop offset="0.494792" stop-color="#E2E8F0"/>
<stop offset="0.994792" stop-color="#E2E8F0" stop-opacity="0.5"/>
</radialGradient>
<linearGradient id="paint2_linear_135_1757" x1="154" y1="80" x2="154" y2="320" gradientUnits="userSpaceOnUse">
<stop stop-color="#E2E6EA"/>
<stop offset="0.833333" stop-color="#E2E6EA" stop-opacity="0"/>
</linearGradient>
</defs>
</svg>
