<svg width="308" height="190" viewBox="0 0 308 190" fill="none" xmlns="http://www.w3.org/2000/svg">
<path opacity="0.5" d="M1.13184 11V3.99805H2.48438L4.58398 9.75H4.63281L6.73242 3.99805H8.08008V11H7.23047V5.04785H7.18164L4.98438 11H4.23242L2.03027 5.04785H1.98145V11H1.13184ZM11.1367 10.3994C11.625 10.3994 12.0124 10.2611 12.2988 9.98438C12.5885 9.70768 12.7334 9.36263 12.7334 8.94922V8.59766H11.2832C10.8893 8.59766 10.5915 8.67904 10.3896 8.8418C10.1878 9.0013 10.0869 9.22103 10.0869 9.50098C10.0869 9.77441 10.1797 9.99251 10.3652 10.1553C10.554 10.318 10.8112 10.3994 11.1367 10.3994ZM11.1367 11.0977C10.5964 11.0977 10.1602 10.9463 9.82812 10.6436C9.49935 10.3408 9.33496 9.95996 9.33496 9.50098C9.33496 9.03548 9.50749 8.65299 9.85254 8.35352C10.2008 8.05078 10.6777 7.89941 11.2832 7.89941H12.7334V7.54785C12.7334 7.2028 12.6178 6.92611 12.3867 6.71777C12.1589 6.50618 11.8577 6.40039 11.4834 6.40039C10.8486 6.40039 10.4482 6.65104 10.2822 7.15234H9.48633C9.60677 6.68685 9.84277 6.32878 10.1943 6.07812C10.5492 5.82747 10.9788 5.70215 11.4834 5.70215C12.1019 5.70215 12.5902 5.86979 12.9482 6.20508C13.3063 6.54036 13.4854 6.98796 13.4854 7.54785V11H12.8848L12.7822 10.3018H12.7334C12.6195 10.5003 12.416 10.6826 12.123 10.8486C11.8333 11.0146 11.5046 11.0977 11.1367 11.0977ZM14.8818 11V3.99805H15.6289V8.25098L18.0801 5.7998H19.0322L16.4785 8.34863L19.1787 11H18.2314L15.6289 8.45117V11H14.8818ZM21.835 11.0977C21.1156 11.0977 20.5345 10.8617 20.0918 10.3896C19.6523 9.91764 19.4326 9.25521 19.4326 8.40234C19.4326 7.54622 19.6507 6.88216 20.0869 6.41016C20.5231 5.93815 21.0879 5.70215 21.7812 5.70215C22.1621 5.70215 22.5072 5.77702 22.8164 5.92676C23.1289 6.0765 23.3779 6.27181 23.5635 6.5127C23.749 6.75033 23.8906 7.00586 23.9883 7.2793C24.0859 7.55273 24.1348 7.82617 24.1348 8.09961L24.0811 8.59766H20.1846C20.2106 9.17708 20.375 9.62305 20.6777 9.93555C20.9805 10.2448 21.3662 10.3994 21.835 10.3994C22.4339 10.3994 22.8831 10.1504 23.1826 9.65234H23.9834C23.8109 10.1178 23.5358 10.4759 23.1582 10.7266C22.7839 10.974 22.3428 11.0977 21.835 11.0977ZM20.1846 7.94824H23.3828C23.3372 7.45996 23.168 7.08073 22.875 6.81055C22.582 6.53711 22.2174 6.40039 21.7812 6.40039C21.3483 6.40039 20.9854 6.53711 20.6924 6.81055C20.3994 7.08073 20.2301 7.45996 20.1846 7.94824ZM27.875 13.002L28.6758 11L26.5225 5.7998H27.3232L29.0225 9.9502H29.0713L30.7217 5.7998H31.5225L28.6758 13.002H27.875ZM36.0635 10.3896C35.624 10.8617 35.043 11.0977 34.3203 11.0977C33.6009 11.0977 33.0215 10.8617 32.582 10.3896C32.1426 9.91764 31.9229 9.25521 31.9229 8.40234C31.9229 7.54622 32.1426 6.88216 32.582 6.41016C33.0215 5.93815 33.6009 5.70215 34.3203 5.70215C35.043 5.70215 35.624 5.93815 36.0635 6.41016C36.5029 6.88216 36.7227 7.54622 36.7227 8.40234C36.7227 9.25521 36.5029 9.91764 36.0635 10.3896ZM33.1289 9.87695C33.4316 10.2253 33.8288 10.3994 34.3203 10.3994C34.8151 10.3994 35.2139 10.2253 35.5166 9.87695C35.8226 9.52539 35.9756 9.03385 35.9756 8.40234C35.9756 7.76758 35.8226 7.27604 35.5166 6.92773C35.2139 6.57617 34.8151 6.40039 34.3203 6.40039C33.8288 6.40039 33.4316 6.57617 33.1289 6.92773C32.8262 7.27604 32.6748 7.76758 32.6748 8.40234C32.6748 9.03385 32.8262 9.52539 33.1289 9.87695ZM39.8281 11.0977C39.2682 11.0977 38.8027 10.9072 38.4316 10.5264C38.0605 10.1423 37.875 9.63281 37.875 8.99805V5.7998H38.627V8.99805C38.627 9.4375 38.7458 9.78092 38.9834 10.0283C39.2243 10.2757 39.5384 10.3994 39.9258 10.3994C40.3197 10.3994 40.6517 10.2611 40.9219 9.98438C41.1921 9.70768 41.3271 9.37891 41.3271 8.99805V5.7998H42.0791V11H41.4785L41.376 10.3018H41.3271C41.0146 10.8324 40.515 11.0977 39.8281 11.0977ZM43.4707 11V5.7998H44.0713L44.1738 6.49805H44.2227C44.5026 6.03255 44.9697 5.7998 45.624 5.7998H46.1709V6.49805H45.624C45.2236 6.49805 44.89 6.62174 44.623 6.86914C44.3561 7.11654 44.2227 7.42741 44.2227 7.80176V11H43.4707ZM52.8115 10.3896C52.3721 10.8617 51.791 11.0977 51.0684 11.0977C50.349 11.0977 49.7695 10.8617 49.3301 10.3896C48.8906 9.91764 48.6709 9.25521 48.6709 8.40234C48.6709 7.54622 48.8906 6.88216 49.3301 6.41016C49.7695 5.93815 50.349 5.70215 51.0684 5.70215C51.791 5.70215 52.3721 5.93815 52.8115 6.41016C53.251 6.88216 53.4707 7.54622 53.4707 8.40234C53.4707 9.25521 53.251 9.91764 52.8115 10.3896ZM49.877 9.87695C50.1797 10.2253 50.5768 10.3994 51.0684 10.3994C51.5632 10.3994 51.9619 10.2253 52.2646 9.87695C52.5706 9.52539 52.7236 9.03385 52.7236 8.40234C52.7236 7.76758 52.5706 7.27604 52.2646 6.92773C51.9619 6.57617 51.5632 6.40039 51.0684 6.40039C50.5768 6.40039 50.1797 6.57617 49.877 6.92773C49.5742 7.27604 49.4229 7.76758 49.4229 8.40234C49.4229 9.03385 49.5742 9.52539 49.877 9.87695ZM55.4727 11L54.0225 5.7998H54.7744L55.9268 9.99902H55.9756L57.123 5.7998H57.9727L59.125 9.99902H59.1738L60.3262 5.7998H61.0732L59.623 11H58.6758L57.5771 6.95215H57.5234L56.4248 11H55.4727ZM61.8691 11V5.7998H62.4697L62.5723 6.49805H62.6211C62.9336 5.96419 63.4333 5.69889 64.1201 5.70215C64.68 5.70215 65.1455 5.89421 65.5166 6.27832C65.8877 6.65918 66.0732 7.16699 66.0732 7.80176V11H65.3213V7.80176C65.3213 7.3623 65.2008 7.01888 64.96 6.77148C64.7191 6.52409 64.4066 6.40039 64.0225 6.40039C63.6286 6.40039 63.2965 6.53874 63.0264 6.81543C62.7562 7.09212 62.6211 7.4209 62.6211 7.80176V11H61.8691Z" fill="white"/>
<path d="M13.8994 39L12.0977 31.998H13.2012L14.5488 37.6523H14.5977L15.9502 31.998H17.249L18.6016 37.6523H18.6504L19.998 31.998H21.1016L19.2998 39H17.9521L16.6191 33.3994H16.5801L15.252 39H13.8994ZM21.8486 39V33.7021H22.6006L22.7471 34.4004H22.8008C23.0807 33.9349 23.5299 33.7021 24.1484 33.7021H24.749V34.6006H24.1973C23.7773 34.6006 23.4388 34.7227 23.1816 34.9668C22.9277 35.2077 22.8008 35.5186 22.8008 35.8994V39H21.8486ZM25.5498 39V33.7021H26.502V39H25.5498ZM26.0283 33.1016C25.8428 33.1016 25.6914 33.043 25.5742 32.9258C25.457 32.8086 25.3984 32.6605 25.3984 32.4814C25.3984 32.2959 25.457 32.1445 25.5742 32.0273C25.6914 31.9102 25.8428 31.8516 26.0283 31.8516C26.2074 31.8516 26.3555 31.9102 26.4727 32.0273C26.5898 32.1413 26.6484 32.2926 26.6484 32.4814C26.6484 32.6605 26.5898 32.8086 26.4727 32.9258C26.3555 33.043 26.2074 33.1016 26.0283 33.1016ZM29.5977 39C29.1777 39 28.8392 38.8698 28.582 38.6094C28.3249 38.349 28.1963 38.012 28.1963 37.5986V34.6006H27.3467V33.7021H28.1963L28.3477 32.3008H29.1484V33.7021H30.4473V34.6006H29.1484V37.501C29.1484 37.68 29.1956 37.8249 29.29 37.9355C29.3877 38.0462 29.5228 38.1016 29.6953 38.1016H30.4473V39H29.5977ZM33.6504 39.0977C32.8919 39.0977 32.2848 38.8551 31.8291 38.3701C31.3766 37.8818 31.1504 37.208 31.1504 36.3486C31.1504 35.4893 31.3734 34.8171 31.8193 34.332C32.2653 33.8438 32.8594 33.5996 33.6016 33.5996C34.3535 33.5996 34.9492 33.8535 35.3887 34.3613C35.8281 34.8659 36.0479 35.4453 36.0479 36.0996L35.999 36.6514H32.1416C32.1676 37.1462 32.3174 37.5286 32.5908 37.7988C32.8643 38.0658 33.2174 38.1992 33.6504 38.1992C34.1973 38.1992 34.6139 37.9827 34.9004 37.5498H35.9502C35.7712 38.0153 35.4814 38.3896 35.0811 38.6729C34.6807 38.9561 34.2038 39.0977 33.6504 39.0977ZM32.1416 35.8506H35.0713C35.0127 35.4242 34.8532 35.0921 34.5928 34.8545C34.3324 34.6169 34.002 34.498 33.6016 34.498C33.2012 34.498 32.8708 34.6169 32.6104 34.8545C32.3499 35.0921 32.1937 35.4242 32.1416 35.8506ZM39.3486 39V31.998H40.3008V39H39.3486ZM41.6533 39V33.7021H42.6055V39H41.6533ZM42.1318 33.1016C41.9463 33.1016 41.7949 33.043 41.6777 32.9258C41.5605 32.8086 41.502 32.6605 41.502 32.4814C41.502 32.2959 41.5605 32.1445 41.6777 32.0273C41.7949 31.9102 41.9463 31.8516 42.1318 31.8516C42.3109 31.8516 42.459 31.9102 42.5762 32.0273C42.6934 32.1413 42.752 32.2926 42.752 32.4814C42.752 32.6605 42.6934 32.8086 42.5762 32.9258C42.459 33.043 42.3109 33.1016 42.1318 33.1016ZM43.9482 39V31.998H44.9004V36.1484L47.2002 33.7021H48.4014L45.9502 36.2998L48.5479 39H47.3516L44.9004 36.4512V39H43.9482ZM51.1992 39.0977C50.4408 39.0977 49.8337 38.8551 49.3779 38.3701C48.9255 37.8818 48.6992 37.208 48.6992 36.3486C48.6992 35.4893 48.9222 34.8171 49.3682 34.332C49.8141 33.8438 50.4082 33.5996 51.1504 33.5996C51.9023 33.5996 52.498 33.8535 52.9375 34.3613C53.377 34.8659 53.5967 35.4453 53.5967 36.0996L53.5479 36.6514H49.6904C49.7165 37.1462 49.8662 37.5286 50.1396 37.7988C50.4131 38.0658 50.7663 38.1992 51.1992 38.1992C51.7461 38.1992 52.1628 37.9827 52.4492 37.5498H53.499C53.32 38.0153 53.0303 38.3896 52.6299 38.6729C52.2295 38.9561 51.7526 39.0977 51.1992 39.0977ZM49.6904 35.8506H52.6201C52.5615 35.4242 52.402 35.0921 52.1416 34.8545C51.8812 34.6169 51.5508 34.498 51.1504 34.498C50.75 34.498 50.4196 34.6169 50.1592 34.8545C49.8988 35.0921 49.7425 35.4242 49.6904 35.8506ZM59.1484 39.0977C58.4225 39.0977 57.8236 38.9219 57.3516 38.5703C56.8828 38.2155 56.598 37.7256 56.4971 37.1006H57.5469C57.7454 37.8005 58.2793 38.1504 59.1484 38.1504C59.6562 38.1504 60.042 38.0527 60.3057 37.8574C60.5693 37.6589 60.7012 37.3903 60.7012 37.0518C60.7012 36.8304 60.6263 36.6465 60.4766 36.5C60.3301 36.3535 60.138 36.2445 59.9004 36.1729C59.666 36.098 59.4072 36.0312 59.124 35.9727C58.8408 35.9108 58.5576 35.8359 58.2744 35.748C57.9912 35.6569 57.7308 35.543 57.4932 35.4062C57.2588 35.2695 57.0667 35.0693 56.917 34.8057C56.7705 34.542 56.6973 34.223 56.6973 33.8486C56.6973 33.2692 56.9186 32.8005 57.3613 32.4424C57.8073 32.0811 58.403 31.9004 59.1484 31.9004C59.8353 31.9004 60.3919 32.0615 60.8184 32.3838C61.2448 32.7028 61.5215 33.1423 61.6484 33.7021H60.5986C60.3708 33.1357 59.8874 32.8509 59.1484 32.8477C58.7155 32.8477 58.3737 32.9437 58.123 33.1357C57.8724 33.3245 57.7471 33.5622 57.7471 33.8486C57.7471 34.083 57.8219 34.2783 57.9717 34.4346C58.1247 34.5908 58.3184 34.7113 58.5527 34.7959C58.7904 34.8773 59.054 34.9521 59.3438 35.0205C59.6335 35.0856 59.9215 35.1637 60.208 35.2549C60.4945 35.346 60.7565 35.4567 60.9941 35.5869C61.2318 35.7171 61.4255 35.9059 61.5752 36.1533C61.7249 36.3975 61.7998 36.6969 61.7998 37.0518C61.7998 37.6247 61.5622 38.1097 61.0869 38.5068C60.6149 38.9007 59.9688 39.0977 59.1484 39.0977ZM62.8447 39V31.998H63.7969V34.3516H63.8457C63.9922 34.1107 64.1956 33.9251 64.4561 33.7949C64.7165 33.6647 64.9964 33.5996 65.2959 33.5996C65.8753 33.5996 66.3441 33.7965 66.7021 34.1904C67.0635 34.5843 67.2441 35.1035 67.2441 35.748V39H66.2969V35.8018C66.2969 35.3883 66.1862 35.0677 65.9648 34.8398C65.7467 34.612 65.457 34.498 65.0957 34.498C64.7279 34.498 64.4186 34.6266 64.168 34.8838C63.9206 35.141 63.7969 35.4469 63.7969 35.8018V39H62.8447ZM70.1494 38.248C70.5889 38.248 70.9404 38.1276 71.2041 37.8867C71.4678 37.6426 71.5996 37.3301 71.5996 36.9492V36.6514H70.1982C69.8532 36.6514 69.5911 36.723 69.4121 36.8662C69.2363 37.0094 69.1484 37.2048 69.1484 37.4521C69.1484 37.6963 69.2363 37.89 69.4121 38.0332C69.5911 38.1764 69.8369 38.248 70.1494 38.248ZM69.998 39.0977C69.4642 39.0977 69.0312 38.9382 68.6992 38.6191C68.3672 38.3001 68.2012 37.9111 68.2012 37.4521C68.2012 36.9801 68.377 36.5879 68.7285 36.2754C69.0833 35.9596 69.5732 35.8018 70.1982 35.8018H71.5996V35.5479C71.5996 35.2223 71.4954 34.9668 71.2871 34.7812C71.082 34.5924 70.8021 34.498 70.4473 34.498C70.1608 34.498 69.9281 34.5599 69.749 34.6836C69.57 34.8073 69.4528 34.9635 69.3975 35.1523H68.4014C68.5023 34.7129 68.7399 34.3451 69.1143 34.0488C69.4919 33.7493 69.9362 33.5996 70.4473 33.5996C71.1081 33.5996 71.624 33.7786 71.9951 34.1367C72.3662 34.4915 72.5518 34.9619 72.5518 35.5479V39H71.751L71.6484 38.3506H71.5996C71.4857 38.5426 71.2839 38.7152 70.9941 38.8682C70.7044 39.0212 70.3724 39.0977 69.998 39.0977ZM73.8506 39V31.998H74.8027V36.1484L77.1025 33.7021H78.3037L75.8525 36.2998L78.4502 39H77.2539L74.8027 36.4512V39H73.8506ZM81.1016 39.0977C80.3431 39.0977 79.736 38.8551 79.2803 38.3701C78.8278 37.8818 78.6016 37.208 78.6016 36.3486C78.6016 35.4893 78.8245 34.8171 79.2705 34.332C79.7165 33.8438 80.3105 33.5996 81.0527 33.5996C81.8047 33.5996 82.4004 33.8535 82.8398 34.3613C83.2793 34.8659 83.499 35.4453 83.499 36.0996L83.4502 36.6514H79.5928C79.6188 37.1462 79.7686 37.5286 80.042 37.7988C80.3154 38.0658 80.6686 38.1992 81.1016 38.1992C81.6484 38.1992 82.0651 37.9827 82.3516 37.5498H83.4014C83.2223 38.0153 82.9326 38.3896 82.5322 38.6729C82.1318 38.9561 81.6549 39.0977 81.1016 39.0977ZM79.5928 35.8506H82.5225C82.4639 35.4242 82.3044 35.0921 82.0439 34.8545C81.7835 34.6169 81.4531 34.498 81.0527 34.498C80.6523 34.498 80.3219 34.6169 80.0615 34.8545C79.8011 35.0921 79.6449 35.4242 79.5928 35.8506ZM86.3066 39.0977C85.7467 39.0977 85.2731 38.9544 84.8857 38.668C84.4984 38.3815 84.2542 38.0088 84.1533 37.5498H85.2031C85.3366 37.9827 85.7044 38.1992 86.3066 38.1992C86.6875 38.1992 86.974 38.1374 87.166 38.0137C87.3581 37.89 87.4541 37.7354 87.4541 37.5498C87.4541 37.3708 87.3776 37.2275 87.2246 37.1201C87.0716 37.0127 86.8796 36.9378 86.6484 36.8955C86.4206 36.8532 86.1732 36.7962 85.9062 36.7246C85.6393 36.6497 85.3903 36.5651 85.1592 36.4707C84.9281 36.3763 84.736 36.2168 84.583 35.9922C84.43 35.7643 84.3535 35.4844 84.3535 35.1523C84.3535 34.7129 84.5244 34.3451 84.8662 34.0488C85.2113 33.7493 85.6735 33.5996 86.2529 33.5996C86.7933 33.5996 87.2539 33.7331 87.6348 34C88.0156 34.2669 88.2549 34.6169 88.3525 35.0498H87.3027C87.1172 34.682 86.7673 34.498 86.2529 34.498C85.6182 34.498 85.3024 34.7161 85.3057 35.1523C85.3057 35.3314 85.3822 35.4762 85.5352 35.5869C85.6882 35.6943 85.8786 35.7708 86.1064 35.8164C86.3376 35.8587 86.5866 35.9189 86.8535 35.9971C87.1204 36.0719 87.3678 36.1566 87.5957 36.251C87.8268 36.3421 88.0189 36.5 88.1719 36.7246C88.3281 36.9492 88.4062 37.2243 88.4062 37.5498C88.4062 37.9893 88.2191 38.3571 87.8447 38.6533C87.4736 38.9495 86.9609 39.0977 86.3066 39.0977ZM89.3584 41.002V33.7021H90.1104L90.2568 34.4004H90.3105C90.724 33.8665 91.2741 33.5996 91.9609 33.5996C92.6348 33.5996 93.1768 33.8405 93.5869 34.3223C94.0003 34.8008 94.207 35.4779 94.207 36.3535C94.207 37.2259 94.0003 37.9014 93.5869 38.3799C93.1735 38.8584 92.6315 39.0977 91.9609 39.0977C91.2676 39.0977 90.7337 38.8486 90.3594 38.3506H90.3105V41.002H89.3584ZM91.8096 38.1992C92.249 38.1992 92.6006 38.043 92.8643 37.7305C93.1279 37.418 93.2598 36.959 93.2598 36.3535C93.2598 35.7448 93.1279 35.2842 92.8643 34.9717C92.6006 34.6559 92.249 34.498 91.8096 34.498C91.3636 34.498 91.0023 34.6576 90.7256 34.9766C90.4489 35.2923 90.3105 35.7513 90.3105 36.3535C90.3105 36.9525 90.4489 37.4098 90.7256 37.7256C91.0023 38.0413 91.3636 38.1992 91.8096 38.1992ZM97.5078 39.0977C96.7493 39.0977 96.1423 38.8551 95.6865 38.3701C95.234 37.8818 95.0078 37.208 95.0078 36.3486C95.0078 35.4893 95.2308 34.8171 95.6768 34.332C96.1227 33.8438 96.7168 33.5996 97.459 33.5996C98.2109 33.5996 98.8066 33.8535 99.2461 34.3613C99.6855 34.8659 99.9053 35.4453 99.9053 36.0996L99.8564 36.6514H95.999C96.0251 37.1462 96.1748 37.5286 96.4482 37.7988C96.7217 38.0658 97.0749 38.1992 97.5078 38.1992C98.0547 38.1992 98.4714 37.9827 98.7578 37.5498H99.8076C99.6286 38.0153 99.3389 38.3896 98.9385 38.6729C98.5381 38.9561 98.0612 39.0977 97.5078 39.0977ZM95.999 35.8506H98.9287C98.8701 35.4242 98.7106 35.0921 98.4502 34.8545C98.1898 34.6169 97.8594 34.498 97.459 34.498C97.0586 34.498 96.7282 34.6169 96.4678 34.8545C96.2074 35.0921 96.0511 35.4242 95.999 35.8506ZM102.61 38.248C103.05 38.248 103.401 38.1276 103.665 37.8867C103.929 37.6426 104.061 37.3301 104.061 36.9492V36.6514H102.659C102.314 36.6514 102.052 36.723 101.873 36.8662C101.697 37.0094 101.609 37.2048 101.609 37.4521C101.609 37.6963 101.697 37.89 101.873 38.0332C102.052 38.1764 102.298 38.248 102.61 38.248ZM102.459 39.0977C101.925 39.0977 101.492 38.9382 101.16 38.6191C100.828 38.3001 100.662 37.9111 100.662 37.4521C100.662 36.9801 100.838 36.5879 101.189 36.2754C101.544 35.9596 102.034 35.8018 102.659 35.8018H104.061V35.5479C104.061 35.2223 103.956 34.9668 103.748 34.7812C103.543 34.5924 103.263 34.498 102.908 34.498C102.622 34.498 102.389 34.5599 102.21 34.6836C102.031 34.8073 101.914 34.9635 101.858 35.1523H100.862C100.963 34.7129 101.201 34.3451 101.575 34.0488C101.953 33.7493 102.397 33.5996 102.908 33.5996C103.569 33.5996 104.085 33.7786 104.456 34.1367C104.827 34.4915 105.013 34.9619 105.013 35.5479V39H104.212L104.109 38.3506H104.061C103.947 38.5426 103.745 38.7152 103.455 38.8682C103.165 39.0212 102.833 39.0977 102.459 39.0977ZM106.263 39V33.7021H107.015L107.161 34.4004H107.215C107.495 33.9349 107.944 33.7021 108.562 33.7021H109.163V34.6006H108.611C108.191 34.6006 107.853 34.7227 107.596 34.9668C107.342 35.2077 107.215 35.5186 107.215 35.8994V39H106.263ZM112.01 39.0977C111.251 39.0977 110.644 38.8551 110.188 38.3701C109.736 37.8818 109.51 37.208 109.51 36.3486C109.51 35.4893 109.733 34.8171 110.179 34.332C110.625 33.8438 111.219 33.5996 111.961 33.5996C112.713 33.5996 113.309 33.8535 113.748 34.3613C114.188 34.8659 114.407 35.4453 114.407 36.0996L114.358 36.6514H110.501C110.527 37.1462 110.677 37.5286 110.95 37.7988C111.224 38.0658 111.577 38.1992 112.01 38.1992C112.557 38.1992 112.973 37.9827 113.26 37.5498H114.31C114.131 38.0153 113.841 38.3896 113.44 38.6729C113.04 38.9561 112.563 39.0977 112.01 39.0977ZM110.501 35.8506H113.431C113.372 35.4242 113.213 35.0921 112.952 34.8545C112.692 34.6169 112.361 34.498 111.961 34.498C111.561 34.498 111.23 34.6169 110.97 34.8545C110.709 35.0921 110.553 35.4242 110.501 35.8506Z" fill="white"/>
<rect x="270" y="26" width="26" height="18" rx="9" fill="url(#paint0_linear_135_1702)"/>
<path d="M283.846 31.9665L286.659 34.779C286.688 34.808 286.711 34.8425 286.726 34.8804C286.742 34.9183 286.75 34.959 286.75 35.0001C286.75 35.0411 286.742 35.0818 286.726 35.1197C286.711 35.1577 286.688 35.1921 286.659 35.2212L283.846 38.0337C283.787 38.0923 283.708 38.1252 283.625 38.1252C283.542 38.1252 283.463 38.0923 283.404 38.0337C283.345 37.975 283.312 37.8955 283.312 37.8126C283.312 37.7296 283.345 37.6501 283.404 37.5915L285.683 35.3126H279.562C279.48 35.3126 279.4 35.2796 279.342 35.221C279.283 35.1624 279.25 35.083 279.25 35.0001C279.25 34.9172 279.283 34.8377 279.342 34.7791C279.4 34.7205 279.48 34.6876 279.562 34.6876H285.683L283.404 32.4087C283.345 32.35 283.312 32.2705 283.312 32.1876C283.312 32.1046 283.345 32.0251 283.404 31.9665C283.463 31.9078 283.542 31.8749 283.625 31.8749C283.708 31.8749 283.787 31.9078 283.846 31.9665Z" fill="white"/>
<line x1="116.5" y1="28" x2="116.5" y2="42" stroke="white"/>
<rect x="0.5" y="21.5" width="307" height="27" rx="13.5" stroke="black" stroke-dasharray="2 2"/>
<path opacity="0.5" d="M3.9873 72.0977C3.03353 72.0977 2.26855 71.7852 1.69238 71.1602C1.11947 70.5319 0.833008 69.6449 0.833008 68.499C0.833008 67.3532 1.11947 66.4678 1.69238 65.8428C2.26855 65.2145 3.03353 64.9004 3.9873 64.9004C5.38704 64.9004 6.33594 65.5498 6.83398 66.8486H5.93555C5.5612 66.0479 4.91178 65.6491 3.9873 65.6523C3.29395 65.6523 2.73568 65.9014 2.3125 66.3994C1.89258 66.8942 1.68262 67.5957 1.68262 68.5039C1.68262 69.4089 1.89258 70.1104 2.3125 70.6084C2.73568 71.1032 3.29395 71.3506 3.9873 71.3506C4.91504 71.3506 5.56445 70.9502 5.93555 70.1494H6.83398C6.33594 71.4482 5.38704 72.0977 3.9873 72.0977ZM7.99121 72V64.998H8.73828V67.4492H8.78711C9.10612 66.9479 9.58952 66.6989 10.2373 66.7021C10.7842 66.7021 11.2464 66.8893 11.624 67.2637C12.0016 67.6348 12.1904 68.1475 12.1904 68.8018V72H11.4385V68.8018C11.4385 68.3623 11.318 68.0189 11.0771 67.7715C10.8395 67.5241 10.527 67.4004 10.1396 67.4004C9.74577 67.4004 9.41374 67.5387 9.14355 67.8154C8.87337 68.0921 8.73828 68.4209 8.73828 68.8018V72H7.99121ZM17.4248 71.3896C16.9854 71.8617 16.4043 72.0977 15.6816 72.0977C14.9622 72.0977 14.3828 71.8617 13.9434 71.3896C13.5039 70.9176 13.2842 70.2552 13.2842 69.4023C13.2842 68.5462 13.5039 67.8822 13.9434 67.4102C14.3828 66.9382 14.9622 66.7021 15.6816 66.7021C16.4043 66.7021 16.9854 66.9382 17.4248 67.4102C17.8643 67.8822 18.084 68.5462 18.084 69.4023C18.084 70.2552 17.8643 70.9176 17.4248 71.3896ZM14.4902 70.877C14.793 71.2253 15.1901 71.3994 15.6816 71.3994C16.1764 71.3994 16.5752 71.2253 16.8779 70.877C17.1839 70.5254 17.3369 70.0339 17.3369 69.4023C17.3369 68.7676 17.1839 68.276 16.8779 67.9277C16.5752 67.5762 16.1764 67.4004 15.6816 67.4004C15.1901 67.4004 14.793 67.5762 14.4902 67.9277C14.1875 68.276 14.0361 68.7676 14.0361 69.4023C14.0361 70.0339 14.1875 70.5254 14.4902 70.877ZM23.1279 71.3896C22.6885 71.8617 22.1074 72.0977 21.3848 72.0977C20.6654 72.0977 20.0859 71.8617 19.6465 71.3896C19.207 70.9176 18.9873 70.2552 18.9873 69.4023C18.9873 68.5462 19.207 67.8822 19.6465 67.4102C20.0859 66.9382 20.6654 66.7021 21.3848 66.7021C22.1074 66.7021 22.6885 66.9382 23.1279 67.4102C23.5674 67.8822 23.7871 68.5462 23.7871 69.4023C23.7871 70.2552 23.5674 70.9176 23.1279 71.3896ZM20.1934 70.877C20.4961 71.2253 20.8932 71.3994 21.3848 71.3994C21.8796 71.3994 22.2783 71.2253 22.5811 70.877C22.887 70.5254 23.04 70.0339 23.04 69.4023C23.04 68.7676 22.887 68.276 22.5811 67.9277C22.2783 67.5762 21.8796 67.4004 21.3848 67.4004C20.8932 67.4004 20.4961 67.5762 20.1934 67.9277C19.8906 68.276 19.7393 68.7676 19.7393 69.4023C19.7393 70.0339 19.8906 70.5254 20.1934 70.877ZM26.5898 72.0977C26.0755 72.0977 25.6377 71.9658 25.2764 71.7021C24.9183 71.4352 24.6904 71.0853 24.5928 70.6523H25.3936C25.4684 70.8932 25.6149 71.0788 25.833 71.209C26.0511 71.3359 26.3034 71.3994 26.5898 71.3994C26.9967 71.3994 27.306 71.3262 27.5176 71.1797C27.7324 71.0332 27.8398 70.8395 27.8398 70.5986C27.8398 70.4001 27.7633 70.2389 27.6104 70.1152C27.4574 69.9915 27.2653 69.9053 27.0342 69.8564C26.8063 69.8044 26.5589 69.7425 26.292 69.6709C26.0251 69.596 25.776 69.5163 25.5449 69.4316C25.3171 69.3438 25.125 69.1908 24.9688 68.9727C24.8158 68.7513 24.7393 68.4779 24.7393 68.1523C24.7393 67.7585 24.9085 67.4183 25.2471 67.1318C25.5889 66.8454 26.0365 66.7021 26.5898 66.7021C27.0553 66.7021 27.4639 66.8161 27.8154 67.0439C28.167 67.2686 28.3916 67.5876 28.4893 68.001H27.6934C27.5208 67.6006 27.153 67.4004 26.5898 67.4004C26.222 67.4004 25.9469 67.4671 25.7646 67.6006C25.5824 67.734 25.4912 67.918 25.4912 68.1523C25.4912 68.3997 25.597 68.5918 25.8086 68.7285C26.0234 68.862 26.2822 68.9629 26.585 69.0312C26.8877 69.0964 27.1904 69.1712 27.4932 69.2559C27.7992 69.3372 28.0579 69.4902 28.2695 69.7148C28.4844 69.9395 28.5918 70.234 28.5918 70.5986C28.5918 71.012 28.4095 71.3652 28.0449 71.6582C27.6803 71.9512 27.1953 72.0977 26.5898 72.0977ZM31.79 72.0977C31.0706 72.0977 30.4896 71.8617 30.0469 71.3896C29.6074 70.9176 29.3877 70.2552 29.3877 69.4023C29.3877 68.5462 29.6058 67.8822 30.042 67.4102C30.4782 66.9382 31.043 66.7021 31.7363 66.7021C32.1172 66.7021 32.4622 66.777 32.7715 66.9268C33.084 67.0765 33.333 67.2718 33.5186 67.5127C33.7041 67.7503 33.8457 68.0059 33.9434 68.2793C34.041 68.5527 34.0898 68.8262 34.0898 69.0996L34.0361 69.5977H30.1396C30.1657 70.1771 30.3301 70.623 30.6328 70.9355C30.9355 71.2448 31.3213 71.3994 31.79 71.3994C32.389 71.3994 32.8382 71.1504 33.1377 70.6523H33.9385C33.766 71.1178 33.4909 71.4759 33.1133 71.7266C32.7389 71.974 32.2979 72.0977 31.79 72.0977ZM30.1396 68.9482H33.3379C33.2923 68.46 33.123 68.0807 32.8301 67.8105C32.5371 67.5371 32.1725 67.4004 31.7363 67.4004C31.3034 67.4004 30.9404 67.5371 30.6475 67.8105C30.3545 68.0807 30.1852 68.46 30.1396 68.9482ZM39.0801 72.0977C38.5658 72.0977 38.1279 71.9658 37.7666 71.7021C37.4085 71.4352 37.1807 71.0853 37.083 70.6523H37.8838C37.9587 70.8932 38.1051 71.0788 38.3232 71.209C38.5413 71.3359 38.7936 71.3994 39.0801 71.3994C39.487 71.3994 39.7962 71.3262 40.0078 71.1797C40.2227 71.0332 40.3301 70.8395 40.3301 70.5986C40.3301 70.4001 40.2536 70.2389 40.1006 70.1152C39.9476 69.9915 39.7555 69.9053 39.5244 69.8564C39.2965 69.8044 39.0492 69.7425 38.7822 69.6709C38.5153 69.596 38.2663 69.5163 38.0352 69.4316C37.8073 69.3438 37.6152 69.1908 37.459 68.9727C37.306 68.7513 37.2295 68.4779 37.2295 68.1523C37.2295 67.7585 37.3988 67.4183 37.7373 67.1318C38.0791 66.8454 38.5267 66.7021 39.0801 66.7021C39.5456 66.7021 39.9541 66.8161 40.3057 67.0439C40.6572 67.2686 40.8818 67.5876 40.9795 68.001H40.1836C40.0111 67.6006 39.6432 67.4004 39.0801 67.4004C38.7122 67.4004 38.4372 67.4671 38.2549 67.6006C38.0726 67.734 37.9814 67.918 37.9814 68.1523C37.9814 68.3997 38.0872 68.5918 38.2988 68.7285C38.5137 68.862 38.7725 68.9629 39.0752 69.0312C39.3779 69.0964 39.6807 69.1712 39.9834 69.2559C40.2894 69.3372 40.5482 69.4902 40.7598 69.7148C40.9746 69.9395 41.082 70.234 41.082 70.5986C41.082 71.012 40.8997 71.3652 40.5352 71.6582C40.1706 71.9512 39.6855 72.0977 39.0801 72.0977ZM43.7773 72C43.403 72 43.0921 71.8763 42.8447 71.6289C42.6006 71.3815 42.4785 71.0723 42.4785 70.7012V67.498H41.6777V66.7998H42.4785L42.5811 65.3984H43.2305V66.7998H44.5781V67.498H43.2305V70.7012C43.2305 70.8737 43.2858 71.0169 43.3965 71.1309C43.5104 71.2448 43.6553 71.3018 43.8311 71.3018H44.5781V72H43.7773ZM46.2871 74.002L47.0879 72L44.9346 66.7998H45.7354L47.4346 70.9502H47.4834L49.1338 66.7998H49.9346L47.0879 74.002H46.2871ZM50.7354 72V64.998H51.4824V72H50.7354ZM55.0811 72.0977C54.3617 72.0977 53.7806 71.8617 53.3379 71.3896C52.8984 70.9176 52.6787 70.2552 52.6787 69.4023C52.6787 68.5462 52.8968 67.8822 53.333 67.4102C53.7692 66.9382 54.334 66.7021 55.0273 66.7021C55.4082 66.7021 55.7533 66.777 56.0625 66.9268C56.375 67.0765 56.624 67.2718 56.8096 67.5127C56.9951 67.7503 57.1367 68.0059 57.2344 68.2793C57.332 68.5527 57.3809 68.8262 57.3809 69.0996L57.3271 69.5977H53.4307C53.4567 70.1771 53.6211 70.623 53.9238 70.9355C54.2266 71.2448 54.6123 71.3994 55.0811 71.3994C55.68 71.3994 56.1292 71.1504 56.4287 70.6523H57.2295C57.057 71.1178 56.7819 71.4759 56.4043 71.7266C56.0299 71.974 55.5889 72.0977 55.0811 72.0977ZM53.4307 68.9482H56.6289C56.5833 68.46 56.4141 68.0807 56.1211 67.8105C55.8281 67.5371 55.4635 67.4004 55.0273 67.4004C54.5944 67.4004 54.2314 67.5371 53.9385 67.8105C53.6455 68.0807 53.4762 68.46 53.4307 68.9482ZM60.7207 74.002V66.7998H61.3213L61.4238 67.498H61.4727C61.847 66.9642 62.4134 66.6989 63.1719 66.7021C63.8392 66.7021 64.3812 66.9382 64.7979 67.4102C65.2145 67.8822 65.4229 68.5462 65.4229 69.4023C65.4229 70.2552 65.2145 70.9176 64.7979 71.3896C64.3812 71.8617 63.8392 72.0977 63.1719 72.0977C62.459 72.0977 61.9089 71.8486 61.5215 71.3506H61.4727V74.002H60.7207ZM61.9072 70.8818C62.1969 71.2269 62.5843 71.3994 63.0693 71.3994C63.5576 71.3994 63.9466 71.2269 64.2363 70.8818C64.526 70.5335 64.6709 70.0404 64.6709 69.4023C64.6709 68.7611 64.526 68.2679 64.2363 67.9229C63.9466 67.5745 63.5576 67.4004 63.0693 67.4004C62.5843 67.4004 62.1969 67.5745 61.9072 67.9229C61.6175 68.2679 61.4727 68.7611 61.4727 69.4023C61.4727 70.0404 61.6175 70.5335 61.9072 70.8818ZM66.5703 72V66.7998H67.1709L67.2734 67.498H67.3223C67.6022 67.0326 68.0693 66.7998 68.7236 66.7998H69.2705V67.498H68.7236C68.3232 67.498 67.9896 67.6217 67.7227 67.8691C67.4557 68.1165 67.3223 68.4274 67.3223 68.8018V72H66.5703ZM72.0732 72.0977C71.3538 72.0977 70.7728 71.8617 70.3301 71.3896C69.8906 70.9176 69.6709 70.2552 69.6709 69.4023C69.6709 68.5462 69.889 67.8822 70.3252 67.4102C70.7614 66.9382 71.3262 66.7021 72.0195 66.7021C72.4004 66.7021 72.7454 66.777 73.0547 66.9268C73.3672 67.0765 73.6162 67.2718 73.8018 67.5127C73.9873 67.7503 74.1289 68.0059 74.2266 68.2793C74.3242 68.5527 74.373 68.8262 74.373 69.0996L74.3193 69.5977H70.4229C70.4489 70.1771 70.6133 70.623 70.916 70.9355C71.2188 71.2448 71.6045 71.3994 72.0732 71.3994C72.6722 71.3994 73.1214 71.1504 73.4209 70.6523H74.2217C74.0492 71.1178 73.7741 71.4759 73.3965 71.7266C73.0221 71.974 72.5811 72.0977 72.0732 72.0977ZM70.4229 68.9482H73.6211C73.5755 68.46 73.4062 68.0807 73.1133 67.8105C72.8203 67.5371 72.4557 67.4004 72.0195 67.4004C71.5866 67.4004 71.2236 67.5371 70.9307 67.8105C70.6377 68.0807 70.4684 68.46 70.4229 68.9482ZM77.166 72.0977C76.6517 72.0977 76.2139 71.9658 75.8525 71.7021C75.4945 71.4352 75.2666 71.0853 75.1689 70.6523H75.9697C76.0446 70.8932 76.1911 71.0788 76.4092 71.209C76.6273 71.3359 76.8796 71.3994 77.166 71.3994C77.5729 71.3994 77.8822 71.3262 78.0938 71.1797C78.3086 71.0332 78.416 70.8395 78.416 70.5986C78.416 70.4001 78.3395 70.2389 78.1865 70.1152C78.0335 69.9915 77.8415 69.9053 77.6104 69.8564C77.3825 69.8044 77.1351 69.7425 76.8682 69.6709C76.6012 69.596 76.3522 69.5163 76.1211 69.4316C75.8932 69.3438 75.7012 69.1908 75.5449 68.9727C75.3919 68.7513 75.3154 68.4779 75.3154 68.1523C75.3154 67.7585 75.4847 67.4183 75.8232 67.1318C76.165 66.8454 76.6126 66.7021 77.166 66.7021C77.6315 66.7021 78.04 66.8161 78.3916 67.0439C78.7432 67.2686 78.9678 67.5876 79.0654 68.001H78.2695C78.097 67.6006 77.7292 67.4004 77.166 67.4004C76.7982 67.4004 76.5231 67.4671 76.3408 67.6006C76.1585 67.734 76.0674 67.918 76.0674 68.1523C76.0674 68.3997 76.1732 68.5918 76.3848 68.7285C76.5996 68.862 76.8584 68.9629 77.1611 69.0312C77.4639 69.0964 77.7666 69.1712 78.0693 69.2559C78.3753 69.3372 78.6341 69.4902 78.8457 69.7148C79.0605 69.9395 79.168 70.234 79.168 70.5986C79.168 71.012 78.9857 71.3652 78.6211 71.6582C78.2565 71.9512 77.7715 72.0977 77.166 72.0977ZM82.3662 72.0977C81.6468 72.0977 81.0658 71.8617 80.623 71.3896C80.1836 70.9176 79.9639 70.2552 79.9639 69.4023C79.9639 68.5462 80.182 67.8822 80.6182 67.4102C81.0544 66.9382 81.6191 66.7021 82.3125 66.7021C82.6934 66.7021 83.0384 66.777 83.3477 66.9268C83.6602 67.0765 83.9092 67.2718 84.0947 67.5127C84.2803 67.7503 84.4219 68.0059 84.5195 68.2793C84.6172 68.5527 84.666 68.8262 84.666 69.0996L84.6123 69.5977H80.7158C80.7419 70.1771 80.9062 70.623 81.209 70.9355C81.5117 71.2448 81.8975 71.3994 82.3662 71.3994C82.9652 71.3994 83.4144 71.1504 83.7139 70.6523H84.5146C84.3421 71.1178 84.0671 71.4759 83.6895 71.7266C83.3151 71.974 82.874 72.0977 82.3662 72.0977ZM80.7158 68.9482H83.9141C83.8685 68.46 83.6992 68.0807 83.4062 67.8105C83.1133 67.5371 82.7487 67.4004 82.3125 67.4004C81.8796 67.4004 81.5166 67.5371 81.2236 67.8105C80.9307 68.0807 80.7614 68.46 80.7158 68.9482ZM87.459 72C87.0846 72 86.7738 71.8763 86.5264 71.6289C86.2822 71.3815 86.1602 71.0723 86.1602 70.7012V67.498H85.3594V66.7998H86.1602L86.2627 65.3984H86.9121V66.7998H88.2598V67.498H86.9121V70.7012C86.9121 70.8737 86.9674 71.0169 87.0781 71.1309C87.1921 71.2448 87.3369 71.3018 87.5127 71.3018H88.2598V72H87.459Z" fill="white"/>
<path d="M29.7017 93.2535L21.2642 88.7535C21.1828 88.7102 21.092 88.6875 20.9998 88.6875C20.9076 88.6875 20.8168 88.7102 20.7354 88.7535L12.2979 93.2535C12.208 93.3015 12.1327 93.373 12.0802 93.4604C12.0277 93.5479 12 93.6479 12 93.7499C12 93.8519 12.0277 93.9519 12.0802 94.0394C12.1327 94.1268 12.208 94.1984 12.2979 94.2463L14.2498 95.2876V98.6922C14.2492 98.9685 14.3509 99.2352 14.5353 99.441C15.4564 100.467 17.5201 102.187 20.9998 102.187C22.1536 102.197 23.2988 101.988 24.3748 101.571V103.875C24.3748 104.024 24.4341 104.167 24.5396 104.273C24.6451 104.378 24.7881 104.437 24.9373 104.437C25.0865 104.437 25.2296 104.378 25.3351 104.273C25.4406 104.167 25.4998 104.024 25.4998 103.875V101.028C26.2333 100.605 26.8962 100.069 27.4644 99.441C27.6487 99.2352 27.7504 98.9685 27.7498 98.6922V95.2876L29.7017 94.2463C29.7917 94.1984 29.867 94.1268 29.9194 94.0394C29.9719 93.9519 29.9996 93.8519 29.9996 93.7499C29.9996 93.6479 29.9719 93.5479 29.9194 93.4604C29.867 93.373 29.7917 93.3015 29.7017 93.2535ZM20.9998 101.062C17.9574 101.062 16.1679 99.576 15.3748 98.6922V95.8874L20.7354 98.7463C20.8168 98.7896 20.9076 98.8123 20.9998 98.8123C21.092 98.8123 21.1828 98.7896 21.2642 98.7463L24.3748 97.0876V100.346C23.4889 100.759 22.3723 101.062 20.9998 101.062ZM26.6248 98.6894C26.2876 99.0635 25.9104 99.3995 25.4998 99.6913V96.4872L26.6248 95.8874V98.6894ZM25.2186 95.3629L25.2031 95.3537L21.2656 93.2535C21.1342 93.1864 20.9818 93.1736 20.841 93.2178C20.7003 93.2621 20.5826 93.3598 20.5133 93.49C20.4439 93.6202 20.4285 93.7725 20.4703 93.9139C20.5121 94.0554 20.6079 94.1747 20.7369 94.2463L24.0233 95.9999L20.9998 97.6122L13.7576 93.7499L20.9998 89.8876L28.242 93.7499L25.2186 95.3629Z" fill="white"/>
<path d="M39.8994 100L38.0977 92.998H39.2012L40.5488 98.6523H40.5977L41.9502 92.998H43.249L44.6016 98.6523H44.6504L45.998 92.998H47.1016L45.2998 100H43.9521L42.6191 94.3994H42.5801L41.252 100H39.8994ZM47.8486 100V94.7021H48.6006L48.7471 95.4004H48.8008C49.0807 94.9349 49.5299 94.7021 50.1484 94.7021H50.749V95.6006H50.1973C49.7773 95.6006 49.4388 95.7227 49.1816 95.9668C48.9277 96.2077 48.8008 96.5186 48.8008 96.8994V100H47.8486ZM51.5498 100V94.7021H52.502V100H51.5498ZM52.0283 94.1016C51.8428 94.1016 51.6914 94.043 51.5742 93.9258C51.457 93.8086 51.3984 93.6605 51.3984 93.4814C51.3984 93.2959 51.457 93.1445 51.5742 93.0273C51.6914 92.9102 51.8428 92.8516 52.0283 92.8516C52.2074 92.8516 52.3555 92.9102 52.4727 93.0273C52.5898 93.1413 52.6484 93.2926 52.6484 93.4814C52.6484 93.6605 52.5898 93.8086 52.4727 93.9258C52.3555 94.043 52.2074 94.1016 52.0283 94.1016ZM55.5977 100C55.1777 100 54.8392 99.8698 54.582 99.6094C54.3249 99.349 54.1963 99.012 54.1963 98.5986V95.6006H53.3467V94.7021H54.1963L54.3477 93.3008H55.1484V94.7021H56.4473V95.6006H55.1484V98.501C55.1484 98.68 55.1956 98.8249 55.29 98.9355C55.3877 99.0462 55.5228 99.1016 55.6953 99.1016H56.4473V100H55.5977ZM59.6504 100.098C58.8919 100.098 58.2848 99.8551 57.8291 99.3701C57.3766 98.8818 57.1504 98.208 57.1504 97.3486C57.1504 96.4893 57.3734 95.8171 57.8193 95.332C58.2653 94.8438 58.8594 94.5996 59.6016 94.5996C60.3535 94.5996 60.9492 94.8535 61.3887 95.3613C61.8281 95.8659 62.0479 96.4453 62.0479 97.0996L61.999 97.6514H58.1416C58.1676 98.1462 58.3174 98.5286 58.5908 98.7988C58.8643 99.0658 59.2174 99.1992 59.6504 99.1992C60.1973 99.1992 60.6139 98.9827 60.9004 98.5498H61.9502C61.7712 99.0153 61.4814 99.3896 61.0811 99.6729C60.6807 99.9561 60.2038 100.098 59.6504 100.098ZM58.1416 96.8506H61.0713C61.0127 96.4242 60.8532 96.0921 60.5928 95.8545C60.3324 95.6169 60.002 95.498 59.6016 95.498C59.2012 95.498 58.8708 95.6169 58.6104 95.8545C58.3499 96.0921 58.1937 96.4242 58.1416 96.8506ZM65.3486 100V92.998H66.3008V100H65.3486ZM67.6533 100V94.7021H68.6055V100H67.6533ZM68.1318 94.1016C67.9463 94.1016 67.7949 94.043 67.6777 93.9258C67.5605 93.8086 67.502 93.6605 67.502 93.4814C67.502 93.2959 67.5605 93.1445 67.6777 93.0273C67.7949 92.9102 67.9463 92.8516 68.1318 92.8516C68.3109 92.8516 68.459 92.9102 68.5762 93.0273C68.6934 93.1413 68.752 93.2926 68.752 93.4814C68.752 93.6605 68.6934 93.8086 68.5762 93.9258C68.459 94.043 68.3109 94.1016 68.1318 94.1016ZM69.9482 100V92.998H70.9004V97.1484L73.2002 94.7021H74.4014L71.9502 97.2998L74.5479 100H73.3516L70.9004 97.4512V100H69.9482ZM77.1992 100.098C76.4408 100.098 75.8337 99.8551 75.3779 99.3701C74.9255 98.8818 74.6992 98.208 74.6992 97.3486C74.6992 96.4893 74.9222 95.8171 75.3682 95.332C75.8141 94.8438 76.4082 94.5996 77.1504 94.5996C77.9023 94.5996 78.498 94.8535 78.9375 95.3613C79.377 95.8659 79.5967 96.4453 79.5967 97.0996L79.5479 97.6514H75.6904C75.7165 98.1462 75.8662 98.5286 76.1396 98.7988C76.4131 99.0658 76.7663 99.1992 77.1992 99.1992C77.7461 99.1992 78.1628 98.9827 78.4492 98.5498H79.499C79.32 99.0153 79.0303 99.3896 78.6299 99.6729C78.2295 99.9561 77.7526 100.098 77.1992 100.098ZM75.6904 96.8506H78.6201C78.5615 96.4242 78.402 96.0921 78.1416 95.8545C77.8812 95.6169 77.5508 95.498 77.1504 95.498C76.75 95.498 76.4196 95.6169 76.1592 95.8545C75.8988 96.0921 75.7425 96.4242 75.6904 96.8506ZM84.499 99.248C84.9385 99.248 85.29 99.1276 85.5537 98.8867C85.8174 98.6426 85.9492 98.3301 85.9492 97.9492V97.6514H84.5479C84.2028 97.6514 83.9408 97.723 83.7617 97.8662C83.5859 98.0094 83.498 98.2048 83.498 98.4521C83.498 98.6963 83.5859 98.89 83.7617 99.0332C83.9408 99.1764 84.1865 99.248 84.499 99.248ZM84.3477 100.098C83.8138 100.098 83.3809 99.9382 83.0488 99.6191C82.7168 99.3001 82.5508 98.9111 82.5508 98.4521C82.5508 97.9801 82.7266 97.5879 83.0781 97.2754C83.4329 96.9596 83.9229 96.8018 84.5479 96.8018H85.9492V96.5479C85.9492 96.2223 85.8451 95.9668 85.6367 95.7812C85.4316 95.5924 85.1517 95.498 84.7969 95.498C84.5104 95.498 84.2777 95.5599 84.0986 95.6836C83.9196 95.8073 83.8024 95.9635 83.7471 96.1523H82.751C82.8519 95.7129 83.0895 95.3451 83.4639 95.0488C83.8415 94.7493 84.2858 94.5996 84.7969 94.5996C85.4577 94.5996 85.9736 94.7786 86.3447 95.1367C86.7158 95.4915 86.9014 95.9619 86.9014 96.5479V100H86.1006L85.998 99.3506H85.9492C85.8353 99.5426 85.6335 99.7152 85.3438 99.8682C85.054 100.021 84.722 100.098 84.3477 100.098ZM88.1514 100V94.7021H88.9033L89.0498 95.4004H89.1035C89.429 94.8665 89.9287 94.5996 90.6025 94.5996C91.182 94.5996 91.6507 94.7965 92.0088 95.1904C92.3701 95.5843 92.5508 96.1035 92.5508 96.748V100H91.6035V96.8018C91.6035 96.3883 91.4928 96.0677 91.2715 95.8398C91.0534 95.612 90.7637 95.498 90.4023 95.498C90.0345 95.498 89.7253 95.6266 89.4746 95.8838C89.2272 96.141 89.1035 96.4469 89.1035 96.8018V100H88.1514ZM97.6533 99.248C98.0928 99.248 98.4443 99.1276 98.708 98.8867C98.9717 98.6426 99.1035 98.3301 99.1035 97.9492V97.6514H97.7021C97.3571 97.6514 97.0951 97.723 96.916 97.8662C96.7402 98.0094 96.6523 98.2048 96.6523 98.4521C96.6523 98.6963 96.7402 98.89 96.916 99.0332C97.0951 99.1764 97.3408 99.248 97.6533 99.248ZM97.502 100.098C96.9681 100.098 96.5352 99.9382 96.2031 99.6191C95.8711 99.3001 95.7051 98.9111 95.7051 98.4521C95.7051 97.9801 95.8809 97.5879 96.2324 97.2754C96.5872 96.9596 97.0771 96.8018 97.7021 96.8018H99.1035V96.5479C99.1035 96.2223 98.9993 95.9668 98.791 95.7812C98.5859 95.5924 98.306 95.498 97.9512 95.498C97.6647 95.498 97.432 95.5599 97.2529 95.6836C97.0739 95.8073 96.9567 95.9635 96.9014 96.1523H95.9053C96.0062 95.7129 96.2438 95.3451 96.6182 95.0488C96.9958 94.7493 97.4401 94.5996 97.9512 94.5996C98.612 94.5996 99.1279 94.7786 99.499 95.1367C99.8701 95.4915 100.056 95.9619 100.056 96.5479V100H99.2549L99.1523 99.3506H99.1035C98.9896 99.5426 98.7878 99.7152 98.498 99.8682C98.2083 100.021 97.8763 100.098 97.502 100.098ZM103.557 100.098C102.798 100.098 102.191 99.8551 101.735 99.3701C101.283 98.8818 101.057 98.208 101.057 97.3486C101.057 96.4893 101.283 95.8171 101.735 95.332C102.188 94.8438 102.795 94.5996 103.557 94.5996C104.117 94.5996 104.593 94.7445 104.987 95.0342C105.381 95.3239 105.655 95.7129 105.808 96.2012H104.807C104.546 95.7357 104.13 95.5013 103.557 95.498C103.098 95.498 102.723 95.6608 102.434 95.9863C102.147 96.3086 102.004 96.7643 102.004 97.3535C102.004 97.9395 102.147 98.3936 102.434 98.7158C102.723 99.0381 103.098 99.1992 103.557 99.1992C104.13 99.1992 104.546 98.9665 104.807 98.501H105.808C105.655 98.9893 105.381 99.3783 104.987 99.668C104.593 99.9544 104.117 100.098 103.557 100.098ZM108.454 99.248C108.894 99.248 109.245 99.1276 109.509 98.8867C109.772 98.6426 109.904 98.3301 109.904 97.9492V97.6514H108.503C108.158 97.6514 107.896 97.723 107.717 97.8662C107.541 98.0094 107.453 98.2048 107.453 98.4521C107.453 98.6963 107.541 98.89 107.717 99.0332C107.896 99.1764 108.142 99.248 108.454 99.248ZM108.303 100.098C107.769 100.098 107.336 99.9382 107.004 99.6191C106.672 99.3001 106.506 98.9111 106.506 98.4521C106.506 97.9801 106.682 97.5879 107.033 97.2754C107.388 96.9596 107.878 96.8018 108.503 96.8018H109.904V96.5479C109.904 96.2223 109.8 95.9668 109.592 95.7812C109.387 95.5924 109.107 95.498 108.752 95.498C108.465 95.498 108.233 95.5599 108.054 95.6836C107.875 95.8073 107.757 95.9635 107.702 96.1523H106.706C106.807 95.7129 107.045 95.3451 107.419 95.0488C107.797 94.7493 108.241 94.5996 108.752 94.5996C109.413 94.5996 109.929 94.7786 110.3 95.1367C110.671 95.4915 110.856 95.9619 110.856 96.5479V100H110.056L109.953 99.3506H109.904C109.79 99.5426 109.589 99.7152 109.299 99.8682C109.009 100.021 108.677 100.098 108.303 100.098ZM114.255 99.1992C114.701 99.1992 115.062 99.0413 115.339 98.7256C115.619 98.4098 115.759 97.9525 115.759 97.3535C115.759 96.7513 115.62 96.2923 115.344 95.9766C115.067 95.6576 114.704 95.498 114.255 95.498C113.815 95.498 113.464 95.6559 113.2 95.9717C112.937 96.2842 112.805 96.7448 112.805 97.3535C112.805 97.959 112.937 98.418 113.2 98.7305C113.464 99.043 113.815 99.1992 114.255 99.1992ZM114.108 100.098C113.435 100.098 112.891 99.8584 112.478 99.3799C112.064 98.9014 111.857 98.2243 111.857 97.3486C111.857 96.4697 112.067 95.7926 112.487 95.3174C112.907 94.8389 113.464 94.5996 114.157 94.5996C114.818 94.5996 115.334 94.8503 115.705 95.3516H115.759V92.998H116.706V100H115.959L115.808 99.3018H115.759C115.345 99.8324 114.795 100.098 114.108 100.098ZM120.305 100.098C119.546 100.098 118.939 99.8551 118.483 99.3701C118.031 98.8818 117.805 98.208 117.805 97.3486C117.805 96.4893 118.028 95.8171 118.474 95.332C118.92 94.8438 119.514 94.5996 120.256 94.5996C121.008 94.5996 121.604 94.8535 122.043 95.3613C122.482 95.8659 122.702 96.4453 122.702 97.0996L122.653 97.6514H118.796C118.822 98.1462 118.972 98.5286 119.245 98.7988C119.519 99.0658 119.872 99.1992 120.305 99.1992C120.852 99.1992 121.268 98.9827 121.555 98.5498H122.604C122.425 99.0153 122.136 99.3896 121.735 99.6729C121.335 99.9561 120.858 100.098 120.305 100.098ZM118.796 96.8506H121.726C121.667 96.4242 121.507 96.0921 121.247 95.8545C120.987 95.6169 120.656 95.498 120.256 95.498C119.855 95.498 119.525 95.6169 119.265 95.8545C119.004 96.0921 118.848 96.4242 118.796 96.8506ZM123.757 100V94.7021H124.509L124.655 95.4004H124.709C125.048 94.8665 125.497 94.5996 126.057 94.5996C126.418 94.5996 126.726 94.6875 126.979 94.8633C127.237 95.0358 127.429 95.2653 127.556 95.5518H127.609C127.762 95.2653 127.982 95.0358 128.269 94.8633C128.555 94.6875 128.885 94.5996 129.26 94.5996C129.8 94.5996 130.243 94.7933 130.588 95.1807C130.933 95.568 131.105 96.0905 131.105 96.748V100H130.158V96.8018C130.158 96.3883 130.057 96.0677 129.855 95.8398C129.657 95.612 129.392 95.498 129.06 95.498C128.747 95.498 128.477 95.6185 128.249 95.8594C128.021 96.1003 127.907 96.4144 127.907 96.8018V100H126.955V96.8018C126.955 96.3883 126.856 96.0677 126.657 95.8398C126.459 95.612 126.192 95.498 125.856 95.498C125.544 95.498 125.274 95.6185 125.046 95.8594C124.821 96.1003 124.709 96.4144 124.709 96.8018V100H123.757ZM132.36 100V94.7021H133.312V100H132.36ZM132.839 94.1016C132.653 94.1016 132.502 94.043 132.385 93.9258C132.268 93.8086 132.209 93.6605 132.209 93.4814C132.209 93.2959 132.268 93.1445 132.385 93.0273C132.502 92.9102 132.653 92.8516 132.839 92.8516C133.018 92.8516 133.166 92.9102 133.283 93.0273C133.4 93.1413 133.459 93.2926 133.459 93.4814C133.459 93.6605 133.4 93.8086 133.283 93.9258C133.166 94.043 133.018 94.1016 132.839 94.1016ZM136.257 99.248C136.696 99.248 137.048 99.1276 137.312 98.8867C137.575 98.6426 137.707 98.3301 137.707 97.9492V97.6514H136.306C135.961 97.6514 135.699 97.723 135.52 97.8662C135.344 98.0094 135.256 98.2048 135.256 98.4521C135.256 98.6963 135.344 98.89 135.52 99.0332C135.699 99.1764 135.944 99.248 136.257 99.248ZM136.105 100.098C135.572 100.098 135.139 99.9382 134.807 99.6191C134.475 99.3001 134.309 98.9111 134.309 98.4521C134.309 97.9801 134.484 97.5879 134.836 97.2754C135.191 96.9596 135.681 96.8018 136.306 96.8018H137.707V96.5479C137.707 96.2223 137.603 95.9668 137.395 95.7812C137.189 95.5924 136.91 95.498 136.555 95.498C136.268 95.498 136.035 95.5599 135.856 95.6836C135.677 95.8073 135.56 95.9635 135.505 96.1523H134.509C134.61 95.7129 134.847 95.3451 135.222 95.0488C135.599 94.7493 136.044 94.5996 136.555 94.5996C137.215 94.5996 137.731 94.7786 138.103 95.1367C138.474 95.4915 138.659 95.9619 138.659 96.5479V100H137.858L137.756 99.3506H137.707C137.593 99.5426 137.391 99.7152 137.102 99.8682C136.812 100.021 136.48 100.098 136.105 100.098Z" fill="white"/>
<rect x="270" y="87" width="26" height="18" rx="9" fill="url(#paint1_linear_135_1702)"/>
<path d="M283.846 92.9665L286.659 95.779C286.688 95.808 286.711 95.8425 286.726 95.8804C286.742 95.9183 286.75 95.959 286.75 96.0001C286.75 96.0411 286.742 96.0818 286.726 96.1197C286.711 96.1577 286.688 96.1921 286.659 96.2212L283.846 99.0337C283.787 99.0923 283.708 99.1252 283.625 99.1252C283.542 99.1252 283.463 99.0923 283.404 99.0337C283.345 98.975 283.312 98.8955 283.312 98.8126C283.312 98.7296 283.345 98.6501 283.404 98.5915L285.683 96.3126H279.562C279.48 96.3126 279.4 96.2796 279.342 96.221C279.283 96.1624 279.25 96.083 279.25 96.0001C279.25 95.9172 279.283 95.8377 279.342 95.7791C279.4 95.7205 279.48 95.6876 279.562 95.6876H285.683L283.404 93.4087C283.345 93.35 283.312 93.2705 283.312 93.1876C283.312 93.1046 283.345 93.0251 283.404 92.9665C283.463 92.9078 283.542 92.8749 283.625 92.8749C283.708 92.8749 283.787 92.9078 283.846 92.9665Z" fill="white"/>
<rect x="0.5" y="82.5" width="307" height="27" rx="13.5" stroke="black" stroke-dasharray="2 2"/>
<path d="M20.4208 142.324C20.3903 142.446 20.3201 142.554 20.2213 142.631C20.1224 142.708 20.0006 142.75 19.8751 142.75C19.8277 142.75 19.7805 142.745 19.7345 142.733L17.4845 142.171C17.4219 142.155 17.3624 142.129 17.3087 142.093L15.6212 140.968C15.4971 140.885 15.411 140.756 15.3818 140.61C15.3526 140.464 15.3827 140.312 15.4655 140.188C15.5483 140.063 15.677 139.977 15.8233 139.948C15.9696 139.919 16.1215 139.949 16.2456 140.032L17.8515 141.103L20.0073 141.642C20.0793 141.659 20.1472 141.691 20.207 141.735C20.2668 141.778 20.3174 141.834 20.3558 141.897C20.3942 141.96 20.4197 142.031 20.4309 142.104C20.442 142.177 20.4386 142.252 20.4208 142.324ZM29.7505 135.542C29.7044 135.682 29.6309 135.811 29.5343 135.923C29.4378 136.035 29.3201 136.126 29.188 136.192L27.523 137.025L23.6502 140.898C23.5815 140.967 23.4961 141.016 23.4025 141.042C23.3088 141.068 23.2101 141.069 23.1158 141.046L18.6158 139.921C18.5474 139.903 18.4828 139.874 18.4253 139.833L14.5215 137.046L12.8144 136.192C12.5475 136.059 12.3446 135.825 12.2502 135.542C12.1558 135.259 12.1776 134.95 12.3109 134.683L14.0582 131.189C14.1916 130.922 14.4254 130.72 14.7084 130.625C14.9914 130.531 15.3002 130.553 15.5671 130.686L17.1182 131.459L20.8447 130.395C20.9458 130.366 21.053 130.366 21.1541 130.395L24.8807 131.459L26.4318 130.686C26.6986 130.553 27.0075 130.531 27.2905 130.625C27.5734 130.72 27.8073 130.922 27.9407 131.189L29.6879 134.683C29.7546 134.815 29.7944 134.959 29.8052 135.106C29.8159 135.253 29.7973 135.401 29.7505 135.542ZM26.5035 136.451L24.5903 132.625H22.3529L19.3126 135.578C20.2028 136.147 21.5985 136.304 22.8508 135.042C22.9486 134.943 23.0794 134.884 23.218 134.876C23.3566 134.868 23.4933 134.912 23.6017 134.999L26.0211 136.937L26.5035 136.451ZM13.3171 135.186L14.5609 135.808L16.3082 132.314L15.0644 131.692L13.3171 135.186ZM25.2189 137.734L23.2705 136.174C21.8966 137.299 20.1522 137.447 18.7065 136.525C18.5643 136.435 18.4443 136.314 18.3552 136.17C18.2662 136.027 18.2104 135.866 18.192 135.699C18.1737 135.531 18.1932 135.362 18.2492 135.203C18.3051 135.044 18.3961 134.899 18.5153 134.78C18.517 134.778 18.5189 134.776 18.5209 134.774L21.6751 131.715L21.0001 131.523L17.455 132.536L15.5305 136.384L18.9899 138.855L23.0779 139.877L25.2189 137.734ZM28.6811 135.186L26.9359 131.692L25.6921 132.314L27.4394 135.808L28.6811 135.186Z" fill="white"/>
<path d="M39.8994 140L38.0977 132.998H39.2012L40.5488 138.652H40.5977L41.9502 132.998H43.249L44.6016 138.652H44.6504L45.998 132.998H47.1016L45.2998 140H43.9521L42.6191 134.399H42.5801L41.252 140H39.8994ZM47.8486 140V134.702H48.6006L48.7471 135.4H48.8008C49.0807 134.935 49.5299 134.702 50.1484 134.702H50.749V135.601H50.1973C49.7773 135.601 49.4388 135.723 49.1816 135.967C48.9277 136.208 48.8008 136.519 48.8008 136.899V140H47.8486ZM51.5498 140V134.702H52.502V140H51.5498ZM52.0283 134.102C51.8428 134.102 51.6914 134.043 51.5742 133.926C51.457 133.809 51.3984 133.66 51.3984 133.481C51.3984 133.296 51.457 133.145 51.5742 133.027C51.6914 132.91 51.8428 132.852 52.0283 132.852C52.2074 132.852 52.3555 132.91 52.4727 133.027C52.5898 133.141 52.6484 133.293 52.6484 133.481C52.6484 133.66 52.5898 133.809 52.4727 133.926C52.3555 134.043 52.2074 134.102 52.0283 134.102ZM55.5977 140C55.1777 140 54.8392 139.87 54.582 139.609C54.3249 139.349 54.1963 139.012 54.1963 138.599V135.601H53.3467V134.702H54.1963L54.3477 133.301H55.1484V134.702H56.4473V135.601H55.1484V138.501C55.1484 138.68 55.1956 138.825 55.29 138.936C55.3877 139.046 55.5228 139.102 55.6953 139.102H56.4473V140H55.5977ZM59.6504 140.098C58.8919 140.098 58.2848 139.855 57.8291 139.37C57.3766 138.882 57.1504 138.208 57.1504 137.349C57.1504 136.489 57.3734 135.817 57.8193 135.332C58.2653 134.844 58.8594 134.6 59.6016 134.6C60.3535 134.6 60.9492 134.854 61.3887 135.361C61.8281 135.866 62.0479 136.445 62.0479 137.1L61.999 137.651H58.1416C58.1676 138.146 58.3174 138.529 58.5908 138.799C58.8643 139.066 59.2174 139.199 59.6504 139.199C60.1973 139.199 60.6139 138.983 60.9004 138.55H61.9502C61.7712 139.015 61.4814 139.39 61.0811 139.673C60.6807 139.956 60.2038 140.098 59.6504 140.098ZM58.1416 136.851H61.0713C61.0127 136.424 60.8532 136.092 60.5928 135.854C60.3324 135.617 60.002 135.498 59.6016 135.498C59.2012 135.498 58.8708 135.617 58.6104 135.854C58.3499 136.092 58.1937 136.424 58.1416 136.851ZM65.2998 140V134.702H66.252V140H65.2998ZM65.7783 134.102C65.5928 134.102 65.4414 134.043 65.3242 133.926C65.207 133.809 65.1484 133.66 65.1484 133.481C65.1484 133.296 65.207 133.145 65.3242 133.027C65.4414 132.91 65.5928 132.852 65.7783 132.852C65.9574 132.852 66.1055 132.91 66.2227 133.027C66.3398 133.141 66.3984 133.293 66.3984 133.481C66.3984 133.66 66.3398 133.809 66.2227 133.926C66.1055 134.043 65.9574 134.102 65.7783 134.102ZM67.5459 140V134.702H68.2979L68.4443 135.4H68.498C68.8236 134.867 69.3232 134.6 69.9971 134.6C70.5765 134.6 71.0452 134.797 71.4033 135.19C71.7646 135.584 71.9453 136.104 71.9453 136.748V140H70.998V136.802C70.998 136.388 70.8874 136.068 70.666 135.84C70.4479 135.612 70.1582 135.498 69.7969 135.498C69.429 135.498 69.1198 135.627 68.8691 135.884C68.6217 136.141 68.498 136.447 68.498 136.802V140H67.5459ZM75.7979 140V135.601H74.9482V134.702H75.7979V134.302C75.7979 133.875 75.9248 133.535 76.1787 133.281C76.4326 133.027 76.7728 132.9 77.1992 132.9H78.0488V133.799H77.2969C77.1243 133.799 76.9893 133.849 76.8916 133.95C76.7972 134.051 76.75 134.185 76.75 134.351V134.702H78.0488V135.601H76.75V140H75.7979ZM82.7754 139.37C82.3294 139.855 81.7354 140.098 80.9932 140.098C80.2542 140.098 79.6618 139.855 79.2158 139.37C78.7699 138.882 78.5469 138.208 78.5469 137.349C78.5469 136.489 78.7699 135.817 79.2158 135.332C79.6618 134.844 80.2542 134.6 80.9932 134.6C81.7354 134.6 82.3294 134.844 82.7754 135.332C83.2214 135.817 83.4443 136.489 83.4443 137.349C83.4443 138.208 83.2214 138.882 82.7754 139.37ZM79.9092 138.726C80.1859 139.041 80.5472 139.199 80.9932 139.199C81.4424 139.199 81.8053 139.041 82.082 138.726C82.3587 138.41 82.4971 137.952 82.4971 137.354C82.4971 136.751 82.3587 136.292 82.082 135.977C81.8053 135.658 81.4424 135.498 80.9932 135.498C80.5472 135.498 80.1859 135.658 79.9092 135.977C79.6325 136.292 79.4941 136.751 79.4941 137.354C79.4941 137.952 79.6325 138.41 79.9092 138.726ZM84.499 140V134.702H85.251L85.3975 135.4H85.4512C85.7311 134.935 86.1803 134.702 86.7988 134.702H87.3994V135.601H86.8477C86.4277 135.601 86.0892 135.723 85.832 135.967C85.5781 136.208 85.4512 136.519 85.4512 136.899V140H84.499ZM88.2002 140V134.702H88.9521L89.0986 135.4H89.1523C89.4909 134.867 89.9401 134.6 90.5 134.6C90.8613 134.6 91.1689 134.688 91.4229 134.863C91.68 135.036 91.8721 135.265 91.999 135.552H92.0527C92.2057 135.265 92.4255 135.036 92.7119 134.863C92.9984 134.688 93.3288 134.6 93.7031 134.6C94.2435 134.6 94.6862 134.793 95.0312 135.181C95.3763 135.568 95.5488 136.09 95.5488 136.748V140H94.6016V136.802C94.6016 136.388 94.5007 136.068 94.2988 135.84C94.1003 135.612 93.835 135.498 93.5029 135.498C93.1904 135.498 92.9202 135.618 92.6924 135.859C92.4645 136.1 92.3506 136.414 92.3506 136.802V140H91.3984V136.802C91.3984 136.388 91.2992 136.068 91.1006 135.84C90.902 135.612 90.6351 135.498 90.2998 135.498C89.9873 135.498 89.7171 135.618 89.4893 135.859C89.2646 136.1 89.1523 136.414 89.1523 136.802V140H88.2002ZM98.4541 139.248C98.8936 139.248 99.2451 139.128 99.5088 138.887C99.7725 138.643 99.9043 138.33 99.9043 137.949V137.651H98.5029C98.1579 137.651 97.8958 137.723 97.7168 137.866C97.541 138.009 97.4531 138.205 97.4531 138.452C97.4531 138.696 97.541 138.89 97.7168 139.033C97.8958 139.176 98.1416 139.248 98.4541 139.248ZM98.3027 140.098C97.7689 140.098 97.3359 139.938 97.0039 139.619C96.6719 139.3 96.5059 138.911 96.5059 138.452C96.5059 137.98 96.6816 137.588 97.0332 137.275C97.388 136.96 97.8779 136.802 98.5029 136.802H99.9043V136.548C99.9043 136.222 99.8001 135.967 99.5918 135.781C99.3867 135.592 99.1068 135.498 98.752 135.498C98.4655 135.498 98.2327 135.56 98.0537 135.684C97.8747 135.807 97.7575 135.964 97.7021 136.152H96.7061C96.807 135.713 97.0446 135.345 97.4189 135.049C97.7965 134.749 98.2409 134.6 98.752 134.6C99.4128 134.6 99.9287 134.779 100.3 135.137C100.671 135.492 100.856 135.962 100.856 136.548V140H100.056L99.9531 139.351H99.9043C99.7904 139.543 99.5885 139.715 99.2988 139.868C99.0091 140.021 98.6771 140.098 98.3027 140.098ZM102.155 140V132.998H103.107V140H102.155ZM109.157 139.199C109.597 139.199 109.948 139.043 110.212 138.73C110.476 138.418 110.607 137.959 110.607 137.354C110.607 136.745 110.476 136.284 110.212 135.972C109.948 135.656 109.597 135.498 109.157 135.498C108.711 135.498 108.35 135.658 108.073 135.977C107.797 136.292 107.658 136.751 107.658 137.354C107.658 137.952 107.797 138.41 108.073 138.726C108.35 139.041 108.711 139.199 109.157 139.199ZM109.309 140.098C108.622 140.098 108.072 139.832 107.658 139.302H107.609L107.458 140H106.706V132.998H107.658V135.352H107.707C108.081 134.85 108.615 134.6 109.309 134.6C109.982 134.6 110.526 134.84 110.939 135.322C111.353 135.801 111.56 136.478 111.56 137.354C111.56 138.226 111.353 138.901 110.939 139.38C110.526 139.858 109.982 140.098 109.309 140.098ZM114.553 140.098C113.973 140.098 113.503 139.902 113.142 139.512C112.784 139.118 112.604 138.597 112.604 137.949V134.702H113.557V137.9C113.557 138.314 113.666 138.634 113.884 138.862C114.105 139.087 114.395 139.199 114.753 139.199C115.121 139.199 115.43 139.071 115.681 138.813C115.931 138.556 116.057 138.252 116.057 137.9V134.702H117.004V140H116.257L116.105 139.302H116.057C115.728 139.832 115.227 140.098 114.553 140.098ZM120.061 140.098C119.501 140.098 119.027 139.954 118.64 139.668C118.252 139.382 118.008 139.009 117.907 138.55H118.957C119.09 138.983 119.458 139.199 120.061 139.199C120.441 139.199 120.728 139.137 120.92 139.014C121.112 138.89 121.208 138.735 121.208 138.55C121.208 138.371 121.132 138.228 120.979 138.12C120.826 138.013 120.633 137.938 120.402 137.896C120.174 137.853 119.927 137.796 119.66 137.725C119.393 137.65 119.144 137.565 118.913 137.471C118.682 137.376 118.49 137.217 118.337 136.992C118.184 136.764 118.107 136.484 118.107 136.152C118.107 135.713 118.278 135.345 118.62 135.049C118.965 134.749 119.427 134.6 120.007 134.6C120.547 134.6 121.008 134.733 121.389 135C121.77 135.267 122.009 135.617 122.106 136.05H121.057C120.871 135.682 120.521 135.498 120.007 135.498C119.372 135.498 119.056 135.716 119.06 136.152C119.06 136.331 119.136 136.476 119.289 136.587C119.442 136.694 119.632 136.771 119.86 136.816C120.091 136.859 120.34 136.919 120.607 136.997C120.874 137.072 121.122 137.157 121.35 137.251C121.581 137.342 121.773 137.5 121.926 137.725C122.082 137.949 122.16 138.224 122.16 138.55C122.16 138.989 121.973 139.357 121.599 139.653C121.228 139.95 120.715 140.098 120.061 140.098ZM123.112 140V134.702H124.064V140H123.112ZM123.591 134.102C123.405 134.102 123.254 134.043 123.137 133.926C123.02 133.809 122.961 133.66 122.961 133.481C122.961 133.296 123.02 133.145 123.137 133.027C123.254 132.91 123.405 132.852 123.591 132.852C123.77 132.852 123.918 132.91 124.035 133.027C124.152 133.141 124.211 133.293 124.211 133.481C124.211 133.66 124.152 133.809 124.035 133.926C123.918 134.043 123.77 134.102 123.591 134.102ZM125.358 140V134.702H126.11L126.257 135.4H126.311C126.636 134.867 127.136 134.6 127.81 134.6C128.389 134.6 128.858 134.797 129.216 135.19C129.577 135.584 129.758 136.104 129.758 136.748V140H128.811V136.802C128.811 136.388 128.7 136.068 128.479 135.84C128.26 135.612 127.971 135.498 127.609 135.498C127.242 135.498 126.932 135.627 126.682 135.884C126.434 136.141 126.311 136.447 126.311 136.802V140H125.358ZM133.264 140.098C132.505 140.098 131.898 139.855 131.442 139.37C130.99 138.882 130.764 138.208 130.764 137.349C130.764 136.489 130.987 135.817 131.433 135.332C131.879 134.844 132.473 134.6 133.215 134.6C133.967 134.6 134.562 134.854 135.002 135.361C135.441 135.866 135.661 136.445 135.661 137.1L135.612 137.651H131.755C131.781 138.146 131.931 138.529 132.204 138.799C132.478 139.066 132.831 139.199 133.264 139.199C133.811 139.199 134.227 138.983 134.514 138.55H135.563C135.384 139.015 135.095 139.39 134.694 139.673C134.294 139.956 133.817 140.098 133.264 140.098ZM131.755 136.851H134.685C134.626 136.424 134.466 136.092 134.206 135.854C133.946 135.617 133.615 135.498 133.215 135.498C132.814 135.498 132.484 135.617 132.224 135.854C131.963 136.092 131.807 136.424 131.755 136.851ZM138.469 140.098C137.909 140.098 137.435 139.954 137.048 139.668C136.66 139.382 136.416 139.009 136.315 138.55H137.365C137.499 138.983 137.867 139.199 138.469 139.199C138.85 139.199 139.136 139.137 139.328 139.014C139.52 138.89 139.616 138.735 139.616 138.55C139.616 138.371 139.54 138.228 139.387 138.12C139.234 138.013 139.042 137.938 138.811 137.896C138.583 137.853 138.335 137.796 138.068 137.725C137.801 137.65 137.552 137.565 137.321 137.471C137.09 137.376 136.898 137.217 136.745 136.992C136.592 136.764 136.516 136.484 136.516 136.152C136.516 135.713 136.687 135.345 137.028 135.049C137.373 134.749 137.836 134.6 138.415 134.6C138.955 134.6 139.416 134.733 139.797 135C140.178 135.267 140.417 135.617 140.515 136.05H139.465C139.279 135.682 138.929 135.498 138.415 135.498C137.78 135.498 137.465 135.716 137.468 136.152C137.468 136.331 137.544 136.476 137.697 136.587C137.85 136.694 138.041 136.771 138.269 136.816C138.5 136.859 138.749 136.919 139.016 136.997C139.283 137.072 139.53 137.157 139.758 137.251C139.989 137.342 140.181 137.5 140.334 137.725C140.49 137.949 140.568 138.224 140.568 138.55C140.568 138.989 140.381 139.357 140.007 139.653C139.636 139.95 139.123 140.098 138.469 140.098ZM143.273 140.098C142.714 140.098 142.24 139.954 141.853 139.668C141.465 139.382 141.221 139.009 141.12 138.55H142.17C142.303 138.983 142.671 139.199 143.273 139.199C143.654 139.199 143.941 139.137 144.133 139.014C144.325 138.89 144.421 138.735 144.421 138.55C144.421 138.371 144.344 138.228 144.191 138.12C144.038 138.013 143.846 137.938 143.615 137.896C143.387 137.853 143.14 137.796 142.873 137.725C142.606 137.65 142.357 137.565 142.126 137.471C141.895 137.376 141.703 137.217 141.55 136.992C141.397 136.764 141.32 136.484 141.32 136.152C141.32 135.713 141.491 135.345 141.833 135.049C142.178 134.749 142.64 134.6 143.22 134.6C143.76 134.6 144.221 134.733 144.602 135C144.982 135.267 145.222 135.617 145.319 136.05H144.27C144.084 135.682 143.734 135.498 143.22 135.498C142.585 135.498 142.269 135.716 142.272 136.152C142.272 136.331 142.349 136.476 142.502 136.587C142.655 136.694 142.845 136.771 143.073 136.816C143.304 136.859 143.553 136.919 143.82 136.997C144.087 137.072 144.335 137.157 144.562 137.251C144.794 137.342 144.986 137.5 145.139 137.725C145.295 137.949 145.373 138.224 145.373 138.55C145.373 138.989 145.186 139.357 144.812 139.653C144.44 139.95 143.928 140.098 143.273 140.098ZM150.773 140.098C150.015 140.098 149.408 139.855 148.952 139.37C148.5 138.882 148.273 138.208 148.273 137.349C148.273 136.489 148.5 135.817 148.952 135.332C149.405 134.844 150.012 134.6 150.773 134.6C151.333 134.6 151.81 134.744 152.204 135.034C152.598 135.324 152.871 135.713 153.024 136.201H152.023C151.763 135.736 151.346 135.501 150.773 135.498C150.314 135.498 149.94 135.661 149.65 135.986C149.364 136.309 149.221 136.764 149.221 137.354C149.221 137.939 149.364 138.394 149.65 138.716C149.94 139.038 150.314 139.199 150.773 139.199C151.346 139.199 151.763 138.966 152.023 138.501H153.024C152.871 138.989 152.598 139.378 152.204 139.668C151.81 139.954 151.333 140.098 150.773 140.098ZM158 139.37C157.554 139.855 156.96 140.098 156.218 140.098C155.479 140.098 154.886 139.855 154.44 139.37C153.994 138.882 153.771 138.208 153.771 137.349C153.771 136.489 153.994 135.817 154.44 135.332C154.886 134.844 155.479 134.6 156.218 134.6C156.96 134.6 157.554 134.844 158 135.332C158.446 135.817 158.669 136.489 158.669 137.349C158.669 138.208 158.446 138.882 158 139.37ZM155.134 138.726C155.41 139.041 155.772 139.199 156.218 139.199C156.667 139.199 157.03 139.041 157.307 138.726C157.583 138.41 157.722 137.952 157.722 137.354C157.722 136.751 157.583 136.292 157.307 135.977C157.03 135.658 156.667 135.498 156.218 135.498C155.772 135.498 155.41 135.658 155.134 135.977C154.857 136.292 154.719 136.751 154.719 137.354C154.719 137.952 154.857 138.41 155.134 138.726ZM159.724 140V134.702H160.476L160.622 135.4H160.676C161.014 134.867 161.464 134.6 162.023 134.6C162.385 134.6 162.692 134.688 162.946 134.863C163.203 135.036 163.396 135.265 163.522 135.552H163.576C163.729 135.265 163.949 135.036 164.235 134.863C164.522 134.688 164.852 134.6 165.227 134.6C165.767 134.6 166.21 134.793 166.555 135.181C166.9 135.568 167.072 136.09 167.072 136.748V140H166.125V136.802C166.125 136.388 166.024 136.068 165.822 135.84C165.624 135.612 165.358 135.498 165.026 135.498C164.714 135.498 164.444 135.618 164.216 135.859C163.988 136.1 163.874 136.414 163.874 136.802V140H162.922V136.802C162.922 136.388 162.823 136.068 162.624 135.84C162.425 135.612 162.159 135.498 161.823 135.498C161.511 135.498 161.241 135.618 161.013 135.859C160.788 136.1 160.676 136.414 160.676 136.802V140H159.724ZM168.327 140V134.702H169.079L169.226 135.4H169.279C169.618 134.867 170.067 134.6 170.627 134.6C170.988 134.6 171.296 134.688 171.55 134.863C171.807 135.036 171.999 135.265 172.126 135.552H172.18C172.333 135.265 172.552 135.036 172.839 134.863C173.125 134.688 173.456 134.6 173.83 134.6C174.37 134.6 174.813 134.793 175.158 135.181C175.503 135.568 175.676 136.09 175.676 136.748V140H174.729V136.802C174.729 136.388 174.628 136.068 174.426 135.84C174.227 135.612 173.962 135.498 173.63 135.498C173.317 135.498 173.047 135.618 172.819 135.859C172.591 136.1 172.478 136.414 172.478 136.802V140H171.525V136.802C171.525 136.388 171.426 136.068 171.228 135.84C171.029 135.612 170.762 135.498 170.427 135.498C170.114 135.498 169.844 135.618 169.616 135.859C169.392 136.1 169.279 136.414 169.279 136.802V140H168.327ZM178.879 140.098C178.299 140.098 177.829 139.902 177.468 139.512C177.11 139.118 176.931 138.597 176.931 137.949V134.702H177.883V137.9C177.883 138.314 177.992 138.634 178.21 138.862C178.431 139.087 178.721 139.199 179.079 139.199C179.447 139.199 179.756 139.071 180.007 138.813C180.257 138.556 180.383 138.252 180.383 137.9V134.702H181.33V140H180.583L180.432 139.302H180.383C180.054 139.832 179.553 140.098 178.879 140.098ZM182.634 140V134.702H183.386L183.532 135.4H183.586C183.911 134.867 184.411 134.6 185.085 134.6C185.664 134.6 186.133 134.797 186.491 135.19C186.853 135.584 187.033 136.104 187.033 136.748V140H186.086V136.802C186.086 136.388 185.975 136.068 185.754 135.84C185.536 135.612 185.246 135.498 184.885 135.498C184.517 135.498 184.208 135.627 183.957 135.884C183.71 136.141 183.586 136.447 183.586 136.802V140H182.634ZM188.288 140V134.702H189.24V140H188.288ZM188.767 134.102C188.581 134.102 188.43 134.043 188.312 133.926C188.195 133.809 188.137 133.66 188.137 133.481C188.137 133.296 188.195 133.145 188.312 133.027C188.43 132.91 188.581 132.852 188.767 132.852C188.946 132.852 189.094 132.91 189.211 133.027C189.328 133.141 189.387 133.293 189.387 133.481C189.387 133.66 189.328 133.809 189.211 133.926C189.094 134.043 188.946 134.102 188.767 134.102ZM192.785 140.098C192.027 140.098 191.42 139.855 190.964 139.37C190.511 138.882 190.285 138.208 190.285 137.349C190.285 136.489 190.511 135.817 190.964 135.332C191.416 134.844 192.023 134.6 192.785 134.6C193.345 134.6 193.822 134.744 194.216 135.034C194.61 135.324 194.883 135.713 195.036 136.201H194.035C193.775 135.736 193.358 135.501 192.785 135.498C192.326 135.498 191.952 135.661 191.662 135.986C191.376 136.309 191.232 136.764 191.232 137.354C191.232 137.939 191.376 138.394 191.662 138.716C191.952 139.038 192.326 139.199 192.785 139.199C193.358 139.199 193.775 138.966 194.035 138.501H195.036C194.883 138.989 194.61 139.378 194.216 139.668C193.822 139.954 193.345 140.098 192.785 140.098ZM197.683 139.248C198.122 139.248 198.474 139.128 198.737 138.887C199.001 138.643 199.133 138.33 199.133 137.949V137.651H197.731C197.386 137.651 197.124 137.723 196.945 137.866C196.77 138.009 196.682 138.205 196.682 138.452C196.682 138.696 196.77 138.89 196.945 139.033C197.124 139.176 197.37 139.248 197.683 139.248ZM197.531 140.098C196.997 140.098 196.564 139.938 196.232 139.619C195.9 139.3 195.734 138.911 195.734 138.452C195.734 137.98 195.91 137.588 196.262 137.275C196.617 136.96 197.106 136.802 197.731 136.802H199.133V136.548C199.133 136.222 199.029 135.967 198.82 135.781C198.615 135.592 198.335 135.498 197.98 135.498C197.694 135.498 197.461 135.56 197.282 135.684C197.103 135.807 196.986 135.964 196.931 136.152H195.935C196.035 135.713 196.273 135.345 196.647 135.049C197.025 134.749 197.469 134.6 197.98 134.6C198.641 134.6 199.157 134.779 199.528 135.137C199.899 135.492 200.085 135.962 200.085 136.548V140H199.284L199.182 139.351H199.133C199.019 139.543 198.817 139.715 198.527 139.868C198.238 140.021 197.906 140.098 197.531 140.098ZM203.137 140C202.717 140 202.378 139.87 202.121 139.609C201.864 139.349 201.735 139.012 201.735 138.599V135.601H200.886V134.702H201.735L201.887 133.301H202.688V134.702H203.986V135.601H202.688V138.501C202.688 138.68 202.735 138.825 202.829 138.936C202.927 139.046 203.062 139.102 203.234 139.102H203.986V140H203.137ZM205.036 140V134.702H205.988V140H205.036ZM205.515 134.102C205.329 134.102 205.178 134.043 205.061 133.926C204.943 133.809 204.885 133.66 204.885 133.481C204.885 133.296 204.943 133.145 205.061 133.027C205.178 132.91 205.329 132.852 205.515 132.852C205.694 132.852 205.842 132.91 205.959 133.027C206.076 133.141 206.135 133.293 206.135 133.481C206.135 133.66 206.076 133.809 205.959 133.926C205.842 134.043 205.694 134.102 205.515 134.102ZM211.262 139.37C210.816 139.855 210.222 140.098 209.479 140.098C208.741 140.098 208.148 139.855 207.702 139.37C207.256 138.882 207.033 138.208 207.033 137.349C207.033 136.489 207.256 135.817 207.702 135.332C208.148 134.844 208.741 134.6 209.479 134.6C210.222 134.6 210.816 134.844 211.262 135.332C211.708 135.817 211.931 136.489 211.931 137.349C211.931 138.208 211.708 138.882 211.262 139.37ZM208.396 138.726C208.672 139.041 209.034 139.199 209.479 139.199C209.929 139.199 210.292 139.041 210.568 138.726C210.845 138.41 210.983 137.952 210.983 137.354C210.983 136.751 210.845 136.292 210.568 135.977C210.292 135.658 209.929 135.498 209.479 135.498C209.034 135.498 208.672 135.658 208.396 135.977C208.119 136.292 207.98 136.751 207.98 137.354C207.98 137.952 208.119 138.41 208.396 138.726ZM212.985 140V134.702H213.737L213.884 135.4H213.938C214.263 134.867 214.763 134.6 215.437 134.6C216.016 134.6 216.485 134.797 216.843 135.19C217.204 135.584 217.385 136.104 217.385 136.748V140H216.438V136.802C216.438 136.388 216.327 136.068 216.105 135.84C215.887 135.612 215.598 135.498 215.236 135.498C214.868 135.498 214.559 135.627 214.309 135.884C214.061 136.141 213.938 136.447 213.938 136.802V140H212.985Z" fill="white"/>
<rect x="270" y="127" width="26" height="18" rx="9" fill="url(#paint2_linear_135_1702)"/>
<path d="M283.846 132.966L286.659 135.779C286.688 135.808 286.711 135.842 286.726 135.88C286.742 135.918 286.75 135.959 286.75 136C286.75 136.041 286.742 136.082 286.726 136.12C286.711 136.158 286.688 136.192 286.659 136.221L283.846 139.034C283.787 139.092 283.708 139.125 283.625 139.125C283.542 139.125 283.463 139.092 283.404 139.034C283.345 138.975 283.312 138.895 283.312 138.813C283.312 138.73 283.345 138.65 283.404 138.591L285.683 136.313H279.562C279.48 136.313 279.4 136.28 279.342 136.221C279.283 136.162 279.25 136.083 279.25 136C279.25 135.917 279.283 135.838 279.342 135.779C279.4 135.72 279.48 135.688 279.562 135.688H285.683L283.404 133.409C283.345 133.35 283.312 133.27 283.312 133.188C283.312 133.105 283.345 133.025 283.404 132.966C283.463 132.908 283.542 132.875 283.625 132.875C283.708 132.875 283.787 132.908 283.846 132.966Z" fill="white"/>
<rect x="0.5" y="122.5" width="307" height="27" rx="13.5" stroke="black" stroke-dasharray="2 2"/>
<path d="M21 168.688C19.5537 168.688 18.1399 169.116 16.9374 169.92C15.7349 170.723 14.7976 171.865 14.2441 173.202C13.6907 174.538 13.5459 176.008 13.828 177.427C14.1102 178.845 14.8066 180.148 15.8293 181.171C16.852 182.193 18.1549 182.89 19.5734 183.172C20.9919 183.454 22.4622 183.309 23.7984 182.756C25.1346 182.202 26.2766 181.265 27.0801 180.063C27.8836 178.86 28.3125 177.446 28.3125 176C28.3105 174.061 27.5394 172.202 26.1685 170.832C24.7975 169.461 22.9388 168.69 21 168.688ZM21 182.188C19.7762 182.188 18.5799 181.825 17.5624 181.145C16.5449 180.465 15.7518 179.498 15.2835 178.368C14.8152 177.237 14.6926 175.993 14.9314 174.793C15.1701 173.593 15.7594 172.49 16.6248 171.625C17.4901 170.759 18.5926 170.17 19.7929 169.931C20.9931 169.693 22.2372 169.815 23.3679 170.283C24.4985 170.752 25.4648 171.545 26.1447 172.562C26.8246 173.58 27.1875 174.776 27.1875 176C27.1856 177.64 26.5331 179.213 25.3732 180.373C24.2132 181.533 22.6405 182.186 21 182.188ZM17.625 174.594C17.625 174.427 17.6745 174.264 17.7672 174.125C17.8599 173.986 17.9917 173.878 18.1459 173.814C18.3 173.75 18.4697 173.734 18.6334 173.766C18.797 173.799 18.9474 173.879 19.0654 173.997C19.1834 174.115 19.2637 174.265 19.2963 174.429C19.3288 174.593 19.3121 174.762 19.2483 174.917C19.1844 175.071 19.0763 175.203 18.9375 175.295C18.7988 175.388 18.6356 175.438 18.4688 175.438C18.245 175.438 18.0304 175.349 17.8721 175.19C17.7139 175.032 17.625 174.818 17.625 174.594ZM24.375 174.594C24.375 174.761 24.3255 174.924 24.2328 175.063C24.1401 175.201 24.0083 175.309 23.8541 175.373C23.7 175.437 23.5303 175.454 23.3666 175.421C23.203 175.389 23.0526 175.308 22.9346 175.19C22.8166 175.072 22.7363 174.922 22.7037 174.758C22.6712 174.595 22.6879 174.425 22.7517 174.271C22.8156 174.117 22.9237 173.985 23.0625 173.892C23.2012 173.799 23.3644 173.75 23.5313 173.75C23.755 173.75 23.9696 173.839 24.1279 173.997C24.2861 174.155 24.375 174.37 24.375 174.594ZM24.2998 177.969C23.5763 179.22 22.3732 179.938 21 179.938C19.6268 179.938 18.4245 179.22 17.7009 177.969C17.6602 177.905 17.6329 177.833 17.6206 177.758C17.6083 177.683 17.6112 177.607 17.6293 177.533C17.6473 177.459 17.6801 177.39 17.7256 177.33C17.7711 177.269 17.8285 177.218 17.8941 177.18C17.9598 177.142 18.0325 177.118 18.1078 177.109C18.1831 177.099 18.2595 177.106 18.3324 177.127C18.4052 177.148 18.4731 177.184 18.5318 177.232C18.5905 177.28 18.6389 177.339 18.6741 177.406C19.1993 178.314 20.0248 178.812 21 178.812C21.9752 178.812 22.8007 178.313 23.3252 177.406C23.3998 177.277 23.5227 177.183 23.6668 177.144C23.811 177.105 23.9645 177.126 24.0938 177.2C24.223 177.275 24.3173 177.398 24.3559 177.542C24.3946 177.686 24.3744 177.84 24.2998 177.969Z" fill="white"/>
<path d="M39.8994 180L38.0977 172.998H39.2012L40.5488 178.652H40.5977L41.9502 172.998H43.249L44.6016 178.652H44.6504L45.998 172.998H47.1016L45.2998 180H43.9521L42.6191 174.399H42.5801L41.252 180H39.8994ZM47.8486 180V174.702H48.6006L48.7471 175.4H48.8008C49.0807 174.935 49.5299 174.702 50.1484 174.702H50.749V175.601H50.1973C49.7773 175.601 49.4388 175.723 49.1816 175.967C48.9277 176.208 48.8008 176.519 48.8008 176.899V180H47.8486ZM51.5498 180V174.702H52.502V180H51.5498ZM52.0283 174.102C51.8428 174.102 51.6914 174.043 51.5742 173.926C51.457 173.809 51.3984 173.66 51.3984 173.481C51.3984 173.296 51.457 173.145 51.5742 173.027C51.6914 172.91 51.8428 172.852 52.0283 172.852C52.2074 172.852 52.3555 172.91 52.4727 173.027C52.5898 173.141 52.6484 173.293 52.6484 173.481C52.6484 173.66 52.5898 173.809 52.4727 173.926C52.3555 174.043 52.2074 174.102 52.0283 174.102ZM55.5977 180C55.1777 180 54.8392 179.87 54.582 179.609C54.3249 179.349 54.1963 179.012 54.1963 178.599V175.601H53.3467V174.702H54.1963L54.3477 173.301H55.1484V174.702H56.4473V175.601H55.1484V178.501C55.1484 178.68 55.1956 178.825 55.29 178.936C55.3877 179.046 55.5228 179.102 55.6953 179.102H56.4473V180H55.5977ZM59.6504 180.098C58.8919 180.098 58.2848 179.855 57.8291 179.37C57.3766 178.882 57.1504 178.208 57.1504 177.349C57.1504 176.489 57.3734 175.817 57.8193 175.332C58.2653 174.844 58.8594 174.6 59.6016 174.6C60.3535 174.6 60.9492 174.854 61.3887 175.361C61.8281 175.866 62.0479 176.445 62.0479 177.1L61.999 177.651H58.1416C58.1676 178.146 58.3174 178.529 58.5908 178.799C58.8643 179.066 59.2174 179.199 59.6504 179.199C60.1973 179.199 60.6139 178.983 60.9004 178.55H61.9502C61.7712 179.015 61.4814 179.39 61.0811 179.673C60.6807 179.956 60.2038 180.098 59.6504 180.098ZM58.1416 176.851H61.0713C61.0127 176.424 60.8532 176.092 60.5928 175.854C60.3324 175.617 60.002 175.498 59.6016 175.498C59.2012 175.498 58.8708 175.617 58.6104 175.854C58.3499 176.092 58.1937 176.424 58.1416 176.851ZM65.2998 180V174.702H66.252V180H65.2998ZM65.7783 174.102C65.5928 174.102 65.4414 174.043 65.3242 173.926C65.207 173.809 65.1484 173.66 65.1484 173.481C65.1484 173.296 65.207 173.145 65.3242 173.027C65.4414 172.91 65.5928 172.852 65.7783 172.852C65.9574 172.852 66.1055 172.91 66.2227 173.027C66.3398 173.141 66.3984 173.293 66.3984 173.481C66.3984 173.66 66.3398 173.809 66.2227 173.926C66.1055 174.043 65.9574 174.102 65.7783 174.102ZM67.5459 180V174.702H68.2979L68.4443 175.4H68.498C68.8236 174.867 69.3232 174.6 69.9971 174.6C70.5765 174.6 71.0452 174.797 71.4033 175.19C71.7646 175.584 71.9453 176.104 71.9453 176.748V180H70.998V176.802C70.998 176.388 70.8874 176.068 70.666 175.84C70.4479 175.612 70.1582 175.498 69.7969 175.498C69.429 175.498 69.1198 175.627 68.8691 175.884C68.6217 176.141 68.498 176.447 68.498 176.802V180H67.5459ZM77.0479 179.248C77.4873 179.248 77.8389 179.128 78.1025 178.887C78.3662 178.643 78.498 178.33 78.498 177.949V177.651H77.0967C76.7516 177.651 76.4896 177.723 76.3105 177.866C76.1348 178.009 76.0469 178.205 76.0469 178.452C76.0469 178.696 76.1348 178.89 76.3105 179.033C76.4896 179.176 76.7354 179.248 77.0479 179.248ZM76.8965 180.098C76.3626 180.098 75.9297 179.938 75.5977 179.619C75.2656 179.3 75.0996 178.911 75.0996 178.452C75.0996 177.98 75.2754 177.588 75.627 177.275C75.9818 176.96 76.4717 176.802 77.0967 176.802H78.498V176.548C78.498 176.222 78.3939 175.967 78.1855 175.781C77.9805 175.592 77.7005 175.498 77.3457 175.498C77.0592 175.498 76.8265 175.56 76.6475 175.684C76.4684 175.807 76.3512 175.964 76.2959 176.152H75.2998C75.4007 175.713 75.6383 175.345 76.0127 175.049C76.3903 174.749 76.8346 174.6 77.3457 174.6C78.0065 174.6 78.5225 174.779 78.8936 175.137C79.2646 175.492 79.4502 175.962 79.4502 176.548V180H78.6494L78.5469 179.351H78.498C78.3841 179.543 78.1823 179.715 77.8926 179.868C77.6029 180.021 77.2708 180.098 76.8965 180.098ZM85.1484 180.098C84.39 180.098 83.7829 179.855 83.3271 179.37C82.8747 178.882 82.6484 178.208 82.6484 177.349C82.6484 176.489 82.8747 175.817 83.3271 175.332C83.7796 174.844 84.3867 174.6 85.1484 174.6C85.7083 174.6 86.1852 174.744 86.5791 175.034C86.973 175.324 87.2464 175.713 87.3994 176.201H86.3984C86.138 175.736 85.7214 175.501 85.1484 175.498C84.6895 175.498 84.3151 175.661 84.0254 175.986C83.7389 176.309 83.5957 176.764 83.5957 177.354C83.5957 177.939 83.7389 178.394 84.0254 178.716C84.3151 179.038 84.6895 179.199 85.1484 179.199C85.7214 179.199 86.138 178.966 86.3984 178.501H87.3994C87.2464 178.989 86.973 179.378 86.5791 179.668C86.1852 179.954 85.7083 180.098 85.1484 180.098ZM90.0459 179.248C90.4854 179.248 90.8369 179.128 91.1006 178.887C91.3643 178.643 91.4961 178.33 91.4961 177.949V177.651H90.0947C89.7497 177.651 89.4876 177.723 89.3086 177.866C89.1328 178.009 89.0449 178.205 89.0449 178.452C89.0449 178.696 89.1328 178.89 89.3086 179.033C89.4876 179.176 89.7334 179.248 90.0459 179.248ZM89.8945 180.098C89.3607 180.098 88.9277 179.938 88.5957 179.619C88.2637 179.3 88.0977 178.911 88.0977 178.452C88.0977 177.98 88.2734 177.588 88.625 177.275C88.9798 176.96 89.4697 176.802 90.0947 176.802H91.4961V176.548C91.4961 176.222 91.3919 175.967 91.1836 175.781C90.9785 175.592 90.6986 175.498 90.3438 175.498C90.0573 175.498 89.8245 175.56 89.6455 175.684C89.4665 175.807 89.3493 175.964 89.2939 176.152H88.2979C88.3988 175.713 88.6364 175.345 89.0107 175.049C89.3883 174.749 89.8327 174.6 90.3438 174.6C91.0046 174.6 91.5205 174.779 91.8916 175.137C92.2627 175.492 92.4482 175.962 92.4482 176.548V180H91.6475L91.5449 179.351H91.4961C91.3822 179.543 91.1803 179.715 90.8906 179.868C90.6009 180.021 90.2689 180.098 89.8945 180.098ZM95.4512 180.098C94.8913 180.098 94.4176 179.954 94.0303 179.668C93.6429 179.382 93.3988 179.009 93.2979 178.55H94.3477C94.4811 178.983 94.849 179.199 95.4512 179.199C95.832 179.199 96.1185 179.137 96.3105 179.014C96.5026 178.89 96.5986 178.735 96.5986 178.55C96.5986 178.371 96.5221 178.228 96.3691 178.12C96.2161 178.013 96.0241 177.938 95.793 177.896C95.5651 177.853 95.3177 177.796 95.0508 177.725C94.7839 177.65 94.5348 177.565 94.3037 177.471C94.0726 177.376 93.8805 177.217 93.7275 176.992C93.5745 176.764 93.498 176.484 93.498 176.152C93.498 175.713 93.6689 175.345 94.0107 175.049C94.3558 174.749 94.818 174.6 95.3975 174.6C95.9378 174.6 96.3984 174.733 96.7793 175C97.1602 175.267 97.3994 175.617 97.4971 176.05H96.4473C96.2617 175.682 95.9118 175.498 95.3975 175.498C94.7627 175.498 94.4469 175.716 94.4502 176.152C94.4502 176.331 94.5267 176.476 94.6797 176.587C94.8327 176.694 95.0231 176.771 95.251 176.816C95.4821 176.859 95.7311 176.919 95.998 176.997C96.265 177.072 96.5124 177.157 96.7402 177.251C96.9714 177.342 97.1634 177.5 97.3164 177.725C97.4727 177.949 97.5508 178.224 97.5508 178.55C97.5508 178.989 97.3636 179.357 96.9893 179.653C96.6182 179.95 96.1055 180.098 95.4512 180.098ZM100.451 180.098C99.8717 180.098 99.4014 179.902 99.04 179.512C98.682 179.118 98.5029 178.597 98.5029 177.949V174.702H99.4551V177.9C99.4551 178.314 99.5641 178.634 99.7822 178.862C100.004 179.087 100.293 179.199 100.651 179.199C101.019 179.199 101.328 179.071 101.579 178.813C101.83 178.556 101.955 178.252 101.955 177.9V174.702H102.902V180H102.155L102.004 179.302H101.955C101.626 179.832 101.125 180.098 100.451 180.098ZM105.856 179.248C106.296 179.248 106.647 179.128 106.911 178.887C107.175 178.643 107.307 178.33 107.307 177.949V177.651H105.905C105.56 177.651 105.298 177.723 105.119 177.866C104.943 178.009 104.855 178.205 104.855 178.452C104.855 178.696 104.943 178.89 105.119 179.033C105.298 179.176 105.544 179.248 105.856 179.248ZM105.705 180.098C105.171 180.098 104.738 179.938 104.406 179.619C104.074 179.3 103.908 178.911 103.908 178.452C103.908 177.98 104.084 177.588 104.436 177.275C104.79 176.96 105.28 176.802 105.905 176.802H107.307V176.548C107.307 176.222 107.202 175.967 106.994 175.781C106.789 175.592 106.509 175.498 106.154 175.498C105.868 175.498 105.635 175.56 105.456 175.684C105.277 175.807 105.16 175.964 105.104 176.152H104.108C104.209 175.713 104.447 175.345 104.821 175.049C105.199 174.749 105.643 174.6 106.154 174.6C106.815 174.6 107.331 174.779 107.702 175.137C108.073 175.492 108.259 175.962 108.259 176.548V180H107.458L107.355 179.351H107.307C107.193 179.543 106.991 179.715 106.701 179.868C106.411 180.021 106.079 180.098 105.705 180.098ZM109.558 180V172.998H110.51V180H109.558ZM114.655 180L113.156 174.702H114.108L115.256 178.75H115.31L116.359 174.702H117.409L118.459 178.75H118.508L119.655 174.702H120.607L119.108 180H117.956L116.906 176.152H116.857L115.808 180H114.655ZM122.956 179.248C123.396 179.248 123.747 179.128 124.011 178.887C124.274 178.643 124.406 178.33 124.406 177.949V177.651H123.005C122.66 177.651 122.398 177.723 122.219 177.866C122.043 178.009 121.955 178.205 121.955 178.452C121.955 178.696 122.043 178.89 122.219 179.033C122.398 179.176 122.644 179.248 122.956 179.248ZM122.805 180.098C122.271 180.098 121.838 179.938 121.506 179.619C121.174 179.3 121.008 178.911 121.008 178.452C121.008 177.98 121.184 177.588 121.535 177.275C121.89 176.96 122.38 176.802 123.005 176.802H124.406V176.548C124.406 176.222 124.302 175.967 124.094 175.781C123.889 175.592 123.609 175.498 123.254 175.498C122.967 175.498 122.735 175.56 122.556 175.684C122.377 175.807 122.259 175.964 122.204 176.152H121.208C121.309 175.713 121.547 175.345 121.921 175.049C122.299 174.749 122.743 174.6 123.254 174.6C123.915 174.6 124.431 174.779 124.802 175.137C125.173 175.492 125.358 175.962 125.358 176.548V180H124.558L124.455 179.351H124.406C124.292 179.543 124.09 179.715 123.801 179.868C123.511 180.021 123.179 180.098 122.805 180.098ZM127.209 182.002L128.01 180L125.861 174.702H126.862L128.459 178.75H128.513L130.109 174.702H131.11L128.21 182.002H127.209Z" fill="white"/>
<rect x="270" y="167" width="26" height="18" rx="9" fill="url(#paint3_linear_135_1702)"/>
<path d="M283.846 172.966L286.659 175.779C286.688 175.808 286.711 175.842 286.726 175.88C286.742 175.918 286.75 175.959 286.75 176C286.75 176.041 286.742 176.082 286.726 176.12C286.711 176.158 286.688 176.192 286.659 176.221L283.846 179.034C283.787 179.092 283.708 179.125 283.625 179.125C283.542 179.125 283.463 179.092 283.404 179.034C283.345 178.975 283.312 178.895 283.312 178.813C283.312 178.73 283.345 178.65 283.404 178.591L285.683 176.313H279.562C279.48 176.313 279.4 176.28 279.342 176.221C279.283 176.162 279.25 176.083 279.25 176C279.25 175.917 279.283 175.838 279.342 175.779C279.4 175.72 279.48 175.688 279.562 175.688H285.683L283.404 173.409C283.345 173.35 283.312 173.27 283.312 173.188C283.312 173.105 283.345 173.025 283.404 172.966C283.463 172.908 283.542 172.875 283.625 172.875C283.708 172.875 283.787 172.908 283.846 172.966Z" fill="white"/>
<rect x="0.5" y="162.5" width="307" height="27" rx="13.5" stroke="black" stroke-dasharray="2 2"/>
<defs>
<linearGradient id="paint0_linear_135_1702" x1="270" y1="26" x2="296.488" y2="26.7496" gradientUnits="userSpaceOnUse">
<stop offset="0.0916" stop-color="#455EB5"/>
<stop offset="0.527145" stop-color="#4A92C8"/>
<stop offset="1" stop-color="#1F7FC7"/>
</linearGradient>
<linearGradient id="paint1_linear_135_1702" x1="270" y1="87" x2="296.488" y2="87.7496" gradientUnits="userSpaceOnUse">
<stop offset="0.0916" stop-color="#455EB5"/>
<stop offset="0.527145" stop-color="#4A92C8"/>
<stop offset="1" stop-color="#1F7FC7"/>
</linearGradient>
<linearGradient id="paint2_linear_135_1702" x1="270" y1="127" x2="296.488" y2="127.75" gradientUnits="userSpaceOnUse">
<stop offset="0.0916" stop-color="#455EB5"/>
<stop offset="0.527145" stop-color="#4A92C8"/>
<stop offset="1" stop-color="#1F7FC7"/>
</linearGradient>
<linearGradient id="paint3_linear_135_1702" x1="270" y1="167" x2="296.488" y2="167.75" gradientUnits="userSpaceOnUse">
<stop offset="0.0916" stop-color="#455EB5"/>
<stop offset="0.527145" stop-color="#4A92C8"/>
<stop offset="1" stop-color="#1F7FC7"/>
</linearGradient>
</defs>
</svg>
