<svg width="512" height="512" viewBox="0 0 512 512" fill="none" xmlns="http://www.w3.org/2000/svg">
<rect x="512" y="512" width="512" height="512" rx="85" transform="rotate(-180 512 512)" fill="#FEFFF7"/>
<path d="M263.167 215.939L296.092 248.863L311.523 233.433L312.545 232.41L313.873 231.082L313.909 231.118C320.027 225.646 327.85 222.631 336.14 222.631C345.057 222.631 353.454 226.112 359.752 232.41C366.068 238.726 369.531 247.105 369.531 256.022C369.531 264.94 366.05 273.337 359.752 279.635C353.436 285.951 345.057 289.413 336.14 289.413C335.099 289.413 334.076 289.36 333.036 289.27L333.287 289.647L333.108 289.611C341.451 303.373 345.901 319.073 346.044 335.364C363.628 333.175 380.099 325.119 392.677 312.559C423.843 281.393 423.843 230.669 392.677 199.485C377.605 184.414 357.527 176.106 336.14 176.106C314.77 176.106 294.692 184.396 279.621 199.467L263.167 215.939Z" fill="#1F365F"/>
<path d="M199.029 231.813L199.334 232.226L199.37 232.244L199.55 232.513L260.877 293.841L280.919 313.883L280.883 313.919C286.356 320.037 289.37 327.86 289.37 336.149C289.37 345.067 285.889 353.464 279.591 359.762C273.294 366.06 264.897 369.541 255.979 369.541C247.062 369.541 238.664 366.06 232.367 359.762C226.051 353.446 222.588 345.067 222.588 336.149C222.588 335.109 222.642 334.086 222.732 333.045L222.355 333.297L222.391 333.117C208.629 341.46 192.929 345.91 176.637 346.054C178.826 363.638 186.882 380.109 199.442 392.687C214.514 407.758 234.592 416.066 255.979 416.066C277.367 416.066 297.444 407.758 312.516 392.687C327.588 377.615 335.895 357.537 335.895 336.149C335.895 314.78 327.588 294.702 312.516 279.612L311.17 278.267L293.82 260.916L229.137 196.233H229.532C225.028 190.42 222.606 183.333 222.606 175.851C222.606 166.933 226.087 158.554 232.385 152.238C238.7 145.922 247.08 142.459 255.997 142.459C264.914 142.459 273.312 145.94 279.609 152.238C285.925 158.554 289.388 166.933 289.388 175.851C289.388 176.891 289.334 177.914 289.245 178.955L289.621 178.703L289.586 178.883C303.347 170.54 319.047 166.09 335.339 165.946C333.15 148.363 325.094 131.891 312.534 119.313C297.462 104.242 277.385 95.9343 255.997 95.9343C234.609 95.9343 214.532 104.242 199.46 119.313C168.473 150.3 168.294 200.611 198.922 231.831H199.029V231.813Z" fill="#1F365F"/>
<path d="M119.337 312.533C150.503 343.699 201.227 343.699 232.393 312.55L248.864 296.079L215.939 263.155L198.14 280.954L198.105 280.918C191.986 286.39 184.163 289.405 175.874 289.405C166.956 289.405 158.577 285.924 152.261 279.626C145.945 273.31 142.483 264.931 142.483 256.013C142.483 247.096 145.963 238.699 152.261 232.401C158.577 226.085 166.956 222.622 175.874 222.622C176.914 222.622 177.937 222.676 178.978 222.766L178.727 222.389L178.906 222.425C170.563 208.663 166.113 192.963 165.969 176.671C148.386 178.86 131.914 186.917 119.337 199.476C88.1524 230.625 88.1524 281.366 119.337 312.533Z" fill="#1F365F"/>
</svg>
