<svg width="50" height="50" viewBox="0 0 50 50" fill="none" xmlns="http://www.w3.org/2000/svg">
<g clip-path="url(#clip0_519_6703)">
<path d="M36.3262 43.1332L37.0784 42.915L36.2535 41.7751L36.3262 43.1332ZM23.9784 42.9392L23.833 43.9581C24.2073 43.9216 24.6682 44.2442 24.8519 43.5214C24.8381 42.9581 24.4093 42.9271 23.9784 42.9392ZM29.9707 42.915C29.9083 42.6375 29.6767 42.4331 29.0972 42.6241L29.2913 43.6668C29.7673 43.5613 30.0121 43.2797 29.9707 42.915ZM16.434 42.0616L16.2024 42.9881C16.5747 43.0036 17.0107 43.3056 17.2579 42.7565C17.2744 42.4125 17.2885 42.0698 16.434 42.0616ZM29.4612 44.4434L29.6312 45.511C30.0286 45.5209 30.3912 45.2821 30.2861 44.7833C30.1847 44.3035 29.7818 44.3793 29.4612 44.4434Z" fill="#005FAF"/>
<path d="M45.2362 4.87557C32.3903 -1.66852 17.0488 -1.48652 4.80923 4.59016C-1.5022 15.7008 -1.70316 31.2463 4.80923 45.015C18.2935 51.8386 33.2072 51.3891 45.331 45.3004C51.0288 33.6106 51.9699 19.5442 45.2362 4.87557ZM23.5408 38.0521L22.7794 38.0607C22.5909 35.9566 22.0879 34.1883 21.009 32.8351C16.0616 26.6308 5.94811 31.3018 8.5468 20.7579C9.89802 15.3675 25.3105 12.1883 23.5408 38.0521ZM8.56507 27.638C9.64535 29.8369 16.4135 30.1971 18.763 31.8802C22.4899 34.5499 21.9549 38.0617 21.9549 38.0617H21.0759C19.3455 32.7578 14.4891 36.9573 10.5991 35.5289C8.15694 34.6602 6.38381 30.8951 8.56507 27.638ZM20.8963 44.9284L21.2603 42.0416L21.9152 42.0902L21.624 45.268C21.3303 46.6678 19.2431 46.4806 18.9798 45.1466L19.3193 41.8475L20.0956 41.9692L19.7561 44.7344C19.7991 45.6495 20.7171 45.5947 20.8963 44.9284ZM17.4111 45.7168L16.6645 45.5365C16.752 44.9195 17.4838 43.6641 16.0374 43.6641L15.6348 45.3048L14.811 45.1504L15.6862 41.2116C17.8254 41.4446 18.0126 42.0399 18.055 42.6789C17.9705 43.1746 17.8385 43.5207 17.4114 43.6055C17.9112 44.0591 17.4173 45.0098 17.4111 45.7168ZM12.669 41.305C12.4633 41.578 12.0513 42.5318 11.9917 43.2918C11.9283 44.0974 12.7021 43.9278 12.8948 43.8337C13.0503 43.7582 13.1658 43.1112 13.1658 43.1112L12.6239 42.9306L12.8045 42.389L14.0241 42.7954L13.437 44.8278L12.9403 44.692L12.9855 44.3759C12.3774 44.653 11.2644 44.4452 11.1338 43.7437C11.0031 43.1801 11.3988 41.4715 12.0369 40.6731C12.657 39.8969 14.1678 40.6556 14.2047 41.1247C14.2412 41.5921 14.0568 42.1181 14.0568 42.1181L13.4881 42.0109C13.4881 42.0109 13.5229 41.842 13.5725 41.5759C13.6249 41.2939 12.8897 41.0116 12.669 41.305ZM23.759 44.6127L23.6136 46.3596L23.0073 46.3355L23.2254 42.1871C24.7397 42.2184 25.6077 42.428 25.5787 43.4973C25.4884 44.9581 24.3054 44.6296 23.759 44.6127ZM25.2685 38.0614H24.254C24.1641 34.4689 24.8548 27.8979 22.9673 23.0622C21.5371 19.3963 17.9178 17.7473 17.1157 14.786C15.8458 10.0988 18.0071 5.02724 25.2685 4.6367C31.5637 5.28301 33.4978 10.1429 32.4241 14.6678C30.5779 19.1919 28.7313 18.5418 26.4325 23.0484C24.5549 27.8793 25.2699 34.2083 25.2685 38.0614ZM36.5191 44.7099L35.8156 44.9526L35.597 40.78L36.4219 40.5618L38.4597 44.0064L37.9017 44.3704L37.2223 43.4004L36.446 43.6913L36.5191 44.7099ZM28.3115 38.0614H27.5001C28.1688 28.8352 39.7627 30.8396 40.8223 27.638C42.6547 30.812 41.996 33.4883 40.0826 34.8602C35.3278 38.2706 30.7685 32.3363 28.3115 38.0614ZM32.6137 42.721L32.9777 44.6375C33.2041 45.0791 33.3579 44.9974 33.7053 44.9529C34.1083 44.6613 34.0242 44.3773 33.948 44.0067L34.6515 43.9099C34.8349 45.2983 34.1748 45.44 33.6812 45.5351C32.6226 45.6109 32.4151 45.4048 32.1287 44.0312C31.9618 42.8554 31.6737 41.6138 32.6623 41.387C34.2851 41.1392 34.1893 41.8696 34.3361 42.3815L33.6326 42.5031C33.5202 42.0633 33.3586 41.8889 33.0018 41.9213C32.6767 42.0705 32.5433 42.3122 32.6137 42.721ZM31.1339 44.7099C31.1676 45.3142 30.9626 45.7154 30.5758 45.8502L28.9261 46.1897L28.2711 42.1871C28.6096 42.1319 30.2694 41.5239 30.6727 42.6241C30.8716 43.296 30.6654 43.5369 30.43 43.8368C30.8764 43.9802 31.027 44.3276 31.1339 44.7099ZM26.8975 24.6233C30.5727 14.2755 38.9823 16.1041 40.8475 20.7582C43.4027 30.0971 35.1748 27.536 29.9043 31.3656C27.9123 33.0981 26.8641 35.0856 26.8486 38.0986H25.9455C25.8913 32.0298 25.7931 27.7325 26.8975 24.6233Z" fill="#005FAF"/>
</g>
<defs>
<clipPath id="clip0_519_6703">
<rect width="49.9508" height="50" fill="white"/>
</clipPath>
</defs>
</svg>
