<svg width="51" height="50" viewBox="0 0 51 50" fill="none" xmlns="http://www.w3.org/2000/svg">
<g clip-path="url(#clip0_519_6706)">
<path fill-rule="evenodd" clip-rule="evenodd" d="M0.95079 49.9964H50.9472V0H0.95079V49.9964Z" fill="white"/>
<path fill-rule="evenodd" clip-rule="evenodd" d="M0.95079 0H16.5745C16.528 0.11073 16.4137 0.407199 16.2744 0.946562C15.5922 3.58623 14.6099 11.2195 21.4644 22.4032C23.1575 25.1643 24.7971 27.3539 26.4794 29.4971L21.0465 33.8405C12.0381 22.8068 0.95079 8.75482 0.95079 8.75482V0ZM0.95079 19.0599V49.9964L16.0958 37.7661L5.65503 24.775L0.95079 19.0599ZM50.9472 15.9344C50.8365 15.7844 50.3721 15.0772 49.6935 14.3806C47.6182 12.2446 43.1247 8.81554 37.7168 11.7517C32.7196 14.4628 30.1621 20.6744 36.3951 28.8863C41.5173 35.6444 46.1465 36.3052 48.7576 35.9194C49.2077 35.8551 50.59 35.5194 50.9508 35.2979V15.9308H50.9472V15.9344ZM50.9472 6.87598V0H23.1361C23.1075 0.121446 22.9004 0.539359 22.8218 1.2466C22.6432 2.82897 22.5753 5.84012 23.6969 10.1157C25.2364 15.9773 29.5192 21.2102 29.5192 21.2102C29.5192 21.2102 29.0798 15.3772 34.4556 9.99072C37.8561 6.58309 41.7102 5.52579 44.8356 5.57222C45.9394 5.58651 46.9538 5.73653 47.8253 5.93656C48.2004 6.01872 50.6615 6.72596 50.9472 6.87598ZM50.9472 37.809C50.8222 37.9126 50.5257 38.1054 50.0185 38.4519C48.654 39.3806 45.725 40.7523 40.8886 40.0236C36.5094 39.3628 32.3196 36.4445 28.4726 31.9117L22.9718 36.3266C26.8545 40.9951 29.8621 44.7385 30.8694 45.4601C34.6663 48.1855 37.2774 47.1496 37.2774 47.1496L33.759 50H50.9436V37.809H50.9472ZM25.0114 49.9964H5.9515L7.50887 48.7355L18.0925 40.2522C18.0925 40.2522 22.286 45.6994 23.9398 47.6961C24.2505 48.0783 24.4899 48.4319 24.672 48.7534C24.9899 49.3285 24.9506 49.7107 25.0114 49.9964Z" fill="#E45300"/>
</g>
<defs>
<clipPath id="clip0_519_6706">
<rect width="50" height="50" fill="white" transform="translate(0.95079)"/>
</clipPath>
</defs>
</svg>
