<svg width="51" height="50" viewBox="0 0 51 50" fill="none" xmlns="http://www.w3.org/2000/svg">
<path d="M8.08438 49.9606C7.10615 49.8466 6.34593 49.6153 5.43846 49.1554C3.07899 47.9599 1.30943 45.8979 0.641952 43.5663C0.316033 42.4283 0.334016 43.5234 0.346472 25.5658L0.410401 8.51385C0.491852 7.38386 0.663571 6.64751 1.11831 5.4801C1.93763 3.37776 3.27834 1.90271 5.25689 0.926481C6.36969 0.377426 7.43311 0.10119 8.73314 0.0233054C9.18259 -0.00341901 16.5156 -0.00777627 26.0885 0.0134365C44.4105 0.0541196 42.8967 0.0233063 44.0428 0.379434C44.57 0.543198 45.5448 1.00484 46.1407 1.37284C48.2327 2.66495 49.7477 4.76729 50.1995 7.00528C50.2882 7.44493 50.2927 8.31586 50.2927 24.7026L50.2001 42.5268C49.9039 44.4102 49.0271 46.0507 47.4954 47.5878C46.296 48.7914 45.1887 49.4544 43.7188 49.8489L43.1845 49.9924L25.8291 49.9994C16.2837 50.0034 8.29841 49.9855 8.08438 49.9606ZM15.327 44.8272C16.0753 44.5726 17.0005 43.9474 17.7564 43.1854C18.3502 42.587 18.816 41.9378 19.14 41.2576C19.5172 40.4658 19.6094 40.0839 19.6407 39.185C19.6861 37.8757 19.4965 36.7844 19.0673 35.8817C18.5515 34.7969 17.874 33.998 14.7779 30.8224C11.4398 27.3989 10.4791 26.3756 9.75676 25.4744C9.53991 25.204 9.48126 25.0939 9.50464 25.0037C9.61595 24.5769 10.7568 23.405 13.666 20.7279C16.7281 17.9103 17.6922 16.9025 18.7463 15.4178C19.4033 14.4925 19.8736 13.4118 20.0412 12.4428C20.1443 11.8477 20.1447 10.7296 20.0427 10.129C19.8227 8.83985 19.1407 7.55292 18.2418 6.73233C16.9647 5.56669 15.7115 5.02916 13.9204 4.87893C13.1524 4.81458 10.0048 4.85387 9.22616 4.93764C7.48562 5.12493 5.86813 6.34704 5.45711 7.7855C5.37519 8.07209 5.36733 8.9535 5.3504 19.681L5.37862 36.7068C5.42904 42.7677 5.40399 42.3796 5.79693 42.9936C6.06561 43.4121 6.63187 44.0121 7.0276 44.2968C7.42334 44.5816 7.80237 44.7587 8.29953 44.8918C8.66272 44.989 8.84691 44.9937 11.7959 44.9821L14.909 44.97L15.327 44.8272ZM41.9199 44.906C41.7232 44.5384 40.2938 43.0418 36.8357 39.5835C32.8925 35.6398 22.6401 25.0812 22.6226 24.9455C22.5762 24.5889 24.3961 22.6671 26.7111 20.6272C28.0301 19.4651 29.9323 17.6238 31.0899 16.3889C33.3912 13.9337 33.9765 13.0723 34.1842 11.8353C34.2856 11.2328 34.2754 9.84761 34.1673 9.41067C34.0471 8.92632 33.846 8.4315 33.5908 7.99068C33.3111 7.50809 32.2777 6.45728 31.7185 6.08728C30.9303 5.56575 29.967 5.15293 29.0723 4.95305C28.6377 4.85599 25.5602 4.79411 24.5549 4.86223L23.9288 4.90469L23.9724 5.07304C23.9978 5.16563 24.2582 5.60433 24.5544 6.0481C24.8506 6.49186 25.1858 7.05174 25.2992 7.29233C25.9001 8.5675 26.1799 10.1567 26.1251 11.9836C26.0806 13.4658 25.8674 14.3373 25.2324 15.6329C24.3493 17.4343 23.1619 18.829 20.5375 21.148C19.0066 22.5006 17.7768 23.7318 17.2049 24.484L16.8037 25.0115L19.825 28.2125L24.2701 32.989C25.5143 34.489 26.1346 35.8279 26.375 37.5323C26.4888 38.3378 26.4767 39.875 26.3496 40.6117C26.157 41.7423 25.7396 42.7298 24.965 43.888C24.7202 44.2537 24.4622 44.653 24.3911 44.7752L24.2618 44.9975H33.1148L41.919 44.906L41.9199 44.906ZM45.422 26.7426L45.2108 9.24608C44.782 6.40786 43.6306 5.2174 41.0423 4.93646C40.432 4.87022 37.2437 4.85693 37.2437 4.92046C37.2437 5.01611 37.5988 5.51493 38.0729 6.0854C38.6551 6.78563 38.9242 7.17186 39.1637 7.65057C39.6973 8.71668 39.8567 9.88103 39.7405 11.8613C39.6343 13.6683 39.4226 14.4581 38.7521 15.5478C37.8025 17.0915 36.5557 18.419 33.1953 21.4646C31.2114 23.2626 29.8904 24.6564 29.9387 24.9004C29.9443 24.9426 33.4327 28.5153 37.6847 32.8394L45.4155 40.7015L45.4325 40.4564C45.4438 40.3216 45.435 34.1503 45.4212 26.7425L45.422 26.7426Z" fill="#00529C"/>
</svg>
