<svg width="83" height="50" viewBox="0 0 83 50" fill="none" xmlns="http://www.w3.org/2000/svg">
<path d="M14.9882 43.349C16.0732 43.349 16.9558 43.2098 17.636 42.9314C18.3324 42.6531 18.8749 42.2929 19.2636 41.8509C19.6523 41.4088 19.9195 40.9095 20.0652 40.3529C20.211 39.7962 20.2838 39.2313 20.2838 38.6583C20.2838 38.0034 20.1948 37.414 20.0166 36.8901C19.8547 36.3662 19.5632 35.9242 19.1421 35.5639C18.7373 35.2038 18.1947 34.9254 17.5146 34.729C16.8344 34.5325 15.9761 34.4343 14.9396 34.4343H9.20671V43.349H14.9882ZM9.20671 20.0431V28.8841H13.4821C14.389 28.8841 15.2068 28.8186 15.9356 28.6876C16.6643 28.5567 17.2797 28.3275 17.7818 28C18.3 27.6726 18.6887 27.2223 18.9478 26.6493C19.2231 26.0763 19.3607 25.3559 19.3607 24.4882C19.3607 23.6368 19.2555 22.9328 19.045 22.3762C18.8344 21.8031 18.5105 21.3447 18.0733 21.0009C17.636 20.6571 17.0773 20.4115 16.3971 20.2642C15.7332 20.1168 14.9396 20.0431 14.0165 20.0431H9.20671ZM14.0165 13.8299C16.4619 13.8299 18.5429 14.0591 20.2596 14.5175C21.9762 14.9759 23.377 15.6227 24.4621 16.4576C25.5471 17.2926 26.3325 18.3077 26.8184 19.5028C27.3204 20.698 27.5714 22.0324 27.5714 23.5059C27.5714 24.3081 27.4581 25.0858 27.2313 25.8389C27.0046 26.5756 26.6483 27.2714 26.1625 27.9263C25.6767 28.5649 25.0532 29.1542 24.292 29.6945C23.5309 30.2348 22.6159 30.7014 21.547 31.0944C23.8791 31.6674 25.6038 32.5924 26.7212 33.8694C27.8386 35.1465 28.3974 36.8001 28.3974 38.8302C28.3974 40.3528 28.1059 41.769 27.5228 43.0788C26.9398 44.3886 26.0815 45.5346 24.9479 46.517C23.8305 47.4829 22.4458 48.2442 20.794 48.8009C19.1421 49.3412 17.2554 49.6113 15.1339 49.6113H0.996033V13.8299H14.0165Z" fill="#00A39D"/>
<path d="M53.6194 21.1279C53.3765 21.5204 53.1174 21.8147 52.8421 22.011C52.583 22.2072 52.2429 22.3054 51.8218 22.3054C51.4493 22.3054 51.0445 22.1909 50.6072 21.9619C50.1861 21.7166 49.7003 21.4468 49.1497 21.1524C48.6153 20.8581 47.9999 20.5964 47.3035 20.3675C46.6071 20.1222 45.8136 19.9995 44.9229 19.9995C43.3844 19.9995 42.2346 20.3347 41.4734 21.0052C40.7285 21.6594 40.356 22.5507 40.356 23.6791C40.356 24.3986 40.5827 24.9955 41.0362 25.4697C41.4896 25.944 42.0807 26.3528 42.8095 26.6963C43.5544 27.0397 44.3966 27.3586 45.3359 27.653C46.2913 27.9309 47.263 28.2498 48.2509 28.6096C49.2388 28.9531 50.2023 29.3619 51.1416 29.8361C52.0971 30.3104 52.9392 30.9155 53.668 31.6514C54.4129 32.3873 55.0121 33.2867 55.4656 34.3497C55.919 35.3963 56.1458 36.6637 56.1458 38.1519C56.1458 39.8036 55.8624 41.349 55.2956 42.7881C54.7287 44.2272 53.9028 45.4864 52.8178 46.5658C51.7489 47.6287 50.421 48.4709 48.8339 49.0924C47.263 49.6975 45.4735 50 43.4654 50C42.3641 50 41.2386 49.8855 40.0888 49.6566C38.9552 49.4276 37.8539 49.1087 36.7851 48.6999C35.7162 48.2747 34.7122 47.7759 33.7729 47.2035C32.8336 46.6312 32.0158 45.9934 31.3194 45.2902L33.7486 41.4144C33.9429 41.1364 34.1939 40.9075 34.5016 40.7276C34.8255 40.5313 35.1737 40.4332 35.5462 40.4332C36.032 40.4332 36.5179 40.5886 37.0037 40.8993C37.5057 41.21 38.0645 41.5534 38.6799 41.9296C39.3115 42.3057 40.0321 42.6491 40.8418 42.9598C41.6516 43.2705 42.6071 43.4259 43.7083 43.4259C45.1982 43.4259 46.3561 43.0988 47.182 42.4447C48.008 41.7742 48.4209 40.7194 48.4209 39.2803C48.4209 38.4462 48.1942 37.7676 47.7408 37.2443C47.2873 36.7209 46.6881 36.2876 45.9432 35.9442C45.2144 35.6007 44.3804 35.2982 43.4411 35.0366C42.5018 34.7749 41.5382 34.4887 40.5503 34.178C39.5625 33.8509 38.5989 33.4584 37.6596 33.0005C36.7203 32.5263 35.8782 31.913 35.1332 31.1608C34.4045 30.3922 33.8134 29.4437 33.3599 28.3153C32.9065 27.1705 32.6797 25.7641 32.6797 24.0961C32.6797 22.7551 32.947 21.4468 33.4814 20.1712C34.0158 18.8956 34.8012 17.7591 35.8377 16.7615C36.8742 15.764 38.1454 14.9708 39.6515 14.3821C41.1576 13.777 42.8824 13.4745 44.8257 13.4745C45.9108 13.4745 46.9634 13.5644 47.9837 13.7443C49.0201 13.9078 49.9999 14.1613 50.923 14.5047C51.8461 14.8318 52.7044 15.2325 53.498 15.7067C54.3077 16.1646 55.0283 16.6879 55.6599 17.2767L53.6194 21.1279Z" fill="#00A39D"/>
<path fill-rule="evenodd" clip-rule="evenodd" d="M82.9658 12.3499C76.6614 11.7358 74.4448 15.2071 73.2081 16.9241C71.6308 10.0599 68.9637 10.6011 66.11 8.87195C70.2343 6.47811 71.3878 2.75641 71.2744 0C75.3141 2.96187 78.1309 2.64405 81.6193 1.68362C79.8835 6.86344 80.9795 8.32547 82.9658 12.3499Z" fill="#F8AD3C"/>
<path d="M69.7806 49.6262H61.2423V13.0349C66.5853 13.7587 69.789 18.1778 69.7806 22.8551V49.6262Z" fill="#00A39D"/>
</svg>
