<svg width="47" height="50" viewBox="0 0 47 50" fill="none" xmlns="http://www.w3.org/2000/svg">
<g clip-path="url(#clip0_553_207)">
<path fill-rule="evenodd" clip-rule="evenodd" d="M0.855865 13.3333L23.8249 0L46.7975 13.3333V40.0015L41.0529 43.3407V16.6733L23.8249 6.66775L6.60258 16.6733V43.3407L0.855865 40.0015V13.3333Z" fill="#0069AC"/>
<path fill-rule="evenodd" clip-rule="evenodd" d="M18.0814 43.3407V49.9998L23.8231 46.6656L29.5677 49.9998V43.3407L23.8231 40.0014L18.0814 43.3407Z" fill="#A68561"/>
<path fill-rule="evenodd" clip-rule="evenodd" d="M41.0492 43.3403V36.6639L23.8212 26.6641L6.60453 36.6639V43.3403L23.8212 33.3297L41.0492 43.3403Z" fill="#A68561"/>
<path fill-rule="evenodd" clip-rule="evenodd" d="M23.8214 13.3332L35.3077 20.0038V46.6669L29.5681 49.9961V23.3316L23.8214 20.0038L18.0833 23.3316V49.9961L12.3458 46.6669V20.0038L23.8214 13.3332Z" fill="#0069AC"/>
</g>
<defs>
<clipPath id="clip0_553_207">
<rect width="45.9416" height="50" fill="white" transform="translate(0.855865)"/>
</clipPath>
</defs>
</svg>
