<svg width="51" height="50" viewBox="0 0 51 50" fill="none" xmlns="http://www.w3.org/2000/svg">
<g clip-path="url(#clip0_523_6832)">
<path d="M22.9981 49.6771C21.3382 50.2158 19.5324 50.0731 17.9778 49.2804C16.4232 48.4876 15.2472 47.1098 14.7085 45.45C14.1697 43.7902 14.3124 41.9843 15.1052 40.4297C15.8979 38.8751 17.2757 37.6991 18.9356 37.1604C20.5954 36.6217 22.4012 36.7644 23.9558 37.5571C25.5104 38.3498 26.6864 39.7277 27.2251 41.3875C27.7639 43.0473 27.6212 44.8531 26.8284 46.4077C26.0357 47.9623 24.6579 49.1383 22.9981 49.6771ZM36.6522 43.6708C45.0835 40.9312 51.8918 31.2104 48.5043 20.7875C45.1168 10.3646 33.896 6.50415 25.4668 9.24374C24.5206 9.55077 23.7256 10.2046 23.2417 11.0738C22.7579 11.943 22.6209 12.9631 22.8585 13.9292L23.721 17.4333C23.8503 17.9591 24.0866 18.4526 24.4152 18.8831C24.7437 19.3135 25.1573 19.6716 25.6304 19.9351C26.1034 20.1986 26.6257 20.3618 27.1646 20.4146C27.7035 20.4673 28.2475 20.4084 28.7626 20.2416L29.1001 20.1312C32.9772 18.8687 36.5835 21.1812 37.5814 24.3375C38.6335 27.4771 37.0731 31.4667 33.1939 32.7271L32.8564 32.8396C32.3416 33.0071 31.8668 33.2789 31.4617 33.6381C31.0566 33.9973 30.7299 34.4361 30.502 34.9272C30.274 35.4182 30.1497 35.951 30.1369 36.4922C30.124 37.0335 30.2229 37.5716 30.4272 38.0729L31.7876 41.4146C32.1635 42.3356 32.8741 43.0802 33.7765 43.4988C34.6789 43.9173 35.7063 43.9788 36.6522 43.6708ZM22.1481 27.0416L16.4668 3.64999C16.3097 3.01023 16.0223 2.40974 15.6227 1.88604C15.2231 1.36233 14.7198 0.926646 14.1442 0.606207C13.5686 0.285768 12.9331 0.0874547 12.2775 0.0236544C11.6218 -0.0401458 10.96 0.0319375 10.3335 0.235402L4.18347 2.23332C3.55697 2.43687 2.97917 2.76741 2.48616 3.2043C1.99314 3.64118 1.59551 4.17503 1.31808 4.7725C1.04066 5.36997 0.889405 6.01822 0.873771 6.67677C0.858137 7.33532 0.978459 7.99003 1.22722 8.59999L10.3814 30.8646C10.8388 31.9852 11.7033 32.8911 12.8012 33.4005C13.8992 33.9099 15.1492 33.9848 16.3001 33.6104L18.9772 32.7416C20.1283 32.3682 21.0952 31.5727 21.6835 30.5152C22.2718 29.4577 22.4378 28.2166 22.1481 27.0416Z" fill="#E31E52"/>
</g>
<defs>
<clipPath id="clip0_523_6832">
<rect width="50" height="50" fill="white" transform="translate(0.131378)"/>
</clipPath>
</defs>
</svg>
