<svg width="73" height="50" viewBox="0 0 73 50" fill="none" xmlns="http://www.w3.org/2000/svg">
<g clip-path="url(#clip0_523_6741)">
<path d="M2.07012 50C1.53062 50 1.0324 49.7808 0.652328 49.4007C0.272257 49.0221 0.0530396 48.5025 0.0530396 47.9843V2.01708C0.0530396 1.47758 0.272257 0.979359 0.652328 0.599288C1.0324 0.219217 1.55055 0 2.07012 0L70.9185 0C71.458 0 71.9562 0.219217 72.3363 0.599288C72.7164 0.979359 72.9356 1.49893 72.9356 2.01708V47.9829C72.9356 49.1018 72.0374 50 70.9185 50L2.07012 50Z" fill="#173E7D"/>
<path d="M50.6313 29.2143C50.6313 29.2143 51.8697 28.8755 53.2676 28.8143C54.5658 28.7545 56.3025 28.8143 57.8598 29.0933C59.437 29.3723 60.3352 29.6528 62.2327 29.593C64.1302 29.5332 64.9288 29.193 65.8868 29.0335C66.8448 28.8741 69.4811 28.7545 70.6996 29.2528V27.2955C69.4612 26.7958 66.8263 26.8955 65.8868 27.0762C64.9288 27.2357 64.1501 27.5759 62.2327 27.6357C60.3352 27.6955 59.437 27.4165 57.8598 27.136C56.2825 26.857 54.5644 26.7972 53.2676 26.857C51.8697 26.9168 50.6313 27.257 50.6313 27.257V29.2143Z" fill="#ED1C24"/>
<path d="M13.1715 19.17L7.56011 9.086L2.62915 19.2896L13.1715 19.17Z" fill="white"/>
<path d="M15.6476 19.1702L20.0206 10.2051L24.9928 19.1104L15.6476 19.1702Z" fill="white"/>
<path d="M27.6292 19.0507L31.2235 12.2208L35.037 18.951L27.6292 19.0507Z" fill="white"/>
<path d="M36.8333 19.0506L39.8497 12.7802L43.0042 18.951L36.8333 19.0506Z" fill="white"/>
<path d="M44.5415 18.8711L47.2575 13.459L49.5935 18.7501L44.5415 18.8711Z" fill="white"/>
<path d="M49.7329 20.0685V19.3895L1.73007 20.0685V21.0678L49.7329 20.0685Z" fill="white"/>
<path d="M50.0125 29.9729V29.5331L1.72919 37.2612V38.0398L50.0125 29.9729Z" fill="white"/>
<path d="M50.0129 30.7914V30.3317L1.72961 38.5196V39.3181L50.0129 30.7914Z" fill="white"/>
<path d="M7.04178 16.6548C7.04178 16.2961 7.32078 16.0156 7.68092 16.0156C8.03964 16.0156 8.32007 16.2946 8.32007 16.6548C8.32007 17.0135 8.04107 17.2939 7.68092 17.2939C7.32078 17.2726 7.04178 16.9936 7.04178 16.6548Z" fill="#173E7D"/>
<path d="M19.5425 16.9739C19.5425 16.6152 19.8215 16.3348 20.1816 16.3348C20.5204 16.3348 20.8208 16.6138 20.8208 16.9739C20.8208 17.3341 20.5418 17.6131 20.1816 17.6131C19.8215 17.6131 19.5425 17.3326 19.5425 16.9739Z" fill="#173E7D"/>
<path d="M30.8031 17.2128C30.8031 16.9537 31.0223 16.7331 31.2828 16.7331C31.5419 16.7331 31.7626 16.9523 31.7626 17.2128C31.7626 17.4719 31.5433 17.6925 31.2828 17.6925C31.0223 17.6925 30.8031 17.4733 30.8031 17.2128Z" fill="#173E7D"/>
<path d="M39.5096 17.4336C39.5096 17.2144 39.6889 17.0336 39.9096 17.0336C40.1288 17.0336 40.3096 17.213 40.3096 17.4336C40.3096 17.6528 40.1302 17.8336 39.9096 17.8336C39.6889 17.8322 39.5096 17.6528 39.5096 17.4336Z" fill="#173E7D"/>
<path d="M47.1979 17.2729C47.0186 17.2729 46.8791 17.4124 46.8791 17.5917C46.8791 17.7711 47.0186 17.9106 47.1979 17.9106C47.3773 17.9106 47.5168 17.7711 47.5168 17.5917C47.5168 17.4337 47.3773 17.2729 47.1979 17.2729Z" fill="#173E7D"/>
<path d="M31.1635 32.03V24.3816L29.3258 24.5012V32.309L31.1635 32.03Z" fill="white"/>
<path d="M40.1481 30.7116V23.8817L38.2904 23.9828V30.9906L40.1481 30.7116Z" fill="white"/>
<path d="M47.2574 23.4832V29.4932L48.1557 29.3935V23.4433L47.2574 23.4832Z" fill="white"/>
<path d="M45.9592 23.5628V29.6724L46.977 29.5329V23.5031L45.9592 23.5628Z" fill="white"/>
<path d="M11.3757 48.2037H9.13797C9.13797 48.2037 14.9686 41.8735 29.4255 37.3212C43.8825 32.7888 59.0782 31.9902 70.6796 32.5084V33.2472C70.6796 33.2472 52.9088 31.8294 35.0768 36.8415C18.1045 41.5945 11.3757 48.2037 11.3757 48.2037Z" fill="white"/>
<path d="M30.2636 48.104H27.9078C27.9078 48.104 31.9619 43.3509 42.3846 40.0968C52.8074 36.8228 64.369 35.8833 70.6394 36.1438V36.7232C70.6394 36.7232 59.0978 36.3844 46.9782 39.6385C34.7177 42.9324 30.2636 48.104 30.2636 48.104Z" fill="white"/>
<path d="M70.6397 35.5432V33.6457C70.6397 33.6457 68.7821 33.4265 67.9436 33.5859L69.4611 35.4834L70.6397 35.5432Z" fill="#ED1C24"/>
<path d="M68.6819 35.4832L67.1046 33.5273H64.8086L66.4854 35.5429L68.6819 35.4832Z" fill="white"/>
<path d="M65.4874 35.543L63.8504 33.5872H61.4333L63.2312 35.543H65.4874Z" fill="#ED1C24"/>
<path d="M62.5726 35.704L60.4957 33.5873L57.7997 33.7467L60.3762 35.983L62.5726 35.704Z" fill="white"/>
<path d="M59.0985 35.9233L56.9618 33.8066L54.0465 34.0856L56.5632 36.2023L59.0985 35.9233Z" fill="#ED1C24"/>
<path d="M50.4523 34.5256L53.2082 34.2466L55.7235 36.5028L53.1484 36.8814L50.4523 34.5256Z" fill="white"/>
<path d="M49.3342 34.6449L46.7577 34.9253L49.8325 37.3808L52.3093 37.0007L49.3342 34.6449Z" fill="#ED1C24"/>
<path d="M45.6402 35.0848L42.7647 35.6442L46.1384 38.2393L48.7747 37.7197L45.6402 35.0848Z" fill="white"/>
<path d="M41.7062 35.9832L39.0101 36.5027L42.8849 39.018L45.1809 38.3988L41.7062 35.9832Z" fill="#ED1C24"/>
<path d="M37.8327 36.7816L35.437 37.4407L39.8498 40.0172L42.106 39.2983L37.8327 36.7816Z" fill="white"/>
<path d="M34.4767 37.7806L31.681 38.7386L36.8938 41.0945L38.9095 40.3158L34.4767 37.7806Z" fill="#ED1C24"/>
<path d="M30.5446 39.1375C30.5446 39.1375 28.6471 39.5774 27.6293 40.1354L34.0193 42.551C34.0193 42.551 35.3574 41.8122 35.9766 41.5532L30.5446 39.1375Z" fill="white"/>
<path d="M26.2308 40.6961C26.2308 40.6961 24.7731 41.136 23.4749 41.815L30.7034 44.1708C30.7034 44.1708 32.161 43.2726 32.7803 43.052L26.2308 40.6961Z" fill="#ED1C24"/>
<path d="M22.4768 42.4326C22.4768 42.4326 20.9594 42.9921 20.1807 43.5515L28.0882 46.128L29.9857 44.8298L22.4768 42.4326Z" fill="white"/>
<path d="M19.2222 44.1696C19.2222 44.1696 17.4856 45.1276 17.0258 45.5076L25.6123 48.0841C25.6123 48.0841 26.5105 47.1859 26.9105 46.7859L19.2222 44.1696Z" fill="#ED1C24"/>
<path d="M15.9276 46.1266C15.9276 46.1266 13.791 47.4647 13.3511 48.0242H22.2565L15.9276 46.1266Z" fill="white"/>
<path d="M70.699 2.35721L2.06985 2.35721V3.69529L70.699 3.69529V2.35721Z" fill="white"/>
<path d="M70.6993 4.47415L2.0701 4.47415V5.81223L70.6993 5.81223V4.47415Z" fill="white"/>
<path d="M70.6989 6.61044L2.06973 6.61044V7.94852L70.6989 7.94852V6.61044Z" fill="white"/>
<path d="M8.23996 8.74734L8.67982 9.30535L20.5802 9.30535L21.02 10.0854L70.6997 10.0854V8.74734L8.23996 8.74734Z" fill="white"/>
<path d="M21.3588 10.8641L21.7987 11.5431L31.783 11.5431L32.0022 11.8819L40.2485 11.8819L40.4677 12.2207L70.6997 12.2207V10.8641L21.3588 10.8641Z" fill="white"/>
<path d="M48.1553 13.0005L48.5952 14.3571L70.6991 14.3571V13.0005L48.1553 13.0005Z" fill="white"/>
<path d="M48.9348 15.1362L49.4942 16.4743L70.6999 16.4743V15.1362L48.9348 15.1362Z" fill="white"/>
<path d="M52.8277 23.6627H50.3921V25.0008H51.3501C51.77 24.7815 52.3095 24.3816 52.8277 23.6627Z" fill="white"/>
<path d="M55.0856 21.5261H50.3938V22.8642H53.7888C54.1461 22.5254 54.7055 21.9859 55.0856 21.5261Z" fill="white"/>
<path d="M60.9356 19.3893C61.0751 19.6882 61.6146 20.2875 62.2936 21.1259C62.9726 21.9644 64.8089 23.0234 64.8089 23.0234C63.5107 22.0057 62.6922 21.106 62.8915 20.9466C63.5307 20.4469 64.2097 19.6085 64.4488 19.3694H60.9356V19.3893Z" fill="white"/>
<path d="M56.8814 19.3893H50.3917V20.7273H55.8835C56.1825 20.3885 56.6622 19.7693 56.8814 19.3893Z" fill="white"/>
<path d="M70.6392 20.7472H70.6791V19.4091H69.1218C69.3609 19.6696 69.8805 20.2475 70.6392 20.7472Z" fill="white"/>
<path d="M59.7766 17.2726C59.9161 17.6114 60.1353 18.1709 60.336 18.6107H65.2485C65.4876 18.1908 65.788 17.6527 65.8876 17.2726H59.7766Z" fill="white"/>
<path d="M58.1196 17.2725H49.9531L50.3929 18.6106H57.3623C57.6 18.3116 57.9588 17.7921 58.1196 17.2725Z" fill="white"/>
<path d="M68.5632 18.6108H70.6799V17.2727H67.9041C68.0038 17.5531 68.1831 18.0314 68.5632 18.6108Z" fill="white"/>
<path d="M62.9319 29.5532C63.2707 29.5333 63.5711 29.4934 63.8302 29.4536L64.8679 27.297C64.5889 27.3568 64.2686 27.4365 63.89 27.4963L62.9319 29.5532Z" fill="white"/>
<path d="M58.8792 29.2942C59.1582 29.354 59.4387 29.3939 59.7376 29.4537L60.596 27.596C60.297 27.5761 60.0166 27.5362 59.7376 27.4964L58.8792 29.2942Z" fill="white"/>
<path d="M56.282 28.894C56.561 28.9139 56.8414 28.9538 57.1204 28.9936L57.9788 27.1773L57.8393 27.1574C57.6201 27.1175 57.3795 27.0776 57.1603 27.0577L56.282 28.894Z" fill="white"/>
<path d="M65.926 29.0348C66.1652 28.9949 66.4855 28.9551 66.8641 28.9351L67.8221 26.938C67.5032 26.938 67.2029 26.9579 66.9239 26.9779L65.926 29.0348Z" fill="white"/>
<path d="M68.7622 28.9141C69.0611 28.934 69.3416 28.9539 69.6206 28.9938L70.459 27.2173C70.2199 27.1375 69.9394 27.0778 69.6405 27.0379L68.7622 28.9141Z" fill="white"/>
<path d="M54.4855 26.8383L53.5474 28.8155C53.8264 28.8155 54.1268 28.7956 54.4456 28.8155L55.3638 26.8781C55.0634 26.8582 54.7645 26.8383 54.4855 26.8383Z" fill="white"/>
<path d="M64.3689 29.3736C64.7489 29.2939 65.0678 29.2141 65.3667 29.1544L66.3845 27.0177C66.1852 27.0376 66.0045 27.0576 65.8649 27.0775C65.7055 27.0974 65.566 27.1373 65.4251 27.1771L64.3689 29.3736Z" fill="white"/>
<path d="M60.1752 29.5131C60.4343 29.5529 60.6948 29.5729 60.9937 29.5928L61.9119 27.6554C61.593 27.6554 61.3126 27.6554 61.0535 27.6355L60.1752 29.5131Z" fill="white"/>
<path d="M69.1822 26.9779C68.9032 26.958 68.6028 26.9381 68.3238 26.9381L67.3843 28.9139C67.6633 28.9139 67.9637 28.894 68.2826 28.9139L69.1822 26.9779Z" fill="white"/>
<path d="M63.3717 27.5573C63.0927 27.5971 62.7924 27.617 62.4337 27.617L61.4956 29.5943C61.7347 29.5943 61.9753 29.5943 62.2344 29.5943H62.4337L63.3717 27.5573Z" fill="white"/>
<path d="M70.0604 29.0747C70.2996 29.1146 70.5003 29.1744 70.6796 29.2541V27.7566L70.0604 29.0747Z" fill="white"/>
<path d="M59.2775 27.3966C59.0184 27.3568 58.738 27.297 58.459 27.2372L57.6006 29.0536L57.8597 29.0934C58.059 29.1333 58.2398 29.1532 58.4191 29.1931L59.2775 27.3966Z" fill="white"/>
<path d="M53.0482 28.8142L53.9862 26.817C53.7272 26.817 53.4866 26.817 53.2474 26.8369H53.0681L52.0901 28.8939C52.3891 28.874 52.7079 28.8341 53.0482 28.8142Z" fill="white"/>
<path d="M56.7028 26.958C56.4238 26.9182 56.1234 26.8982 55.8444 26.8783L54.9263 28.7957C55.2053 28.7957 55.5056 28.8157 55.8046 28.8356L56.7028 26.958Z" fill="white"/>
<path d="M52.5678 26.898C52.2091 26.9378 51.8888 26.9777 51.6098 27.0375L50.6119 29.1343V29.214C50.6119 29.214 50.992 29.1144 51.55 29.0147L52.5678 26.898Z" fill="white"/>
<path d="M51.0709 27.1372C50.7919 27.197 50.631 27.2369 50.631 27.2369V28.0753L51.0709 27.1372Z" fill="white"/>
<path d="M5.66445 25.8988H4.76481V25.4405L12.6125 25.0604V25.5003L11.7741 25.56V32.9679L14.1698 32.6476V23.6227L4.86588 23.9828L3.30716 22.7643V34.0853L5.66445 33.7664V25.8988Z" fill="white"/>
<path d="M17.5651 25.2002H16.7665V24.8016L23.8156 24.4414V24.8414L23.0768 24.9012V31.4706L25.8313 31.1105V23.1631L14.8092 23.603V32.5681L17.5651 32.1895V25.2002Z" fill="white"/>
<path d="M28.867 24.501H28.1481V24.1224L34.4969 23.822V24.1822L33.8179 24.222V30.0526L35.5759 29.8135V22.7644L26.4499 23.1231V31.0306L28.867 30.7117V24.501Z" fill="white"/>
<path d="M37.9128 23.963H37.3334V23.6626L42.5049 23.4036V23.7025L41.9455 23.7423V28.9737L43.7234 28.7345V22.4441L36.1363 22.7445V29.7324L37.9128 29.5132V23.963Z" fill="white"/>
<path d="M44.2229 22.4242V28.6748L45.5197 28.4954V23.5232H45.0813V23.284L48.9745 23.1032V23.3239L48.556 23.3438V28.0954L49.9524 27.9161V22.205L44.2229 22.4242Z" fill="white"/>
<path d="M3.30695 34.0855V36.4428L5.66424 36.0627V33.7666L3.30695 34.0855Z" fill="#ED1C24"/>
<path d="M11.7736 32.9679V35.1046L14.1693 34.7444V32.6476L11.7736 32.9679Z" fill="#ED1C24"/>
<path d="M23.0766 31.4705V33.3467L25.831 32.9082V31.1104L23.0766 31.4705Z" fill="#ED1C24"/>
<path d="M14.8083 32.5679V34.6448L17.5642 34.2064V32.1893L14.8083 32.5679Z" fill="#ED1C24"/>
<path d="M28.8675 30.7118L26.4504 31.0307V32.8285L28.8675 32.4484V30.7118Z" fill="#ED1C24"/>
<path d="M33.8182 30.0526V31.6696L35.4567 31.4106L35.5762 31.3906V29.8134L33.8182 30.0526Z" fill="#ED1C24"/>
<path d="M41.9446 28.9736V30.3914L43.7225 30.1124V28.7345L41.9446 28.9736Z" fill="#ED1C24"/>
<path d="M37.912 31.0306V29.5132L36.1355 29.7324V31.311L37.912 31.0306Z" fill="#ED1C24"/>
<path d="M48.5553 29.3737L49.9517 29.1545V27.916L48.5553 28.0954V29.3737Z" fill="#ED1C24"/>
<path d="M44.2222 28.6748V30.0527L45.519 29.8335V28.4954L44.2222 28.6748Z" fill="#ED1C24"/>
</g>
<defs>
<clipPath id="clip0_523_6741">
<rect width="72.8826" height="50" fill="white" transform="translate(0.0530396)"/>
</clipPath>
</defs>
</svg>
