<svg width="121" height="50" viewBox="0 0 121 50" fill="none" xmlns="http://www.w3.org/2000/svg">
<g clip-path="url(#clip0_523_6738)">
<path d="M13.2423 49.9392C9.22015 49.4781 5.04673 47.6823 2.51297 45.3241C1.90411 44.7574 1.84563 44.6555 1.75027 43.9951C1.62372 43.1182 1.76121 37.7147 1.91248 37.6216C1.97242 37.5845 2.42477 37.9511 2.91788 38.4361C5.05322 40.5377 8.46894 42.2962 11.8509 43.035C13.238 43.3383 16.2283 43.4102 17.587 43.1729C21.9778 42.4061 25.3166 39.0927 25.7326 35.0854C25.7755 34.6726 25.7732 34.335 25.7274 34.335C25.6817 34.335 25.3227 34.5533 24.9296 34.8202C23.3372 35.9017 21.264 36.7651 18.995 37.2932C17.6363 37.6091 14.3516 37.6091 12.9928 37.2932C8.47501 36.2427 5.22542 34.076 2.81861 30.509C0.873718 27.6268 -0.129793 23.7789 0.191655 20.4348C0.922206 12.8335 6.54363 7.00283 14.1166 5.98311C17.5066 5.52958 21.6355 6.49176 24.6068 8.42774C25.1731 8.79686 25.6682 9.06713 25.7069 9.02836C25.7457 8.9896 25.7774 8.48068 25.7774 7.89735V6.83684H31.658L31.6892 12.45L31.7204 18.0632L32.176 16.7589C33.0139 14.3602 34.2276 12.3559 35.824 10.7324C38.0336 8.48771 40.4715 7.08982 43.4766 6.34427C49.3019 4.90046 55.5525 6.96083 59.3735 11.5874C60.7997 13.3121 61.8032 15.1787 62.4677 17.3424C62.6873 18.0582 62.689 18.0059 62.7195 9.02796L62.7503 -0.00634766L68.6309 -0.00634766V6.83725L81.4766 6.83725V12.7179L68.6903 12.78L68.6908 17.9421C68.6915 23.6889 68.7044 23.8038 69.5394 25.5082C70.6057 27.6854 72.6269 29.2832 75.1729 29.9626C76.3936 30.2885 80.6685 30.2896 81.8962 29.9643C84.3949 29.3025 86.4168 27.6872 87.4811 25.5046C88.0867 24.2624 88.2771 23.3638 88.3713 21.3068C88.4134 20.3845 88.5316 19.2242 88.634 18.7285C89.3538 15.2439 91.2123 12.0051 93.7407 9.82925C96.9187 7.09424 100.675 5.75983 104.767 5.91245C117.133 6.37112 124.176 20.04 117.428 30.4532C116.591 31.7448 114.324 34.0324 113.067 34.8522C110.147 36.7593 106.966 37.6588 103.626 37.5237C100.661 37.4038 98.091 36.6096 95.7018 35.0751C94.4527 34.2731 92.9978 33.0073 92.155 31.9875C91.7439 31.4905 91.3709 31.0838 91.326 31.0838C91.2812 31.0838 90.8619 31.5355 90.3944 32.0875C87.6486 35.329 83.3536 37.309 78.5872 37.5305C71.6423 37.8544 64.9595 32.7628 63.2442 25.8368C63.0759 25.157 62.903 24.6007 62.8598 24.6007C62.8166 24.6007 62.6903 25.0194 62.579 25.5312C61.94 28.4688 59.9102 31.7413 57.4574 33.7835C55.2735 35.6028 52.9774 36.6927 49.9534 37.3478C48.8089 37.5953 45.3667 37.5571 44.1903 37.2839C39.7062 36.2414 36.3337 33.9749 33.989 30.4282C33.1577 29.1705 32.7403 28.3145 32.1711 26.7018L31.7049 25.3812L31.6302 30.7837C31.5538 36.3158 31.5347 36.5495 30.9905 38.597C29.8996 42.7015 26.4888 46.7088 22.4815 48.5943C21.4413 49.0838 19.8087 49.5966 18.6228 49.8063C17.6151 49.9846 14.3589 50.0582 13.2271 49.9285L13.2423 49.9392ZM19.2701 30.1256C21.1786 29.6813 22.9884 28.5994 24.0621 27.2596C24.357 26.8918 24.8499 26.0783 25.1575 25.4511L25.7166 24.312V19.027L25.2053 17.9575C24.0257 15.4899 22.188 14.0028 19.4733 13.3194C18.5222 13.0798 18.0902 13.0471 15.8712 13.0459C13.6656 13.0447 13.2293 13.0768 12.3892 13.3028C9.06267 14.1976 6.83685 16.5402 6.14938 19.8722C5.25068 24.2239 7.74041 28.5513 11.9125 29.8871C12.527 30.084 13.3725 30.2973 13.7898 30.3613C14.9365 30.5366 18.0848 30.4013 19.268 30.1257L19.2701 30.1256ZM50.6991 30.0711C53.7042 29.3125 55.8774 27.3077 56.8458 24.4026C57.1194 23.5815 57.1577 23.2659 57.1634 21.7878C57.1685 20.4833 57.1193 19.932 56.9439 19.3269C56.0355 16.1908 53.8915 14.1162 50.7486 13.3315C48.6214 12.8006 44.9383 12.8799 42.9866 13.4989C40.2908 14.3538 38.2838 16.481 37.5207 19.2917C37.3263 20.008 37.2667 20.5773 37.2659 21.7268C37.2647 23.4813 37.5377 24.5902 38.3158 25.9907C38.8959 27.0344 40.3295 28.4907 41.3776 29.1012C42.3279 29.6543 43.9546 30.2112 45.0594 30.3618C46.4155 30.5468 49.4287 30.3911 50.6983 30.0704L50.6991 30.0711ZM107.695 30.0817C110.773 29.2999 112.965 27.2036 113.92 24.1295C114.151 23.386 114.199 22.9676 114.197 21.7281C114.193 19.9791 114.009 19.1484 113.305 17.706C112.232 15.5099 110.312 13.9972 107.72 13.307C106.883 13.0844 106.427 13.0512 104.178 13.0494C101.913 13.0477 101.48 13.0791 100.637 13.305C99.0096 13.7414 97.7751 14.4294 96.7392 15.4768C95.6777 16.5504 95.1657 17.3717 94.6552 18.8155C94.3063 19.8032 94.2834 19.9734 94.2801 21.6086C94.2761 23.5832 94.404 24.1653 95.1757 25.6821C96.2004 27.6972 97.962 29.1829 100.166 29.8893C101.732 30.3909 102.535 30.4876 104.658 30.4306C106.125 30.3912 106.768 30.3173 107.695 30.082L107.695 30.0817Z" fill="#1FCA3E"/>
</g>
<defs>
<clipPath id="clip0_523_6738">
<rect width="119.922" height="50" fill="white" transform="translate(0.131378)"/>
</clipPath>
</defs>
</svg>
