<svg width="197" height="50" viewBox="0 0 197 50" fill="none" xmlns="http://www.w3.org/2000/svg">
<g clip-path="url(#clip0_553_42)">
<path d="M5.67807 29.9421C5.0542 35.7179 0 34.7979 0 34.7979L0.451371 37.2589H18.0577L18.8684 34.8986C13.4434 35.0596 14.9642 30.8621 14.9642 30.8621C14.9642 30.8621 19.4147 7.60644 19.4492 7.50582C20.1392 3.96385 24.788 4.76884 24.788 4.76884L24.3021 2.18999H6.77631L5.80457 4.73722C5.80457 4.73722 10.5569 4.18522 9.99053 8.00606C9.97903 8.04631 5.6292 30.244 5.6292 30.244" fill="#01539C"/>
<path d="M32.2439 12.4366L32.8678 9.36611L21.0833 10.91L20.7383 12.8218C20.7383 12.8218 24.7258 11.8185 23.3459 17.1372L20.3214 32.5959H28.2937L31.4907 16.3811C31.4907 16.3811 31.781 14.0609 34.8975 13.9632C34.8975 13.9632 38.3446 14.0178 37.2349 18.7903L34.4433 32.6448L46.2479 31.1757L46.5584 29.3299C46.5584 29.3299 42.4156 30.0717 43.6604 26.3428L45.5723 16.0907C45.5723 16.0907 46.5354 10.2459 42.7807 9.33161C42.7807 9.33161 38.5516 7.54338 32.2439 12.4366Z" fill="#01539C"/>
<path d="M58.4582 32.7501C58.4582 32.7501 52.1102 33.7506 49.3301 31.0136C49.3301 31.0136 44.2587 27.1497 49.1548 17.691C54.0508 8.23521 64.9039 9.48582 64.9039 9.48582L65.4731 6.4901C65.4731 6.4901 66.0136 3.75313 61.405 4.2505L62.0404 2.22076L74.5667 0.625155L69.4664 26.5344C69.4664 26.5344 68.3481 29.7285 73.5 29.3634L73.178 31.1344L60.4017 32.7904L64.3605 12.4298C64.3605 12.4298 59.864 11.2597 57.1357 17.8491C57.1357 17.8491 52.0757 30.0103 59.3005 30.798L59.0015 32.5891L58.4582 32.7501Z" fill="#01539C"/>
<path d="M90.3285 22.1511C88.4483 32.1934 84.2364 30.6955 84.2364 30.6955C84.2364 30.6955 80.4558 30.2413 82.5689 20.0437C84.6562 10.0618 88.2671 11.4073 88.2671 11.4073C90.1272 11.5223 91.9385 13.7993 90.3285 22.1511ZM87.9423 8.68472C80.8785 8.64159 74.4443 14.1558 73.5818 21.0299C72.7193 27.8895 77.7419 33.4785 84.8143 33.5101C91.8839 33.5389 98.3209 28.0074 99.1777 21.1391C100.037 14.288 95.0233 8.71347 87.9423 8.68472Z" fill="#01539C"/>
<path d="M130.847 22.1511C128.935 32.1934 124.747 30.6955 124.747 30.6955C124.747 30.6955 120.96 30.2413 123.073 20.0437C125.143 10.0618 128.774 11.4073 128.774 11.4073C130.637 11.5223 132.446 13.7993 130.847 22.1511ZM128.452 8.68472C121.377 8.64159 114.949 14.1558 114.083 21.0299C113.227 27.8895 118.258 33.4785 125.319 33.5101C132.403 33.5389 138.843 28.0074 139.691 21.1391C140.559 14.288 135.531 8.71347 128.452 8.68472Z" fill="#01539C"/>
<path d="M158.708 22.1511C156.797 32.1934 152.605 30.6955 152.605 30.6955C152.605 30.6955 148.83 30.2413 150.94 20.0437C153.016 10.0618 156.638 11.4073 156.638 11.4073C158.499 11.5223 160.298 13.7993 158.708 22.1511ZM156.314 8.68472C149.238 8.64159 142.804 14.1558 141.95 21.0299C141.091 27.8895 146.116 33.4785 153.191 33.5101C160.258 33.5389 166.692 28.0074 167.549 21.1391C168.414 14.288 163.389 8.71347 156.314 8.68472Z" fill="#01539C"/>
<path d="M112.157 12.2333C112.157 12.2333 112.289 12.8227 109.742 24.5353C107.203 36.2279 104.598 39.6635 104.598 39.6635C98.239 51.4853 88.4986 49.9329 88.4986 49.9329C83.7836 49.9329 79.6696 45.9654 79.6696 41.9836C79.6696 37.8867 83.4156 34.8105 88.1364 34.8105L97.894 34.799C97.894 34.799 98.0636 34.7185 97.2788 37.2772H87.9294C84.6749 37.2772 82.694 40.1781 82.694 42.2337C82.694 44.6774 85.5604 47.2908 88.4382 47.2908C88.4382 47.2908 91.2729 47.5811 93.3084 46.6295C96.8791 44.9505 98.7853 39.7411 98.7853 39.7411C99.9812 37.3088 101.755 28.1003 101.715 28.2297C101.715 28.2297 102.756 23.8108 104.389 12.3598H103.977H100.113L100.786 9.70336C103.897 9.25198 105.093 7.22225 105.093 7.22225C105.093 7.22225 108.713 2.11343 111.076 0.859937C116.567 -2.01504 120.79 3.24041 120.79 3.24041L115.27 8.13362C113.407 6.17576 112.683 5.68702 112.683 5.68702C110.872 3.93328 109.469 5.97452 109.469 5.97452C108.129 9.67173 112.683 9.49923 112.683 9.49923H117.935L117.225 12.2333H112.157Z" fill="#01539C"/>
<path d="M81.4299 34.7983H21.3803L20.6357 37.3081H78.7274C78.7274 37.3081 79.1816 35.7182 81.4299 34.7983Z" fill="#01539C"/>
<path d="M109.13 34.7983H195.436L194.856 37.3081H108.236C108.236 37.3081 108.946 36.1725 109.13 34.7983Z" fill="#01539C"/>
<path d="M180.69 32.7501C180.69 32.7501 174.334 33.7506 171.539 31.0136C171.539 31.0136 166.485 27.1497 171.384 17.691C176.274 8.23521 187.116 9.48582 187.116 9.48582L187.711 6.4901C187.711 6.4901 188.243 3.75313 183.628 4.2505L184.269 2.22076L196.79 0.625155L191.693 26.5344C191.693 26.5344 190.574 29.7285 195.726 29.3634L195.41 31.1344L182.636 32.7904L186.584 12.4298C186.584 12.4298 182.093 11.2597 179.356 17.8491C179.356 17.8491 174.305 30.0103 181.535 30.798L181.231 32.5891L180.69 32.7501Z" fill="#01539C"/>
</g>
<defs>
<clipPath id="clip0_553_42">
<rect width="196.79" height="50" fill="white"/>
</clipPath>
</defs>
</svg>
