<svg width="38" height="50" viewBox="0 0 38 50" fill="none" xmlns="http://www.w3.org/2000/svg">
<path d="M32.6978 0.119718C30.0644 -0.40214 27.3316 0.815528 25.947 3.1204C25.6212 3.66835 25.386 4.25109 25.2321 4.85992C24.6168 2.51157 22.6983 0.606785 20.255 0.119718C17.6217 -0.40214 14.8888 0.815528 13.4952 3.1204C13.1694 3.66835 12.9342 4.25109 12.7803 4.85992C12.165 2.51157 10.2465 0.606785 7.80322 0.119718C5.16988 -0.40214 2.437 0.815528 1.04341 3.1204C-0.350178 5.43397 -0.123947 8.46944 1.58637 10.5569C3.29668 12.6356 6.19245 13.4445 8.72625 12.5312C10.7442 11.8006 12.2464 10.0785 12.7713 8.03456C12.9975 8.93911 13.4138 9.80887 14.0291 10.5482C15.7394 12.6269 18.6352 13.4358 21.169 12.5225C23.187 11.7919 24.6892 10.0698 25.214 8.02586C25.4403 8.93041 25.8565 9.80017 26.4628 10.5395C28.1731 12.6182 31.0689 13.4271 33.6027 12.5138C36.1275 11.6006 37.8559 9.13046 37.8559 6.43419C37.8559 3.39003 35.6478 0.693761 32.6706 0.102323L32.6978 0.119718Z" fill="#FDAF27"/>
<path d="M12.1644 31.4747C12.816 34.284 14.481 36.902 17.404 37.7109C20.173 38.4676 23.2588 37.2412 24.6886 34.7189C25.5483 33.2055 25.4397 31.5008 25.4307 29.8221C25.4216 28.6914 25.4216 27.5694 25.4216 26.4387C25.4216 25.195 25.4216 23.9599 25.4307 22.7162C25.4397 21.1245 25.3945 19.585 26.1818 18.1412C27.2677 16.1495 29.4395 14.9144 31.7018 15.0101C33.9913 15.1057 36.0726 16.5409 36.9775 18.6544C37.5838 20.0547 37.4753 21.5768 37.4843 23.0641C37.4933 24.2904 37.4933 25.5255 37.4933 26.7519C37.4933 29.4046 37.6562 32.1792 37.1495 34.7972C35.955 40.8507 31.7833 46.1215 26.1184 48.5481C20.4536 50.9748 13.748 50.3224 8.64425 46.8695C6.12856 45.1647 4.05627 42.8077 2.68983 40.0853C1.34149 37.3891 0.527053 34.0231 1.04286 31.0137C1.43198 28.7697 3.19659 26.9345 5.42271 26.4735C7.73028 25.9952 10.1555 27.0737 11.359 29.1089C11.7934 29.8482 11.9834 30.6484 12.1825 31.4747H12.1644Z" fill="#FDAF27"/>
</svg>
