<svg width="172" height="50" viewBox="0 0 172 50" fill="none" xmlns="http://www.w3.org/2000/svg">
<g clip-path="url(#clip0_553_89)">
<path d="M0.494186 34.3591C0.494186 31.8756 0.450789 29.7964 0.31665 27.9362H5.01346L5.23637 31.1279H5.36656C6.4298 29.4433 8.37875 27.447 12.0123 27.447C14.8489 27.447 17.0622 29.0449 17.9933 31.4357H18.084C18.8376 30.2403 19.7213 29.3526 20.7392 28.7352C21.9366 27.8909 23.3135 27.447 25.0829 27.447C28.6731 27.447 32.3027 29.8832 32.3027 36.7992V49.5108H26.9865V37.5922C26.9865 34.006 25.7457 31.8756 23.132 31.8756C21.2718 31.8756 19.8969 33.2091 19.3228 34.7595C19.1631 35.3512 19.0737 35.9597 19.0565 36.5724V49.5128H13.7403V37.0142C13.7403 34.008 12.5449 31.8775 10.018 31.8775C7.98422 31.8775 6.61128 33.4754 6.11813 34.9785C5.89916 35.5111 5.80843 36.1345 5.80843 36.7499V49.5128H0.494186V34.3591ZM53.0172 44.3307C53.0172 46.2777 53.1059 48.1812 53.3249 49.5128H48.4072L48.0541 47.122H47.9199C46.5904 48.8066 44.3297 49.998 41.5444 49.998C37.2007 49.998 34.7645 46.8556 34.7645 43.5752C34.7645 38.1209 39.5895 35.3789 47.5688 35.4223V35.0692C47.5688 33.649 46.9908 31.3015 43.1797 31.3015C41.0513 31.3015 38.838 31.9683 37.3763 32.8954L36.313 29.3506C37.9089 28.3742 40.7001 27.4451 44.1088 27.4451C51.0228 27.4451 53.0191 31.8361 53.0191 36.527L53.0172 44.3307ZM47.699 38.9711C43.8425 38.8803 40.1675 39.7227 40.1675 43.0011C40.1675 45.1276 41.5444 46.1041 43.2705 46.1041C45.4384 46.1041 47.0362 44.6818 47.5234 43.1333C47.6427 42.7461 47.7026 42.3431 47.701 41.9379L47.699 38.9711ZM56.7809 34.3591C56.7809 31.8756 56.7356 29.7964 56.6073 27.9362H61.387L61.6513 31.1753H61.7855C62.7146 29.4887 65.064 27.447 68.6521 27.447C72.4199 27.447 76.3158 29.8832 76.3158 36.7105V49.5108H70.8674V37.3299C70.8674 34.2289 69.7134 31.8736 66.7466 31.8736C64.5787 31.8736 63.0677 33.4261 62.4936 35.0673C62.3161 35.5525 62.2727 36.2193 62.2727 36.8347V49.5088H56.779L56.7809 34.3591ZM99.9438 19.2686V43.443C99.9438 45.6583 100.035 48.055 100.121 49.5128H95.251L95.0281 46.1041H94.9373C93.6551 48.4949 91.0375 50 87.8951 50C82.7544 50 78.6809 45.6149 78.6809 38.9731C78.6336 31.7493 83.1509 27.449 88.3389 27.449C91.3057 27.449 93.4322 28.6898 94.4067 30.2916H94.4994V19.2705H99.9458L99.9438 19.2686ZM94.4974 36.9294C94.4974 36.4895 94.454 35.9569 94.3633 35.5111C93.876 33.3886 92.152 31.6586 89.6684 31.6586C86.169 31.6586 84.2161 34.7615 84.2161 38.7916C84.2161 42.7309 86.167 45.6129 89.6251 45.6129C91.8364 45.6129 93.7873 44.1038 94.3179 41.7564C94.452 41.2712 94.4994 40.7366 94.4994 40.1625L94.4974 36.9294ZM103.798 49.5128V27.9362H109.296V49.5128H103.798ZM113.147 34.8937C113.147 31.9703 113.105 29.8852 112.973 27.9382H117.713L117.887 32.0551H118.066C119.13 28.9995 121.653 27.9382 123.962 27.9382C124.493 27.9382 124.801 27.8475 125.243 27.9382V32.7258C124.72 32.6101 124.186 32.5506 123.651 32.5482C121.031 32.5482 119.26 34.2329 118.774 36.6651C118.667 37.2218 118.608 37.7868 118.599 38.3537V49.5147H113.147V34.8937ZM127.772 49.5128V27.9362H133.261V49.5128H127.772Z" fill="#0D2B5B"/>
<path d="M167.459 5.11698C164.738 2.01405 161.847 3.41856 159.549 4.5607C158.582 5.03808 151.605 8.99318 151.605 8.99318C147.782 10.5693 144.805 8.84918 143.637 7.40128C143.526 7.26397 143.425 7.11822 143.336 6.96533L143.063 6.49387C142.603 5.69812 142.092 4.9331 141.533 4.20366C141.193 3.76152 140.825 3.34179 140.432 2.9471C137.816 0.305762 133.636 -1.54258 126.649 1.81482C123.341 3.7322 112.565 9.88875 112.565 9.88875C108.515 11.5556 105.418 9.52579 104.412 8.03646C104.367 7.9807 104.327 7.92056 104.293 7.85695L104.161 7.63207L103.479 6.51557C103.171 6.02648 102.84 5.55189 102.489 5.09331C102.146 4.65399 101.778 4.23508 101.386 3.83872C98.7879 1.21317 94.6296 -0.631233 87.7037 2.66304C83.5159 5.05386 73.7751 10.6226 73.7751 10.6226L73.7711 10.6265L66.6421 14.7L70.3309 19.2291C71.8833 20.7086 74.8008 23.1349 79.3142 21.0893C79.3142 21.0893 91.7713 13.8754 91.8206 13.8537C102.471 8.00884 107.726 13.5933 110.05 17.3157C110.13 17.432 110.196 17.5583 110.269 17.6707L110.272 17.6767C110.302 17.722 110.32 17.7634 110.345 17.8068L110.608 18.2369C111.74 19.9531 113.525 21.0617 115.654 21.0104C116.827 20.9867 117.624 20.604 118.784 19.959L130.837 12.968L130.863 12.9562C141.647 7.04029 146.991 12.9897 149.273 16.712C149.451 17.0336 149.652 17.3413 149.859 17.6273C150.989 19.1601 152.548 20.1641 154.528 20.1148C155.836 20.0892 157.302 19.3041 157.521 19.1601L171.97 10.8198C171.974 10.8238 170.499 8.59274 167.459 5.11698Z" fill="#FDD213"/>
</g>
<defs>
<clipPath id="clip0_553_89">
<rect width="171.703" height="50" fill="white" transform="translate(0.292725)"/>
</clipPath>
</defs>
</svg>
