<svg width="93" height="50" viewBox="0 0 93 50" fill="none" xmlns="http://www.w3.org/2000/svg">
<g clip-path="url(#clip0_553_70)">
<path d="M66.7616 12.5134C60.2671 12.5134 55.001 17.6042 55.001 23.8717C55.001 30.1391 60.2671 35.2299 66.7616 35.2299C73.2561 35.2299 78.5222 30.1391 78.5222 23.8717C78.5222 17.6042 73.2812 12.5134 66.7616 12.5134ZM66.159 16.1487C70.3719 16.1487 73.7568 19.3834 73.7568 23.396C73.7568 27.4086 70.3468 30.6434 66.159 30.6434C61.9712 30.6434 58.5612 27.4086 58.5612 23.396C58.5612 19.3834 61.9461 16.1487 66.159 16.1487Z" fill="#5C5C5C"/>
<path d="M74.6598 0.0250339C74.2843 0.0250339 73.9821 0.175237 73.6567 0.400543C73.2561 0.675917 72.9039 1.12832 72.7036 1.57893C71.6254 3.8606 70.6222 6.04213 69.6191 8.22366C69.3687 8.74937 69.0933 9.35198 68.6409 9.75252C68.3656 10.0029 68.0884 10.2282 67.7379 10.128C67.3624 10.0279 67.2373 9.85266 67.1103 9.47536C66.9351 9.02475 66.9601 8.12174 66.91 7.61927C66.8099 6.66619 66.9351 5.68808 66.6847 4.76003C66.5595 4.33445 66.184 3.35634 65.5814 3.33131C64.6534 3.28124 64.0025 4.68493 63.6002 5.46277C62.6721 7.29383 62.3717 9.35019 62.3968 12.3078C62.3968 12.6332 62.4218 13.2609 62.4218 13.2609C62.4218 13.2609 63.7253 12.8102 64.378 12.6833C64.7535 12.6082 65.1559 12.5581 65.5564 12.508C65.9569 12.458 66.3593 12.458 66.7598 12.458C67.1604 12.458 67.5627 12.483 67.9632 12.508C68.3638 12.5581 68.7411 12.6082 69.1416 12.6833C69.9195 12.8335 70.6454 13.0588 71.3482 13.336C72.0509 13.6113 72.7268 13.9636 73.3545 14.3892C73.9821 14.7897 74.5579 15.2671 75.1104 15.7678C75.6361 16.2685 76.1136 16.8461 76.5392 17.4487C76.9647 18.0513 77.317 18.7022 77.6174 19.3799C77.9178 20.0576 78.1431 20.7836 78.2951 21.5113C78.3702 21.8868 78.4453 22.2641 78.4704 22.6397C78.5204 23.0152 78.5204 23.4175 78.5204 23.793C78.5204 24.1935 78.4954 24.5708 78.4704 24.9464C78.4203 25.3219 78.3702 25.6992 78.2951 26.0747C78.1449 26.8024 77.8946 27.5284 77.6174 28.2061C77.4922 28.4815 77.3671 28.7319 77.2419 28.984L77.3921 29.009C78.7207 29.2844 79.9992 29.4096 81.3797 29.3345C83.4861 29.2093 85.6927 29.0841 87.5487 28.081C88.1764 27.7305 89.0025 27.228 89.0275 26.5271C89.0526 25.8744 88.3999 25.3988 87.8491 25.0483C87.2984 24.6978 86.4705 24.6728 85.8178 24.5726C84.8647 24.4475 84.0368 24.5476 83.0087 24.4475C82.1807 24.3473 80.9273 24.1971 80.752 23.3191C80.5768 22.4912 81.605 21.7903 82.2058 21.2127C83.4092 20.0343 84.9381 19.2315 86.2684 18.1782C87.7973 16.9748 89.2779 15.8715 90.6565 14.4929C91.1071 14.0673 91.5345 13.715 91.8599 13.1893C92.0853 12.8138 92.3857 12.2363 92.3356 11.7856C92.3106 11.4852 92.1604 11.285 91.91 11.1079C91.5095 10.8326 91.0821 10.8826 90.6065 10.8826C90.1058 10.8826 89.7035 11.0078 89.2278 11.158C87.9493 11.6086 86.7459 12.2613 85.5174 12.8639C84.6144 13.3145 83.8115 13.9922 82.8602 14.2676C82.2827 14.4178 81.4315 14.8183 81.0542 14.3427C80.6787 13.8921 81.2545 13.1893 81.4798 12.6368C81.9554 11.5335 82.7082 10.5554 83.3359 9.52722C84.0386 8.37386 84.8898 7.32065 85.5424 6.14226C85.8679 5.56469 86.2702 4.98891 86.3704 4.33624C86.4455 3.8606 86.4705 3.33309 86.2452 2.90752C86.12 2.65718 85.8947 2.4569 85.6176 2.3818C85.1419 2.25663 84.6144 2.48194 84.1388 2.68221C83.4611 2.98262 82.5849 3.63529 82.0824 4.16101C80.3765 5.94199 78.9979 7.52092 77.3689 9.17674C76.8163 9.75431 76.0653 10.7557 75.3375 10.4302C74.8368 10.2049 74.937 9.37701 75.0121 8.8513C75.2124 7.2223 75.5646 5.54145 75.7399 3.8606C75.84 3.08275 75.9902 2.2316 75.9401 1.50383C75.9151 1.10328 75.865 0.725985 75.6147 0.400543C75.4395 0.175237 75.114 0.050068 74.8368 0C74.76 0.025034 74.7099 0.0250339 74.6598 0.0250339ZM66.159 16.1487C65.6333 16.1487 65.1308 16.1988 64.6301 16.2989C64.1295 16.399 63.652 16.5242 63.2014 16.6994L63.1764 16.7245L63.2014 16.7746C64.0544 19.0062 65.0575 21.2878 66.6114 23.1189C68.1653 24.9499 70.1966 26.4287 72.3531 27.557L72.4032 27.5821C72.4282 27.532 72.4533 27.507 72.4783 27.4569C72.7537 27.0814 72.979 26.654 73.181 26.2285C73.3813 25.8029 73.5315 25.3505 73.6316 24.8748C73.7318 24.3992 73.7818 23.9218 73.7818 23.4211C73.7818 22.9204 73.7318 22.443 73.6316 21.9673C73.5315 21.4917 73.3813 21.0393 73.181 20.6137C72.9808 20.1881 72.7555 19.7607 72.4783 19.3852C72.2029 19.0097 71.9007 18.6575 71.5502 18.307C71.1998 17.9815 70.8225 17.6794 70.4219 17.404C70.0214 17.1536 69.594 16.9283 69.1184 16.7263C68.6678 16.551 68.1903 16.4008 67.6897 16.3007C67.1872 16.1988 66.6865 16.1487 66.159 16.1487Z" fill="#D51100"/>
<path d="M77.2419 29.0627C77.3921 28.8123 77.4922 28.562 77.6174 28.2848C77.9178 27.6071 78.1431 26.8811 78.2951 26.1533C78.3702 25.7778 78.4453 25.4005 78.4703 25.025C78.5204 24.6495 78.5204 24.2472 78.5204 23.8717C78.5204 23.4711 78.4954 23.0938 78.4703 22.7183C78.4203 22.3428 78.3702 21.9655 78.2951 21.59C78.1449 20.8622 77.8946 20.1362 77.6174 19.4585C77.317 18.7808 76.9647 18.13 76.5392 17.5274C76.1136 16.9248 75.6361 16.374 75.1104 15.8465C74.5847 15.3458 73.9821 14.8684 73.3545 14.4678C72.7268 14.0673 72.076 13.715 71.3482 13.4146C70.6454 13.1393 69.8944 12.9139 69.1416 12.762C68.7661 12.6869 68.3638 12.6368 67.9632 12.5867C67.5627 12.5367 67.1604 12.5367 66.7598 12.5367C66.3593 12.5367 65.9569 12.5617 65.5564 12.5867C65.1559 12.6368 64.7786 12.6869 64.378 12.762C63.7253 12.8871 63.0244 13.0874 62.4218 13.3127C62.4969 14.2407 62.7472 15.6695 63.1496 16.7227H63.1746C63.6252 16.5475 64.1026 16.3972 64.6033 16.2971C65.104 16.197 65.6065 16.1469 66.1322 16.1469C66.6579 16.1469 67.1604 16.197 67.661 16.2971C68.1617 16.3972 68.6391 16.5475 69.0898 16.7227C69.5404 16.8979 69.9677 17.1232 70.3933 17.3754C70.7939 17.6257 71.1712 17.9261 71.5216 18.2784C71.8721 18.6038 72.1743 18.9561 72.4497 19.3566C72.725 19.7321 72.9504 20.1595 73.1524 20.5851C73.3545 21.0107 73.5029 21.4631 73.603 21.9387C73.7032 22.4143 73.7532 22.8918 73.7532 23.3925C73.7532 23.8931 73.7032 24.3706 73.603 24.8462C73.5029 25.3219 73.3527 25.7743 73.1524 26.1998C72.9521 26.6254 72.7268 27.0528 72.4497 27.4283C72.4246 27.4784 72.3996 27.5034 72.3495 27.5535C73.9821 28.3098 75.7381 28.7605 77.2419 29.0627Z" fill="white"/>
<path d="M18.6928 23.9468C18.2172 23.9468 17.8148 24.3473 17.8148 24.8498V34.9045C17.8148 35.4052 18.1903 35.8075 18.6928 35.8075C19.1684 35.8075 19.5708 35.407 19.5708 34.9045V24.8498C19.5708 24.3473 19.1953 23.9468 18.6928 23.9468ZM22.1278 23.9468C21.6522 23.9468 21.2498 24.3473 21.2498 24.8498V34.9045C21.2498 35.4052 21.6504 35.8075 22.1278 35.8075C22.6035 35.8075 23.0058 35.407 23.0058 34.9045V33.626L24.3594 32.3224L27.0667 35.5321C27.317 35.8576 27.9697 35.8576 28.2701 35.5822C28.5955 35.2818 28.5455 34.6792 28.2951 34.3538L25.688 31.0689L28.195 28.6621C28.5955 28.2616 28.4954 27.7341 28.1699 27.4587C27.7444 27.1082 27.2669 27.2083 26.9415 27.5088L22.979 31.1941V24.8498C22.9808 24.3473 22.6053 23.9468 22.1278 23.9468ZM1.54274 24.6245C1.11716 24.6245 0.789932 24.975 0.789932 25.4274C0.789932 25.878 1.11537 26.2302 1.54274 26.2302H4.60225V34.9814C4.60225 35.457 4.97776 35.8093 5.48023 35.8093C5.95587 35.8093 6.3582 35.4338 6.3582 34.9814V26.2302H9.51785C9.94343 26.2302 10.2707 25.8798 10.2707 25.4274C10.2707 24.9767 9.94521 24.6245 9.51785 24.6245H1.54274ZM33.1356 27.1565C30.6537 27.1565 28.6474 29.1127 28.6474 31.5446C28.6474 33.9765 30.6537 35.9327 33.1356 35.9327C35.6176 35.9327 37.6239 33.9765 37.6239 31.5446C37.6239 29.1127 35.6193 27.1565 33.1356 27.1565ZM48.2061 27.2066C47.9557 27.2066 47.6804 27.2316 47.4282 27.2817C46.9776 27.3818 46.5252 27.557 46.1247 27.7823C45.7992 27.9576 45.2467 28.3849 45.2467 28.3849C45.2467 28.3849 44.6691 27.5821 43.6177 27.3067C43.3924 27.2566 43.1421 27.1815 42.8899 27.1815C42.4643 27.1815 41.9869 27.2066 41.5864 27.3568C41.1107 27.532 40.3079 28.1596 40.3079 28.1596V28.1096C40.3079 27.6089 39.9323 27.3067 39.4299 27.3067C38.8273 27.3067 38.5519 27.7072 38.5519 28.2097V34.9045C38.5519 35.4052 38.9274 35.8075 39.4299 35.8075C39.9306 35.8075 40.3079 35.407 40.3079 34.9045V30.6165C40.3079 29.9889 40.7084 29.4382 41.2359 29.0877C41.4612 28.9375 41.8635 28.8874 42.1139 28.8624C42.4143 28.8373 42.6646 28.8373 43.092 28.9375C43.5927 29.0877 44.1452 29.6903 44.1452 30.6183V34.9063C44.1452 35.407 44.5207 35.8093 45.0232 35.8093C45.4988 35.8093 45.9012 35.4088 45.9012 34.9063V30.4181C45.9012 29.9674 46.3518 29.4149 46.704 29.1646C47.0295 28.9393 47.4318 28.8391 47.8324 28.8391C48.1578 28.8391 48.485 28.8391 48.7854 29.0644C49.0107 29.2146 49.236 29.465 49.363 29.7171C49.5132 29.9925 49.5883 30.0926 49.5883 30.4198V30.4699V34.9081C49.5883 35.4088 49.9638 35.8111 50.4663 35.8111C50.9419 35.8111 51.3443 35.3354 51.3443 34.9081V30.1445C51.3443 29.2665 51.0439 28.7909 50.7917 28.4636C50.5414 28.1382 50.1891 27.9111 49.8637 27.6858C49.5883 27.5105 49.2861 27.3854 48.9607 27.3103C48.7068 27.2566 48.4564 27.2066 48.2061 27.2066ZM12.8259 27.2316C10.2188 27.2316 8.56298 29.1878 8.56298 31.6197C8.56298 34.0516 10.394 35.9327 12.876 35.9327C14.682 35.9327 15.383 35.6323 16.1358 34.8544C16.3861 34.6041 16.6364 33.9014 16.2359 33.5258C15.9355 33.2254 15.3579 33.3256 15.1326 33.5008C14.4549 34.0015 13.779 34.3538 12.8509 34.3538C11.5474 34.3538 10.5693 33.4257 10.5192 32.3475H15.4581C16.0356 32.3475 16.2609 32.1973 16.4612 32.0471C16.6114 31.9219 16.8117 31.5213 16.8117 31.3193C16.8135 29.1628 15.3079 27.2316 12.8259 27.2316ZM33.1356 28.7104C34.6645 28.7104 35.8929 29.9889 35.8929 31.5696C35.8929 33.1503 34.6645 34.4539 33.1356 34.4539C31.6068 34.4539 30.3783 33.1754 30.3783 31.5696C30.3783 29.9907 31.6068 28.7104 33.1356 28.7104ZM12.7258 28.7354C14.2046 28.7354 14.8823 29.7886 14.8823 30.7167H10.4942C10.4942 29.8137 11.272 28.7354 12.7258 28.7354Z" fill="#171717"/>
<path d="M28.7976 38.0892C28.347 38.0892 27.9697 38.4647 27.9697 38.9171V42.5774C27.3921 41.7996 26.5159 41.1988 25.1355 41.2488C22.6535 41.349 20.8475 42.9798 20.8475 45.6119C20.8475 48.0438 22.5534 49.9249 25.0353 49.9249C26.4641 49.9249 27.3921 49.2472 27.9947 48.4461V49.0237C27.9947 49.4993 28.3702 49.8516 28.8226 49.8516C29.2732 49.8516 29.6505 49.4761 29.6505 49.0237V38.9189C29.6255 38.4647 29.25 38.0892 28.7976 38.0892ZM9.49103 38.4897C9.04041 38.4897 8.66312 38.8903 8.66312 39.3677V48.9468C8.66312 49.4475 9.03863 49.8248 9.49103 49.8248C9.94343 49.8248 10.3189 49.4242 10.3189 48.9468V39.3677C10.344 38.8921 9.96667 38.4897 9.49103 38.4897ZM61.2452 41.1988C60.6676 41.2238 60.0668 41.2989 59.5393 41.5493C59.1137 41.7495 58.7364 42.075 58.4861 42.4773C58.2608 42.8528 58.1106 43.2802 58.1356 43.7308C58.1356 44.1564 58.2858 44.6088 58.5362 44.9843C58.7865 45.3347 59.1888 45.5869 59.5643 45.7871C60.0901 46.0625 60.6927 46.1627 61.2452 46.3898C61.6958 46.54 62.1983 46.59 62.5488 46.8904C62.749 47.0657 62.9243 47.341 62.9243 47.6182C62.9243 47.9186 62.749 48.1707 62.5237 48.346C62.2734 48.5713 61.821 48.5963 61.4705 48.5963C61.07 48.5963 60.7427 48.5463 60.3672 48.4211C60.1169 48.346 59.8916 48.2208 59.6645 48.1207C59.4642 48.0205 59.289 47.8954 59.0869 47.8203C58.8866 47.7452 58.6864 47.595 58.4843 47.645C58.259 47.6951 58.0587 47.8954 57.9836 48.0956C57.9085 48.2709 57.9336 48.396 58.0087 48.5713C58.1088 48.7966 58.3091 48.9969 58.5093 49.1489C58.8097 49.3742 59.2621 49.5744 59.6377 49.6746C60.1902 49.8498 60.6909 49.9499 61.2667 49.9249C61.8693 49.9249 62.4701 49.8748 63.0476 49.6746C63.5734 49.4743 63.9256 49.1739 64.226 48.7215C64.5014 48.2959 64.6015 47.8936 64.5765 47.3679C64.5515 47.0174 64.5515 46.6151 64.3762 46.3147C64.176 45.9892 63.8505 45.712 63.5233 45.4867C63.0727 45.1863 62.6203 45.0862 62.1196 44.8841C61.7191 44.7339 61.3167 44.5837 60.9412 44.4085C60.6909 44.3084 60.4155 44.2333 60.2134 44.058C60.0632 43.9078 59.9381 43.7075 59.9381 43.4804C59.9381 43.2301 60.1133 43.0048 60.2885 42.8528C60.5389 42.6525 60.8911 42.6025 61.1916 42.6025C61.4669 42.6025 61.7942 42.6776 62.0695 42.7777C62.3199 42.8528 62.5201 43.003 62.7472 43.1031C63.0226 43.2033 63.2729 43.3785 63.5751 43.3535C63.8255 43.3535 64.1527 43.3285 64.3029 43.1031C64.4281 42.9029 64.378 42.6025 64.2779 42.3754C64.1527 42.125 63.8773 41.9248 63.6252 41.7728C63.2998 41.5725 62.9475 41.4974 62.572 41.3722C62.1732 41.2488 61.7208 41.1988 61.2452 41.1988ZM35.1169 41.2238C32.6349 41.2238 30.6286 43.18 30.6286 45.6119C30.6286 48.0438 32.6349 50 35.1169 50C37.5988 50 39.6051 48.0438 39.6051 45.6119C39.6051 43.1782 37.5988 41.2238 35.1169 41.2238ZM53.6223 41.2238C51.0152 41.2238 49.3344 43.18 49.3344 45.6119C49.3344 48.0438 51.1654 49.9249 53.6474 49.9249C55.4534 49.9249 56.1544 49.6245 56.9072 48.8467C57.1575 48.5963 57.4078 47.9186 57.0073 47.5181C56.7069 47.2177 56.1293 47.3178 55.904 47.493C55.2263 47.9937 54.5504 48.346 53.6223 48.346C52.3188 48.346 51.3407 47.4179 51.2906 46.3397H56.2295C56.807 46.3397 57.0323 46.1895 57.2326 46.0393C57.3828 45.9141 57.5831 45.5136 57.5831 45.3115C57.6099 43.1782 56.0793 41.2238 53.6223 41.2238ZM72.3782 41.2739C71.8006 41.2739 71.1998 41.3239 70.6472 41.4992C70.3468 41.5993 70.0196 41.7245 69.7943 41.9748C69.6191 42.1501 69.4689 42.4254 69.4939 42.6525C69.5189 42.8778 69.6441 43.0531 69.9445 43.1532C70.4702 43.3285 70.8225 43.003 71.5485 42.8027C72.3513 42.5774 73.4046 42.6025 74.0554 43.1031C74.5061 43.4536 74.6831 44.5569 74.7081 44.7071C74.5329 44.657 74.3076 44.5819 74.1305 44.5569C73.705 44.4818 73.2776 44.4818 72.852 44.4818C72.3013 44.4818 71.7237 44.4818 71.198 44.607C70.6723 44.7321 70.1197 44.8323 69.6942 45.1845C69.3187 45.51 69.0415 45.9874 68.8913 46.438C68.716 46.9888 68.7411 47.7416 68.9664 48.2691C69.2167 48.8717 69.6942 49.1971 70.2449 49.4975C70.7706 49.7979 71.4233 49.9231 72.0509 49.9231C72.8037 49.9231 73.5798 49.6978 74.1824 49.2955C74.4077 49.1453 74.7081 48.6929 74.7081 48.6929V49.0684C74.6831 49.519 75.0836 49.8963 75.536 49.8963C75.9866 49.8963 76.3639 49.5208 76.3639 49.0684V46.8368C76.3639 46.8368 76.3639 44.6803 76.1887 43.577C76.1136 43.0513 75.713 42.5238 75.3357 42.1733C75.0103 41.8479 74.658 41.6977 74.2825 41.5707C73.6817 41.349 73.0308 41.2739 72.3782 41.2739ZM16.1858 41.2989C15.8354 41.2989 15.408 41.349 15.1576 41.4241C14.6319 41.5993 13.779 42.2019 13.779 42.2019V42.1519C13.779 41.8515 13.6789 41.349 12.9511 41.349C12.3485 41.349 12.1732 41.8246 12.1732 42.3271V49.0219C12.1732 49.5226 12.5487 49.9249 13.0512 49.9249C13.5269 49.9249 13.9292 49.5244 13.9292 49.0219V44.7339C13.9292 44.1063 14.3297 43.5555 14.8572 43.2051C15.0825 43.0549 15.4849 43.0048 15.7352 42.9547C16.0356 42.9297 16.286 42.9297 16.7133 43.0298C17.214 43.18 17.9418 43.7826 17.9418 44.7107V48.9986C17.9418 49.4993 18.3173 49.9017 18.8198 49.9017C19.2954 49.9017 19.6977 49.5011 19.6977 48.9986V44.5605C19.6977 43.5824 19.4224 42.9315 19.0451 42.429C18.6445 41.9283 17.9418 41.551 17.3141 41.3758H17.2641C17.0137 41.3257 16.7634 41.3007 16.5113 41.3007C16.4111 41.2989 16.286 41.2989 16.1858 41.2989ZM44.8211 41.2989C44.4706 41.2989 44.0433 41.349 43.7929 41.4241C43.2672 41.5993 42.4143 42.2019 42.4143 42.2019V42.1519C42.4143 41.8515 42.3141 41.349 41.5864 41.349C40.9838 41.349 40.8085 41.8246 40.8085 42.3271V49.0219C40.8085 49.5226 41.184 49.9249 41.6865 49.9249C42.1622 49.9249 42.5645 49.5244 42.5645 49.0219V44.7339C42.5645 44.1063 42.965 43.5555 43.4925 43.2051C43.7178 43.0549 44.1202 43.0048 44.3705 42.9547C44.6709 42.9297 44.9213 42.9297 45.3486 43.0298C45.8493 43.18 46.5771 43.7826 46.5771 44.7107V48.9986C46.5771 49.4993 46.9526 49.9017 47.4551 49.9017C47.9307 49.9017 48.333 49.5011 48.333 48.9986V44.5605C48.333 43.5824 48.0577 42.9315 47.6804 42.429C47.2798 41.9283 46.5771 41.551 45.9494 41.3758H45.8994C45.649 41.3257 45.3987 41.3007 45.1466 41.3007C45.0715 41.2989 44.9463 41.2989 44.8211 41.2989ZM66.7616 41.349C66.311 41.349 65.9337 41.7245 65.9337 42.1769V49.0219C65.9337 49.4725 66.3092 49.8498 66.7616 49.8498C67.2122 49.8498 67.5895 49.4743 67.5895 49.0219V42.1769C67.5895 41.7245 67.2122 41.349 66.7616 41.349ZM53.4972 42.7527C54.976 42.7527 55.6537 43.8059 55.6537 44.7339H51.2656C51.2906 43.8309 52.0685 42.7527 53.4972 42.7527ZM35.0918 42.7777C36.6207 42.7777 37.8492 44.0562 37.8492 45.6369C37.8492 47.2159 36.6207 48.5212 35.0918 48.5212C33.563 48.5212 32.3345 47.2427 32.3345 45.6369C32.3345 44.0562 33.563 42.7777 35.0918 42.7777ZM25.2124 42.8027C26.7412 42.8027 27.9697 44.0813 27.9697 45.662C27.9697 47.2427 26.7913 48.3692 25.2624 48.3692C23.7336 48.3692 22.5552 47.2409 22.5552 45.662C22.5552 44.0813 23.6835 42.8027 25.2124 42.8027ZM72.4533 45.7371C72.9289 45.712 73.4314 45.7621 73.907 45.8372C74.1323 45.8622 74.4846 45.9374 74.76 45.9874C74.76 46.0375 74.81 46.7402 74.6849 47.0657C74.5096 47.5163 74.2343 48.0187 73.8069 48.2691C73.3563 48.5445 72.7286 48.5945 72.2029 48.5945C71.7773 48.5945 71.3249 48.4944 70.9995 48.2441C70.6741 48.0187 70.4988 47.6915 70.4738 47.316C70.4488 46.8654 70.5489 46.438 70.8994 46.1376C71.2999 45.7871 71.9275 45.7621 72.4533 45.7371Z" fill="#171717"/>
</g>
<defs>
<clipPath id="clip0_553_70">
<rect width="91.5512" height="50" fill="white" transform="translate(0.789932)"/>
</clipPath>
</defs>
</svg>
