<svg width="47" height="50" viewBox="0 0 47 50" fill="none" xmlns="http://www.w3.org/2000/svg">
<g clip-path="url(#clip0_519_6710)">
<path d="M6.7686 43.9592C6.69926 43.7228 6.47662 43.1955 6.42193 42.8068C6.29694 41.9456 6.74126 41.3772 7.15823 41.2376C7.62989 41.1126 7.81055 41.3489 7.99121 41.8899C8.22753 42.7229 8.25487 43.8058 8.17187 45.3614C8.07421 47.4854 7.00589 50.0546 4.36732 49.999C2.09006 49.9433 1.07643 48.4717 0.96608 46.2227C0.910418 45.1534 0.993423 44.0988 1.43774 42.5989C1.67406 41.7932 1.88206 41.5022 2.60371 41.3489C3.17303 41.2376 3.11737 41.8352 2.99237 42.5432C2.71504 44.0978 2.5754 44.8478 2.68672 46.6114C2.78437 48.4717 3.64469 49.208 4.57532 49.208C5.97761 49.2353 6.60259 48.0693 6.85258 46.3761C7.0596 45.0275 6.89359 44.3752 6.7686 43.9592ZM36.62 45.8058C37.162 45.8058 37.328 46.4444 37.1893 46.8467C37.0643 47.2354 36.5927 47.6797 35.8701 47.8047C35.7167 47.4024 35.6337 45.8058 36.62 45.8058ZM26.4837 46.6798C26.4837 46.2354 26.2474 45.8741 25.97 45.8741C25.7337 45.8741 25.1927 46.1378 25.1927 46.9571C25.1927 47.6094 25.429 47.9151 25.5257 48.0537C26.2757 47.8184 26.4837 47.1934 26.4837 46.6798ZM18.4176 41.3899C18.3756 40.9729 18.0563 40.6956 17.6119 40.6956C17.1256 40.6956 16.654 41.2093 16.7096 41.8616C16.737 42.2922 16.987 42.6389 17.4869 42.6389C18.0563 42.6399 18.4732 41.9875 18.4176 41.3899ZM22.6381 42.9172C22.5961 42.1955 22.4165 41.8616 22.0268 41.8899C21.5132 41.9172 21.2768 43.5422 21.3745 45.2501C21.4438 46.3604 21.6108 46.5411 21.7632 46.5274C22.0551 46.5137 22.7358 44.5138 22.6381 42.9172ZM39.8269 45.6388C39.5076 46.9717 38.536 48.9297 37.078 48.9297C36.745 48.9297 36.1474 48.8047 36.1474 48.458C36.1474 48.0967 38.4246 48.041 38.4246 46.3057C38.4246 45.6534 37.828 44.7511 36.953 44.7511C35.787 44.7511 34.6484 46.0284 34.6484 47.792C34.6484 49.375 35.6337 49.8886 36.62 49.8886C38.328 49.8886 39.3689 48.4863 39.9109 47.3204C40.1746 48.0977 40.3279 49.8886 40.9802 49.8886C41.2439 49.8886 41.4245 49.7636 41.7302 49.0556C42.5075 47.3204 43.2575 45.3204 44.2984 45.3204C44.6871 45.3204 44.4508 46.0284 45.3814 46.0284C45.8257 46.0284 46.1314 45.6671 46.1314 45.2511C46.1314 44.6544 45.5894 44.1955 44.7564 44.1955C42.3132 44.1955 41.7995 47.8467 41.4099 47.8467C40.7576 47.8467 40.9656 44.9171 40.5076 44.9171C40.0906 44.9171 39.8826 45.4161 39.8269 45.6388ZM19.0972 48.749C19.4859 48.749 20.1529 48.624 20.6802 47.7774C20.3745 47.1114 20.1665 45.7638 20.1382 45.2648C19.9859 42.7522 20.9575 40.3909 22.0122 40.3216C22.7895 40.2796 23.4145 41.0159 23.4838 42.1955C23.6781 45.3331 22.6371 46.6387 22.1088 47.7627C22.1919 48.1934 22.9418 48.9433 23.6361 48.9433C23.8998 48.9433 24.2054 48.8183 24.2885 48.707C24.2328 48.5264 24.1771 48.29 24.1771 47.957C24.1771 46.1378 25.3431 44.6105 26.3567 44.6105C27.1624 44.6105 27.6204 45.6798 27.6204 46.3741C27.6204 47.2071 26.9261 47.874 25.8851 48.5264C26.0657 48.707 26.3987 48.832 26.6907 48.832C28.176 48.832 28.9396 47.0411 29.5226 45.4025C29.6203 45.0968 29.8146 44.6525 30.175 44.6525C30.7999 44.6525 31.0636 48.748 32.0909 48.748C32.5352 48.748 32.8965 47.8457 32.8965 47.1377C32.8965 46.6241 32.7159 46.5684 32.7159 45.8185C32.7159 44.9855 33.1602 44.2912 33.7568 44.2912C34.1182 44.2912 34.2568 44.6525 34.2568 45.0968C34.2568 46.7628 33.0625 49.8456 31.2999 49.8456C29.9806 49.8456 30.0783 47.5684 29.6056 47.5684C29.0783 47.5684 28.3557 49.873 25.8011 49.873C25.3841 49.873 24.9398 49.665 24.5795 49.248C23.9545 49.665 23.4408 49.8447 22.8442 49.8447C21.8862 49.8447 21.4692 48.8594 21.0806 48.8594C20.6089 48.8594 20.0952 49.873 18.5396 49.873C17.2897 49.873 17.0817 48.2207 16.651 48.2207C16.2624 48.2207 15.6657 49.873 15.0124 49.873C13.9158 49.873 13.6931 46.9991 12.7352 46.9991C11.9852 46.9991 9.61127 49.915 8.95895 49.8593C8.69528 49.832 8.58396 49.6377 8.61228 49.373C8.65427 49.0117 8.95895 48.0537 9.08394 47.5957C9.29194 46.8047 9.48627 45.9434 9.59759 45.6661C9.70892 45.3888 9.98625 45.1945 10.2226 45.2081C10.3339 45.2218 10.3749 45.4298 10.4032 45.6105C10.5282 46.2491 10.7226 46.9014 10.9169 46.9014C11.2782 46.9014 12.4862 44.5968 13.1805 44.5968C14.0418 44.5968 14.1384 48.2207 15.3044 48.2207C15.6931 48.2207 15.9851 47.749 16.235 47.1797C16.2624 46.2218 16.527 44.8468 17.3043 44.8468C17.8463 44.8468 18.11 46.0684 17.7213 47.1241C17.7233 48.4434 18.5562 48.749 19.0972 48.749Z" fill="#1766A6"/>
<path d="M37.1472 8.09528C36.9528 8.09528 36.6755 8.09528 36.5222 7.78963C36.3972 7.53964 36.4392 7.13731 36.2029 6.97032C36.4392 7.03966 36.6892 7.03966 36.8835 7.03966C37.5085 7.03966 38.0915 6.60901 38.5495 6.60901C38.8551 6.60901 38.9518 6.80334 38.9518 6.99767C38.9518 7.60995 37.7302 8.09528 37.1472 8.09528ZM37.4528 9.65089C38.8825 9.65089 40.1881 8.51226 40.1881 7.49862C40.1881 7.02696 39.9664 6.65197 39.3971 6.58264C39.4947 6.70764 39.5358 6.80431 39.5358 7.02696C39.5358 7.7906 38.3835 8.62358 37.1335 8.62358C36.6755 8.62358 36.5368 8.94291 36.5368 9.10989C36.5495 9.49757 36.9109 9.65089 37.4528 9.65089ZM37.3415 10.2339C37.5222 11.5385 39.4938 13.3021 40.0348 13.2611C40.3961 13.2338 40.5347 11.5532 40.5347 10.2339C40.5347 9.4839 40.5767 8.88724 40.1734 8.74858C39.5494 10.0259 37.8825 10.2895 37.3415 10.2339Z" fill="#1766A6"/>
<path d="M6.37985 18.8839C6.85151 18.8839 6.75484 16.0237 7.50481 16.0237C7.68546 16.0237 7.74113 16.2044 7.74113 16.426C7.74113 17.0784 7.4218 18.0227 7.4218 18.55C7.4218 18.8136 7.49114 18.8966 7.61613 18.8966C7.94913 18.8966 8.51844 15.7454 9.08776 15.7454C9.26841 15.7454 9.35142 15.9261 9.35142 16.1067C9.35142 16.7727 8.51844 18.6613 8.51844 19.2033C8.51844 19.2863 8.54578 19.3556 8.61609 19.3556C8.96276 19.3556 9.6434 17.8703 9.86605 17.134C9.99104 16.7454 10.158 16.5374 10.3104 16.5374C10.449 16.5374 10.574 16.6897 10.574 17.009C10.574 17.7453 9.87972 19.4943 9.28306 20.6749C8.8114 21.5772 8.08877 22.8828 8.08877 23.6181C8.08877 23.9931 8.1581 24.3681 8.70007 24.8398C7.82511 24.7841 7.46477 24.7011 7.1308 24.0205C5.65917 26.9501 9.8387 26.6581 8.40809 29.2547C8.14443 28.783 6.08982 28.3104 6.08982 25.5888C6.08982 23.2422 8.1581 21.8682 8.1581 20.8819C8.1581 20.6876 8.08877 20.5206 7.90811 20.3683C7.45012 19.9796 7.43645 19.6603 7.08881 19.6603C6.82514 19.6603 6.50582 20.2716 6.83882 20.7989C6.95014 20.9796 7.04682 21.0909 7.04682 21.2569C7.04682 21.6456 6.43551 22.6729 6.01951 22.6729C5.58886 22.6729 5.26954 21.6172 5.26954 19.9103C5.26954 18.3967 5.61621 16.8694 6.03318 16.8694C6.15818 16.8694 6.20017 16.9524 6.20017 17.0637C6.20017 17.2444 6.14451 17.6057 6.14451 18.2023C6.10154 18.8283 6.25485 18.8839 6.37985 18.8839Z" fill="#1766A6"/>
<path d="M9.89178 22.91C10.4748 22.91 10.9474 22.4794 10.9474 21.5351V20.1328C10.9474 19.5908 10.9894 18.9942 11.3497 18.5635C11.3077 18.7442 11.3077 18.9385 11.3077 19.1192C11.3077 20.2998 11.9737 21.1181 11.9737 22.2567C11.9737 22.6874 11.8487 22.9227 11.5157 22.9227C11.1964 22.9227 11.2238 22.6307 11.1544 22.6307C11.0988 22.6307 11.0158 22.8114 11.0158 23.0057C11.0158 23.2977 11.2238 23.742 11.7931 23.742C12.2931 23.742 12.6817 23.284 12.6817 22.7841C12.6817 21.5488 11.7237 20.1738 11.7237 18.8545C11.7237 18.2715 11.8761 17.8965 12.0011 17.5909C12.0011 20.3261 14.3193 22.3251 14.3193 23.4637C14.3193 23.7274 14.125 23.9354 13.833 23.9354C13.5137 23.9354 13.3614 23.6854 13.3614 23.4911C13.3614 23.3934 13.3477 23.3661 13.3057 23.3661C13.2227 23.3661 12.9727 23.6434 12.9727 24.0047C12.9727 24.4627 13.3477 25.0047 14.0283 25.0047C14.8057 25.0047 15.2363 24.3387 15.2363 23.7547C15.2363 22.3104 12.4181 20.1172 12.4181 17.7842C12.4181 17.3819 12.4874 16.7433 12.7794 16.2433C10.9601 17.4093 10.4054 18.9649 10.4054 20.3252C10.4054 21.5058 10.3634 22.1024 9.75311 22.1024C9.43379 22.1024 9.35078 21.8105 9.23946 21.8105C9.15645 21.8105 9.11446 22.0605 9.11446 22.1298C9.14181 22.6327 9.51679 22.91 9.89178 22.91Z" fill="#1766A6"/>
<path d="M30.7321 7.42927C30.9128 7.31795 31.6764 7.4986 32.69 6.99862C32.815 6.92929 32.94 6.90097 33.0514 6.90097C33.5377 6.90097 33.4127 7.45661 33.857 7.45661C34.2037 7.45661 34.648 7.16463 34.898 7.16463C35.3149 7.16463 35.8979 8.4556 35.8979 9.06691C35.8979 9.77489 34.8423 10.1919 33.5933 10.1919C31.7604 10.1919 30.6638 8.59524 30.6638 7.56794C30.6491 7.48493 30.6901 7.45661 30.7321 7.42927ZM33.731 9.17823C34.3423 9.17823 34.7866 8.9009 34.7866 8.73391C34.7866 8.67825 34.7036 8.63626 34.523 8.63626C34.3423 8.63626 33.981 8.62259 33.315 8.51126C32.732 8.41361 32.3014 8.19194 32.1344 8.19194C32.0787 8.19194 32.0514 8.21928 32.0514 8.26127C32.0514 8.62356 32.7037 9.17823 33.731 9.17823Z" fill="#1766A6"/>
<path d="M10.1832 28.1032C9.72519 28.2145 9.00256 28.9225 9.00256 30.0611C9.00256 31.4078 10.4468 33.4907 12.8208 33.4907C14.8344 33.4907 15.3197 32.1021 15.3197 31.1578C15.3197 29.0748 14.0424 27.6169 12.3765 27.6169C11.4741 27.6169 10.6548 28.2829 10.6548 29.2555C10.6548 30.1578 11.3491 31.5328 12.9731 31.5328C13.7368 31.5328 14.1947 30.9771 14.1947 30.3521C14.1947 29.7272 13.6254 28.8805 12.8061 28.8805C12.5561 28.8805 12.3755 29.0475 12.3755 29.3112C12.3755 29.6442 12.8335 29.9771 13.3891 29.9771C13.5278 29.9771 13.6391 29.9498 13.6948 29.9215C13.7221 29.9635 13.7368 30.0328 13.7368 30.0885C13.7368 30.4078 13.4311 30.6021 12.9731 30.6021C12.2651 30.6021 11.5982 30.0748 11.5982 29.2555C11.5982 28.7555 12.0288 28.4088 12.6391 28.4088C13.8608 28.4088 14.5971 29.4918 14.5971 30.5885C14.5971 31.5601 14.0551 32.1294 12.9585 32.1294C10.7671 32.0874 9.69784 30.1158 10.1832 28.1032Z" fill="#1766A6"/>
<path d="M25.8733 36.1557C26.5393 36.1557 26.4983 36.1001 26.7063 36.1001C26.9143 36.1001 26.928 36.2251 26.928 36.3081C26.928 36.6137 26.2474 36.9887 25.054 36.9887C24.3461 36.9887 23.9291 36.6137 23.8041 36.2114C23.1098 36.6557 22.0688 37.0444 21.0415 37.0444C18.2232 37.0444 17.5006 35.8227 16.6266 35.4194C15.946 35.1138 14.9187 35.7114 13.4754 34.1001C13.6697 34.1421 13.9334 34.1558 14.1414 34.1558C15.405 34.1558 16.0856 33.5308 16.0856 32.5455C16.0856 32.4205 16.072 32.2818 16.0583 32.1568C16.4469 32.3092 17.3219 32.9625 17.5299 34.1421C17.5573 34.2808 18.1266 34.4058 18.4742 34.4058C18.9742 34.4058 19.5992 34.1978 19.6958 33.3922C21.3481 33.2535 22.4584 32.2818 22.6948 31.0456C23.2914 31.2399 23.9584 31.7819 24.1244 32.0455C24.3607 31.9625 24.638 31.9205 24.9437 31.9205C25.388 31.9205 25.8743 32.0035 26.471 32.1842C26.4983 32.0035 26.5266 31.7819 26.804 31.7819C27.221 31.7819 27.1096 32.2399 27.2483 32.4898C27.3176 32.6285 27.6653 32.7115 27.6653 32.9898C27.6653 33.2535 27.4436 33.3511 27.304 33.3511C27.2483 33.3511 27.179 33.3375 27.137 33.3238C26.8596 33.4215 26.845 35.4067 25.6927 35.4067C24.846 35.4067 24.0541 34.6987 23.7074 33.8238C23.6098 33.5601 23.4018 33.3931 23.2074 33.3931C22.9858 33.3931 22.8608 33.4351 22.5961 33.7261C21.8598 34.5318 20.6108 35.2397 19.0836 35.2397C18.6119 35.2397 18.2506 35.1978 18.1529 35.1978C18.0973 35.1978 18.0973 35.2114 18.0973 35.2251C18.0973 35.3227 18.5689 35.6968 19.5826 35.6968C21.9985 35.6968 22.5951 34.3365 22.9838 34.3365C23.0395 34.3365 23.2055 34.3365 23.3031 34.5581C23.8734 35.8637 25.1097 36.1557 25.8733 36.1557ZM24.8177 33.4068C24.8177 33.7125 25.0677 33.9624 25.3734 33.9624C25.679 33.9624 25.929 33.7125 25.929 33.4068C25.929 33.1012 25.679 32.8512 25.3734 32.8512C25.0677 32.8648 24.8177 33.1148 24.8177 33.4068Z" fill="#1766A6"/>
<path d="M35.7026 26.5477C35.5083 26.5477 35.3003 26.7 35.3003 27.075C35.3003 27.492 35.6196 27.741 35.8003 27.825C35.8979 27.8807 36.0503 27.9363 36.2026 27.9363C36.6049 27.9363 36.9243 27.825 36.9243 27.492C36.9106 27.075 36.3003 26.5477 35.7026 26.5477ZM34.2173 27.3944C33.9254 27.3944 32.3287 29.5329 31.3014 29.5329C31.0514 29.5329 30.8434 29.0613 30.8434 28.7136C30.8434 28.5193 30.9684 28.3806 31.4128 28.283C33.773 27.741 33.2594 25.9784 35.273 25.9784C36.3833 25.9784 37.6332 26.742 37.6332 28.4363C37.6332 30.2556 35.0503 32.5045 34.6617 32.5045C34.3423 32.5045 33.9957 32.0465 33.9957 31.7545C33.9957 31.6569 34.0377 31.5329 34.315 31.4215C35.6343 30.8942 36.3833 29.6863 36.3833 29.075C36.3833 28.9363 36.3139 28.7976 36.1333 28.7976C35.897 28.7976 34.898 31.0749 33.7867 31.0749C33.0094 31.0749 32.2321 30.3806 32.2321 30.0476C32.2321 29.4919 34.4673 28.4783 34.4673 27.7147C34.4673 27.409 34.3287 27.3944 34.2173 27.3944Z" fill="#1766A6"/>
<path d="M7.00506 9.37249C7.00506 9.37249 6.60273 9.67814 6.11642 9.67814C5.51976 9.67814 5.06079 9.23382 5.06079 8.62251C5.06079 8.19187 5.28247 7.76122 5.78245 7.53955C5.76878 7.62255 5.76878 7.69188 5.76878 7.77587C5.76878 8.53951 6.19942 9.13714 7.00506 9.37249ZM9.94831 12.0111C9.64265 12.3724 9.32333 12.969 9.32333 13.594C9.32333 14.3303 9.78132 14.9543 10.4756 14.9543C11.1563 14.9543 11.4609 14.3713 11.4609 13.7883C11.4756 12.8577 10.628 12.2191 9.94831 12.0111ZM5.38012 12.5521C5.35278 12.594 5.33813 12.6497 5.33813 12.7044C5.33813 12.8294 5.47679 12.9681 5.60179 12.9681C5.71311 12.9681 5.78245 12.9407 5.83811 12.9407C6.1711 12.9407 6.54609 13.177 7.07341 13.177C7.39274 13.177 7.76772 13.0794 8.22571 12.844C9.21103 12.3441 9.60066 11.1224 9.60066 10.9144C9.60066 10.6508 9.39266 10.6927 9.21201 10.4428C9.03135 10.2064 9.10068 9.98477 8.99033 9.87344C8.921 9.80411 8.72667 9.80411 8.47668 9.77579C8.39368 9.76212 8.28235 9.76212 8.17103 9.76212C7.71304 9.76212 7.18572 9.81778 6.57441 10.2064C5.39379 10.9838 5.57445 12.2474 5.38012 12.5521ZM8.61535 10.8588C8.713 10.9838 8.97666 11.1507 8.97666 11.2474C8.97666 11.4417 8.86534 11.6917 8.64367 11.6917C8.15736 11.6917 7.78237 10.9554 7.78237 10.5531C7.78237 10.2894 7.93471 10.2611 8.14369 10.2611C8.24134 10.2611 8.28235 10.2748 8.35169 10.3168C8.46203 10.3724 8.46203 10.6508 8.61535 10.8588ZM7.33805 12.5384C6.88006 12.5384 6.39375 11.9691 6.39375 11.4691C6.39375 11.1918 6.60175 10.8441 6.75507 10.8441C6.81073 10.8441 6.83807 10.8861 6.85272 10.9828C6.93572 11.6634 7.38004 12.0384 7.78335 12.2327C7.82534 12.2601 7.85268 12.2747 7.85268 12.3021C7.85171 12.3997 7.58804 12.5384 7.33805 12.5384ZM8.5177 9.06781C8.58703 8.84614 8.64269 8.56783 8.64269 8.27682C8.64269 7.61083 8.33704 6.61087 7.40739 6.61087C6.86541 6.61087 6.49141 7.04152 6.49141 7.5415C6.47676 8.62349 7.55972 9.06781 8.5177 9.06781ZM4.94947 14.5657C4.94947 15.6066 5.26879 16.1066 5.82444 16.1066C6.26876 16.1066 6.85174 15.7873 7.55972 15.1906C7.01775 15.3156 6.61542 15.3986 6.24044 15.3986C5.7551 15.3986 5.36645 15.2043 4.94947 14.5657ZM5.43578 13.344C5.42211 13.4134 5.42211 13.4827 5.42211 13.552C5.42211 14.2043 5.76878 14.552 6.21309 14.552C6.55976 14.552 6.9494 14.344 7.30973 13.886C7.1574 13.9133 6.97674 13.928 6.80975 13.928C6.31075 13.927 5.76878 13.802 5.43578 13.344ZM8.80968 13.1497C8.49035 13.2327 7.83803 13.6214 7.83803 14.302C7.83803 14.802 8.22669 15.1076 8.69933 15.1076C8.94932 15.1076 9.12998 15.052 9.2413 14.969C8.85264 14.594 8.71398 14.1916 8.71398 13.7747C8.71202 13.4964 8.75402 13.3157 8.80968 13.1497ZM9.29599 9.38713C9.29599 9.69279 9.54598 9.94278 9.85163 9.94278C10.1573 9.94278 10.4073 9.69279 10.4073 9.38713C10.4073 9.08148 10.1573 8.83149 9.85163 8.83149C9.54598 8.83149 9.29599 9.08148 9.29599 9.38713ZM10.0176 10.6224C10.0176 10.9281 10.2676 11.1781 10.5733 11.1781C10.8789 11.1781 11.1289 10.9281 11.1289 10.6224C11.1289 10.3168 10.8789 10.0668 10.5733 10.0668C10.2676 10.0668 10.0176 10.3168 10.0176 10.6224Z" fill="#1766A6"/>
<path d="M31.469 17.3704C31.469 17.093 31.719 16.8567 31.9827 16.8567C32.2883 16.8567 32.5246 17.093 32.5246 17.3704C32.5246 17.6897 32.2883 17.9124 31.9827 17.9124C31.719 17.9124 31.469 17.6897 31.469 17.3704ZM26.6372 13.1362C26.6372 13.4418 26.8871 13.6918 27.1928 13.6918C27.4984 13.6918 27.7484 13.4418 27.7484 13.1362C27.7484 12.8305 27.4984 12.5805 27.1928 12.5805C26.8871 12.5805 26.6372 12.8305 26.6372 13.1362ZM26.1792 15.0795C26.1792 15.5101 26.5405 15.8568 26.9565 15.8568C27.3871 15.8568 27.7475 15.4955 27.7475 15.0795C27.7475 14.6488 27.3861 14.3021 26.9565 14.3021C26.5258 14.2885 26.1792 14.6488 26.1792 15.0795ZM27.9144 14.1908C27.9144 14.6625 28.2894 15.0238 28.7474 15.0238C29.2191 15.0238 29.5941 14.6488 29.5941 14.1908C29.5941 13.7192 29.2191 13.3578 28.7474 13.3578C28.2758 13.3578 27.9144 13.7328 27.9144 14.1908ZM27.9838 12.4135C27.9838 12.7055 28.2201 12.9409 28.4974 12.9409C28.7894 12.9409 29.0248 12.7045 29.0248 12.4135C29.0248 12.1225 28.7884 11.8862 28.4974 11.8862C28.2055 11.8862 27.9838 12.1225 27.9838 12.4135ZM30.469 11.0952C30.469 11.3872 30.7054 11.6225 30.9964 11.6225C31.2883 11.6225 31.5237 11.3862 31.5237 11.0952C31.5237 10.8042 31.2874 10.5679 30.9964 10.5679C30.7054 10.5679 30.469 10.8032 30.469 11.0952ZM29.4417 12.7748C29.4417 13.2612 29.8441 13.6498 30.3167 13.6498C30.803 13.6498 31.1917 13.2475 31.1917 12.7748C31.1917 12.2885 30.7893 11.8999 30.3167 11.8999C29.8304 11.8999 29.4417 12.3022 29.4417 12.7748ZM28.0258 15.9954C28.0258 16.3011 28.2758 16.5511 28.5677 16.5511C28.8734 16.5511 29.1234 16.3011 29.1234 15.9954C29.1234 15.6898 28.8734 15.4398 28.5677 15.4398C28.2611 15.4544 28.0258 15.6908 28.0258 15.9954ZM29.8167 14.8988C29.8167 15.2044 30.0667 15.4544 30.3724 15.4544C30.678 15.4544 30.928 15.2044 30.928 14.8988C30.928 14.5931 30.678 14.3432 30.3724 14.3432C30.0667 14.3441 29.8167 14.5931 29.8167 14.8988ZM29.3167 16.8431C29.3167 17.3704 29.7474 17.7874 30.261 17.7874C30.7884 17.7874 31.2053 17.3567 31.2053 16.8431C31.2053 16.3294 30.7747 15.8988 30.261 15.8988C29.7327 15.8851 29.3167 16.3148 29.3167 16.8431ZM31.2883 15.6624C31.2883 16.0238 31.5803 16.3148 31.927 16.3148C32.2883 16.3148 32.5793 16.0228 32.5793 15.6624C32.5793 15.3011 32.2873 15.0101 31.927 15.0101C31.5794 15.0238 31.2883 15.3158 31.2883 15.6624ZM31.2464 13.9272C31.2464 14.2465 31.51 14.5101 31.8157 14.5101C32.135 14.5101 32.3987 14.2465 32.3987 13.9272C32.3987 13.6078 32.135 13.3442 31.8157 13.3442C31.51 13.3578 31.2464 13.6215 31.2464 13.9272Z" fill="#1766A6"/>
<path d="M32.6479 31.976C32.2866 32.2534 31.4536 32.8647 30.065 32.8647C29.315 32.8647 28.9957 32.6283 28.8843 32.6283C28.7457 32.6283 28.5924 32.767 28.44 32.9477C28.107 33.3363 27.69 34.0443 27.69 34.8363C27.69 35.3919 28.1207 35.9329 28.9117 35.9329C31.4799 35.9329 33.4105 34.3226 33.4105 33.017C33.4115 32.2817 32.9672 31.976 32.6479 31.976ZM31.9399 31.8237C32.0512 31.726 32.0786 31.5737 32.0786 31.4213V31.1157C32.0786 30.7134 31.4819 30.4771 30.6489 30.4771C29.649 30.4771 29.108 30.935 29.108 31.1294V31.768C29.108 32.0317 29.7193 32.2953 30.4546 32.2953C31.0513 32.2817 31.5786 32.1293 31.9399 31.8237ZM31.8286 33.1986C31.8979 33.1986 31.9809 33.2406 31.9809 33.4906C31.9809 33.7963 31.8422 34.1849 31.3559 34.5042C31.0093 34.7406 30.5366 34.9349 29.856 34.9486C29.9673 34.6156 30.0503 34.2679 30.0503 33.9486C30.0503 33.8373 30.0366 33.7543 30.023 33.6293H30.2036C31.2739 33.6146 31.7456 33.1986 31.8286 33.1986Z" fill="#1766A6"/>
<path d="M26.5679 16.3852C26.7203 17.5512 28.2895 16.9682 28.2895 18.3842C28.2895 18.5922 28.2339 18.8978 28.2339 19.1615C28.2339 19.4671 28.2612 19.7308 28.4975 19.7308C28.7339 19.7308 28.7895 19.5638 28.7895 19.3421C28.7895 19.1205 28.7339 18.8422 28.7339 18.6898C28.7339 18.2035 29.0805 18.0932 29.2895 18.0932C29.8168 18.0932 30.2055 18.6351 30.9974 18.6351C30.8168 19.5101 28.9985 19.2875 28.9985 20.2454C28.9985 20.7317 29.4848 20.8421 29.8041 20.8421C30.0961 20.8421 30.1928 20.8001 30.1928 20.5501C30.1928 20.4114 30.1654 20.2581 30.1654 20.1614C30.1654 20.1058 30.2074 20.0501 30.2768 20.0501C30.5824 20.0501 32.0677 21.1751 32.0677 21.5218C32.0677 21.8411 30.4984 22.1604 30.0404 22.1604C29.9018 22.1604 29.8735 22.0627 29.8735 22.0081C29.8735 21.9104 30.1098 21.6194 30.1098 21.4524C30.1098 21.3274 29.9018 21.2444 29.3461 21.2444C29.0825 21.2444 28.8881 21.2718 28.8881 21.4807C28.8881 21.8557 29.4995 22.3 29.4995 22.6467C29.4995 22.924 29.3325 23.091 28.8881 23.091C28.5132 23.091 27.9575 22.799 27.9575 22.3274C27.9575 21.9387 28.3598 21.5637 28.3598 21.3274C28.3598 21.2581 28.3042 21.1468 28.1382 21.1468C27.6245 21.1468 27.4859 22.4934 25.6949 22.6467C25.9869 22.383 26.2369 22.0911 26.2369 21.5081C26.2369 21.2161 26.1675 20.9808 26.1675 20.6751C26.1675 20.2581 26.3619 20.0501 26.6392 20.0501C27.1529 20.0501 27.3892 20.7581 27.7222 20.7581C27.9028 20.7581 28.0972 20.5911 28.0972 20.3411C28.0972 19.3002 26.0836 19.4525 26.0836 17.9809C26.0679 17.5649 26.2066 17.0649 26.5679 16.3852ZM33.1351 20.4114C33.1351 20.7581 33.2464 21.1477 33.5931 21.1477C33.885 21.1477 34.135 20.7034 34.135 20.2318C34.135 19.6761 34.0374 19.2601 34.0374 19.0375C34.0374 18.9398 34.0794 18.8988 34.135 18.8988C34.343 18.9125 34.5374 19.4818 34.76 19.4818C35.01 19.4818 35.3713 19.0238 35.5236 19.0238C35.5656 19.0238 35.5793 19.0795 35.5793 19.0931C35.5793 19.3011 35.26 19.7591 35.26 19.9261C35.26 20.0784 36.0656 20.1068 36.0656 20.2454C36.0656 20.4534 35.2326 20.4534 34.8303 20.6341C34.4417 20.8011 34.2053 21.0091 34.2053 21.2864C34.2053 21.5637 34.4827 21.6194 34.8713 21.6194C35.7873 21.6194 36.4406 21.1194 36.6486 21.1194C36.6906 21.1194 36.7179 21.1468 36.7179 21.1888C36.7179 21.3274 36.2463 21.7854 36.2463 21.9797C36.2463 22.2161 37.0929 22.4934 37.0793 22.6321C37.0656 22.6741 37.0099 22.6877 36.9123 22.6877C36.7599 22.6877 36.5236 22.6457 36.3429 22.6457C36.2316 22.6457 36.1349 22.6594 36.093 22.7151C35.9953 22.8264 36.1203 23.548 35.926 23.548C35.7453 23.548 35.2737 21.9231 34.218 21.9231C34.0657 21.9231 33.9544 22.0481 33.9544 22.2561C33.9544 22.8117 34.4963 23.4367 34.9953 23.7414C35.2317 23.8937 35.6066 24.047 35.6066 24.1301C35.6066 24.297 34.7317 24.1437 34.7317 24.422C34.7317 24.672 34.843 25.047 34.843 25.255C34.843 25.3243 34.8293 25.4073 34.7454 25.4073C34.5784 25.4073 34.176 24.6574 33.9817 24.6574C33.8147 24.6574 33.4544 25.1154 33.3011 25.1154C33.2591 25.1154 33.2317 25.0734 33.2317 25.0324C33.2317 24.713 33.7454 24.0051 33.7454 23.2971C33.7454 22.9641 33.7034 22.2561 33.3011 22.2561C32.9681 22.2561 32.5931 22.7834 32.4398 23.2971C32.3421 23.6027 32.4124 24.7687 32.1898 24.7687C31.9818 24.7687 32.0374 23.9914 31.7591 23.9914C31.5511 23.9914 31.1205 24.3664 30.9681 24.3664C30.9408 24.3664 30.9125 24.3527 30.9125 24.3244C30.9125 24.1574 31.3148 23.6164 31.3148 23.5187C31.3148 23.3107 30.4125 23.2824 30.4125 23.1164C30.4125 23.0188 30.7738 22.9494 31.1068 22.8947C31.8011 22.7698 32.8421 22.2561 32.8421 21.5481C32.8421 20.7571 32.0648 20.4095 31.5648 20.0765C31.3011 19.9095 31.0092 19.7708 31.0092 19.6595C31.0092 19.5482 31.3422 19.5482 31.4808 19.5482C31.6888 19.5482 31.8978 19.5345 31.8978 19.3675C31.8978 19.2425 31.8705 18.9925 31.8705 18.7982C31.8705 18.6596 31.8841 18.5482 31.9398 18.5482C32.1478 18.5482 32.4398 19.2289 32.5784 19.2289C32.8001 19.2289 33.1058 18.6732 33.3147 18.6732C33.3841 18.6732 33.4124 18.7152 33.4124 18.8402C33.3987 19.3421 33.1351 19.9115 33.1351 20.4114Z" fill="#1766A6"/>
<path d="M26.9696 24.2295C27.6082 24.3125 27.7605 24.5351 27.7605 24.7158C27.7605 25.0214 27.4832 25.1181 27.2186 25.1181C27.0242 25.1181 26.8016 25.0761 26.5662 25.0761C26.2606 25.0761 25.9549 25.1454 25.7196 25.4374C25.9003 25.4648 26.1639 25.5898 26.1639 25.8681C26.1639 26.6591 23.956 26.0067 23.956 28.0613C23.956 29.1443 25.081 30.3249 26.7879 30.3249C27.6629 30.3249 28.2322 30.0329 28.2322 29.7C28.2322 29.4363 27.7605 29.6169 27.7605 29.3943C27.7605 29.2966 27.9275 29.117 27.9275 28.9637C27.9275 28.8943 27.8719 28.7693 27.7605 28.7693C27.5105 28.7693 27.0389 29.1717 26.0946 29.1717C25.3446 29.1717 24.623 28.741 24.623 28.1717C24.623 28.0467 24.6786 27.9774 24.7616 27.9774C24.8446 27.9774 24.956 28.033 25.0536 28.033C25.1366 28.033 25.1513 27.9774 25.1513 27.825C25.1513 27.6727 25.1513 27.242 25.4149 27.242C25.6786 27.242 26.1786 28.2 28.0672 28.2C28.6921 28.2 29.9275 28.075 30.3718 27.658C30.3581 29.1717 29.1775 31.1706 26.6922 31.1706C24.124 31.1706 22.749 29.1023 22.749 27.2137C22.749 25.1034 24.4706 23.2012 26.8172 23.2012C27.4285 23.2012 27.9275 23.4092 27.9275 23.6728C27.9412 24.0205 27.0389 23.7988 26.9696 24.2295ZM31.1901 24.9511C31.2878 25.1034 31.3288 25.2568 31.3288 25.3954C31.3288 25.7841 31.0651 26.1454 31.0651 26.5341C31.0651 26.992 31.4118 27.3534 31.9264 27.3534C32.4957 27.3534 32.8707 26.8954 32.8707 26.368C32.8844 25.6454 32.2321 25.0204 31.1901 24.9511ZM26.6366 25.8261C26.7752 25.9647 26.8172 26.1034 26.8172 26.243C26.8172 26.4511 26.7196 26.6737 26.7196 26.909C26.7196 27.242 26.9696 27.534 27.3309 27.534C27.7195 27.534 27.9832 27.2284 27.9832 26.8817C27.9832 26.3397 27.4412 25.8261 26.6366 25.8261ZM28.4695 23.4932C29.9138 23.7705 30.7048 24.8535 30.7048 25.8671C30.7048 26.5751 30.2604 27.2137 29.4968 27.2137C28.7888 27.2137 28.2888 26.7274 28.2888 25.9638C28.2888 25.3808 28.7332 24.7831 28.7332 24.1865C28.7332 23.9658 28.6638 23.7295 28.4695 23.4932ZM29.1912 25.3261C29.1912 25.5204 29.3298 25.6728 29.5241 25.6728C29.7458 25.6728 29.8855 25.4784 29.8855 25.2558C29.8855 24.9638 29.6218 24.5615 29.3718 24.5615C29.2605 24.5615 29.3025 24.7285 29.2742 24.9081C29.2605 25.0488 29.1912 25.2148 29.1912 25.3261Z" fill="#1766A6"/>
<path d="M14.0019 11.1647C14.4736 11.1647 15.0019 8.63746 15.0019 8.20779C15.0019 8.09647 14.9599 8.01346 14.8632 8.01346C14.4326 8.01346 13.8496 10.4157 13.8496 10.9567C13.8496 11.0671 13.8769 11.1647 14.0019 11.1647ZM17.3758 11.9284C17.7225 11.9284 18.0975 10.6091 18.0975 9.77609C18.0975 9.59544 18.0701 9.40111 17.9861 9.40111C17.6942 9.40111 17.2225 10.7614 17.2225 11.5114C17.2235 11.8034 17.2928 11.9284 17.3758 11.9284ZM15.1269 10.7057C15.2792 10.7057 15.4735 10.5388 15.8349 10.1364C15.8622 9.95577 15.8622 9.78977 15.8622 9.58079C15.8622 9.30346 15.7509 8.9978 15.5849 8.9978C15.1679 8.9978 14.9599 10.0944 14.9599 10.3864C14.9599 10.5671 15.0439 10.7057 15.1269 10.7057ZM17.0155 10.1364C17.0155 9.90011 16.9598 9.84445 16.9042 9.84445C16.7655 9.84445 16.6122 10.0114 16.3905 10.3864C16.4178 10.8864 16.5018 11.1081 16.6405 11.1081C16.7928 11.0954 17.0155 10.6227 17.0155 10.1364ZM18.0701 8.51247C18.9724 8.51247 19.3894 9.28978 19.3894 10.1784C19.3894 10.5671 19.2781 11.1227 19.0974 11.1227C18.9168 11.1227 18.9451 10.8034 18.9168 10.5114C18.8894 10.1364 18.8191 10.0534 18.6951 10.0534C18.4588 10.0534 18.3064 10.6091 18.3064 11.1091C18.3064 11.4284 18.3621 11.7897 18.6121 11.7897C18.7508 11.7897 18.8758 11.7204 18.9588 11.6374C18.9031 12.276 18.4314 12.818 17.7781 12.818C16.5702 12.818 16.1122 11.402 15.9735 10.569C15.2372 11.3327 14.5712 11.902 13.3633 11.902C12.2383 11.902 11.7247 11.0827 11.7247 10.2917C11.7247 10.0554 11.8077 9.45872 12.0996 9.45872C12.4463 9.45872 12.1416 10.5837 12.8076 10.5837C12.9746 10.5837 13.2793 10.445 13.4463 9.98702C13.5439 9.70969 13.5986 9.41771 13.5986 9.18139C13.5986 8.8064 13.5156 8.57008 13.2373 8.57008C13.001 8.57008 12.71 8.75074 12.6123 8.84742C12.9453 7.8621 13.7373 7.34747 14.6259 7.34747C15.7089 7.34747 16.2919 8.30545 16.2919 9.38841C16.2919 9.54075 16.2782 9.70774 16.2499 9.86007C16.7235 9.10913 17.3758 8.51247 18.0701 8.51247Z" fill="#1766A6"/>
<path d="M15.5016 12.2191C14.9049 12.2191 14.8766 12.9407 14.8766 14.385C14.4323 13.4407 13.7106 12.4134 12.8494 12.4134C12.2664 12.4134 12.0584 12.802 12.0584 13.469C12.0584 13.6077 12.072 13.8157 12.1004 13.9407C12.1697 13.7044 12.3923 13.6077 12.6697 13.6077C13.2663 13.6077 13.9743 14.0657 14.4469 14.677C13.905 14.5793 13.3913 14.4826 12.947 14.4826C12.6697 14.4826 12.4197 14.51 12.2107 14.6076C11.8084 14.7883 11.2801 15.3713 11.2801 16.2736C11.2801 16.4123 11.2937 16.5656 11.3221 16.7316C11.8084 15.6623 13.0857 15.177 13.905 15.177C14.072 15.177 14.197 15.1906 14.2936 15.2043C13.863 15.593 13.7663 16.2599 13.738 16.7179C13.7243 16.9396 13.6403 16.9542 13.488 16.9542C13.488 17.4122 13.8493 18.0792 13.8493 18.4259C13.8493 18.5509 13.78 18.6622 13.7106 18.6895C13.7106 19.3008 14.322 19.7305 14.322 20.1192C14.322 20.2168 14.2946 20.2998 14.2526 20.3408C14.2946 20.5908 14.9606 21.0068 15.0436 21.2158C15.1549 21.4658 15.2653 21.5078 15.3356 21.5078C15.5719 21.5078 15.9469 21.2304 15.9469 20.9804C15.9469 20.8974 15.8776 20.7998 15.8219 20.7588C15.5582 20.5644 15.4196 20.1475 15.3082 19.8838C15.2106 19.8838 15.0866 19.8418 15.0446 19.6758C14.9753 19.3838 14.9616 18.8565 14.8503 18.5372C14.6696 18.4952 14.5866 18.4259 14.5866 18.0509C14.5866 17.8702 14.6979 17.1759 14.6979 16.9259C14.6149 16.9259 14.5036 16.8702 14.5036 16.7042C14.5036 16.2599 14.9479 15.9269 15.0729 15.3576C15.8502 15.9406 16.0445 16.5236 16.0445 17.0519C16.0445 17.3292 16.0026 17.5939 15.9469 17.8292C16.5299 17.5372 17.3912 17.1075 17.3912 16.2462C17.3912 15.7326 17.1549 15.177 15.6002 14.9553C16.0865 14.7746 16.6832 14.6779 17.1968 14.6779C18.0718 14.6779 18.5855 14.9553 18.6968 15.5666C18.8774 15.2893 19.0161 14.9699 19.0161 14.6916C19.0161 14.011 18.4468 13.5813 17.7388 13.5813C16.9058 13.5813 16.1559 14.0256 15.3649 14.553C15.7262 13.8167 15.9762 13.3723 16.4059 13.3723C16.4752 13.3723 16.5445 13.386 16.6139 13.3997C16.4459 12.802 15.8346 12.2191 15.5016 12.2191Z" fill="#1766A6"/>
<path d="M38.6749 22.1328C39.3692 22.1328 39.9102 23.0214 39.9102 24.077C39.9102 25.1874 39.3829 26.3953 38.4522 27.2283C38.4386 25.368 36.1613 25.9647 36.1613 24.618C36.1613 24.0351 36.5783 23.6601 37.0636 23.6601C37.5079 23.6601 37.8546 23.7851 38.0909 24.0351C37.8409 23.7987 37.7159 23.4657 37.7159 23.1601C37.7443 22.6181 38.0773 22.1328 38.6749 22.1328Z" fill="#1766A6"/>
<path d="M26.4006 9.06785C26.7619 9.41451 27.0812 9.56783 27.4562 9.56783C27.6085 9.56783 27.7892 9.52584 27.8868 9.52584C28.0118 9.52584 28.0948 9.5815 28.0948 9.67818C28.0948 9.83051 27.9562 10.0805 27.7892 10.2201C27.9562 10.2895 28.1359 10.3178 28.3312 10.3178C29.1085 10.3178 30.0108 9.81782 30.0108 8.58251C30.1778 8.80418 30.2744 9.26315 30.2744 9.45748C30.2744 10.9574 29.1778 11.5404 28.1642 11.5404C27.4982 11.5404 27.1789 11.3187 27.0949 11.3187C26.8312 11.3187 26.8449 11.8461 26.6642 11.8324C26.3449 11.7767 26.0529 11.0824 26.0529 10.3324C26.0393 9.8725 26.1506 9.41451 26.4006 9.06785ZM28.4698 8.06788C28.3585 7.88723 27.9425 7.79055 27.7618 7.79055C27.1505 7.79055 26.7482 8.2212 26.6652 8.59618C26.6095 8.45752 26.5676 8.29053 26.5676 8.12452C26.5676 7.51322 26.9845 6.77789 27.9835 6.77789C28.8585 6.77789 29.2051 7.24956 29.3301 7.24956C29.4688 7.24956 29.6075 7.11089 29.7188 7.11089C29.8711 7.11089 29.8711 7.34721 29.8711 7.51322C29.8711 8.06886 29.6211 9.01316 29.0098 9.35983C28.8985 9.12351 28.6768 8.85985 28.3292 8.69384C28.2316 8.65185 28.1905 8.56884 28.1905 8.48584C28.1642 8.33155 28.3028 8.13722 28.4698 8.06788Z" fill="#1766A6"/>
<path d="M16.8346 5.06893C16.8346 5.55524 18.5562 7.90086 18.8892 7.90086C19.1665 7.90086 19.3755 7.41455 19.3755 7.01222C19.3755 6.9009 19.3481 6.79055 19.2925 6.70657C19.0425 6.3599 17.2925 4.98593 16.9176 4.98593C16.8619 4.98593 16.8346 5.02694 16.8346 5.06893ZM6.72654 3.63832C6.72654 3.91566 5.68556 4.83261 5.31057 4.83261C5.17191 4.83261 5.12992 4.66563 5.12992 4.51329C5.12992 4.23596 5.25491 3.8473 5.40725 3.7223C5.58791 3.55532 6.00391 3.47231 6.30956 3.47231C6.50487 3.49966 6.72654 3.54165 6.72654 3.63832ZM19.2778 4.44396C19.2778 3.62465 17.0426 2.12568 17.0142 1.47239C17.0142 1.41673 17.0416 1.34739 17.0972 1.3054C17.4859 0.903074 19.0689 0.611093 19.0689 0.264426C19.0689 0.0837686 18.7359 0.0837686 18.5689 0.0837686C17.2916 0.0837686 15.4176 0.555431 15.4176 0.99975C15.4176 1.47141 17.0972 2.61004 17.0972 3.17936C17.0972 3.33169 16.9996 3.38736 16.8473 3.38736C16.3756 3.38736 15.362 2.81804 14.8756 2.81804C14.654 2.81804 14.57 2.97038 14.57 3.19303C14.57 3.85902 15.3473 5.10897 15.3473 5.47029C15.3473 5.51228 15.3336 5.56794 15.278 5.56794C15.028 5.56794 13.862 4.19299 13.445 4.19299C13.2927 4.19299 13.2781 4.40099 13.2781 4.70664L13.2781 5.17831C13.2781 5.49763 13.2644 5.69196 13.1111 5.69196C12.7497 5.69196 12.5837 4.692 12.2498 4.692C11.8885 4.692 11.8191 6.48294 11.4861 6.48294C11.0838 6.48294 11.4305 4.51134 11.0418 4.51134C10.6112 4.51134 10.1395 5.81598 9.83384 5.81598C9.72252 5.81598 9.69518 5.70465 9.69518 5.60798C9.69518 5.20565 9.9315 4.567 9.9315 4.17834C9.9315 3.98401 9.87583 3.87269 9.70982 3.87269C9.27918 3.87269 8.34952 4.567 7.98821 4.567C7.93255 4.567 7.86321 4.53966 7.86321 4.48399C7.86321 4.151 9.36316 3.10905 9.36316 2.63738C9.36316 2.17939 7.29488 2.48505 7.29488 1.95675C7.29488 1.51243 8.7665 1.06811 8.7665 0.610116C8.7665 0.207787 7.01754 0.0271301 6.35057 0.0271301C5.54494 0.0271301 5.10062 0.124783 5.10062 0.360126C5.10062 0.72144 6.94723 0.831788 6.94723 1.13744C6.94723 1.44309 5.03324 2.25068 5.03324 2.72234C5.03324 3.13932 7.7265 2.74968 7.7265 3.18033C7.7265 3.65199 5.37991 5.66559 5.37991 6.34623C5.37991 6.49857 5.49123 6.5679 5.64357 6.5679C6.36522 6.5679 8.21183 5.2076 8.72549 5.2076C8.90614 5.2076 8.91981 5.42927 8.91981 5.62458C8.91981 5.98589 8.79482 6.52689 8.79482 6.92922C8.79482 7.24854 8.87782 7.47119 9.15613 7.47119C9.66979 7.47119 10.1278 6.60989 10.4754 6.60989C10.9197 6.60989 10.6561 9.15081 11.3084 9.15081C11.8777 9.15081 12.0994 6.40189 12.4607 6.40189C12.822 6.40189 13.113 7.19288 13.4323 7.19288C13.8493 7.19288 13.654 5.80426 14.0983 5.80426C14.5846 5.80426 15.9586 7.45654 16.5699 7.45654C16.7642 7.45654 16.8336 7.3042 16.8336 7.10987C16.8336 6.37357 15.8199 4.73594 15.8199 4.20764C15.8199 4.06897 15.8619 4.02698 16.0143 4.02698C16.5562 4.02698 18.1245 4.76328 18.8609 4.76328C19.1392 4.76328 19.2778 4.62461 19.2778 4.44396ZM17.8482 1.72238C17.8482 1.97237 18.7095 2.49969 19.1118 2.49969C19.3481 2.49969 19.4175 2.18037 19.4175 1.84737C19.4175 1.4304 19.2368 1.41673 18.8755 1.41673C18.4312 1.43137 17.8482 1.55637 17.8482 1.72238ZM14.6266 0.320088C14.6266 0.237083 14.2097 0.153102 13.655 0.153102C12.7664 0.153102 12.8913 0.903074 12.197 0.903074C11.4754 0.903074 11.6551 0.125759 10.7528 0.125759C10.1971 0.125759 9.69713 0.223412 9.69713 0.347431C9.69713 0.514417 10.3494 0.445083 10.3494 0.903074C10.3494 1.38938 8.96083 1.52805 8.96083 1.80538C8.96083 1.90304 9.07215 1.94405 9.21082 1.94405C9.51647 1.94405 9.98813 1.80538 10.3358 1.80538C10.5301 1.80538 10.7108 1.84737 10.7108 2.02706C10.7108 2.37372 9.96079 2.98503 9.96079 3.26236C9.96079 3.34537 10.0301 3.37368 10.0995 3.37368C10.3768 3.37368 10.8494 2.6657 11.2801 2.6657C12.0164 2.6657 11.5301 4.22033 11.9324 4.22033C12.3494 4.22033 12.1687 2.69305 12.7517 2.69305C13.238 2.69305 13.5847 3.74867 13.9177 3.74867C14.0007 3.74867 14.07 3.67934 14.07 3.58168C14.07 3.2897 13.653 2.70672 13.653 2.31806C13.653 2.08174 13.82 1.97139 14.0417 1.97139C14.361 1.97139 14.778 2.16572 15.0133 2.16572C15.0963 2.16572 15.1803 2.13838 15.1803 2.04073C15.1803 1.70773 13.9587 1.34642 13.9587 0.930417C13.947 0.514417 14.6266 0.514417 14.6266 0.320088Z" fill="#1766A6"/>
<path d="M39.0075 2.54181C39.0075 3.76344 38.1188 4.69407 36.5085 4.95773C36.6892 4.97141 36.8552 4.9714 37.0222 4.9714C38.9108 4.9714 39.5905 4.12476 39.5905 3.40213C39.5905 3.01445 39.3688 2.65313 39.0075 2.54181ZM36.6892 3.93043C36.6892 2.95878 34.3563 2.70879 34.3563 2.48615C34.3563 2.30549 35.6609 1.99984 36.3416 1.98616C35.3143 0.667854 33.8426 0.806521 33.8426 0.570202C33.8426 0.431535 34.9393 0.153225 35.9529 0.153225C36.7995 0.153225 37.6052 0.347554 37.6052 0.986202C37.6052 1.34752 37.3132 1.7225 37.3132 2.2635C37.3132 2.56915 37.4655 2.83281 37.8688 2.83281C38.2995 2.83281 38.3962 2.37482 38.3962 1.90218C38.3962 1.49985 38.3268 1.20787 38.3268 1.01354C38.3268 0.430558 38.7292 0.0555725 39.2848 0.0555725C39.7565 0.0555725 39.8678 0.263573 40.5484 0.263573C40.1734 0.485244 40.0348 0.888549 40.0348 1.06921C40.0348 1.65219 40.4098 2.04085 40.4098 3.23514C40.4098 5.40108 38.3688 6.17839 35.8836 6.17839C35.2029 6.17839 34.4676 6.12273 33.7596 6.0114C33.6483 5.99773 33.621 5.96941 33.621 5.90008C33.621 5.71942 34.5926 5.62275 34.5926 4.74778C34.5926 4.40111 34.4813 4.06714 34.4813 3.95679C34.4813 3.88746 34.5369 3.84547 34.5926 3.84547C34.8006 3.84547 35.2176 4.63646 35.9812 4.63646C36.1755 4.63841 36.6892 4.56908 36.6892 3.93043ZM38.9245 0.889526C38.9245 1.08385 39.0768 1.23619 39.2711 1.23619C39.4655 1.23619 39.6178 1.08385 39.6178 0.889526C39.6178 0.695197 39.4655 0.542859 39.2711 0.542859C39.0768 0.55653 38.9245 0.708868 38.9245 0.889526Z" fill="#1766A6"/>
<path d="M37.7034 13.6078C37.7034 13.3158 36.9671 13.2885 36.8978 12.4828C36.8841 12.3578 36.8421 12.1362 36.6898 12.1362C36.4398 12.1362 36.6341 12.8861 36.3568 12.8861C35.7181 12.8861 35.5238 11.6508 35.2875 11.6508C35.2318 11.6508 35.1625 11.6928 35.1625 11.8588C35.1625 12.0112 35.1899 12.1088 35.1899 12.2895C35.1899 12.4701 35.1479 12.5951 34.9819 12.5951C34.6069 12.5951 34.2739 11.7338 33.9682 11.7338C33.8989 11.7338 33.8295 11.7758 33.8295 11.8452C33.8295 12.0122 34.1069 12.3168 34.1069 12.4701C34.1069 12.8031 33.2182 12.6225 33.2182 12.9008C33.2182 13.0258 33.3432 13.0678 33.5102 13.0678C33.8022 13.0678 34.2602 12.9428 34.4819 12.9428C34.6205 12.9428 34.8285 12.9701 34.8285 13.1508C34.8285 13.3451 34.3286 13.5951 34.3286 13.7758C34.3286 13.8588 34.4116 13.9008 34.4809 13.9008C34.8559 13.9008 35.5082 13.2484 35.9808 13.2484C36.0638 13.2484 36.2728 13.2904 36.2728 13.4154C36.2728 13.5961 35.8012 13.9154 35.8012 14.1654C35.8012 14.2347 35.8431 14.3177 35.9261 14.3177C36.1761 14.3177 36.5091 13.6654 36.9671 13.6654C37.1478 13.6654 37.4114 13.7347 37.5501 13.7347C37.6614 13.7191 37.7034 13.6498 37.7034 13.6078ZM38.0638 20.2726C38.2854 19.592 38.5637 19.1066 39.0081 18.3566C38.5637 18.1203 37.3558 17.6203 37.3558 16.8157C37.3558 15.8714 38.5364 15.1214 38.7854 15.1214C38.8967 15.1214 38.9241 15.2191 38.9241 15.3987C38.9241 15.8987 38.6878 16.6897 38.6878 17.1204C38.6878 17.509 38.9378 17.884 39.1594 17.884C39.3957 17.884 40.0344 17.0647 40.0344 16.2454C40.0344 14.7874 38.7571 14.3431 38.3548 14.3431C37.9798 14.3431 37.3138 14.9544 35.7308 14.9544C32.7739 14.9544 32.0933 12.0249 32.0933 10.7476C32.0933 10.6919 32.107 10.6782 32.1206 10.6782C32.19 10.6782 32.4819 11.0395 33.4116 11.0395C33.8979 11.0395 34.3276 10.9145 35.0365 10.9145C36.6888 10.9145 37.4105 12.0532 38.4378 13.5111C39.0491 13.8998 40.5344 14.5111 40.5344 16.26C40.5344 17.801 38.8958 18.6477 38.4934 20.2999C39.1184 20.2306 39.4934 19.1056 40.1457 19.1056C40.4787 19.1056 40.632 19.3693 40.632 19.7863C40.632 20.3976 40.2854 21.2999 39.6321 21.8692C39.6457 21.8135 39.6457 21.7442 39.6457 21.6612C39.6457 21.2726 39.4934 20.7306 39.0491 20.7306C38.3684 20.7306 38.1468 21.4669 37.7581 22.0909C37.3558 20.6886 36.8275 19.425 35.8558 18.6477C34.8842 17.8703 33.2036 18.2863 33.2036 16.8567C33.2036 16.468 33.4536 15.9261 33.4536 15.4818C33.4536 15.3294 33.4262 15.1898 33.3423 15.0794C34.6615 15.5794 34.1889 16.4544 35.0082 17.3567C35.5082 17.9397 36.9242 18.4816 37.7298 20.8692C37.7435 20.7999 37.7571 20.6193 37.7571 20.4943C37.7571 18.4533 35.0639 16.468 34.8276 15.6351C36.3968 15.8157 36.6742 16.2044 37.4105 18.259C37.5638 18.6896 38.0638 19.7589 38.0638 20.2726Z" fill="#1766A6"/>
<path d="M30.5385 5.72147C29.5805 5.72147 28.9419 5.23516 28.9419 4.98517C28.9419 4.86017 29.0249 4.77717 29.1362 4.77717C29.4419 4.77717 30.0942 5.24883 30.3168 5.24883C30.3725 5.24883 30.4145 5.22149 30.4145 5.1375C30.4145 4.88751 30.1782 4.47151 30.1782 4.27621C30.1782 4.22055 30.2201 4.17856 30.3031 4.17856C30.6781 4.17856 31.2191 4.33089 31.5111 4.33089C31.6088 4.33089 31.6361 4.27523 31.6361 4.21957C31.6361 3.91392 30.7475 3.33093 30.7475 3.15027C30.7475 2.98329 31.8578 2.7333 31.8578 2.46963C31.8578 2.1923 30.3442 2.38663 30.3442 2.12297C30.3442 1.92864 30.6361 1.59564 30.6361 1.44233C30.6361 1.373 30.5805 1.34468 30.4838 1.34468C30.3588 1.34468 29.6928 1.60834 29.4282 1.60834C29.2895 1.60834 29.1225 1.581 29.1225 1.38667C29.1225 1.06734 29.6645 0.720676 30.4975 0.720676C31.8578 0.720676 32.6634 1.65131 32.6634 3.21961C32.6624 5.22149 31.2748 5.72147 30.5385 5.72147ZM27.8589 3.11121C27.8589 2.95887 27.3169 2.66689 27.3169 2.49991C27.3169 2.47256 27.3443 2.45792 27.3863 2.45792C27.5386 2.45792 27.8032 2.51358 28.0112 2.51358C28.1919 2.51358 28.2192 1.74993 28.3579 1.74993C28.4556 1.74993 28.6216 2.48624 28.7749 2.48624C28.9555 2.48624 29.2885 2.27824 29.4272 2.27824C29.4545 2.27824 29.4829 2.29191 29.4829 2.32023C29.4829 2.41788 29.1362 2.79189 29.1362 2.90321C29.1362 3.02821 29.9135 3.18055 29.9135 3.29187C29.9135 3.43054 29.1225 3.41686 29.1225 3.54186C29.1225 3.63951 29.4145 4.02817 29.4145 4.15317C29.4145 4.18051 29.4008 4.19516 29.3725 4.19516C29.2612 4.19516 28.8305 4.00083 28.7065 4.00083C28.5542 4.00083 28.3042 4.57014 28.1929 4.57014C28.1509 4.57014 28.1235 4.51448 28.1235 4.44515L28.0962 3.8895C28.0962 3.83384 28.0689 3.77818 27.9985 3.77818C27.8316 3.77818 27.5122 3.76451 27.4156 3.76451C27.3462 3.76451 27.3179 3.75084 27.3179 3.72252C27.3033 3.59752 27.8589 3.20886 27.8589 3.11121ZM27.4566 5.36015C27.6782 5.36015 27.7202 5.90212 27.7622 6.2068C27.7896 6.37379 27.8179 6.38746 27.8872 6.38746C28.0542 6.38746 28.3179 5.74881 28.4839 5.74881C28.7475 5.74881 29.4419 6.48511 30.6225 6.48511C32.2884 6.48511 33.8577 5.31914 33.8577 3.24988C33.8577 1.25093 32.4554 0.0839812 30.5111 0.0839812C29.5952 0.0839812 28.9145 0.541972 28.5532 0.541972C28.3315 0.555643 28.0112 0 27.8452 0C27.7759 0 27.7066 0.138667 27.7066 0.374986C27.7066 0.527324 27.7066 1.01363 27.5396 1.01363C27.2066 1.01363 25.9293 0.0693333 25.9293 0.402329C25.9293 0.721653 26.7759 1.67962 26.7759 1.92962C26.7759 2.17961 25.943 2.41593 25.943 2.58193C25.943 2.88759 26.8316 2.94325 26.8316 3.33191C26.8316 3.72056 25.901 4.02622 25.901 4.30355C25.901 4.53987 26.8316 4.37288 26.8316 4.66487C26.8316 4.95685 26.1373 5.91482 26.1373 6.19215C26.1373 6.26149 26.151 6.26148 26.2066 6.26148C26.484 6.26344 27.2622 5.36015 27.4566 5.36015Z" fill="#1766A6"/>
<path d="M21.2213 29.519C21.2213 29.644 21.1793 29.7827 21.069 29.9214C20.9166 29.644 20.486 29.5044 20.3053 29.5044C18.8894 29.5044 19.4304 31.559 17.9177 31.559C17.2791 31.559 17.2234 31.476 17.0017 31.476C16.9041 31.476 16.8494 31.518 16.8494 31.601C16.8494 31.9623 17.3631 32.8363 18.779 32.8363C20.195 32.8363 21.5563 31.975 21.5563 30.892C21.5563 30.7114 21.5143 30.517 21.4313 30.3227C21.4869 30.2397 21.6256 30.1841 21.7506 30.1841C21.9723 30.1841 22.0973 30.434 22.3062 30.434C22.5279 30.434 22.6949 30.2671 22.6949 30.0454C22.6949 29.8647 22.5972 29.7397 22.4312 29.6567C22.5425 29.5737 22.6256 29.4351 22.6256 29.2817C22.6256 29.0454 22.4586 28.8237 22.1812 28.8237C22.0562 28.8237 21.9732 28.8657 21.8756 28.9624C21.8482 28.7124 21.7086 28.4761 21.4449 28.4761C21.2369 28.4761 21.0836 28.6284 21.0836 28.8648C21.068 29.1021 21.2213 29.2827 21.2213 29.519Z" fill="#1766A6"/>
<path d="M13.6819 26.9646C14.7785 27.2419 15.3341 27.8259 15.4455 28.5339C15.5568 29.2145 15.6955 29.7555 15.9591 30.0338C16.3058 30.4225 16.9728 30.7555 17.5694 30.7555C18.0694 30.7555 18.4581 30.5885 18.4581 30.1442C18.4581 29.6442 17.7774 28.5339 16.7921 28.5339C16.6944 28.5339 16.5704 28.5476 16.4308 28.5476C16.3058 28.5476 16.1251 28.5202 16.0138 28.4226C15.7921 28.2282 15.7218 27.2009 15.3058 26.576C14.8478 25.8816 14.3615 25.701 13.6809 25.701C13.1946 25.701 12.6673 25.9647 12.6673 26.3533C12.6829 26.576 12.8079 26.742 13.6819 26.9646ZM17.5284 30.0465C17.1114 30.0465 16.5011 29.6022 16.5011 29.3522C16.5011 29.1442 16.6954 29.0329 16.8478 29.0329C17.1944 29.0329 17.8057 29.4635 17.8057 29.8239C17.7921 29.9215 17.7227 30.0465 17.5284 30.0465Z" fill="#1766A6"/>
<path d="M16.2512 19.3282C16.2512 18.4533 18.3478 17.9816 18.3478 16.8986C18.3478 16.718 18.2785 16.3986 18.1535 16.177C18.8751 16.5793 19.4171 17.2463 19.4171 17.8019C19.4171 18.7462 18.4318 19.1905 18.4318 19.7872C18.4318 20.4815 19.4874 20.5782 19.4874 21.4395C19.4874 22.1338 18.4874 22.9531 18.4874 23.8554C18.4874 24.5634 18.9874 25.1327 19.7374 25.2303C19.4874 25.286 19.2657 25.328 19.0431 25.328C17.6545 25.328 16.2248 24.1894 16.2248 22.8291C16.2248 22.1484 16.5168 21.5654 16.9465 21.1348C17.3351 21.4678 17.7238 21.6904 17.9601 21.6904C18.1818 21.6904 18.2794 21.5791 18.2794 21.4131C18.2785 20.8829 16.2512 20.4112 16.2512 19.3282ZM20.6387 26.2703C20.1671 26.492 19.9727 26.451 19.9727 26.9363C19.9727 27.117 19.9307 27.3533 19.9307 27.4783C19.9307 27.6453 19.9581 27.742 20.1524 27.742C20.6524 27.742 21.4297 26.909 21.4297 26.1873C21.4297 25.993 21.3184 25.91 21.1934 25.91C21.0967 25.8954 20.9717 26.117 20.6387 26.2703ZM20.5967 25.2841C20.5967 24.6591 19.3194 24.6454 19.3194 23.7148C19.3194 23.4785 19.4718 23.0761 19.7774 22.6592C19.9024 23.3808 20.1944 23.7421 20.8047 23.9784C22.0264 24.4364 22.1934 25.1171 22.1934 25.8524C22.1934 27.0877 21.3321 28.6296 19.0968 28.6296C17.3058 28.6296 16.0285 27.033 16.0285 25.6864C16.0285 25.3114 16.1262 24.9091 16.3615 24.9091C16.5695 24.9091 16.6389 25.0761 16.8059 25.2421C17.4308 25.867 18.0968 26.0194 19.0695 26.0194C19.9444 26.0067 20.5967 25.659 20.5967 25.2841Z" fill="#1766A6"/>
<path d="M10.8498 25.5758C10.8772 25.8677 10.6829 26.1177 10.3919 26.1587C10.0999 26.1861 9.84988 25.9918 9.80887 25.7007C9.78153 25.4088 9.97586 25.1588 10.2669 25.1178C10.5579 25.0894 10.8215 25.2984 10.8498 25.5758ZM8.28158 26.1167C8.33725 26.5884 8.78156 26.9361 9.2669 26.8941C9.44756 26.8804 9.61357 26.8247 9.72489 26.7554C9.83621 27.1997 10.2112 27.477 10.6965 27.4077C11.1965 27.3384 11.5432 26.9497 11.4875 26.4361C11.4738 26.2974 11.4455 26.2144 11.4045 26.1167C11.4045 26.1167 11.4738 26.1031 11.5158 26.1031C12.0158 26.0054 12.3488 25.6168 12.3068 25.1314C12.2512 24.6315 11.8068 24.2701 11.3489 24.3258C11.1682 24.3531 11.0022 24.4235 10.8909 24.5065C10.7659 24.0895 10.3772 23.7428 9.84988 23.8258C9.37822 23.9088 9.0589 24.3121 9.09991 24.8258C9.11358 24.9088 9.12726 25.0064 9.16925 25.1031C9.16925 25.1031 9.08624 25.1168 9.03058 25.1168C8.65559 25.1871 8.21225 25.5894 8.28158 26.1167Z" fill="#1766A6"/>
</g>
<defs>
<clipPath id="clip0_519_6710">
<rect width="45.1806" height="50" fill="white" transform="translate(0.95079)"/>
</clipPath>
</defs>
</svg>
