<svg width="1519" height="255" viewBox="0 0 1519 255" fill="none" xmlns="http://www.w3.org/2000/svg">
<path d="M1514 140.999C1460.77 122.598 1423.71 73.2152 1318.5 76.4994C1213.29 79.7836 1220.21 195.214 1115 198.499C1009.79 201.783 842.709 61.7142 737.501 64.9984C637.842 68.1094 616.62 286.507 397.072 109.802C372.254 89.827 339.982 80.4699 308.51 85.4209C97.066 118.684 53.5487 64.1268 4.00067 46.9989" stroke="#1F365F" stroke-width="8" stroke-linecap="round" stroke-linejoin="round"/>
<path d="M4 251.003C53.0738 265.626 183.02 114.417 281.168 114.417C379.315 114.417 471.878 231.562 570.026 231.562C668.173 231.562 773.401 86.9995 871.549 86.9995C969.697 86.9995 1168.45 236.048 1266.6 236.048C1364.75 236.048 1466.93 124.22 1516 138.843" stroke="#D6D7CF" stroke-width="6" stroke-linecap="round" stroke-linejoin="round" stroke-dasharray="30 30"/>
</svg>
