<svg width="29" height="29" viewBox="0 0 29 29" fill="none" xmlns="http://www.w3.org/2000/svg">
<path d="M13.8358 17.9953L10.8993 15.0593L9.52298 16.4353L9.43176 16.5265L9.31334 16.6449L9.31014 16.6417C8.76443 17.1297 8.0667 17.3985 7.32735 17.3985C6.53199 17.3985 5.78305 17.0881 5.22134 16.5265C4.65803 15.9633 4.34917 15.2161 4.34917 14.4209C4.34917 13.6257 4.65963 12.8769 5.22134 12.3153C5.78465 11.7521 6.53199 11.4433 7.32735 11.4433C7.42017 11.4433 7.51139 11.4481 7.6042 11.4561L7.5818 11.4225L7.5978 11.4257C6.85366 10.1985 6.45678 8.7985 6.44398 7.3457C4.87567 7.5409 3.40658 8.25931 2.28476 9.3793C-0.494985 12.1585 -0.494985 16.6817 2.28476 19.4625C3.62902 20.8065 5.41978 21.5473 7.32735 21.5473C9.23332 21.5473 11.0241 20.8081 12.3683 19.4641L13.8358 17.9953Z" fill="#D6D7CF"/>
<path d="M19.549 16.5776L19.5218 16.5408L19.5186 16.5392L19.5026 16.5152L14.0327 11.0464L12.2452 9.25921L12.2484 9.25601C11.7603 8.71041 11.4914 8.01281 11.4914 7.27361C11.4914 6.47841 11.8019 5.72961 12.3636 5.16801C12.9253 4.60641 13.6742 4.29601 14.4696 4.29601C15.265 4.29601 16.0139 4.60641 16.5756 5.16801C17.1389 5.73121 17.4478 6.47841 17.4478 7.27361C17.4478 7.36641 17.443 7.45761 17.435 7.55041L17.4686 7.52801L17.4654 7.54401C18.6928 6.80001 20.0931 6.40321 21.5462 6.39041C21.3509 4.82241 20.6324 3.35361 19.5122 2.23201C18.1679 0.888016 16.3772 0.147217 14.4696 0.147217C12.562 0.147217 10.7713 0.888016 9.42701 2.23201C8.08274 3.57601 7.3418 5.36641 7.3418 7.27361C7.3418 9.17921 8.08274 10.9696 9.42701 12.3152L9.54703 12.4352L11.0945 13.9824L16.8637 19.7504H16.8285C17.2301 20.2688 17.4462 20.9008 17.4462 21.568C17.4462 22.3632 17.1357 23.1104 16.574 23.6736C16.0107 24.2368 15.2634 24.5456 14.468 24.5456C13.6726 24.5456 12.9237 24.2352 12.362 23.6736C11.7987 23.1104 11.4898 22.3632 11.4898 21.568C11.4898 21.4752 11.4946 21.384 11.5026 21.2912L11.469 21.3136L11.4722 21.2976C10.2448 22.0416 8.84449 22.4384 7.39141 22.4512C7.58664 24.0192 8.30519 25.488 9.42541 26.6096C10.7697 27.9536 12.5604 28.6944 14.468 28.6944C16.3756 28.6944 18.1663 27.9536 19.5106 26.6096C22.2743 23.8464 22.2903 19.36 19.5586 16.576H19.549V16.5776Z" fill="#D6D7CF"/>
<path d="M26.664 9.38074C23.8842 6.60154 19.3602 6.60155 16.5804 9.37914L15.1113 10.8479L18.0479 13.7839L19.6354 12.1967L19.6386 12.1999C20.1843 11.7119 20.8821 11.4431 21.6214 11.4431C22.4168 11.4431 23.1641 11.7535 23.7274 12.3151C24.2907 12.8783 24.5996 13.6255 24.5996 14.4207C24.5996 15.2159 24.2891 15.9647 23.7274 16.5263C23.1641 17.0895 22.4168 17.3983 21.6214 17.3983C21.5286 17.3983 21.4374 17.3935 21.3446 17.3855L21.367 17.4191L21.351 17.4159C22.0951 18.6431 22.492 20.0431 22.5048 21.4959C24.0731 21.3007 25.5422 20.5823 26.664 19.4623C29.4453 16.6847 29.4453 12.1599 26.664 9.38074Z" fill="#D6D7CF"/>
</svg>
