<svg viewBox="0 0 622 186" fill="none" xmlns="http://www.w3.org/2000/svg">
<path d="M186.083 165.333C186.083 170.814 183.904 176.071 180.027 179.947C176.149 183.823 170.89 186 165.407 186H20.6758C15.1923 186 9.93329 183.823 6.05582 179.947C2.17834 176.071 0 170.814 0 165.333V20.6667C0 15.1855 2.17834 9.92888 6.05582 6.05313C9.93329 2.17738 15.1923 0 20.6758 0H165.407C170.89 0 176.149 2.17738 180.027 6.05313C183.904 9.92888 186.083 15.1855 186.083 20.6667V165.333Z" fill="#2C5EA8"/>
<path d="M77.9842 105.296H108.434L93.5324 58.8377H93.2119L77.9842 105.296ZM76.2215 47.1404C78.9507 39.7727 85.2 33.8466 93.3721 33.8466C101.865 33.8466 107.799 39.4524 110.518 47.1404L141.935 134.287C142.891 136.849 143.216 139.097 143.216 140.218C143.216 146.464 138.084 150.789 132.16 150.789C125.425 150.789 122.06 147.265 120.457 142.46L115.65 127.399H71.0939L66.2868 142.3C64.6844 147.265 61.3143 150.789 54.7445 150.789C48.335 150.789 42.8869 145.984 42.8869 139.577C42.8869 137.015 43.6881 135.093 44.0086 134.287L76.2215 47.1404Z" fill="white"/>
<path d="M241.545 149.095L276.532 54.8289H293.368L328.422 149.095H313.558L305.798 127.534H264.168L256.342 149.095H241.545ZM268.706 114.781H301.195L285.279 71.0002H284.622L268.706 114.781Z" fill="#ABC7FF"/>
<path d="M359.923 150.41C352.119 150.41 345.784 147.781 340.917 142.522C336.094 137.219 333.683 130.207 333.683 121.486V77.771H346.507V120.828C346.507 126.394 347.976 130.711 350.913 133.779C353.895 136.802 357.797 138.314 362.62 138.314C367.574 138.314 371.739 136.583 375.115 133.121C378.491 129.659 380.179 125.562 380.179 120.828V77.771H392.938V149.095H382.876L380.837 139.695H380.179C375.751 146.838 368.999 150.41 359.923 150.41Z" fill="#ABC7FF"/>
<path d="M439.434 138.314C445.441 138.314 450.307 136.189 454.034 131.938C457.805 127.687 459.69 121.53 459.69 113.466C459.69 105.358 457.827 99.1792 454.1 94.9283C450.373 90.6335 445.485 88.4861 439.434 88.4861C433.515 88.4861 428.78 90.6116 425.229 94.8625C421.677 99.0697 419.902 105.271 419.902 113.466C419.902 121.617 421.677 127.797 425.229 132.004C428.78 136.211 433.515 138.314 439.434 138.314ZM437.461 150.41C428.386 150.41 421.064 147.189 415.495 140.747C409.927 134.304 407.143 125.189 407.143 113.4C407.143 101.568 409.971 92.4522 415.627 86.0538C421.283 79.6116 428.78 76.3906 438.119 76.3906C447.019 76.3906 453.968 79.765 458.967 86.514H459.69V54.8289H472.449V149.095H462.386L460.348 139.695H459.69C454.122 146.838 446.712 150.41 437.461 150.41Z" fill="#ABC7FF"/>
<path d="M520.918 150.41C510.702 150.41 502.525 147.145 496.387 140.615C490.293 134.042 487.246 124.97 487.246 113.4C487.246 101.831 490.249 92.7809 496.256 86.251C502.262 79.6774 510.264 76.3906 520.26 76.3906C530.388 76.3906 538.412 79.8089 544.331 86.6455C550.25 93.4382 553.209 101.239 553.209 110.048L552.551 117.476H500.596C500.947 124.137 502.964 129.287 506.647 132.924C510.33 136.518 515.087 138.314 520.918 138.314C528.284 138.314 533.896 135.4 537.754 129.571H551.894C549.482 135.838 545.58 140.878 540.187 144.691C534.795 148.504 528.371 150.41 520.918 150.41ZM500.596 106.695H540.056C539.267 100.954 537.118 96.484 533.611 93.2849C530.103 90.0857 525.653 88.4861 520.26 88.4861C514.868 88.4861 510.417 90.0857 506.91 93.2849C503.402 96.484 501.298 100.954 500.596 106.695Z" fill="#ABC7FF"/>
<path d="M589.643 138.972C595.562 138.972 600.297 137.35 603.849 134.107C607.4 130.82 609.176 126.613 609.176 121.486V117.476H590.301C585.653 117.476 582.124 118.44 579.713 120.368C577.345 122.297 576.161 124.926 576.161 128.257C576.161 131.544 577.345 134.151 579.713 136.079C582.124 138.008 585.434 138.972 589.643 138.972ZM587.604 150.41C580.414 150.41 574.583 148.263 570.111 143.968C565.639 139.673 563.403 134.436 563.403 128.257C563.403 121.902 565.77 116.621 570.505 112.414C575.284 108.163 581.883 106.038 590.301 106.038H609.176V102.619C609.176 98.237 607.773 94.7968 604.967 92.2988C602.204 89.757 598.434 88.4861 593.655 88.4861C589.797 88.4861 586.662 89.3187 584.25 90.9841C581.839 92.6494 580.261 94.753 579.515 97.2948H566.099C567.458 91.3785 570.659 86.4263 575.701 82.4383C580.787 78.4065 586.771 76.3906 593.655 76.3906C602.555 76.3906 609.504 78.8009 614.503 83.6216C619.501 88.3984 622 94.7311 622 102.619V149.095H611.214L609.833 140.352H609.176C607.641 142.938 604.923 145.261 601.021 147.32C597.119 149.38 592.647 150.41 587.604 150.41Z" fill="#ABC7FF"/>
</svg>
