<svg width="218" height="497" viewBox="0 0 218 497" fill="none" xmlns="http://www.w3.org/2000/svg">
<path d="M23.5003 497L46.2667 456.813L0.0802129 457.19L23.5003 497ZM210.692 5.93214C211.719 3.97663 210.967 1.5582 209.012 0.530459C207.056 -0.497284 204.638 0.254818 203.61 2.21032L210.692 5.93214ZM191.835 154.85L195.41 156.645L191.835 154.85ZM27.201 461.213C28.7307 431.358 34.91 406.726 44.8486 392.244C49.7705 385.071 55.4122 380.673 61.6113 379.049C67.7706 377.435 75.1472 378.386 83.9281 383.236L87.796 376.233C77.7227 370.67 68.2258 369.046 59.584 371.31C50.9821 373.563 43.8952 379.494 38.2524 387.717C27.0615 404.024 20.7671 430.442 19.2114 460.804L27.201 461.213ZM136.339 358.357C136.305 351.233 140.024 345.485 146.595 340.12C153.258 334.681 162.265 330.117 171.814 325.302C181.144 320.596 191.015 315.64 198.49 309.537C206.057 303.36 211.736 295.545 211.687 285.065L203.687 285.103C203.721 292.227 200.002 297.976 193.431 303.34C186.768 308.779 177.76 313.343 168.212 318.159C158.882 322.864 149.011 327.821 141.536 333.923C133.969 340.1 128.289 347.915 128.339 358.395L136.339 358.357ZM211.687 285.065C211.649 276.899 208.413 268.215 204.562 259.371C200.6 250.27 195.927 240.869 192.118 230.326C184.625 209.587 180.917 185.492 195.41 156.645L188.261 153.054C172.475 184.476 176.625 210.988 184.593 233.044C188.515 243.898 193.474 253.942 197.227 262.564C201.092 271.442 203.657 278.759 203.687 285.103L211.687 285.065ZM208.08 63.0739C204.351 58.2327 200.717 55.0072 198.349 52.6066C195.907 50.1313 194.867 48.6069 194.545 46.5853C194.189 44.3454 194.621 40.8164 197.142 34.2313C199.632 27.7286 203.939 18.781 210.692 5.93214L203.61 2.21032C196.842 15.0886 192.343 24.3934 189.671 31.3707C187.031 38.2655 185.945 43.444 186.645 47.8416C187.379 52.4575 189.966 55.5004 192.654 58.2247C195.415 61.0238 198.411 63.6301 201.742 67.9553L208.08 63.0739ZM195.41 156.645C202.626 142.281 211.087 125.942 215.141 109.931C219.223 93.8099 219.024 77.2843 208.08 63.0739L201.742 67.9553C210.601 79.4582 211.15 93.0995 207.386 107.967C203.593 122.945 195.614 138.417 188.261 153.054L195.41 156.645ZM83.9281 383.236C95.5423 389.651 108.476 390.674 118.732 386.369C129.196 381.977 136.404 372.201 136.339 358.357L128.339 358.395C128.389 369.044 123.078 375.868 115.635 378.993C107.984 382.204 97.6218 381.66 87.796 376.233L83.9281 383.236Z" fill="url(#paint0_linear_87_760)"/>
<defs>
<linearGradient id="paint0_linear_87_760" x1="-8.07179" y1="503.776" x2="365.26" y2="182.582" gradientUnits="userSpaceOnUse">
<stop stop-color="#1F365F"/>
<stop offset="0.390625" stop-color="#1F365F" stop-opacity="0.567708"/>
<stop offset="1" stop-color="#1F365F" stop-opacity="0"/>
</linearGradient>
</defs>
</svg>
