<svg width="204" height="371" viewBox="0 0 204 371" fill="none" xmlns="http://www.w3.org/2000/svg">
<rect x="0.5" y="0.5" width="203" height="39" rx="5.5" fill="#212332"/>
<path d="M16.1289 26.1367C15.1673 26.1367 14.3766 25.8997 13.7568 25.4258C13.137 24.9518 12.7383 24.3024 12.5605 23.4775H13.75C14.1055 24.5531 14.8984 25.0908 16.1289 25.0908C16.9036 25.0908 17.4938 24.929 17.8994 24.6055C18.305 24.2773 18.5078 23.8558 18.5078 23.3408C18.5078 23.0036 18.403 22.721 18.1934 22.4932C17.9837 22.2653 17.7126 22.0944 17.3799 21.9805C17.0518 21.862 16.6849 21.7572 16.2793 21.666C15.8737 21.5703 15.4681 21.4587 15.0625 21.3311C14.6615 21.2035 14.2946 21.0439 13.9619 20.8525C13.6338 20.6611 13.3649 20.3877 13.1553 20.0322C12.9456 19.6722 12.8408 19.2347 12.8408 18.7197C12.8408 17.9541 13.1348 17.3206 13.7227 16.8193C14.3105 16.3135 15.1126 16.0605 16.1289 16.0605C17.0176 16.0605 17.7559 16.2656 18.3438 16.6758C18.9316 17.0859 19.3145 17.6738 19.4922 18.4395H18.3027C17.9746 17.5508 17.25 17.1087 16.1289 17.1133C15.459 17.1133 14.9417 17.2637 14.5771 17.5645C14.2126 17.8607 14.0303 18.2458 14.0303 18.7197C14.0303 19.1299 14.1693 19.4694 14.4473 19.7383C14.7298 20.0026 15.0807 20.1895 15.5 20.2988C15.9193 20.4036 16.3727 20.5267 16.8604 20.668C17.3525 20.8047 17.8083 20.9528 18.2275 21.1123C18.6514 21.2718 19.0023 21.5407 19.2803 21.9189C19.5583 22.2972 19.6973 22.7712 19.6973 23.3408C19.6973 24.1156 19.3783 24.7764 18.7402 25.3232C18.1022 25.8656 17.2318 26.1367 16.1289 26.1367ZM23.3408 25.1592C24.0244 25.1592 24.5667 24.9655 24.9678 24.5781C25.3734 24.1908 25.5762 23.7077 25.5762 23.1289V22.6367H23.5459C22.9945 22.6367 22.5775 22.7507 22.2949 22.9785C22.0124 23.2018 21.8711 23.5094 21.8711 23.9014C21.8711 24.2842 22.001 24.5895 22.2607 24.8174C22.5251 25.0452 22.8851 25.1592 23.3408 25.1592ZM23.3408 26.1367C22.5843 26.1367 21.9736 25.9248 21.5088 25.501C21.0485 25.0771 20.8184 24.5439 20.8184 23.9014C20.8184 23.2497 21.0599 22.7142 21.543 22.2949C22.0306 21.8711 22.6982 21.6592 23.5459 21.6592H25.5762V21.167C25.5762 20.6839 25.4144 20.2965 25.0908 20.0049C24.7718 19.7087 24.3503 19.5605 23.8262 19.5605C22.9375 19.5605 22.377 19.9115 22.1445 20.6133H21.0303C21.1989 19.9616 21.5293 19.4603 22.0215 19.1094C22.5182 18.7585 23.1198 18.583 23.8262 18.583C24.6921 18.583 25.3757 18.8177 25.877 19.2871C26.3783 19.7565 26.6289 20.3831 26.6289 21.167V26H25.7881L25.6445 25.0225H25.5762C25.4167 25.3005 25.1318 25.5557 24.7217 25.7881C24.3161 26.0205 23.8558 26.1367 23.3408 26.1367ZM28.5088 26V18.7197H29.3496L29.4932 19.6973H29.5615C29.999 18.9499 30.653 18.5785 31.5234 18.583C31.9792 18.583 32.3893 18.6992 32.7539 18.9316C33.1185 19.1641 33.4079 19.4899 33.6221 19.9092H33.6904C34.1644 19.0205 34.9346 18.5785 36.001 18.583C36.721 18.583 37.3203 18.8519 37.7988 19.3896C38.2819 19.9229 38.5234 20.6338 38.5234 21.5225V26H37.4707V21.5225C37.4707 20.9072 37.3158 20.4264 37.0059 20.0801C36.7005 19.7337 36.2949 19.5605 35.7891 19.5605C35.2923 19.5605 34.8753 19.7474 34.5381 20.1211C34.2054 20.4948 34.0391 20.9619 34.0391 21.5225V26H32.9932V21.5225C32.9932 20.9072 32.8382 20.4264 32.5283 20.0801C32.223 19.7337 31.8174 19.5605 31.3115 19.5605C30.8467 19.5605 30.4388 19.7497 30.0879 20.1279C29.737 20.5062 29.5615 20.971 29.5615 21.5225V26H28.5088ZM43.418 26.1367C42.4108 26.1367 41.5973 25.8063 40.9775 25.1455C40.3623 24.4847 40.0547 23.5573 40.0547 22.3633C40.0547 21.1647 40.36 20.235 40.9707 19.5742C41.5814 18.9134 42.3721 18.583 43.3428 18.583C43.876 18.583 44.359 18.6878 44.792 18.8975C45.2295 19.1071 45.5781 19.3805 45.8379 19.7178C46.0977 20.0505 46.2959 20.4082 46.4326 20.791C46.5693 21.1738 46.6377 21.5566 46.6377 21.9395L46.5625 22.6367H41.1074C41.1439 23.4479 41.374 24.0723 41.7979 24.5098C42.2217 24.9427 42.7617 25.1592 43.418 25.1592C44.2565 25.1592 44.8854 24.8105 45.3047 24.1133H46.4258C46.1842 24.765 45.7992 25.2663 45.2705 25.6172C44.7464 25.9635 44.1289 26.1367 43.418 26.1367ZM41.1074 21.7275H45.585C45.5212 21.0439 45.2842 20.513 44.874 20.1348C44.4639 19.752 43.9535 19.5605 43.3428 19.5605C42.7367 19.5605 42.2285 19.752 41.8184 20.1348C41.4082 20.513 41.1712 21.0439 41.1074 21.7275ZM53.4189 25.1592C54.1025 25.1592 54.6449 24.9655 55.0459 24.5781C55.4515 24.1908 55.6543 23.7077 55.6543 23.1289V22.6367H53.624C53.0726 22.6367 52.6556 22.7507 52.373 22.9785C52.0905 23.2018 51.9492 23.5094 51.9492 23.9014C51.9492 24.2842 52.0791 24.5895 52.3389 24.8174C52.6032 25.0452 52.9632 25.1592 53.4189 25.1592ZM53.4189 26.1367C52.6624 26.1367 52.0518 25.9248 51.5869 25.501C51.1266 25.0771 50.8965 24.5439 50.8965 23.9014C50.8965 23.2497 51.138 22.7142 51.6211 22.2949C52.1087 21.8711 52.7764 21.6592 53.624 21.6592H55.6543V21.167C55.6543 20.6839 55.4925 20.2965 55.1689 20.0049C54.8499 19.7087 54.4284 19.5605 53.9043 19.5605C53.0156 19.5605 52.4551 19.9115 52.2227 20.6133H51.1084C51.277 19.9616 51.6074 19.4603 52.0996 19.1094C52.5964 18.7585 53.1979 18.583 53.9043 18.583C54.7702 18.583 55.4538 18.8177 55.9551 19.2871C56.4564 19.7565 56.707 20.3831 56.707 21.167V26H55.8662L55.7227 25.0225H55.6543C55.4948 25.3005 55.21 25.5557 54.7998 25.7881C54.3942 26.0205 53.9339 26.1367 53.4189 26.1367ZM60.8975 26.1367C60.1774 26.1367 59.5645 25.9521 59.0586 25.583C58.5573 25.2093 58.2383 24.7194 58.1016 24.1133H59.2227C59.3275 24.4505 59.5326 24.7103 59.8379 24.8926C60.1432 25.0703 60.4964 25.1592 60.8975 25.1592C61.4671 25.1592 61.9001 25.0566 62.1963 24.8516C62.4971 24.6465 62.6475 24.3753 62.6475 24.0381C62.6475 23.7601 62.5404 23.5345 62.3262 23.3613C62.112 23.1882 61.8431 23.0674 61.5195 22.999C61.2005 22.9261 60.8542 22.8395 60.4805 22.7393C60.1068 22.6344 59.7581 22.5228 59.4346 22.4043C59.1156 22.2812 58.8467 22.0671 58.6279 21.7617C58.4137 21.4518 58.3066 21.069 58.3066 20.6133C58.3066 20.0618 58.5436 19.5856 59.0176 19.1846C59.4961 18.7835 60.1227 18.583 60.8975 18.583C61.5492 18.583 62.1211 18.7425 62.6133 19.0615C63.1055 19.376 63.4199 19.8226 63.5566 20.4014H62.4424C62.2008 19.8408 61.6859 19.5605 60.8975 19.5605C60.3825 19.5605 59.9974 19.654 59.7422 19.8408C59.487 20.0277 59.3594 20.2852 59.3594 20.6133C59.3594 20.9596 59.5075 21.2285 59.8037 21.4199C60.1045 21.6068 60.4668 21.748 60.8906 21.8438C61.3145 21.9349 61.7383 22.0397 62.1621 22.1582C62.5905 22.2721 62.9528 22.4863 63.249 22.8008C63.5498 23.1152 63.7002 23.5277 63.7002 24.0381C63.7002 24.6169 63.445 25.1113 62.9346 25.5215C62.4242 25.9316 61.7451 26.1367 60.8975 26.1367ZM70.5498 26C70.0257 26 69.5905 25.8268 69.2441 25.4805C68.9023 25.1341 68.7314 24.7012 68.7314 24.1816V19.6973H67.6104V18.7197H68.7314L68.875 16.7578H69.7842V18.7197H71.6709V19.6973H69.7842V24.1816C69.7842 24.4232 69.8617 24.6237 70.0166 24.7832C70.1761 24.9427 70.3789 25.0225 70.625 25.0225H71.6709V26H70.5498ZM73.2158 26V18.7197H74.0566L74.2002 19.6973H74.2686C74.6605 19.0456 75.3145 18.7197 76.2305 18.7197H76.9961V19.6973H76.2305C75.6699 19.6973 75.2028 19.8704 74.8291 20.2168C74.4554 20.5632 74.2686 20.9984 74.2686 21.5225V26H73.2158ZM80.1611 25.1592C80.8447 25.1592 81.387 24.9655 81.7881 24.5781C82.1937 24.1908 82.3965 23.7077 82.3965 23.1289V22.6367H80.3662C79.8148 22.6367 79.3978 22.7507 79.1152 22.9785C78.8327 23.2018 78.6914 23.5094 78.6914 23.9014C78.6914 24.2842 78.8213 24.5895 79.0811 24.8174C79.3454 25.0452 79.7054 25.1592 80.1611 25.1592ZM80.1611 26.1367C79.4046 26.1367 78.7939 25.9248 78.3291 25.501C77.8688 25.0771 77.6387 24.5439 77.6387 23.9014C77.6387 23.2497 77.8802 22.7142 78.3633 22.2949C78.8509 21.8711 79.5186 21.6592 80.3662 21.6592H82.3965V21.167C82.3965 20.6839 82.2347 20.2965 81.9111 20.0049C81.5921 19.7087 81.1706 19.5605 80.6465 19.5605C79.7578 19.5605 79.1973 19.9115 78.9648 20.6133H77.8506C78.0192 19.9616 78.3496 19.4603 78.8418 19.1094C79.3385 18.7585 79.9401 18.583 80.6465 18.583C81.5124 18.583 82.196 18.8177 82.6973 19.2871C83.1986 19.7565 83.4492 20.3831 83.4492 21.167V26H82.6084L82.4648 25.0225H82.3965C82.237 25.3005 81.9521 25.5557 81.542 25.7881C81.1364 26.0205 80.6761 26.1367 80.1611 26.1367ZM85.3291 26V18.7197H86.1699L86.3135 19.6973H86.3818C86.8193 18.9499 87.5189 18.5785 88.4805 18.583C89.2643 18.583 89.916 18.8519 90.4355 19.3896C90.9551 19.9229 91.2148 20.6338 91.2148 21.5225V26H90.1621V21.5225C90.1621 20.9072 89.9935 20.4264 89.6562 20.0801C89.319 19.7337 88.8815 19.5605 88.3438 19.5605C87.7923 19.5605 87.3275 19.7542 86.9492 20.1416C86.571 20.529 86.3818 20.9893 86.3818 21.5225V26H85.3291ZM95.4053 26.1367C94.6852 26.1367 94.0723 25.9521 93.5664 25.583C93.0651 25.2093 92.7461 24.7194 92.6094 24.1133H93.7305C93.8353 24.4505 94.0404 24.7103 94.3457 24.8926C94.651 25.0703 95.0042 25.1592 95.4053 25.1592C95.9749 25.1592 96.4079 25.0566 96.7041 24.8516C97.0049 24.6465 97.1553 24.3753 97.1553 24.0381C97.1553 23.7601 97.0482 23.5345 96.834 23.3613C96.6198 23.1882 96.3509 23.0674 96.0273 22.999C95.7083 22.9261 95.362 22.8395 94.9883 22.7393C94.6146 22.6344 94.266 22.5228 93.9424 22.4043C93.6234 22.2812 93.3545 22.0671 93.1357 21.7617C92.9215 21.4518 92.8145 21.069 92.8145 20.6133C92.8145 20.0618 93.0514 19.5856 93.5254 19.1846C94.0039 18.7835 94.6305 18.583 95.4053 18.583C96.057 18.583 96.6289 18.7425 97.1211 19.0615C97.6133 19.376 97.9277 19.8226 98.0645 20.4014H96.9502C96.7087 19.8408 96.1937 19.5605 95.4053 19.5605C94.8903 19.5605 94.5052 19.654 94.25 19.8408C93.9948 20.0277 93.8672 20.2852 93.8672 20.6133C93.8672 20.9596 94.0153 21.2285 94.3115 21.4199C94.6123 21.6068 94.9746 21.748 95.3984 21.8438C95.8223 21.9349 96.2461 22.0397 96.6699 22.1582C97.0983 22.2721 97.4606 22.4863 97.7568 22.8008C98.0576 23.1152 98.208 23.5277 98.208 24.0381C98.208 24.6169 97.9528 25.1113 97.4424 25.5215C96.932 25.9316 96.2529 26.1367 95.4053 26.1367ZM102.686 26.1367C101.678 26.1367 100.865 25.8063 100.245 25.1455C99.6299 24.4847 99.3223 23.5573 99.3223 22.3633C99.3223 21.1647 99.6299 20.235 100.245 19.5742C100.86 18.9134 101.674 18.583 102.686 18.583C103.396 18.583 104.014 18.7585 104.538 19.1094C105.067 19.4557 105.452 19.957 105.693 20.6133H104.572C104.153 19.9115 103.524 19.5605 102.686 19.5605C101.993 19.5605 101.435 19.8066 101.011 20.2988C100.587 20.7865 100.375 21.4746 100.375 22.3633C100.375 23.2474 100.587 23.9355 101.011 24.4277C101.435 24.9154 101.993 25.1592 102.686 25.1592C103.524 25.1592 104.153 24.8105 104.572 24.1133H105.693C105.452 24.765 105.067 25.2663 104.538 25.6172C104.014 25.9635 103.396 26.1367 102.686 26.1367ZM107.163 26V18.7197H108.004L108.147 19.6973H108.216C108.608 19.0456 109.262 18.7197 110.178 18.7197H110.943V19.6973H110.178C109.617 19.6973 109.15 19.8704 108.776 20.2168C108.403 20.5632 108.216 20.9984 108.216 21.5225V26H107.163ZM112.14 26V18.7197H113.192V26H112.14ZM113.192 17.4551C113.051 17.5964 112.878 17.667 112.673 17.667C112.468 17.667 112.292 17.5986 112.146 17.4619C112.005 17.3206 111.935 17.1475 111.935 16.9424C111.935 16.7373 112.005 16.5618 112.146 16.416C112.292 16.2702 112.468 16.1973 112.673 16.1973C112.878 16.1973 113.051 16.2702 113.192 16.416C113.334 16.5618 113.404 16.7373 113.404 16.9424C113.404 17.1383 113.334 17.3092 113.192 17.4551ZM115.147 28.8027V18.7197H115.988L116.132 19.6973H116.2C116.724 18.9499 117.517 18.5785 118.579 18.583C119.513 18.583 120.272 18.9134 120.855 19.5742C121.439 20.235 121.73 21.1647 121.73 22.3633C121.73 23.5573 121.439 24.4847 120.855 25.1455C120.272 25.8063 119.513 26.1367 118.579 26.1367C117.581 26.1367 116.811 25.7881 116.269 25.0908H116.2V28.8027H115.147ZM116.809 24.4346C117.214 24.9176 117.757 25.1592 118.436 25.1592C119.119 25.1592 119.664 24.9176 120.069 24.4346C120.475 23.9469 120.678 23.2565 120.678 22.3633C120.678 21.4655 120.475 20.7751 120.069 20.292C119.664 19.8044 119.119 19.5605 118.436 19.5605C117.757 19.5605 117.214 19.8044 116.809 20.292C116.403 20.7751 116.2 21.4655 116.2 22.3633C116.2 23.2565 116.403 23.9469 116.809 24.4346ZM125.647 26C125.123 26 124.688 25.8268 124.342 25.4805C124 25.1341 123.829 24.7012 123.829 24.1816V19.6973H122.708V18.7197H123.829L123.973 16.7578H124.882V18.7197H126.769V19.6973H124.882V24.1816C124.882 24.4232 124.959 24.6237 125.114 24.7832C125.274 24.9427 125.477 25.0225 125.723 25.0225H126.769V26H125.647Z" fill="white" fill-opacity="0.6"/>
<path d="M180 18L184 22L188 18" stroke="#94A3B8" stroke-width="1.33333" stroke-linecap="round" stroke-linejoin="round"/>
<rect x="0.5" y="0.5" width="203" height="39" rx="5.5" stroke="#CBD5E1"/>
<rect width="204" height="325" transform="translate(0 46)" fill="url(#paint0_linear_77_7348)"/>
<path d="M12.9316 68L16.5684 58.1973H18.3184L21.9619 68H20.417L19.6104 65.7578H15.2832L14.4697 68H12.9316ZM15.7549 64.4316H19.1318L17.4775 59.8789H17.4092L15.7549 64.4316ZM22.7959 68V60.583H23.8486L24.0537 61.5605H24.1289C24.5208 60.9089 25.1497 60.583 26.0156 60.583H26.8564V61.8408H26.084C25.4961 61.8408 25.0221 62.0117 24.6621 62.3535C24.3066 62.6908 24.1289 63.126 24.1289 63.6592V68H22.7959ZM30.1514 66.9473C30.7666 66.9473 31.2588 66.7786 31.6279 66.4414C31.9971 66.0996 32.1816 65.6621 32.1816 65.1289V64.7119H30.2197C29.7367 64.7119 29.3698 64.8122 29.1191 65.0127C28.873 65.2132 28.75 65.4867 28.75 65.833C28.75 66.1748 28.873 66.446 29.1191 66.6465C29.3698 66.847 29.7139 66.9473 30.1514 66.9473ZM29.9395 68.1367C29.1921 68.1367 28.5859 67.9134 28.1211 67.4668C27.6562 67.0202 27.4238 66.4756 27.4238 65.833C27.4238 65.1722 27.6699 64.623 28.1621 64.1855C28.6589 63.7435 29.3447 63.5225 30.2197 63.5225H32.1816V63.167C32.1816 62.7113 32.0358 62.3535 31.7441 62.0938C31.457 61.8294 31.0651 61.6973 30.5684 61.6973C30.1673 61.6973 29.8415 61.7839 29.5908 61.957C29.3402 62.1302 29.1761 62.349 29.0986 62.6133H27.7041C27.8454 61.998 28.1781 61.4831 28.7021 61.0684C29.2308 60.6491 29.8529 60.4395 30.5684 60.4395C31.4935 60.4395 32.2158 60.6901 32.7354 61.1914C33.2549 61.6882 33.5146 62.3467 33.5146 63.167V68H32.3936L32.25 67.0908H32.1816C32.0221 67.3597 31.7396 67.6012 31.334 67.8154C30.9284 68.0296 30.4635 68.1367 29.9395 68.1367ZM38.7646 66.8789C39.3799 66.8789 39.8721 66.6602 40.2412 66.2227C40.6104 65.7852 40.7949 65.1426 40.7949 64.2949C40.7949 63.4427 40.6104 62.7979 40.2412 62.3604C39.8721 61.9183 39.3799 61.6973 38.7646 61.6973C38.1403 61.6973 37.6344 61.9206 37.2471 62.3672C36.8597 62.8092 36.666 63.4518 36.666 64.2949C36.666 65.1335 36.8597 65.7738 37.2471 66.2158C37.6344 66.6579 38.1403 66.8789 38.7646 66.8789ZM38.9766 68.1367C38.015 68.1367 37.2448 67.7653 36.666 67.0225H36.5977L36.3857 68H35.333V58.1973H36.666V61.4922H36.7344C37.2585 60.7904 38.0059 60.4395 38.9766 60.4395C39.9199 60.4395 40.681 60.7767 41.2598 61.4512C41.8385 62.1211 42.1279 63.069 42.1279 64.2949C42.1279 65.5163 41.8385 66.4619 41.2598 67.1318C40.681 67.8018 39.9199 68.1367 38.9766 68.1367ZM43.5908 68V60.583H44.9238V68H43.5908ZM44.2607 59.7422C44.001 59.7422 43.7891 59.6602 43.625 59.4961C43.4609 59.332 43.3789 59.1247 43.3789 58.874C43.3789 58.6143 43.4609 58.4023 43.625 58.2383C43.7891 58.0742 44.001 57.9922 44.2607 57.9922C44.5114 57.9922 44.7188 58.0742 44.8828 58.2383C45.0469 58.3978 45.1289 58.6097 45.1289 58.874C45.1289 59.1247 45.0469 59.332 44.8828 59.4961C44.7188 59.6602 44.5114 59.7422 44.2607 59.7422ZM49.8867 68.1367C48.8249 68.1367 47.9749 67.7972 47.3369 67.1182C46.7035 66.4346 46.3867 65.4912 46.3867 64.2881C46.3867 63.085 46.7035 62.1439 47.3369 61.4648C47.9704 60.7812 48.8203 60.4395 49.8867 60.4395C50.6706 60.4395 51.3382 60.6423 51.8896 61.0479C52.4411 61.4535 52.8239 61.998 53.0381 62.6816H51.6367C51.2721 62.0299 50.6888 61.7018 49.8867 61.6973C49.2441 61.6973 48.7201 61.9251 48.3145 62.3809C47.9134 62.832 47.7129 63.4701 47.7129 64.2949C47.7129 65.1152 47.9134 65.751 48.3145 66.2021C48.7201 66.6533 49.2441 66.8789 49.8867 66.8789C50.6888 66.8789 51.2721 66.5531 51.6367 65.9014H53.0381C52.8239 66.585 52.4411 67.1296 51.8896 67.5352C51.3382 67.9362 50.6706 68.1367 49.8867 68.1367Z" fill="white"/>
<path d="M15.5908 98.667H18.4619C18.9176 98.667 19.2868 98.5348 19.5693 98.2705C19.8564 98.0062 20 97.6507 20 97.2041C20 96.7529 19.8564 96.3952 19.5693 96.1309C19.2868 95.862 18.9176 95.7275 18.4619 95.7275H15.5908V98.667ZM14.1211 100V90.1973H18.4209C19.346 90.1973 20.0615 90.4411 20.5674 90.9287C21.0778 91.4118 21.333 92.0794 21.333 92.9316C21.333 93.4056 21.2168 93.8294 20.9844 94.2031C20.7565 94.5768 20.4512 94.8525 20.0684 95.0303C20.4785 95.2171 20.8135 95.5088 21.0732 95.9053C21.3376 96.3018 21.4697 96.7575 21.4697 97.2725C21.4697 98.1201 21.2145 98.7878 20.7041 99.2754C20.1982 99.7585 19.4827 100 18.5576 100H14.1211ZM15.5908 94.4697H18.3184C18.7741 94.4697 19.1455 94.3376 19.4326 94.0732C19.7197 93.8044 19.8633 93.4466 19.8633 93C19.8633 92.5534 19.7197 92.1979 19.4326 91.9336C19.1501 91.6647 18.7786 91.5303 18.3184 91.5303H15.5908V94.4697ZM25.3936 98.9473C26.0088 98.9473 26.501 98.7786 26.8701 98.4414C27.2393 98.0996 27.4238 97.6621 27.4238 97.1289V96.7119H25.4619C24.9788 96.7119 24.612 96.8122 24.3613 97.0127C24.1152 97.2132 23.9922 97.4867 23.9922 97.833C23.9922 98.1748 24.1152 98.446 24.3613 98.6465C24.612 98.847 24.9561 98.9473 25.3936 98.9473ZM25.1816 100.137C24.4342 100.137 23.8281 99.9134 23.3633 99.4668C22.8984 99.0202 22.666 98.4756 22.666 97.833C22.666 97.1722 22.9121 96.623 23.4043 96.1855C23.901 95.7435 24.5869 95.5225 25.4619 95.5225H27.4238V95.167C27.4238 94.7113 27.278 94.3535 26.9863 94.0938C26.6992 93.8294 26.3073 93.6973 25.8105 93.6973C25.4095 93.6973 25.0837 93.7839 24.833 93.957C24.5824 94.1302 24.4183 94.349 24.3408 94.6133H22.9463C23.0876 93.998 23.4202 93.4831 23.9443 93.0684C24.473 92.6491 25.0951 92.4395 25.8105 92.4395C26.7357 92.4395 27.458 92.6901 27.9775 93.1914C28.4971 93.6882 28.7568 94.3467 28.7568 95.167V100H27.6357L27.4922 99.0908H27.4238C27.2643 99.3597 26.9818 99.6012 26.5762 99.8154C26.1706 100.03 25.7057 100.137 25.1816 100.137ZM30.5752 100V90.1973H31.9082V93.4922H31.9766C32.1816 93.1549 32.4665 92.8952 32.8311 92.7129C33.1956 92.5306 33.5876 92.4395 34.0068 92.4395C34.818 92.4395 35.4743 92.7152 35.9756 93.2666C36.4814 93.818 36.7344 94.5449 36.7344 95.4473V100H35.4082V95.5225C35.4082 94.9437 35.2533 94.4948 34.9434 94.1758C34.638 93.8568 34.2324 93.6973 33.7266 93.6973C33.2116 93.6973 32.7786 93.8773 32.4277 94.2373C32.0814 94.5973 31.9082 95.0257 31.9082 95.5225V100H30.5752ZM40.8018 98.9473C41.417 98.9473 41.9092 98.7786 42.2783 98.4414C42.6475 98.0996 42.832 97.6621 42.832 97.1289V96.7119H40.8701C40.387 96.7119 40.0202 96.8122 39.7695 97.0127C39.5234 97.2132 39.4004 97.4867 39.4004 97.833C39.4004 98.1748 39.5234 98.446 39.7695 98.6465C40.0202 98.847 40.3643 98.9473 40.8018 98.9473ZM40.5898 100.137C39.8424 100.137 39.2363 99.9134 38.7715 99.4668C38.3066 99.0202 38.0742 98.4756 38.0742 97.833C38.0742 97.1722 38.3203 96.623 38.8125 96.1855C39.3092 95.7435 39.9951 95.5225 40.8701 95.5225H42.832V95.167C42.832 94.7113 42.6862 94.3535 42.3945 94.0938C42.1074 93.8294 41.7155 93.6973 41.2188 93.6973C40.8177 93.6973 40.4919 93.7839 40.2412 93.957C39.9906 94.1302 39.8265 94.349 39.749 94.6133H38.3545C38.4958 93.998 38.8285 93.4831 39.3525 93.0684C39.8812 92.6491 40.5033 92.4395 41.2188 92.4395C42.1439 92.4395 42.8662 92.6901 43.3857 93.1914C43.9053 93.6882 44.165 94.3467 44.165 95.167V100H43.0439L42.9004 99.0908H42.832C42.6725 99.3597 42.39 99.6012 41.9844 99.8154C41.5788 100.03 41.1139 100.137 40.5898 100.137ZM48.3691 100.137C47.5853 100.137 46.9222 99.9362 46.3799 99.5352C45.8376 99.1341 45.4958 98.6123 45.3545 97.9697H46.8242C47.0111 98.5758 47.526 98.8789 48.3691 98.8789C48.9023 98.8789 49.3034 98.7923 49.5723 98.6191C49.8411 98.446 49.9756 98.2295 49.9756 97.9697C49.9756 97.7191 49.8685 97.5186 49.6543 97.3682C49.4401 97.2178 49.1712 97.113 48.8477 97.0537C48.5286 96.9945 48.1823 96.9147 47.8086 96.8145C47.4349 96.7096 47.0863 96.5911 46.7627 96.459C46.4391 96.3268 46.1702 96.1035 45.9561 95.7891C45.7419 95.4701 45.6348 95.0781 45.6348 94.6133C45.6348 93.998 45.874 93.4831 46.3525 93.0684C46.8356 92.6491 47.4827 92.4395 48.2939 92.4395C49.0505 92.4395 49.6953 92.6263 50.2285 93C50.7617 93.3737 51.0967 93.8636 51.2334 94.4697H49.7637C49.5039 93.9548 49.014 93.6973 48.2939 93.6973C47.4053 93.6973 46.9632 94.0026 46.9678 94.6133C46.9678 94.8639 47.0749 95.0667 47.2891 95.2217C47.5033 95.3721 47.7699 95.4792 48.0889 95.543C48.4124 95.6022 48.7611 95.6865 49.1348 95.7959C49.5085 95.9007 49.8548 96.0192 50.1738 96.1514C50.4974 96.279 50.7663 96.5 50.9805 96.8145C51.1992 97.1289 51.3086 97.514 51.3086 97.9697C51.3086 98.585 51.0465 99.0999 50.5225 99.5146C50.0029 99.9294 49.2852 100.137 48.3691 100.137ZM54.9521 98.9473C55.5674 98.9473 56.0596 98.7786 56.4287 98.4414C56.7979 98.0996 56.9824 97.6621 56.9824 97.1289V96.7119H55.0205C54.5374 96.7119 54.1706 96.8122 53.9199 97.0127C53.6738 97.2132 53.5508 97.4867 53.5508 97.833C53.5508 98.1748 53.6738 98.446 53.9199 98.6465C54.1706 98.847 54.5146 98.9473 54.9521 98.9473ZM54.7402 100.137C53.9928 100.137 53.3867 99.9134 52.9219 99.4668C52.457 99.0202 52.2246 98.4756 52.2246 97.833C52.2246 97.1722 52.4707 96.623 52.9629 96.1855C53.4596 95.7435 54.1455 95.5225 55.0205 95.5225H56.9824V95.167C56.9824 94.7113 56.8366 94.3535 56.5449 94.0938C56.2578 93.8294 55.8659 93.6973 55.3691 93.6973C54.9681 93.6973 54.6423 93.7839 54.3916 93.957C54.141 94.1302 53.9769 94.349 53.8994 94.6133H52.5049C52.6462 93.998 52.9788 93.4831 53.5029 93.0684C54.0316 92.6491 54.6536 92.4395 55.3691 92.4395C56.2943 92.4395 57.0166 92.6901 57.5361 93.1914C58.0557 93.6882 58.3154 94.3467 58.3154 95.167V100H57.1943L57.0508 99.0908H56.9824C56.8229 99.3597 56.5404 99.6012 56.1348 99.8154C55.7292 100.03 55.2643 100.137 54.7402 100.137ZM63.3535 100V90.1973H64.8232V100H63.3535ZM66.8467 100V92.583H67.8994L68.1045 93.5605H68.1797C68.6354 92.8132 69.335 92.4395 70.2783 92.4395C71.0895 92.4395 71.7458 92.7152 72.2471 93.2666C72.7529 93.818 73.0059 94.5449 73.0059 95.4473V100H71.6797V95.5225C71.6797 94.9437 71.5247 94.4948 71.2148 94.1758C70.9095 93.8568 70.5039 93.6973 69.998 93.6973C69.4831 93.6973 69.0501 93.8773 68.6992 94.2373C68.3529 94.5973 68.1797 95.0257 68.1797 95.5225V100H66.8467ZM77.7705 98.8789C78.3949 98.8789 78.9007 98.6579 79.2881 98.2158C79.68 97.7738 79.876 97.1335 79.876 96.2949C79.876 95.4518 79.6823 94.8092 79.2949 94.3672C78.9076 93.9206 78.3994 93.6973 77.7705 93.6973C77.1553 93.6973 76.6631 93.9183 76.2939 94.3604C75.9248 94.7979 75.7402 95.4427 75.7402 96.2949C75.7402 97.1426 75.9248 97.7852 76.2939 98.2227C76.6631 98.6602 77.1553 98.8789 77.7705 98.8789ZM77.5654 100.137C76.6221 100.137 75.861 99.8018 75.2822 99.1318C74.7035 98.4619 74.4141 97.514 74.4141 96.2881C74.4141 95.0576 74.708 94.1097 75.2959 93.4443C75.8838 92.7744 76.6631 92.4395 77.6338 92.4395C78.5589 92.4395 79.2812 92.7904 79.8008 93.4922H79.876V90.1973H81.2021V100H80.1562L79.9443 99.0225H79.876C79.2972 99.7653 78.527 100.137 77.5654 100.137ZM88.6602 99.1182C88.0358 99.7972 87.2041 100.137 86.165 100.137C85.1305 100.137 84.3011 99.7972 83.6768 99.1182C83.0524 98.4346 82.7402 97.4912 82.7402 96.2881C82.7402 95.085 83.0524 94.1439 83.6768 93.4648C84.3011 92.7812 85.1305 92.4395 86.165 92.4395C87.2041 92.4395 88.0358 92.7812 88.6602 93.4648C89.2845 94.1439 89.5967 95.085 89.5967 96.2881C89.5967 97.4912 89.2845 98.4346 88.6602 99.1182ZM84.6475 98.2158C85.0348 98.6579 85.5407 98.8789 86.165 98.8789C86.7939 98.8789 87.3021 98.6579 87.6895 98.2158C88.0768 97.7738 88.2705 97.1335 88.2705 96.2949C88.2705 95.4518 88.0768 94.8092 87.6895 94.3672C87.3021 93.9206 86.7939 93.6973 86.165 93.6973C85.5407 93.6973 85.0348 93.9206 84.6475 94.3672C84.2601 94.8092 84.0664 95.4518 84.0664 96.2949C84.0664 97.1335 84.2601 97.7738 84.6475 98.2158ZM91.0732 100V92.583H92.126L92.3311 93.5605H92.4062C92.862 92.8132 93.5615 92.4395 94.5049 92.4395C95.3161 92.4395 95.9723 92.7152 96.4736 93.2666C96.9795 93.818 97.2324 94.5449 97.2324 95.4473V100H95.9062V95.5225C95.9062 94.9437 95.7513 94.4948 95.4414 94.1758C95.1361 93.8568 94.7305 93.6973 94.2246 93.6973C93.7096 93.6973 93.2767 93.8773 92.9258 94.2373C92.5794 94.5973 92.4062 95.0257 92.4062 95.5225V100H91.0732ZM102.141 100.137C101.079 100.137 100.229 99.7972 99.5908 99.1182C98.9574 98.4346 98.6406 97.4912 98.6406 96.2881C98.6406 95.085 98.9528 94.1439 99.5771 93.4648C100.201 92.7812 101.033 92.4395 102.072 92.4395C103.125 92.4395 103.959 92.7949 104.574 93.5059C105.189 94.2122 105.497 95.0234 105.497 95.9395L105.429 96.7119H100.028C100.065 97.4046 100.274 97.9401 100.657 98.3184C101.04 98.6921 101.535 98.8789 102.141 98.8789C102.906 98.8789 103.49 98.5758 103.891 97.9697H105.36C105.11 98.6214 104.704 99.1455 104.144 99.542C103.583 99.9385 102.915 100.137 102.141 100.137ZM100.028 95.5908H104.13C104.048 94.9938 103.825 94.529 103.46 94.1963C103.095 93.8636 102.633 93.6973 102.072 93.6973C101.512 93.6973 101.049 93.8636 100.685 94.1963C100.32 94.529 100.101 94.9938 100.028 95.5908ZM109.428 100.137C108.644 100.137 107.981 99.9362 107.438 99.5352C106.896 99.1341 106.554 98.6123 106.413 97.9697H107.883C108.07 98.5758 108.585 98.8789 109.428 98.8789C109.961 98.8789 110.362 98.7923 110.631 98.6191C110.9 98.446 111.034 98.2295 111.034 97.9697C111.034 97.7191 110.927 97.5186 110.713 97.3682C110.499 97.2178 110.23 97.113 109.906 97.0537C109.587 96.9945 109.241 96.9147 108.867 96.8145C108.493 96.7096 108.145 96.5911 107.821 96.459C107.498 96.3268 107.229 96.1035 107.015 95.7891C106.8 95.4701 106.693 95.0781 106.693 94.6133C106.693 93.998 106.933 93.4831 107.411 93.0684C107.894 92.6491 108.541 92.4395 109.353 92.4395C110.109 92.4395 110.754 92.6263 111.287 93C111.82 93.3737 112.155 93.8636 112.292 94.4697H110.822C110.562 93.9548 110.073 93.6973 109.353 93.6973C108.464 93.6973 108.022 94.0026 108.026 94.6133C108.026 94.8639 108.133 95.0667 108.348 95.2217C108.562 95.3721 108.828 95.4792 109.147 95.543C109.471 95.6022 109.82 95.6865 110.193 95.7959C110.567 95.9007 110.913 96.0192 111.232 96.1514C111.556 96.279 111.825 96.5 112.039 96.8145C112.258 97.1289 112.367 97.514 112.367 97.9697C112.367 98.585 112.105 99.0999 111.581 99.5146C111.062 99.9294 110.344 100.137 109.428 100.137ZM113.7 100V92.583H115.033V100H113.7ZM114.37 91.7422C114.11 91.7422 113.898 91.6602 113.734 91.4961C113.57 91.332 113.488 91.1247 113.488 90.874C113.488 90.6143 113.57 90.4023 113.734 90.2383C113.898 90.0742 114.11 89.9922 114.37 89.9922C114.621 89.9922 114.828 90.0742 114.992 90.2383C115.156 90.3978 115.238 90.6097 115.238 90.874C115.238 91.1247 115.156 91.332 114.992 91.4961C114.828 91.6602 114.621 91.7422 114.37 91.7422ZM119.155 98.9473C119.771 98.9473 120.263 98.7786 120.632 98.4414C121.001 98.0996 121.186 97.6621 121.186 97.1289V96.7119H119.224C118.741 96.7119 118.374 96.8122 118.123 97.0127C117.877 97.2132 117.754 97.4867 117.754 97.833C117.754 98.1748 117.877 98.446 118.123 98.6465C118.374 98.847 118.718 98.9473 119.155 98.9473ZM118.943 100.137C118.196 100.137 117.59 99.9134 117.125 99.4668C116.66 99.0202 116.428 98.4756 116.428 97.833C116.428 97.1722 116.674 96.623 117.166 96.1855C117.663 95.7435 118.349 95.5225 119.224 95.5225H121.186V95.167C121.186 94.7113 121.04 94.3535 120.748 94.0938C120.461 93.8294 120.069 93.6973 119.572 93.6973C119.171 93.6973 118.845 93.7839 118.595 93.957C118.344 94.1302 118.18 94.349 118.103 94.6133H116.708C116.849 93.998 117.182 93.4831 117.706 93.0684C118.235 92.6491 118.857 92.4395 119.572 92.4395C120.497 92.4395 121.22 92.6901 121.739 93.1914C122.259 93.6882 122.519 94.3467 122.519 95.167V100H121.397L121.254 99.0908H121.186C121.026 99.3597 120.743 99.6012 120.338 99.8154C119.932 100.03 119.467 100.137 118.943 100.137Z" fill="white"/>
<g opacity="0.9">
<path d="M18.1133 132.137C16.7507 132.137 15.6615 131.699 14.8457 130.824C14.0345 129.945 13.6289 128.703 13.6289 127.099C13.6289 125.494 14.0345 124.255 14.8457 123.38C15.6615 122.5 16.7507 122.061 18.1133 122.061C20.1595 122.061 21.5107 123.018 22.167 124.932H20.6289C20.1549 123.906 19.3164 123.391 18.1133 123.387C17.2064 123.387 16.4772 123.708 15.9258 124.351C15.3743 124.989 15.0986 125.905 15.0986 127.099C15.0986 128.293 15.3721 129.211 15.9189 129.854C16.4658 130.492 17.1973 130.811 18.1133 130.811C19.3164 130.811 20.1549 130.298 20.6289 129.272H22.167C21.5107 131.182 20.1595 132.137 18.1133 132.137ZM23.6436 132V122.197H24.9766V125.492H25.0449C25.25 125.155 25.5348 124.895 25.8994 124.713C26.264 124.531 26.6559 124.439 27.0752 124.439C27.8864 124.439 28.5426 124.715 29.0439 125.267C29.5498 125.818 29.8027 126.545 29.8027 127.447V132H28.4766V127.522C28.4766 126.944 28.3216 126.495 28.0117 126.176C27.7064 125.857 27.3008 125.697 26.7949 125.697C26.2799 125.697 25.847 125.877 25.4961 126.237C25.1497 126.597 24.9766 127.026 24.9766 127.522V132H23.6436ZM31.5596 132V124.583H32.8926V132H31.5596ZM32.2295 123.742C31.9697 123.742 31.7578 123.66 31.5938 123.496C31.4297 123.332 31.3477 123.125 31.3477 122.874C31.3477 122.614 31.4297 122.402 31.5938 122.238C31.7578 122.074 31.9697 121.992 32.2295 121.992C32.4801 121.992 32.6875 122.074 32.8516 122.238C33.0156 122.398 33.0977 122.61 33.0977 122.874C33.0977 123.125 33.0156 123.332 32.8516 123.496C32.6875 123.66 32.4801 123.742 32.2295 123.742ZM34.7041 132V124.583H35.7568L35.9619 125.561H36.0371C36.4928 124.813 37.1924 124.439 38.1357 124.439C38.9469 124.439 39.6032 124.715 40.1045 125.267C40.6104 125.818 40.8633 126.545 40.8633 127.447V132H39.5371V127.522C39.5371 126.944 39.3822 126.495 39.0723 126.176C38.7669 125.857 38.3613 125.697 37.8555 125.697C37.3405 125.697 36.9076 125.877 36.5566 126.237C36.2103 126.597 36.0371 127.026 36.0371 127.522V132H34.7041ZM45.7715 132.137C44.7096 132.137 43.8597 131.797 43.2217 131.118C42.5882 130.435 42.2715 129.491 42.2715 128.288C42.2715 127.085 42.5837 126.144 43.208 125.465C43.8324 124.781 44.6641 124.439 45.7031 124.439C46.7559 124.439 47.5898 124.795 48.2051 125.506C48.8203 126.212 49.1279 127.023 49.1279 127.939L49.0596 128.712H43.6592C43.6956 129.405 43.9053 129.94 44.2881 130.318C44.6709 130.692 45.1654 130.879 45.7715 130.879C46.5371 130.879 47.1204 130.576 47.5215 129.97H48.9912C48.7406 130.621 48.335 131.146 47.7744 131.542C47.2139 131.938 46.5462 132.137 45.7715 132.137ZM43.6592 127.591H47.7607C47.6787 126.994 47.4554 126.529 47.0908 126.196C46.7262 125.864 46.2637 125.697 45.7031 125.697C45.1426 125.697 44.68 125.864 44.3154 126.196C43.9508 126.529 43.7321 126.994 43.6592 127.591ZM53.0586 132.137C52.2747 132.137 51.6117 131.936 51.0693 131.535C50.527 131.134 50.1852 130.612 50.0439 129.97H51.5137C51.7005 130.576 52.2155 130.879 53.0586 130.879C53.5918 130.879 53.9928 130.792 54.2617 130.619C54.5306 130.446 54.665 130.229 54.665 129.97C54.665 129.719 54.5579 129.519 54.3438 129.368C54.1296 129.218 53.8607 129.113 53.5371 129.054C53.2181 128.994 52.8717 128.915 52.498 128.814C52.1243 128.71 51.7757 128.591 51.4521 128.459C51.1286 128.327 50.8597 128.104 50.6455 127.789C50.4313 127.47 50.3242 127.078 50.3242 126.613C50.3242 125.998 50.5635 125.483 51.042 125.068C51.5251 124.649 52.1722 124.439 52.9834 124.439C53.7399 124.439 54.3848 124.626 54.918 125C55.4512 125.374 55.7861 125.864 55.9229 126.47H54.4531C54.1934 125.955 53.7035 125.697 52.9834 125.697C52.0947 125.697 51.6527 126.003 51.6572 126.613C51.6572 126.864 51.7643 127.067 51.9785 127.222C52.1927 127.372 52.4593 127.479 52.7783 127.543C53.1019 127.602 53.4505 127.687 53.8242 127.796C54.1979 127.901 54.5443 128.019 54.8633 128.151C55.1868 128.279 55.4557 128.5 55.6699 128.814C55.8887 129.129 55.998 129.514 55.998 129.97C55.998 130.585 55.736 131.1 55.2119 131.515C54.6924 131.929 53.9746 132.137 53.0586 132.137ZM60.4824 132.137C59.4206 132.137 58.5706 131.797 57.9326 131.118C57.2992 130.435 56.9824 129.491 56.9824 128.288C56.9824 127.085 57.2946 126.144 57.9189 125.465C58.5433 124.781 59.375 124.439 60.4141 124.439C61.4668 124.439 62.3008 124.795 62.916 125.506C63.5312 126.212 63.8389 127.023 63.8389 127.939L63.7705 128.712H58.3701C58.4066 129.405 58.6162 129.94 58.999 130.318C59.3818 130.692 59.8763 130.879 60.4824 130.879C61.248 130.879 61.8314 130.576 62.2324 129.97H63.7021C63.4515 130.621 63.0459 131.146 62.4854 131.542C61.9248 131.938 61.2572 132.137 60.4824 132.137ZM58.3701 127.591H62.4717C62.3896 126.994 62.1663 126.529 61.8018 126.196C61.4372 125.864 60.9746 125.697 60.4141 125.697C59.8535 125.697 59.391 125.864 59.0264 126.196C58.6618 126.529 58.443 126.994 58.3701 127.591Z" fill="white"/>
</g>
<g opacity="0.8">
<path d="M14.1211 164V154.197H20.417V155.53H15.5908V158.401H20.1367V159.728H15.5908V162.667H20.5605V164H14.1211ZM22.167 164V156.583H23.2197L23.4248 157.561H23.5C23.9557 156.813 24.6553 156.439 25.5986 156.439C26.4098 156.439 27.0661 156.715 27.5674 157.267C28.0732 157.818 28.3262 158.545 28.3262 159.447V164H27V159.522C27 158.944 26.8451 158.495 26.5352 158.176C26.2298 157.857 25.8242 157.697 25.3184 157.697C24.8034 157.697 24.3704 157.877 24.0195 158.237C23.6732 158.597 23.5 159.026 23.5 159.522V164H22.167ZM33.2344 166.803C32.3958 166.803 31.6872 166.6 31.1084 166.194C30.5296 165.793 30.1172 165.226 29.8711 164.492H31.2725C31.5505 165.194 32.2044 165.543 33.2344 165.538C33.8496 165.538 34.3304 165.39 34.6768 165.094C35.0231 164.802 35.1963 164.367 35.1963 163.788V162.599H35.1211C34.6243 163.25 33.8792 163.578 32.8857 163.583C31.9515 163.583 31.1927 163.271 30.6094 162.646C30.026 162.018 29.7344 161.143 29.7344 160.021C29.7344 158.891 30.026 158.012 30.6094 157.383C31.1927 156.754 31.9515 156.439 32.8857 156.439C33.3688 156.439 33.8109 156.544 34.2119 156.754C34.613 156.964 34.9411 157.232 35.1963 157.561H35.2646L35.4766 156.583H36.5225V163.788C36.5225 164.741 36.2354 165.481 35.6611 166.01C35.0869 166.538 34.278 166.803 33.2344 166.803ZM33.0908 162.318C33.7061 162.318 34.2096 162.113 34.6016 161.703C34.998 161.293 35.1963 160.732 35.1963 160.021C35.1963 159.301 35.0003 158.734 34.6084 158.319C34.2165 157.905 33.7106 157.697 33.0908 157.697C32.4847 157.697 31.9948 157.905 31.6211 158.319C31.2474 158.729 31.0605 159.297 31.0605 160.021C31.0605 160.742 31.2474 161.304 31.6211 161.71C31.9948 162.116 32.4847 162.318 33.0908 162.318ZM38.4092 164V154.197H39.7422V164H38.4092ZM41.6357 164V156.583H42.9688V164H41.6357ZM42.3057 155.742C42.0459 155.742 41.834 155.66 41.6699 155.496C41.5059 155.332 41.4238 155.125 41.4238 154.874C41.4238 154.614 41.5059 154.402 41.6699 154.238C41.834 154.074 42.0459 153.992 42.3057 153.992C42.5563 153.992 42.7637 154.074 42.9277 154.238C43.0918 154.398 43.1738 154.61 43.1738 154.874C43.1738 155.125 43.0918 155.332 42.9277 155.496C42.7637 155.66 42.5563 155.742 42.3057 155.742ZM47.2344 164.137C46.4505 164.137 45.7874 163.936 45.2451 163.535C44.7028 163.134 44.361 162.612 44.2197 161.97H45.6895C45.8763 162.576 46.3913 162.879 47.2344 162.879C47.7676 162.879 48.1686 162.792 48.4375 162.619C48.7064 162.446 48.8408 162.229 48.8408 161.97C48.8408 161.719 48.7337 161.519 48.5195 161.368C48.3053 161.218 48.0365 161.113 47.7129 161.054C47.3939 160.994 47.0475 160.915 46.6738 160.814C46.3001 160.71 45.9515 160.591 45.6279 160.459C45.3044 160.327 45.0355 160.104 44.8213 159.789C44.6071 159.47 44.5 159.078 44.5 158.613C44.5 157.998 44.7393 157.483 45.2178 157.068C45.7008 156.649 46.348 156.439 47.1592 156.439C47.9157 156.439 48.5605 156.626 49.0938 157C49.627 157.374 49.9619 157.864 50.0986 158.47H48.6289C48.3691 157.955 47.8792 157.697 47.1592 157.697C46.2705 157.697 45.8285 158.003 45.833 158.613C45.833 158.864 45.9401 159.067 46.1543 159.222C46.3685 159.372 46.6351 159.479 46.9541 159.543C47.2777 159.602 47.6263 159.687 48 159.796C48.3737 159.901 48.7201 160.019 49.0391 160.151C49.3626 160.279 49.6315 160.5 49.8457 160.814C50.0645 161.129 50.1738 161.514 50.1738 161.97C50.1738 162.585 49.9118 163.1 49.3877 163.515C48.8682 163.929 48.1504 164.137 47.2344 164.137ZM51.5752 164V154.197H52.9082V157.492H52.9766C53.1816 157.155 53.4665 156.895 53.8311 156.713C54.1956 156.531 54.5876 156.439 55.0068 156.439C55.818 156.439 56.4743 156.715 56.9756 157.267C57.4814 157.818 57.7344 158.545 57.7344 159.447V164H56.4082V159.522C56.4082 158.944 56.2533 158.495 55.9434 158.176C55.638 157.857 55.2324 157.697 54.7266 157.697C54.2116 157.697 53.7786 157.877 53.4277 158.237C53.0814 158.597 52.9082 159.026 52.9082 159.522V164H51.5752Z" fill="white"/>
</g>
<g opacity="0.7">
<path d="M14.1211 196V186.197H20.417V187.53H15.5908V190.613H20.0684V191.939H15.5908V196H14.1211ZM21.6064 196V188.583H22.6592L22.8643 189.561H22.9395C23.3314 188.909 23.9603 188.583 24.8262 188.583H25.667V189.841H24.8945C24.3066 189.841 23.8327 190.012 23.4727 190.354C23.1172 190.691 22.9395 191.126 22.9395 191.659V196H21.6064ZM29.6523 196.137C28.5905 196.137 27.7406 195.797 27.1025 195.118C26.4691 194.435 26.1523 193.491 26.1523 192.288C26.1523 191.085 26.4645 190.144 27.0889 189.465C27.7132 188.781 28.5449 188.439 29.584 188.439C30.6367 188.439 31.4707 188.795 32.0859 189.506C32.7012 190.212 33.0088 191.023 33.0088 191.939L32.9404 192.712H27.54C27.5765 193.405 27.7861 193.94 28.1689 194.318C28.5518 194.692 29.0462 194.879 29.6523 194.879C30.418 194.879 31.0013 194.576 31.4023 193.97H32.8721C32.6214 194.621 32.2158 195.146 31.6553 195.542C31.0947 195.938 30.4271 196.137 29.6523 196.137ZM27.54 191.591H31.6416C31.5596 190.994 31.3363 190.529 30.9717 190.196C30.6071 189.864 30.1445 189.697 29.584 189.697C29.0234 189.697 28.5609 189.864 28.1963 190.196C27.8317 190.529 27.613 190.994 27.54 191.591ZM34.4854 196V188.583H35.5381L35.7432 189.561H35.8184C36.2741 188.813 36.9736 188.439 37.917 188.439C38.7282 188.439 39.3844 188.715 39.8857 189.267C40.3916 189.818 40.6445 190.545 40.6445 191.447V196H39.3184V191.522C39.3184 190.944 39.1634 190.495 38.8535 190.176C38.5482 189.857 38.1426 189.697 37.6367 189.697C37.1217 189.697 36.6888 189.877 36.3379 190.237C35.9915 190.597 35.8184 191.026 35.8184 191.522V196H34.4854ZM45.5527 196.137C44.4909 196.137 43.641 195.797 43.0029 195.118C42.3695 194.435 42.0527 193.491 42.0527 192.288C42.0527 191.085 42.3695 190.144 43.0029 189.465C43.6364 188.781 44.4863 188.439 45.5527 188.439C46.3366 188.439 47.0042 188.642 47.5557 189.048C48.1071 189.453 48.4899 189.998 48.7041 190.682H47.3027C46.9382 190.03 46.3548 189.702 45.5527 189.697C44.9102 189.697 44.3861 189.925 43.9805 190.381C43.5794 190.832 43.3789 191.47 43.3789 192.295C43.3789 193.115 43.5794 193.751 43.9805 194.202C44.3861 194.653 44.9102 194.879 45.5527 194.879C46.3548 194.879 46.9382 194.553 47.3027 193.901H48.7041C48.4899 194.585 48.1071 195.13 47.5557 195.535C47.0042 195.936 46.3366 196.137 45.5527 196.137ZM50.167 196V186.197H51.5V189.492H51.5684C51.7734 189.155 52.0583 188.895 52.4229 188.713C52.7874 188.531 53.1794 188.439 53.5986 188.439C54.4098 188.439 55.0661 188.715 55.5674 189.267C56.0732 189.818 56.3262 190.545 56.3262 191.447V196H55V191.522C55 190.944 54.8451 190.495 54.5352 190.176C54.2298 189.857 53.8242 189.697 53.3184 189.697C52.8034 189.697 52.3704 189.877 52.0195 190.237C51.6732 190.597 51.5 191.026 51.5 191.522V196H50.167Z" fill="white"/>
</g>
<g opacity="0.5">
<path d="M14.1211 228V218.197H15.5908V222.401H20.3486V218.197H21.8184V228H20.3486V223.728H15.5908V228H14.1211ZM23.8486 228V220.583H25.1816V228H23.8486ZM24.5186 219.742C24.2588 219.742 24.0469 219.66 23.8828 219.496C23.7188 219.332 23.6367 219.125 23.6367 218.874C23.6367 218.614 23.7188 218.402 23.8828 218.238C24.0469 218.074 24.2588 217.992 24.5186 217.992C24.7692 217.992 24.9766 218.074 25.1406 218.238C25.3047 218.398 25.3867 218.61 25.3867 218.874C25.3867 219.125 25.3047 219.332 25.1406 219.496C24.9766 219.66 24.7692 219.742 24.5186 219.742ZM26.9932 228V220.583H28.0459L28.251 221.561H28.3262C28.7819 220.813 29.4814 220.439 30.4248 220.439C31.236 220.439 31.8923 220.715 32.3936 221.267C32.8994 221.818 33.1523 222.545 33.1523 223.447V228H31.8262V223.522C31.8262 222.944 31.6712 222.495 31.3613 222.176C31.056 221.857 30.6504 221.697 30.1445 221.697C29.6296 221.697 29.1966 221.877 28.8457 222.237C28.4993 222.597 28.3262 223.026 28.3262 223.522V228H26.9932ZM37.917 226.879C38.5413 226.879 39.0472 226.658 39.4346 226.216C39.8265 225.774 40.0225 225.133 40.0225 224.295C40.0225 223.452 39.8288 222.809 39.4414 222.367C39.054 221.921 38.5459 221.697 37.917 221.697C37.3018 221.697 36.8096 221.918 36.4404 222.36C36.0713 222.798 35.8867 223.443 35.8867 224.295C35.8867 225.143 36.0713 225.785 36.4404 226.223C36.8096 226.66 37.3018 226.879 37.917 226.879ZM37.7119 228.137C36.7686 228.137 36.0075 227.802 35.4287 227.132C34.8499 226.462 34.5605 225.514 34.5605 224.288C34.5605 223.058 34.8545 222.11 35.4424 221.444C36.0303 220.774 36.8096 220.439 37.7803 220.439C38.7054 220.439 39.4277 220.79 39.9473 221.492H40.0225V218.197H41.3486V228H40.3027L40.0908 227.022H40.0225C39.4437 227.765 38.6735 228.137 37.7119 228.137ZM43.2354 228V220.583H44.5684V228H43.2354ZM43.9053 219.742C43.6455 219.742 43.4336 219.66 43.2695 219.496C43.1055 219.332 43.0234 219.125 43.0234 218.874C43.0234 218.614 43.1055 218.402 43.2695 218.238C43.4336 218.074 43.6455 217.992 43.9053 217.992C44.1559 217.992 44.3633 218.074 44.5273 218.238C44.6914 218.398 44.7734 218.61 44.7734 218.874C44.7734 219.125 44.6914 219.332 44.5273 219.496C44.3633 219.66 44.1559 219.742 43.9053 219.742Z" fill="white"/>
</g>
<g opacity="0.4">
<path d="M16.5684 260.137C15.6523 260.137 14.9209 259.895 14.374 259.412C13.8317 258.924 13.4899 258.211 13.3486 257.272H14.8184C15.0234 258.298 15.6068 258.811 16.5684 258.811C17.1107 258.811 17.5368 258.628 17.8467 258.264C18.1611 257.899 18.3184 257.357 18.3184 256.637V250.197H19.7881V256.637C19.7881 257.767 19.501 258.633 18.9268 259.234C18.3525 259.836 17.5664 260.137 16.5684 260.137ZM24.0537 258.947C24.6689 258.947 25.1611 258.779 25.5303 258.441C25.8994 258.1 26.084 257.662 26.084 257.129V256.712H24.1221C23.639 256.712 23.2721 256.812 23.0215 257.013C22.7754 257.213 22.6523 257.487 22.6523 257.833C22.6523 258.175 22.7754 258.446 23.0215 258.646C23.2721 258.847 23.6162 258.947 24.0537 258.947ZM23.8418 260.137C23.0944 260.137 22.4883 259.913 22.0234 259.467C21.5586 259.02 21.3262 258.476 21.3262 257.833C21.3262 257.172 21.5723 256.623 22.0645 256.186C22.5612 255.743 23.2471 255.522 24.1221 255.522H26.084V255.167C26.084 254.711 25.9382 254.354 25.6465 254.094C25.3594 253.829 24.9674 253.697 24.4707 253.697C24.0697 253.697 23.7438 253.784 23.4932 253.957C23.2425 254.13 23.0785 254.349 23.001 254.613H21.6064C21.7477 253.998 22.0804 253.483 22.6045 253.068C23.1331 252.649 23.7552 252.439 24.4707 252.439C25.3958 252.439 26.1182 252.69 26.6377 253.191C27.1572 253.688 27.417 254.347 27.417 255.167V260H26.2959L26.1523 259.091H26.084C25.9245 259.36 25.6419 259.601 25.2363 259.815C24.8307 260.03 24.3659 260.137 23.8418 260.137ZM29.167 262.803V252.583H30.2197L30.4248 253.561H30.5C31.0788 252.813 31.849 252.439 32.8105 252.439C33.7539 252.439 34.5127 252.777 35.0869 253.451C35.6657 254.121 35.9551 255.069 35.9551 256.295C35.9551 257.516 35.6657 258.462 35.0869 259.132C34.5081 259.802 33.7493 260.137 32.8105 260.137C31.8398 260.137 31.0924 259.788 30.5684 259.091H30.5V262.803H29.167ZM32.5986 258.879C33.2139 258.879 33.7061 258.66 34.0752 258.223C34.4443 257.785 34.6289 257.143 34.6289 256.295C34.6289 255.443 34.4443 254.798 34.0752 254.36C33.7061 253.918 33.2139 253.697 32.5986 253.697C31.9743 253.697 31.4684 253.921 31.0811 254.367C30.6937 254.809 30.5 255.452 30.5 256.295C30.5 257.133 30.6937 257.774 31.0811 258.216C31.4684 258.658 31.9743 258.879 32.5986 258.879ZM39.7354 258.947C40.3506 258.947 40.8428 258.779 41.2119 258.441C41.5811 258.1 41.7656 257.662 41.7656 257.129V256.712H39.8037C39.3206 256.712 38.9538 256.812 38.7031 257.013C38.457 257.213 38.334 257.487 38.334 257.833C38.334 258.175 38.457 258.446 38.7031 258.646C38.9538 258.847 39.2979 258.947 39.7354 258.947ZM39.5234 260.137C38.776 260.137 38.1699 259.913 37.7051 259.467C37.2402 259.02 37.0078 258.476 37.0078 257.833C37.0078 257.172 37.2539 256.623 37.7461 256.186C38.2428 255.743 38.9287 255.522 39.8037 255.522H41.7656V255.167C41.7656 254.711 41.6198 254.354 41.3281 254.094C41.041 253.829 40.6491 253.697 40.1523 253.697C39.7513 253.697 39.4255 253.784 39.1748 253.957C38.9242 254.13 38.7601 254.349 38.6826 254.613H37.2881C37.4294 253.998 37.762 253.483 38.2861 253.068C38.8148 252.649 39.4368 252.439 40.1523 252.439C41.0775 252.439 41.7998 252.69 42.3193 253.191C42.8389 253.688 43.0986 254.347 43.0986 255.167V260H41.9775L41.834 259.091H41.7656C41.6061 259.36 41.3236 259.601 40.918 259.815C40.5124 260.03 40.0475 260.137 39.5234 260.137ZM44.8486 260V252.583H45.9014L46.1064 253.561H46.1816C46.6374 252.813 47.3369 252.439 48.2803 252.439C49.0915 252.439 49.7477 252.715 50.249 253.267C50.7549 253.818 51.0078 254.545 51.0078 255.447V260H49.6816V255.522C49.6816 254.944 49.5267 254.495 49.2168 254.176C48.9115 253.857 48.5059 253.697 48 253.697C47.485 253.697 47.0521 253.877 46.7012 254.237C46.3548 254.597 46.1816 255.026 46.1816 255.522V260H44.8486ZM55.916 260.137C54.8542 260.137 54.0042 259.797 53.3662 259.118C52.7327 258.435 52.416 257.491 52.416 256.288C52.416 255.085 52.7282 254.144 53.3525 253.465C53.9769 252.781 54.8086 252.439 55.8477 252.439C56.9004 252.439 57.7344 252.795 58.3496 253.506C58.9648 254.212 59.2725 255.023 59.2725 255.939L59.2041 256.712H53.8037C53.8402 257.405 54.0498 257.94 54.4326 258.318C54.8154 258.692 55.3099 258.879 55.916 258.879C56.6816 258.879 57.265 258.576 57.666 257.97H59.1357C58.8851 258.621 58.4795 259.146 57.9189 259.542C57.3584 259.938 56.6908 260.137 55.916 260.137ZM53.8037 255.591H57.9053C57.8232 254.994 57.5999 254.529 57.2354 254.196C56.8708 253.864 56.4082 253.697 55.8477 253.697C55.2871 253.697 54.8245 253.864 54.46 254.196C54.0954 254.529 53.8766 254.994 53.8037 255.591ZM63.2031 260.137C62.4193 260.137 61.7562 259.936 61.2139 259.535C60.6715 259.134 60.3298 258.612 60.1885 257.97H61.6582C61.8451 258.576 62.36 258.879 63.2031 258.879C63.7363 258.879 64.1374 258.792 64.4062 258.619C64.6751 258.446 64.8096 258.229 64.8096 257.97C64.8096 257.719 64.7025 257.519 64.4883 257.368C64.2741 257.218 64.0052 257.113 63.6816 257.054C63.3626 256.994 63.0163 256.915 62.6426 256.814C62.2689 256.71 61.9202 256.591 61.5967 256.459C61.2731 256.327 61.0042 256.104 60.79 255.789C60.5758 255.47 60.4688 255.078 60.4688 254.613C60.4688 253.998 60.708 253.483 61.1865 253.068C61.6696 252.649 62.3167 252.439 63.1279 252.439C63.8844 252.439 64.5293 252.626 65.0625 253C65.5957 253.374 65.9307 253.864 66.0674 254.47H64.5977C64.3379 253.955 63.848 253.697 63.1279 253.697C62.2393 253.697 61.7972 254.003 61.8018 254.613C61.8018 254.864 61.9089 255.067 62.123 255.222C62.3372 255.372 62.6038 255.479 62.9229 255.543C63.2464 255.602 63.5951 255.687 63.9688 255.796C64.3424 255.901 64.6888 256.019 65.0078 256.151C65.3314 256.279 65.6003 256.5 65.8145 256.814C66.0332 257.129 66.1426 257.514 66.1426 257.97C66.1426 258.585 65.8805 259.1 65.3564 259.515C64.8369 259.929 64.1191 260.137 63.2031 260.137ZM70.627 260.137C69.5651 260.137 68.7152 259.797 68.0771 259.118C67.4437 258.435 67.127 257.491 67.127 256.288C67.127 255.085 67.4391 254.144 68.0635 253.465C68.6878 252.781 69.5195 252.439 70.5586 252.439C71.6113 252.439 72.4453 252.795 73.0605 253.506C73.6758 254.212 73.9834 255.023 73.9834 255.939L73.915 256.712H68.5146C68.5511 257.405 68.7607 257.94 69.1436 258.318C69.5264 258.692 70.0208 258.879 70.627 258.879C71.3926 258.879 71.9759 258.576 72.377 257.97H73.8467C73.596 258.621 73.1904 259.146 72.6299 259.542C72.0693 259.938 71.4017 260.137 70.627 260.137ZM68.5146 255.591H72.6162C72.5342 254.994 72.3109 254.529 71.9463 254.196C71.5817 253.864 71.1191 253.697 70.5586 253.697C69.998 253.697 69.5355 253.864 69.1709 254.196C68.8063 254.529 68.5876 254.994 68.5146 255.591Z" fill="white"/>
</g>
<g opacity="0.3">
<path d="M14.1211 292V282.197H18.0381C18.9814 282.197 19.7425 282.473 20.3213 283.024C20.9001 283.576 21.1895 284.305 21.1895 285.212C21.1895 285.686 21.1097 286.117 20.9502 286.504C20.7907 286.891 20.5833 287.201 20.3281 287.434C20.0729 287.661 19.8109 287.841 19.542 287.974C19.2777 288.101 19.0111 288.183 18.7422 288.22L21.4014 292H19.7197L17.0605 288.22H15.5908V292H14.1211ZM15.5908 286.887H17.9014C18.4619 286.887 18.904 286.739 19.2275 286.442C19.5557 286.142 19.7197 285.731 19.7197 285.212C19.7197 284.688 19.5557 284.278 19.2275 283.981C18.904 283.681 18.4619 283.53 17.9014 283.53H15.5908V286.887ZM25.3047 292.137C24.4935 292.137 23.835 291.863 23.3291 291.316C22.8278 290.765 22.5771 290.036 22.5771 289.129V284.583H23.9102V289.061C23.9102 289.639 24.0628 290.088 24.3682 290.407C24.6781 290.722 25.0837 290.879 25.585 290.879C26.0999 290.879 26.5329 290.699 26.8838 290.339C27.2347 289.979 27.4102 289.553 27.4102 289.061V284.583H28.7363V292H27.6904L27.4785 291.022H27.4102C26.9499 291.765 26.248 292.137 25.3047 292.137ZM33.0156 292.137C32.2318 292.137 31.5687 291.936 31.0264 291.535C30.484 291.134 30.1423 290.612 30.001 289.97H31.4707C31.6576 290.576 32.1725 290.879 33.0156 290.879C33.5488 290.879 33.9499 290.792 34.2188 290.619C34.4876 290.446 34.6221 290.229 34.6221 289.97C34.6221 289.719 34.515 289.519 34.3008 289.368C34.0866 289.218 33.8177 289.113 33.4941 289.054C33.1751 288.994 32.8288 288.915 32.4551 288.814C32.0814 288.71 31.7327 288.591 31.4092 288.459C31.0856 288.327 30.8167 288.104 30.6025 287.789C30.3883 287.47 30.2812 287.078 30.2812 286.613C30.2812 285.998 30.5205 285.483 30.999 285.068C31.4821 284.649 32.1292 284.439 32.9404 284.439C33.6969 284.439 34.3418 284.626 34.875 285C35.4082 285.374 35.7432 285.864 35.8799 286.47H34.4102C34.1504 285.955 33.6605 285.697 32.9404 285.697C32.0518 285.697 31.6097 286.003 31.6143 286.613C31.6143 286.864 31.7214 287.067 31.9355 287.222C32.1497 287.372 32.4163 287.479 32.7354 287.543C33.0589 287.602 33.4076 287.687 33.7812 287.796C34.1549 287.901 34.5013 288.019 34.8203 288.151C35.1439 288.279 35.4128 288.5 35.627 288.814C35.8457 289.129 35.9551 289.514 35.9551 289.97C35.9551 290.585 35.693 291.1 35.1689 291.515C34.6494 291.929 33.9316 292.137 33.0156 292.137ZM39.7422 292.137C38.9583 292.137 38.2952 291.936 37.7529 291.535C37.2106 291.134 36.8688 290.612 36.7275 289.97H38.1973C38.3841 290.576 38.8991 290.879 39.7422 290.879C40.2754 290.879 40.6764 290.792 40.9453 290.619C41.2142 290.446 41.3486 290.229 41.3486 289.97C41.3486 289.719 41.2415 289.519 41.0273 289.368C40.8132 289.218 40.5443 289.113 40.2207 289.054C39.9017 288.994 39.5553 288.915 39.1816 288.814C38.8079 288.71 38.4593 288.591 38.1357 288.459C37.8122 288.327 37.5433 288.104 37.3291 287.789C37.1149 287.47 37.0078 287.078 37.0078 286.613C37.0078 285.998 37.2471 285.483 37.7256 285.068C38.2087 284.649 38.8558 284.439 39.667 284.439C40.4235 284.439 41.0684 284.626 41.6016 285C42.1348 285.374 42.4697 285.864 42.6064 286.47H41.1367C40.877 285.955 40.387 285.697 39.667 285.697C38.7783 285.697 38.3363 286.003 38.3408 286.613C38.3408 286.864 38.4479 287.067 38.6621 287.222C38.8763 287.372 39.1429 287.479 39.4619 287.543C39.7855 287.602 40.1341 287.687 40.5078 287.796C40.8815 287.901 41.2279 288.019 41.5469 288.151C41.8704 288.279 42.1393 288.5 42.3535 288.814C42.5723 289.129 42.6816 289.514 42.6816 289.97C42.6816 290.585 42.4196 291.1 41.8955 291.515C41.376 291.929 40.6582 292.137 39.7422 292.137ZM44.0146 292V284.583H45.3477V292H44.0146ZM44.6846 283.742C44.4248 283.742 44.2129 283.66 44.0488 283.496C43.8848 283.332 43.8027 283.125 43.8027 282.874C43.8027 282.614 43.8848 282.402 44.0488 282.238C44.2129 282.074 44.4248 281.992 44.6846 281.992C44.9352 281.992 45.1426 282.074 45.3066 282.238C45.4707 282.398 45.5527 282.61 45.5527 282.874C45.5527 283.125 45.4707 283.332 45.3066 283.496C45.1426 283.66 44.9352 283.742 44.6846 283.742ZM49.4697 290.947C50.085 290.947 50.5771 290.779 50.9463 290.441C51.3154 290.1 51.5 289.662 51.5 289.129V288.712H49.5381C49.055 288.712 48.6882 288.812 48.4375 289.013C48.1914 289.213 48.0684 289.487 48.0684 289.833C48.0684 290.175 48.1914 290.446 48.4375 290.646C48.6882 290.847 49.0322 290.947 49.4697 290.947ZM49.2578 292.137C48.5104 292.137 47.9043 291.913 47.4395 291.467C46.9746 291.02 46.7422 290.476 46.7422 289.833C46.7422 289.172 46.9883 288.623 47.4805 288.186C47.9772 287.743 48.6631 287.522 49.5381 287.522H51.5V287.167C51.5 286.711 51.3542 286.354 51.0625 286.094C50.7754 285.829 50.3835 285.697 49.8867 285.697C49.4857 285.697 49.1598 285.784 48.9092 285.957C48.6585 286.13 48.4945 286.349 48.417 286.613H47.0225C47.1637 285.998 47.4964 285.483 48.0205 285.068C48.5492 284.649 49.1712 284.439 49.8867 284.439C50.8118 284.439 51.5342 284.69 52.0537 285.191C52.5732 285.688 52.833 286.347 52.833 287.167V292H51.7119L51.5684 291.091H51.5C51.3405 291.36 51.0579 291.601 50.6523 291.815C50.2467 292.03 49.7819 292.137 49.2578 292.137ZM54.583 292V284.583H55.6357L55.8408 285.561H55.916C56.3717 284.813 57.0713 284.439 58.0146 284.439C58.8258 284.439 59.4821 284.715 59.9834 285.267C60.4893 285.818 60.7422 286.545 60.7422 287.447V292H59.416V287.522C59.416 286.944 59.2611 286.495 58.9512 286.176C58.6458 285.857 58.2402 285.697 57.7344 285.697C57.2194 285.697 56.7865 285.877 56.4355 286.237C56.0892 286.597 55.916 287.026 55.916 287.522V292H54.583Z" fill="white"/>
</g>
<g opacity="0.1">
<path d="M17.1289 324.137C16.1126 324.137 15.2741 323.891 14.6133 323.398C13.957 322.902 13.5583 322.216 13.417 321.341H14.8867C15.1647 322.321 15.9121 322.811 17.1289 322.811C17.8398 322.811 18.3799 322.674 18.749 322.4C19.1182 322.122 19.3027 321.746 19.3027 321.272C19.3027 320.963 19.1979 320.705 18.9883 320.5C18.7832 320.295 18.5143 320.142 18.1816 320.042C17.8535 319.937 17.4912 319.844 17.0947 319.762C16.6982 319.675 16.3018 319.57 15.9053 319.447C15.5088 319.32 15.1442 319.16 14.8115 318.969C14.4834 318.777 14.2145 318.497 14.0049 318.128C13.7998 317.759 13.6973 317.312 13.6973 316.788C13.6973 315.977 14.0072 315.321 14.627 314.819C15.2513 314.313 16.0853 314.061 17.1289 314.061C18.0905 314.061 18.8698 314.286 19.4668 314.737C20.0638 315.184 20.4512 315.799 20.6289 316.583H19.1592C18.8402 315.79 18.1634 315.391 17.1289 315.387C16.5228 315.387 16.0443 315.521 15.6934 315.79C15.3424 316.054 15.167 316.387 15.167 316.788C15.167 317.116 15.2718 317.39 15.4814 317.608C15.6956 317.827 15.9668 317.996 16.2949 318.114C16.6276 318.228 16.9967 318.333 17.4023 318.429C17.8079 318.52 18.2113 318.629 18.6123 318.757C19.0133 318.884 19.3802 319.039 19.7129 319.222C20.0456 319.404 20.3167 319.668 20.5264 320.015C20.736 320.356 20.8408 320.776 20.8408 321.272C20.8408 322.075 20.5081 322.754 19.8428 323.31C19.182 323.861 18.2773 324.137 17.1289 324.137ZM22.2354 326.803V316.583H23.2881L23.4932 317.561H23.5684C24.1471 316.813 24.9173 316.439 25.8789 316.439C26.8223 316.439 27.5811 316.777 28.1553 317.451C28.734 318.121 29.0234 319.069 29.0234 320.295C29.0234 321.516 28.734 322.462 28.1553 323.132C27.5765 323.802 26.8177 324.137 25.8789 324.137C24.9082 324.137 24.1608 323.788 23.6367 323.091H23.5684V326.803H22.2354ZM25.667 322.879C26.2822 322.879 26.7744 322.66 27.1436 322.223C27.5127 321.785 27.6973 321.143 27.6973 320.295C27.6973 319.443 27.5127 318.798 27.1436 318.36C26.7744 317.918 26.2822 317.697 25.667 317.697C25.0426 317.697 24.5368 317.921 24.1494 318.367C23.762 318.809 23.5684 319.452 23.5684 320.295C23.5684 321.133 23.762 321.774 24.1494 322.216C24.5368 322.658 25.0426 322.879 25.667 322.879ZM32.8037 322.947C33.4189 322.947 33.9111 322.779 34.2803 322.441C34.6494 322.1 34.834 321.662 34.834 321.129V320.712H32.8721C32.389 320.712 32.0221 320.812 31.7715 321.013C31.5254 321.213 31.4023 321.487 31.4023 321.833C31.4023 322.175 31.5254 322.446 31.7715 322.646C32.0221 322.847 32.3662 322.947 32.8037 322.947ZM32.5918 324.137C31.8444 324.137 31.2383 323.913 30.7734 323.467C30.3086 323.02 30.0762 322.476 30.0762 321.833C30.0762 321.172 30.3223 320.623 30.8145 320.186C31.3112 319.743 31.9971 319.522 32.8721 319.522H34.834V319.167C34.834 318.711 34.6882 318.354 34.3965 318.094C34.1094 317.829 33.7174 317.697 33.2207 317.697C32.8197 317.697 32.4938 317.784 32.2432 317.957C31.9925 318.13 31.8285 318.349 31.751 318.613H30.3564C30.4977 317.998 30.8304 317.483 31.3545 317.068C31.8831 316.649 32.5052 316.439 33.2207 316.439C34.1458 316.439 34.8682 316.69 35.3877 317.191C35.9072 317.688 36.167 318.347 36.167 319.167V324H35.0459L34.9023 323.091H34.834C34.6745 323.36 34.3919 323.601 33.9863 323.815C33.5807 324.03 33.1159 324.137 32.5918 324.137ZM37.917 324V316.583H38.9697L39.1748 317.561H39.25C39.7057 316.813 40.4053 316.439 41.3486 316.439C42.1598 316.439 42.8161 316.715 43.3174 317.267C43.8232 317.818 44.0762 318.545 44.0762 319.447V324H42.75V319.522C42.75 318.944 42.5951 318.495 42.2852 318.176C41.9798 317.857 41.5742 317.697 41.0684 317.697C40.5534 317.697 40.1204 317.877 39.7695 318.237C39.4232 318.597 39.25 319.026 39.25 319.522V324H37.917ZM45.833 324V316.583H47.166V324H45.833ZM46.5029 315.742C46.2432 315.742 46.0312 315.66 45.8672 315.496C45.7031 315.332 45.6211 315.125 45.6211 314.874C45.6211 314.614 45.7031 314.402 45.8672 314.238C46.0312 314.074 46.2432 313.992 46.5029 313.992C46.7536 313.992 46.9609 314.074 47.125 314.238C47.2891 314.398 47.3711 314.61 47.3711 314.874C47.3711 315.125 47.2891 315.332 47.125 315.496C46.9609 315.66 46.7536 315.742 46.5029 315.742ZM51.4316 324.137C50.6478 324.137 49.9847 323.936 49.4424 323.535C48.9001 323.134 48.5583 322.612 48.417 321.97H49.8867C50.0736 322.576 50.5885 322.879 51.4316 322.879C51.9648 322.879 52.3659 322.792 52.6348 322.619C52.9036 322.446 53.0381 322.229 53.0381 321.97C53.0381 321.719 52.931 321.519 52.7168 321.368C52.5026 321.218 52.2337 321.113 51.9102 321.054C51.5911 320.994 51.2448 320.915 50.8711 320.814C50.4974 320.71 50.1488 320.591 49.8252 320.459C49.5016 320.327 49.2327 320.104 49.0186 319.789C48.8044 319.47 48.6973 319.078 48.6973 318.613C48.6973 317.998 48.9365 317.483 49.415 317.068C49.8981 316.649 50.5452 316.439 51.3564 316.439C52.113 316.439 52.7578 316.626 53.291 317C53.8242 317.374 54.1592 317.864 54.2959 318.47H52.8262C52.5664 317.955 52.0765 317.697 51.3564 317.697C50.4678 317.697 50.0257 318.003 50.0303 318.613C50.0303 318.864 50.1374 319.067 50.3516 319.222C50.5658 319.372 50.8324 319.479 51.1514 319.543C51.4749 319.602 51.8236 319.687 52.1973 319.796C52.571 319.901 52.9173 320.019 53.2363 320.151C53.5599 320.279 53.8288 320.5 54.043 320.814C54.2617 321.129 54.3711 321.514 54.3711 321.97C54.3711 322.585 54.109 323.1 53.585 323.515C53.0654 323.929 52.3477 324.137 51.4316 324.137ZM55.7725 324V314.197H57.1055V317.492H57.1738C57.3789 317.155 57.6637 316.895 58.0283 316.713C58.3929 316.531 58.7848 316.439 59.2041 316.439C60.0153 316.439 60.6715 316.715 61.1729 317.267C61.6787 317.818 61.9316 318.545 61.9316 319.447V324H60.6055V319.522C60.6055 318.944 60.4505 318.495 60.1406 318.176C59.8353 317.857 59.4297 317.697 58.9238 317.697C58.4089 317.697 57.9759 317.877 57.625 318.237C57.2786 318.597 57.1055 319.026 57.1055 319.522V324H55.7725Z" fill="white"/>
</g>
<g opacity="0.05">
<path d="M20.7246 355.022C20.0456 355.765 19.1045 356.137 17.9014 356.137C16.6982 356.137 15.7549 355.765 15.0713 355.022C14.3923 354.275 14.0527 353.225 14.0527 351.871V346.197H15.5225V351.871C15.5225 352.796 15.7389 353.519 16.1719 354.038C16.6048 354.553 17.179 354.811 17.8945 354.811C18.6146 354.811 19.1911 354.553 19.624 354.038C20.0615 353.519 20.2803 352.796 20.2803 351.871V346.197H21.75V351.871C21.75 353.225 21.4082 354.275 20.7246 355.022ZM23.7119 356V348.583H24.7646L24.9697 349.561H25.0449C25.4368 348.909 26.0658 348.583 26.9316 348.583H27.7725V349.841H27C26.4121 349.841 25.9382 350.012 25.5781 350.354C25.2227 350.691 25.0449 351.126 25.0449 351.659V356H23.7119ZM31.6143 354.879C32.2386 354.879 32.7445 354.658 33.1318 354.216C33.5238 353.774 33.7197 353.133 33.7197 352.295C33.7197 351.452 33.526 350.809 33.1387 350.367C32.7513 349.921 32.2432 349.697 31.6143 349.697C30.999 349.697 30.5068 349.918 30.1377 350.36C29.7686 350.798 29.584 351.443 29.584 352.295C29.584 353.143 29.7686 353.785 30.1377 354.223C30.5068 354.66 30.999 354.879 31.6143 354.879ZM31.4092 356.137C30.4658 356.137 29.7048 355.802 29.126 355.132C28.5472 354.462 28.2578 353.514 28.2578 352.288C28.2578 351.058 28.5518 350.11 29.1396 349.444C29.7275 348.774 30.5068 348.439 31.4775 348.439C32.4027 348.439 33.125 348.79 33.6445 349.492H33.7197V346.197H35.0459V356H34L33.7881 355.022H33.7197C33.141 355.765 32.3708 356.137 31.4092 356.137ZM39.6602 356.137C38.849 356.137 38.1904 355.863 37.6846 355.316C37.1833 354.765 36.9326 354.036 36.9326 353.129V348.583H38.2656V353.061C38.2656 353.639 38.4183 354.088 38.7236 354.407C39.0335 354.722 39.4391 354.879 39.9404 354.879C40.4554 354.879 40.8883 354.699 41.2393 354.339C41.5902 353.979 41.7656 353.553 41.7656 353.061V348.583H43.0918V356H42.0459L41.834 355.022H41.7656C41.3053 355.765 40.6035 356.137 39.6602 356.137Z" fill="white"/>
</g>
<defs>
<linearGradient id="paint0_linear_77_7348" x1="102" y1="0" x2="102" y2="325" gradientUnits="userSpaceOnUse">
<stop stop-color="#212332"/>
<stop offset="0.776042" stop-color="#212332" stop-opacity="0"/>
</linearGradient>
</defs>
</svg>
