<svg width="704" height="426" viewBox="0 0 704 426" fill="none" xmlns="http://www.w3.org/2000/svg">
<rect x="0.5" width="703" height="426" rx="24" fill="url(#paint0_linear_77_7417)"/>
<g filter="url(#filter0_i_77_7417)">
<rect x="227" y="20" width="250" height="36" rx="18" fill="#F7F9FB"/>
<rect x="232" y="24" width="133" height="28" rx="14" fill="black"/>
<path d="M266.25 39.5001V43.0001C266.25 43.3316 266.118 43.6496 265.884 43.884C265.649 44.1184 265.332 44.2501 265 44.2501H255C254.668 44.2501 254.351 44.1184 254.116 43.884C253.882 43.6496 253.75 43.3316 253.75 43.0001V39.5001C253.75 39.3012 253.829 39.1104 253.97 38.9698C254.11 38.8291 254.301 38.7501 254.5 38.7501C254.699 38.7501 254.89 38.8291 255.03 38.9698C255.171 39.1104 255.25 39.3012 255.25 39.5001V42.7501H264.75V39.5001C264.75 39.3012 264.829 39.1104 264.97 38.9698C265.11 38.8291 265.301 38.7501 265.5 38.7501C265.699 38.7501 265.89 38.8291 266.03 38.9698C266.171 39.1104 266.25 39.3012 266.25 39.5001ZM258.031 35.5307L259.25 34.3126V39.5001C259.25 39.699 259.329 39.8898 259.47 40.0304C259.61 40.1711 259.801 40.2501 260 40.2501C260.199 40.2501 260.39 40.1711 260.53 40.0304C260.671 39.8898 260.75 39.699 260.75 39.5001V34.3126L261.969 35.5326C262.11 35.6735 262.301 35.7527 262.501 35.7527C262.7 35.7527 262.891 35.6735 263.032 35.5326C263.173 35.3917 263.252 35.2006 263.252 35.0014C263.252 34.8021 263.173 34.611 263.032 34.4701L260.532 31.9701C260.462 31.9002 260.379 31.8447 260.288 31.8069C260.197 31.769 260.099 31.7495 260.001 31.7495C259.902 31.7495 259.804 31.769 259.713 31.8069C259.622 31.8447 259.539 31.9002 259.469 31.9701L256.969 34.4701C256.9 34.5399 256.844 34.6227 256.807 34.7138C256.769 34.805 256.749 34.9027 256.749 35.0014C256.749 35.2006 256.828 35.3917 256.969 35.5326C257.11 35.6735 257.301 35.7527 257.501 35.7527C257.7 35.7527 257.891 35.6735 258.032 35.5326L258.031 35.5307Z" fill="#FDFBFF"/>
<path d="M277.055 43V34.5977H279.398L282.574 40.3574H282.639V34.5977H284.438V43H282.1L278.918 37.2402H278.859V43H277.055ZM288.814 43.1172C287.846 43.1172 287.084 42.8281 286.529 42.25C285.975 41.6719 285.697 40.8633 285.697 39.8242C285.697 38.7812 285.975 37.9707 286.529 37.3926C287.084 36.8105 287.846 36.5195 288.814 36.5195C289.736 36.5195 290.477 36.8164 291.035 37.4102C291.594 38 291.873 38.7637 291.873 39.7012L291.814 40.3574H287.438C287.582 41.1973 288.041 41.6172 288.814 41.6172C289.119 41.6172 289.352 41.5703 289.512 41.4766C289.672 41.3789 289.82 41.2266 289.957 41.0195H291.756C291.588 41.6289 291.264 42.1309 290.783 42.5254C290.303 42.9199 289.646 43.1172 288.814 43.1172ZM287.438 39.0977H290.133C290.07 38.793 289.924 38.5371 289.693 38.3301C289.467 38.123 289.174 38.0195 288.814 38.0195C288.111 38.0195 287.652 38.3789 287.438 39.0977ZM294.094 43L292.354 36.6426H294.094L295.178 40.9023H295.236L296.314 36.6426H298.055L299.133 40.9023H299.197L300.275 36.6426H301.893L300.152 43H298.295L297.217 38.9805H297.152L296.074 43H294.094ZM311.256 42.1328C310.623 42.7891 309.762 43.1172 308.672 43.1172C307.586 43.1172 306.725 42.7891 306.088 42.1328C305.451 41.4727 305.133 40.5625 305.133 39.4023V34.5977H306.932V39.4023C306.932 40.0742 307.09 40.5918 307.406 40.9551C307.723 41.3184 308.145 41.5 308.672 41.5C309.199 41.5 309.621 41.3184 309.938 40.9551C310.254 40.5918 310.412 40.0742 310.412 39.4023V34.5977H312.211V39.4023C312.211 40.5625 311.893 41.4727 311.256 42.1328ZM313.711 45.4023V36.6426H315.152L315.328 37.3574H315.393C315.873 36.7988 316.473 36.5195 317.191 36.5195C318.023 36.5195 318.691 36.8066 319.195 37.3809C319.699 37.9512 319.951 38.7656 319.951 39.8242C319.951 40.8789 319.699 41.6914 319.195 42.2617C318.691 42.832 318.023 43.1172 317.191 43.1172C316.449 43.1172 315.869 42.8574 315.451 42.3379H315.393V45.4023H313.711ZM315.797 41.1719C316.07 41.4688 316.414 41.6172 316.828 41.6172C317.246 41.6172 317.59 41.4688 317.859 41.1719C318.133 40.8711 318.27 40.4219 318.27 39.8242C318.27 39.2227 318.133 38.7715 317.859 38.4707C317.59 38.1699 317.246 38.0195 316.828 38.0195C316.414 38.0195 316.07 38.1699 315.797 38.4707C315.527 38.7715 315.393 39.2227 315.393 39.8242C315.393 40.4219 315.527 40.8711 315.797 41.1719ZM321.152 43V34.5977H322.834V43H321.152ZM329.432 42.25C328.877 42.8281 328.115 43.1172 327.146 43.1172C326.178 43.1172 325.416 42.8281 324.861 42.25C324.307 41.6719 324.029 40.8633 324.029 39.8242C324.029 38.7812 324.307 37.9707 324.861 37.3926C325.416 36.8105 326.178 36.5195 327.146 36.5195C328.115 36.5195 328.877 36.8105 329.432 37.3926C329.99 37.9707 330.27 38.7812 330.27 39.8242C330.27 40.8633 329.99 41.6719 329.432 42.25ZM326.115 41.1719C326.389 41.4688 326.732 41.6172 327.146 41.6172C327.564 41.6172 327.908 41.4688 328.178 41.1719C328.451 40.8711 328.588 40.4219 328.588 39.8242C328.588 39.2227 328.451 38.7715 328.178 38.4707C327.908 38.1699 327.564 38.0195 327.146 38.0195C326.732 38.0195 326.389 38.1699 326.115 38.4707C325.842 38.7715 325.705 39.2227 325.705 39.8242C325.705 40.4219 325.842 40.8711 326.115 41.1719ZM333.686 41.7402C334.076 41.7402 334.393 41.6309 334.635 41.4121C334.881 41.1895 335.004 40.8984 335.004 40.5391V40.3574H333.568C333.287 40.3574 333.076 40.4199 332.936 40.5449C332.795 40.6699 332.725 40.8281 332.725 41.0195C332.725 41.2344 332.805 41.4082 332.965 41.541C333.125 41.6738 333.365 41.7402 333.686 41.7402ZM333.264 43.1172C332.584 43.1172 332.043 42.9336 331.641 42.5664C331.242 42.1992 331.043 41.7246 331.043 41.1426C331.043 40.5488 331.258 40.0703 331.688 39.707C332.117 39.3438 332.723 39.1621 333.504 39.1621H335.004V38.8574C335.004 38.5605 334.908 38.3379 334.717 38.1895C334.525 38.0371 334.262 37.9609 333.926 37.9609C333.695 37.9609 333.494 38.0137 333.322 38.1191C333.15 38.2207 333.031 38.3477 332.965 38.5H331.283C331.42 37.9336 331.715 37.4629 332.168 37.0879C332.621 36.709 333.227 36.5195 333.984 36.5195C334.832 36.5195 335.494 36.7285 335.971 37.1465C336.447 37.5605 336.686 38.1523 336.686 38.9219V43H335.244L335.068 42.2793H335.004C334.629 42.8379 334.049 43.1172 333.264 43.1172ZM339.85 41.1719C340.123 41.4688 340.467 41.6172 340.881 41.6172C341.299 41.6172 341.643 41.4688 341.912 41.1719C342.186 40.8711 342.322 40.4219 342.322 39.8242C342.322 39.2227 342.186 38.7715 341.912 38.4707C341.643 38.1699 341.299 38.0195 340.881 38.0195C340.467 38.0195 340.123 38.1699 339.85 38.4707C339.576 38.7715 339.439 39.2227 339.439 39.8242C339.439 40.4219 339.576 40.8711 339.85 41.1719ZM340.523 43.1172C339.691 43.1172 339.023 42.832 338.52 42.2617C338.016 41.6914 337.764 40.8789 337.764 39.8242C337.764 38.7656 338.016 37.9512 338.52 37.3809C339.023 36.8066 339.691 36.5195 340.523 36.5195C341.266 36.5195 341.846 36.7793 342.264 37.2988H342.322V34.5977H344.004V43H342.562L342.381 42.2793H342.322C341.842 42.8379 341.242 43.1172 340.523 43.1172Z" fill="white"/>
<rect x="369" y="24" width="103" height="28" rx="14" fill="#F7F9FB"/>
<path d="M397 41C397.795 40.9992 398.558 40.6828 399.12 40.1204C399.683 39.558 399.999 38.7954 400 38V34C400 33.2044 399.684 32.4413 399.121 31.8787C398.559 31.3161 397.796 31 397 31C396.204 31 395.441 31.3161 394.879 31.8787C394.316 32.4413 394 33.2044 394 34V38C394.001 38.7954 394.317 39.558 394.88 40.1204C395.442 40.6828 396.205 40.9992 397 41ZM395 34C395 33.4696 395.211 32.9609 395.586 32.5858C395.961 32.2107 396.47 32 397 32C397.53 32 398.039 32.2107 398.414 32.5858C398.789 32.9609 399 33.4696 399 34V38C399 38.5304 398.789 39.0391 398.414 39.4142C398.039 39.7893 397.53 40 397 40C396.47 40 395.961 39.7893 395.586 39.4142C395.211 39.0391 395 38.5304 395 38V34ZM397.5 42.975V44.5C397.5 44.6326 397.447 44.7598 397.354 44.8536C397.26 44.9473 397.133 45 397 45C396.867 45 396.74 44.9473 396.646 44.8536C396.553 44.7598 396.5 44.6326 396.5 44.5V42.975C395.267 42.8496 394.125 42.2715 393.294 41.3525C392.462 40.4336 392.002 39.2391 392 38C392 37.8674 392.053 37.7402 392.146 37.6464C392.24 37.5527 392.367 37.5 392.5 37.5C392.633 37.5 392.76 37.5527 392.854 37.6464C392.947 37.7402 393 37.8674 393 38C393 39.0609 393.421 40.0783 394.172 40.8284C394.922 41.5786 395.939 42 397 42C398.061 42 399.078 41.5786 399.828 40.8284C400.579 40.0783 401 39.0609 401 38C401 37.8674 401.053 37.7402 401.146 37.6464C401.24 37.5527 401.367 37.5 401.5 37.5C401.633 37.5 401.76 37.5527 401.854 37.6464C401.947 37.7402 402 37.8674 402 38C401.998 39.2391 401.538 40.4336 400.706 41.3525C399.875 42.2715 398.733 42.8496 397.5 42.975Z" fill="black"/>
<path d="M414.295 43V34.5977H417.535C418.344 34.5977 418.986 34.8301 419.463 35.2949C419.939 35.7598 420.178 36.3672 420.178 37.1172C420.178 37.8867 419.947 38.4824 419.486 38.9043C419.025 39.3223 418.494 39.5684 417.893 39.6426L420.295 43H419.158L416.756 39.6426H415.314V43H414.295ZM415.314 38.7402H417.477C418.004 38.7402 418.416 38.5918 418.713 38.2949C419.01 37.998 419.158 37.6074 419.158 37.123C419.158 36.6348 419.01 36.2422 418.713 35.9453C418.416 35.6484 418.004 35.5 417.477 35.5H415.314V38.7402ZM424.068 43.1172C423.205 43.1172 422.508 42.834 421.977 42.2676C421.449 41.7012 421.186 40.9062 421.186 39.8828C421.186 38.8555 421.447 38.0586 421.971 37.4922C422.494 36.9258 423.172 36.6426 424.004 36.6426C424.461 36.6426 424.875 36.7324 425.246 36.9121C425.621 37.0918 425.92 37.3262 426.143 37.6152C426.365 37.9004 426.535 38.207 426.652 38.5352C426.77 38.8633 426.828 39.1914 426.828 39.5195L426.764 40.1172H422.088C422.119 40.8125 422.316 41.3477 422.68 41.7227C423.043 42.0938 423.506 42.2793 424.068 42.2793C424.787 42.2793 425.326 41.9805 425.686 41.3828H426.646C426.439 41.9414 426.109 42.3711 425.656 42.6719C425.207 42.9688 424.678 43.1172 424.068 43.1172ZM422.088 39.3379H425.926C425.871 38.752 425.668 38.2969 425.316 37.9727C424.965 37.6445 424.527 37.4805 424.004 37.4805C423.484 37.4805 423.049 37.6445 422.697 37.9727C422.346 38.2969 422.143 38.752 422.088 39.3379ZM430.783 43.1172C429.92 43.1172 429.223 42.834 428.691 42.2676C428.164 41.7012 427.9 40.9062 427.9 39.8828C427.9 38.8555 428.164 38.0586 428.691 37.4922C429.219 36.9258 429.916 36.6426 430.783 36.6426C431.393 36.6426 431.922 36.793 432.371 37.0938C432.824 37.3906 433.154 37.8203 433.361 38.3828H432.4C432.041 37.7812 431.502 37.4805 430.783 37.4805C430.189 37.4805 429.711 37.6914 429.348 38.1133C428.984 38.5312 428.803 39.1211 428.803 39.8828C428.803 40.6406 428.984 41.2305 429.348 41.6523C429.711 42.0703 430.189 42.2793 430.783 42.2793C431.502 42.2793 432.041 41.9805 432.4 41.3828H433.361C433.154 41.9414 432.824 42.3711 432.371 42.6719C431.922 42.9688 431.393 43.1172 430.783 43.1172ZM439.291 42.2676C438.764 42.834 438.066 43.1172 437.199 43.1172C436.336 43.1172 435.641 42.834 435.113 42.2676C434.586 41.7012 434.322 40.9062 434.322 39.8828C434.322 38.8555 434.586 38.0586 435.113 37.4922C435.641 36.9258 436.336 36.6426 437.199 36.6426C438.066 36.6426 438.764 36.9258 439.291 37.4922C439.818 38.0586 440.082 38.8555 440.082 39.8828C440.082 40.9062 439.818 41.7012 439.291 42.2676ZM435.77 41.6523C436.133 42.0703 436.609 42.2793 437.199 42.2793C437.793 42.2793 438.271 42.0703 438.635 41.6523C439.002 41.2305 439.186 40.6406 439.186 39.8828C439.186 39.1211 439.002 38.5312 438.635 38.1133C438.271 37.6914 437.793 37.4805 437.199 37.4805C436.609 37.4805 436.133 37.6914 435.77 38.1133C435.406 38.5312 435.225 39.1211 435.225 39.8828C435.225 40.6406 435.406 41.2305 435.77 41.6523ZM441.465 43V36.7598H442.186L442.309 37.5977H442.367C442.703 37.0391 443.264 36.7598 444.049 36.7598H444.705V37.5977H444.049C443.568 37.5977 443.168 37.7461 442.848 38.043C442.527 38.3398 442.367 38.7129 442.367 39.1621V43H441.465ZM446.609 41.6582C446.957 42.0723 447.422 42.2793 448.004 42.2793C448.59 42.2793 449.057 42.0723 449.404 41.6582C449.752 41.2402 449.926 40.6484 449.926 39.8828C449.926 39.1133 449.752 38.5215 449.404 38.1074C449.057 37.6895 448.59 37.4805 448.004 37.4805C447.422 37.4805 446.957 37.6895 446.609 38.1074C446.262 38.5215 446.088 39.1133 446.088 39.8828C446.088 40.6484 446.262 41.2402 446.609 41.6582ZM447.887 43.1172C447.086 43.1172 446.436 42.834 445.936 42.2676C445.436 41.7012 445.186 40.9062 445.186 39.8828C445.186 38.8555 445.436 38.0586 445.936 37.4922C446.436 36.9258 447.086 36.6426 447.887 36.6426C448.742 36.6426 449.402 36.9414 449.867 37.5391H449.926V34.5977H450.828V43H450.107L449.984 42.1621H449.926C449.477 42.7988 448.797 43.1172 447.887 43.1172Z" fill="black"/>
</g>
<path d="M671.5 67.5H32.5V68.5H671.5V67.5Z" fill="url(#paint1_radial_77_7417)" mask="url(#path-2-inside-1_77_7417)"/>
<path opacity="0.5" d="M300.696 265.637C299.361 265.637 298.29 265.199 297.483 264.324C296.681 263.445 296.28 262.203 296.28 260.599C296.28 258.994 296.681 257.755 297.483 256.88C298.29 256 299.361 255.561 300.696 255.561C302.656 255.561 303.984 256.47 304.682 258.288H303.424C302.9 257.167 301.991 256.609 300.696 256.613C299.726 256.613 298.944 256.962 298.352 257.659C297.764 258.352 297.47 259.334 297.47 260.605C297.47 261.872 297.764 262.854 298.352 263.552C298.944 264.244 299.726 264.591 300.696 264.591C301.995 264.591 302.904 264.03 303.424 262.909H304.682C303.984 264.728 302.656 265.637 300.696 265.637ZM306.302 265.5V255.697H307.348V265.5H306.302ZM309.371 265.5V258.22H310.424V265.5H309.371ZM310.424 256.955C310.283 257.096 310.109 257.167 309.904 257.167C309.699 257.167 309.524 257.099 309.378 256.962C309.237 256.821 309.166 256.647 309.166 256.442C309.166 256.237 309.237 256.062 309.378 255.916C309.524 255.77 309.699 255.697 309.904 255.697C310.109 255.697 310.283 255.77 310.424 255.916C310.565 256.062 310.636 256.237 310.636 256.442C310.636 256.638 310.565 256.809 310.424 256.955ZM315.394 265.637C314.386 265.637 313.573 265.306 312.953 264.646C312.338 263.985 312.03 263.057 312.03 261.863C312.03 260.665 312.338 259.735 312.953 259.074C313.568 258.413 314.382 258.083 315.394 258.083C316.104 258.083 316.722 258.258 317.246 258.609C317.775 258.956 318.16 259.457 318.401 260.113H317.28C316.861 259.411 316.232 259.061 315.394 259.061C314.701 259.061 314.143 259.307 313.719 259.799C313.295 260.286 313.083 260.975 313.083 261.863C313.083 262.747 313.295 263.436 313.719 263.928C314.143 264.415 314.701 264.659 315.394 264.659C316.232 264.659 316.861 264.311 317.28 263.613H318.401C318.16 264.265 317.775 264.766 317.246 265.117C316.722 265.464 316.104 265.637 315.394 265.637ZM319.946 265.5V255.697H320.992V261.651L324.424 258.22H325.757L322.182 261.788L325.962 265.5H324.636L320.992 261.932V265.5H319.946ZM331.766 265.5C331.242 265.5 330.806 265.327 330.46 264.98C330.118 264.634 329.947 264.201 329.947 263.682V259.197H328.826V258.22H329.947L330.091 256.258H331V258.22H332.887V259.197H331V263.682C331 263.923 331.077 264.124 331.232 264.283C331.392 264.443 331.595 264.522 331.841 264.522H332.887V265.5H331.766ZM339.743 264.646C339.128 265.306 338.314 265.637 337.303 265.637C336.296 265.637 335.484 265.306 334.869 264.646C334.254 263.985 333.946 263.057 333.946 261.863C333.946 260.665 334.254 259.735 334.869 259.074C335.484 258.413 336.296 258.083 337.303 258.083C338.314 258.083 339.128 258.413 339.743 259.074C340.358 259.735 340.666 260.665 340.666 261.863C340.666 263.057 340.358 263.985 339.743 264.646ZM335.635 263.928C336.059 264.415 336.615 264.659 337.303 264.659C337.995 264.659 338.554 264.415 338.978 263.928C339.406 263.436 339.62 262.747 339.62 261.863C339.62 260.975 339.406 260.286 338.978 259.799C338.554 259.307 337.995 259.061 337.303 259.061C336.615 259.061 336.059 259.307 335.635 259.799C335.211 260.286 334.999 260.975 334.999 261.863C334.999 262.747 335.211 263.436 335.635 263.928ZM347.085 263.935C347.491 264.418 348.033 264.659 348.712 264.659C349.396 264.659 349.94 264.418 350.346 263.935C350.756 263.447 350.961 262.757 350.961 261.863C350.961 260.965 350.756 260.275 350.346 259.792C349.94 259.304 349.396 259.061 348.712 259.061C348.033 259.061 347.491 259.304 347.085 259.792C346.679 260.275 346.477 260.965 346.477 261.863C346.477 262.757 346.679 263.447 347.085 263.935ZM348.855 265.637C347.794 265.637 347.001 265.265 346.477 264.522H346.408L346.265 265.5H345.431V255.697H346.477V259.129H346.545C347.087 258.427 347.857 258.078 348.855 258.083C349.79 258.083 350.549 258.413 351.132 259.074C351.715 259.735 352.007 260.665 352.007 261.863C352.007 263.057 351.715 263.985 351.132 264.646C350.549 265.306 349.79 265.637 348.855 265.637ZM353.613 265.5V258.22H354.454L354.598 259.197H354.666C355.058 258.546 355.712 258.22 356.628 258.22H357.394V259.197H356.628C356.067 259.197 355.6 259.37 355.227 259.717C354.853 260.063 354.666 260.498 354.666 261.022V265.5H353.613ZM363.751 264.646C363.136 265.306 362.322 265.637 361.311 265.637C360.303 265.637 359.492 265.306 358.877 264.646C358.262 263.985 357.954 263.057 357.954 261.863C357.954 260.665 358.262 259.735 358.877 259.074C359.492 258.413 360.303 258.083 361.311 258.083C362.322 258.083 363.136 258.413 363.751 259.074C364.366 259.735 364.674 260.665 364.674 261.863C364.674 263.057 364.366 263.985 363.751 264.646ZM359.643 263.928C360.066 264.415 360.622 264.659 361.311 264.659C362.003 264.659 362.562 264.415 362.985 263.928C363.414 263.436 363.628 262.747 363.628 261.863C363.628 260.975 363.414 260.286 362.985 259.799C362.562 259.307 362.003 259.061 361.311 259.061C360.622 259.061 360.066 259.307 359.643 259.799C359.219 260.286 359.007 260.975 359.007 261.863C359.007 262.747 359.219 263.436 359.643 263.928ZM367.477 265.5L365.446 258.22H366.499L368.112 264.099H368.181L369.787 258.22H370.977L372.59 264.099H372.658L374.271 258.22H375.317L373.287 265.5H371.961L370.423 259.833H370.348L368.81 265.5H367.477ZM378.605 265.637C377.885 265.637 377.272 265.452 376.767 265.083C376.265 264.709 375.946 264.219 375.81 263.613H376.931C377.035 263.951 377.241 264.21 377.546 264.393C377.851 264.57 378.204 264.659 378.605 264.659C379.175 264.659 379.608 264.557 379.904 264.352C380.205 264.146 380.355 263.875 380.355 263.538C380.355 263.26 380.248 263.035 380.034 262.861C379.82 262.688 379.551 262.567 379.228 262.499C378.909 262.426 378.562 262.34 378.188 262.239C377.815 262.134 377.466 262.023 377.143 261.904C376.824 261.781 376.555 261.567 376.336 261.262C376.122 260.952 376.015 260.569 376.015 260.113C376.015 259.562 376.252 259.086 376.726 258.685C377.204 258.284 377.831 258.083 378.605 258.083C379.257 258.083 379.829 258.243 380.321 258.562C380.813 258.876 381.128 259.323 381.265 259.901H380.15C379.909 259.341 379.394 259.061 378.605 259.061C378.09 259.061 377.705 259.154 377.45 259.341C377.195 259.528 377.067 259.785 377.067 260.113C377.067 260.46 377.215 260.729 377.512 260.92C377.812 261.107 378.175 261.248 378.599 261.344C379.022 261.435 379.446 261.54 379.87 261.658C380.299 261.772 380.661 261.986 380.957 262.301C381.258 262.615 381.408 263.028 381.408 263.538C381.408 264.117 381.153 264.611 380.643 265.021C380.132 265.432 379.453 265.637 378.605 265.637ZM385.886 265.637C384.879 265.637 384.065 265.306 383.445 264.646C382.83 263.985 382.522 263.057 382.522 261.863C382.522 260.665 382.828 259.735 383.438 259.074C384.049 258.413 384.84 258.083 385.811 258.083C386.344 258.083 386.827 258.188 387.26 258.397C387.697 258.607 388.046 258.881 388.306 259.218C388.565 259.55 388.764 259.908 388.9 260.291C389.037 260.674 389.105 261.057 389.105 261.439L389.03 262.137H383.575C383.612 262.948 383.842 263.572 384.266 264.01C384.689 264.443 385.229 264.659 385.886 264.659C386.724 264.659 387.353 264.311 387.772 263.613H388.894C388.652 264.265 388.267 264.766 387.738 265.117C387.214 265.464 386.597 265.637 385.886 265.637ZM383.575 261.228H388.053C387.989 260.544 387.752 260.013 387.342 259.635C386.932 259.252 386.421 259.061 385.811 259.061C385.204 259.061 384.696 259.252 384.286 259.635C383.876 260.013 383.639 260.544 383.575 261.228ZM399.229 264.646C398.614 265.306 397.801 265.637 396.789 265.637C395.782 265.637 394.971 265.306 394.355 264.646C393.74 263.985 393.433 263.057 393.433 261.863C393.433 260.665 393.74 259.735 394.355 259.074C394.971 258.413 395.782 258.083 396.789 258.083C397.801 258.083 398.614 258.413 399.229 259.074C399.845 259.735 400.152 260.665 400.152 261.863C400.152 263.057 399.845 263.985 399.229 264.646ZM395.121 263.928C395.545 264.415 396.101 264.659 396.789 264.659C397.482 264.659 398.04 264.415 398.464 263.928C398.892 263.436 399.106 262.747 399.106 261.863C399.106 260.975 398.892 260.286 398.464 259.799C398.04 259.307 397.482 259.061 396.789 259.061C396.101 259.061 395.545 259.307 395.121 259.799C394.697 260.286 394.485 260.975 394.485 261.863C394.485 262.747 394.697 263.436 395.121 263.928ZM401.766 265.5V258.22H402.606L402.75 259.197H402.818C403.21 258.546 403.864 258.22 404.78 258.22H405.546V259.197H404.78C404.22 259.197 403.753 259.37 403.379 259.717C403.005 260.063 402.818 260.498 402.818 261.022V265.5H401.766ZM281.549 281.935C281.954 282.418 282.497 282.659 283.176 282.659C283.859 282.659 284.404 282.418 284.81 281.935C285.215 281.447 285.418 280.757 285.418 279.863C285.418 278.965 285.215 278.275 284.81 277.792C284.404 277.304 283.859 277.061 283.176 277.061C282.497 277.061 281.954 277.304 281.549 277.792C281.143 278.275 280.94 278.965 280.94 279.863C280.94 280.757 281.143 281.447 281.549 281.935ZM283.039 283.637C282.105 283.637 281.346 283.306 280.763 282.646C280.179 281.985 279.888 281.057 279.888 279.863C279.888 278.665 280.179 277.735 280.763 277.074C281.346 276.413 282.105 276.083 283.039 276.083C284.037 276.083 284.807 276.432 285.35 277.129H285.418V273.697H286.471V283.5H285.63L285.486 282.522H285.418C284.894 283.265 284.101 283.637 283.039 283.637ZM288.494 283.5V276.22H289.335L289.479 277.197H289.547C289.939 276.546 290.593 276.22 291.509 276.22H292.274V277.197H291.509C290.948 277.197 290.481 277.37 290.107 277.717C289.734 278.063 289.547 278.498 289.547 279.022V283.5H288.494ZM295.439 282.659C296.123 282.659 296.665 282.465 297.066 282.078C297.472 281.691 297.675 281.208 297.675 280.629V280.137H295.645C295.093 280.137 294.676 280.251 294.394 280.479C294.111 280.702 293.97 281.009 293.97 281.401C293.97 281.784 294.1 282.09 294.359 282.317C294.624 282.545 294.984 282.659 295.439 282.659ZM295.439 283.637C294.683 283.637 294.072 283.425 293.607 283.001C293.147 282.577 292.917 282.044 292.917 281.401C292.917 280.75 293.159 280.214 293.642 279.795C294.129 279.371 294.797 279.159 295.645 279.159H297.675V278.667C297.675 278.184 297.513 277.797 297.189 277.505C296.87 277.209 296.449 277.061 295.925 277.061C295.036 277.061 294.476 277.411 294.243 278.113H293.129C293.298 277.462 293.628 276.96 294.12 276.609C294.617 276.258 295.218 276.083 295.925 276.083C296.791 276.083 297.474 276.318 297.976 276.787C298.477 277.257 298.728 277.883 298.728 278.667V283.5H297.887L297.743 282.522H297.675C297.515 282.8 297.23 283.056 296.82 283.288C296.415 283.521 295.954 283.637 295.439 283.637ZM303.622 286.303C302.856 286.303 302.187 286.118 301.612 285.749C301.038 285.38 300.635 284.84 300.402 284.129H301.517C301.881 284.922 302.583 285.318 303.622 285.318C304.274 285.318 304.798 285.152 305.194 284.819C305.591 284.491 305.789 284.006 305.789 283.363V282.099H305.721C305.215 282.75 304.445 283.078 303.41 283.083C302.476 283.083 301.717 282.773 301.134 282.153C300.55 281.529 300.259 280.672 300.259 279.583C300.259 278.489 300.55 277.632 301.134 277.013C301.717 276.393 302.476 276.083 303.41 276.083C304.454 276.083 305.247 276.432 305.789 277.129H305.857L306.001 276.22H306.842V283.363C306.842 284.288 306.548 285.008 305.96 285.523C305.372 286.043 304.593 286.303 303.622 286.303ZM301.92 281.436C302.326 281.878 302.868 282.099 303.547 282.099C304.23 282.099 304.775 281.878 305.181 281.436C305.586 280.993 305.789 280.376 305.789 279.583C305.789 278.785 305.586 278.166 305.181 277.724C304.775 277.282 304.23 277.061 303.547 277.061C302.868 277.061 302.326 277.282 301.92 277.724C301.514 278.166 301.312 278.785 301.312 279.583C301.312 280.376 301.514 280.993 301.92 281.436ZM313.979 282.659C314.662 282.659 315.204 282.465 315.605 282.078C316.011 281.691 316.214 281.208 316.214 280.629V280.137H314.184C313.632 280.137 313.215 280.251 312.933 280.479C312.65 280.702 312.509 281.009 312.509 281.401C312.509 281.784 312.639 282.09 312.898 282.317C313.163 282.545 313.523 282.659 313.979 282.659ZM313.979 283.637C313.222 283.637 312.611 283.425 312.146 283.001C311.686 282.577 311.456 282.044 311.456 281.401C311.456 280.75 311.698 280.214 312.181 279.795C312.668 279.371 313.336 279.159 314.184 279.159H316.214V278.667C316.214 278.184 316.052 277.797 315.729 277.505C315.41 277.209 314.988 277.061 314.464 277.061C313.575 277.061 313.015 277.411 312.782 278.113H311.668C311.837 277.462 312.167 276.96 312.659 276.609C313.156 276.258 313.757 276.083 314.464 276.083C315.33 276.083 316.013 276.318 316.515 276.787C317.016 277.257 317.267 277.883 317.267 278.667V283.5H316.426L316.282 282.522H316.214C316.054 282.8 315.77 283.056 315.359 283.288C314.954 283.521 314.493 283.637 313.979 283.637ZM319.146 283.5V276.22H319.987L320.131 277.197H320.199C320.637 276.45 321.336 276.078 322.298 276.083C323.082 276.083 323.733 276.352 324.253 276.89C324.772 277.423 325.032 278.134 325.032 279.022V283.5H323.979V279.022C323.979 278.407 323.811 277.926 323.474 277.58C323.136 277.234 322.699 277.061 322.161 277.061C321.61 277.061 321.145 277.254 320.767 277.642C320.388 278.029 320.199 278.489 320.199 279.022V283.5H319.146ZM328.225 281.935C328.63 282.418 329.173 282.659 329.852 282.659C330.535 282.659 331.08 282.418 331.485 281.935C331.891 281.447 332.094 280.757 332.094 279.863C332.094 278.965 331.891 278.275 331.485 277.792C331.08 277.304 330.535 277.061 329.852 277.061C329.173 277.061 328.63 277.304 328.225 277.792C327.819 278.275 327.616 278.965 327.616 279.863C327.616 280.757 327.819 281.447 328.225 281.935ZM329.715 283.637C328.781 283.637 328.022 283.306 327.438 282.646C326.855 281.985 326.563 281.057 326.563 279.863C326.563 278.665 326.855 277.735 327.438 277.074C328.022 276.413 328.781 276.083 329.715 276.083C330.713 276.083 331.483 276.432 332.025 277.129H332.094V273.697H333.146V283.5H332.306L332.162 282.522H332.094C331.57 283.265 330.777 283.637 329.715 283.637ZM339.559 281.935C339.964 282.418 340.507 282.659 341.186 282.659C341.869 282.659 342.414 282.418 342.819 281.935C343.225 281.447 343.428 280.757 343.428 279.863C343.428 278.965 343.225 278.275 342.819 277.792C342.414 277.304 341.869 277.061 341.186 277.061C340.507 277.061 339.964 277.304 339.559 277.792C339.153 278.275 338.95 278.965 338.95 279.863C338.95 280.757 339.153 281.447 339.559 281.935ZM341.049 283.637C340.115 283.637 339.356 283.306 338.772 282.646C338.189 281.985 337.897 281.057 337.897 279.863C337.897 278.665 338.189 277.735 338.772 277.074C339.356 276.413 340.115 276.083 341.049 276.083C342.047 276.083 342.817 276.432 343.359 277.129H343.428V273.697H344.48V283.5H343.64L343.496 282.522H343.428C342.904 283.265 342.111 283.637 341.049 283.637ZM346.504 283.5V276.22H347.345L347.488 277.197H347.557C347.949 276.546 348.603 276.22 349.519 276.22H350.284V277.197H349.519C348.958 277.197 348.491 277.37 348.117 277.717C347.743 278.063 347.557 278.498 347.557 279.022V283.5H346.504ZM356.642 282.646C356.026 283.306 355.213 283.637 354.201 283.637C353.194 283.637 352.383 283.306 351.768 282.646C351.152 281.985 350.845 281.057 350.845 279.863C350.845 278.665 351.152 277.735 351.768 277.074C352.383 276.413 353.194 276.083 354.201 276.083C355.213 276.083 356.026 276.413 356.642 277.074C357.257 277.735 357.564 278.665 357.564 279.863C357.564 281.057 357.257 281.985 356.642 282.646ZM352.533 281.928C352.957 282.415 353.513 282.659 354.201 282.659C354.894 282.659 355.452 282.415 355.876 281.928C356.304 281.436 356.519 280.747 356.519 279.863C356.519 278.975 356.304 278.286 355.876 277.799C355.452 277.307 354.894 277.061 354.201 277.061C353.513 277.061 352.957 277.307 352.533 277.799C352.109 278.286 351.897 278.975 351.897 279.863C351.897 280.747 352.109 281.436 352.533 281.928ZM359.178 286.303V276.22H360.019L360.162 277.197H360.23C360.755 276.45 361.548 276.078 362.609 276.083C363.544 276.083 364.302 276.413 364.886 277.074C365.469 277.735 365.761 278.665 365.761 279.863C365.761 281.057 365.469 281.985 364.886 282.646C364.302 283.306 363.544 283.637 362.609 283.637C361.611 283.637 360.841 283.288 360.299 282.591H360.23V286.303H359.178ZM360.839 281.935C361.244 282.418 361.787 282.659 362.466 282.659C363.149 282.659 363.694 282.418 364.1 281.935C364.505 281.447 364.708 280.757 364.708 279.863C364.708 278.965 364.505 278.275 364.1 277.792C363.694 277.304 363.149 277.061 362.466 277.061C361.787 277.061 361.244 277.304 360.839 277.792C360.433 278.275 360.23 278.965 360.23 279.863C360.23 280.757 360.433 281.447 360.839 281.935ZM371.004 286.303L372.125 283.5L369.11 276.22H370.231L372.61 282.03H372.679L374.989 276.22H376.11L372.125 286.303H371.004ZM382.468 282.646C381.853 283.306 381.039 283.637 380.027 283.637C379.02 283.637 378.209 283.306 377.594 282.646C376.979 281.985 376.671 281.057 376.671 279.863C376.671 278.665 376.979 277.735 377.594 277.074C378.209 276.413 379.02 276.083 380.027 276.083C381.039 276.083 381.853 276.413 382.468 277.074C383.083 277.735 383.391 278.665 383.391 279.863C383.391 281.057 383.083 281.985 382.468 282.646ZM378.359 281.928C378.783 282.415 379.339 282.659 380.027 282.659C380.72 282.659 381.278 282.415 381.702 281.928C382.131 281.436 382.345 280.747 382.345 279.863C382.345 278.975 382.131 278.286 381.702 277.799C381.278 277.307 380.72 277.061 380.027 277.061C379.339 277.061 378.783 277.307 378.359 277.799C377.936 278.286 377.724 278.975 377.724 279.863C377.724 280.747 377.936 281.436 378.359 281.928ZM387.738 283.637C386.954 283.637 386.303 283.37 385.783 282.837C385.264 282.299 385.004 281.586 385.004 280.697V276.22H386.057V280.697C386.057 281.312 386.223 281.793 386.556 282.14C386.893 282.486 387.333 282.659 387.875 282.659C388.426 282.659 388.891 282.465 389.27 282.078C389.648 281.691 389.837 281.23 389.837 280.697V276.22H390.89V283.5H390.049L389.905 282.522H389.837C389.399 283.265 388.7 283.637 387.738 283.637ZM392.838 283.5V276.22H393.679L393.822 277.197H393.891C394.283 276.546 394.937 276.22 395.853 276.22H396.618V277.197H395.853C395.292 277.197 394.825 277.37 394.451 277.717C394.077 278.063 393.891 278.498 393.891 279.022V283.5H392.838ZM400.959 283.5V277.197H399.838V276.22H400.959V275.522C400.959 274.998 401.132 274.563 401.479 274.217C401.825 273.87 402.258 273.697 402.777 273.697H403.898V274.682H402.853C402.611 274.682 402.41 274.761 402.251 274.921C402.091 275.076 402.012 275.276 402.012 275.522V276.22H406.209V283.5H405.156V277.197H402.012V283.5H400.959ZM406.209 274.955C406.068 275.096 405.895 275.167 405.689 275.167C405.484 275.167 405.309 275.099 405.163 274.962C405.022 274.821 404.951 274.647 404.951 274.442C404.951 274.237 405.022 274.062 405.163 273.916C405.309 273.77 405.484 273.697 405.689 273.697C405.895 273.697 406.068 273.77 406.209 273.916C406.35 274.062 406.421 274.237 406.421 274.442C406.421 274.638 406.35 274.809 406.209 274.955ZM408.239 283.5V273.697H409.285V283.5H408.239ZM414.323 283.637C413.316 283.637 412.503 283.306 411.883 282.646C411.268 281.985 410.96 281.057 410.96 279.863C410.96 278.665 411.265 277.735 411.876 277.074C412.487 276.413 413.277 276.083 414.248 276.083C414.781 276.083 415.264 276.188 415.697 276.397C416.135 276.607 416.483 276.881 416.743 277.218C417.003 277.55 417.201 277.908 417.338 278.291C417.475 278.674 417.543 279.057 417.543 279.439L417.468 280.137H412.013C412.049 280.948 412.279 281.572 412.703 282.01C413.127 282.443 413.667 282.659 414.323 282.659C415.162 282.659 415.791 282.311 416.21 281.613H417.331C417.09 282.265 416.704 282.766 416.176 283.117C415.652 283.464 415.034 283.637 414.323 283.637ZM412.013 279.228H416.49C416.426 278.544 416.189 278.013 415.779 277.635C415.369 277.252 414.859 277.061 414.248 277.061C413.642 277.061 413.134 277.252 412.724 277.635C412.313 278.013 412.076 278.544 412.013 279.228ZM421.453 283.637C420.733 283.637 420.12 283.452 419.614 283.083C419.113 282.709 418.794 282.219 418.657 281.613H419.778C419.883 281.951 420.088 282.21 420.394 282.393C420.699 282.57 421.052 282.659 421.453 282.659C422.023 282.659 422.456 282.557 422.752 282.352C423.053 282.146 423.203 281.875 423.203 281.538C423.203 281.26 423.096 281.035 422.882 280.861C422.668 280.688 422.399 280.567 422.075 280.499C421.756 280.426 421.41 280.34 421.036 280.239C420.662 280.134 420.314 280.023 419.99 279.904C419.671 279.781 419.402 279.567 419.184 279.262C418.969 278.952 418.862 278.569 418.862 278.113C418.862 277.562 419.099 277.086 419.573 276.685C420.052 276.284 420.678 276.083 421.453 276.083C422.105 276.083 422.677 276.243 423.169 276.562C423.661 276.876 423.976 277.323 424.112 277.901H422.998C422.757 277.341 422.242 277.061 421.453 277.061C420.938 277.061 420.553 277.154 420.298 277.341C420.043 277.528 419.915 277.785 419.915 278.113C419.915 278.46 420.063 278.729 420.359 278.92C420.66 279.107 421.022 279.248 421.446 279.344C421.87 279.435 422.294 279.54 422.718 279.658C423.146 279.772 423.508 279.986 423.805 280.301C424.105 280.615 424.256 281.028 424.256 281.538C424.256 282.117 424.001 282.611 423.49 283.021C422.98 283.432 422.301 283.637 421.453 283.637Z" fill="white"/>
<rect x="33" y="88.5" width="638" height="360" rx="23.5" stroke="url(#paint2_linear_77_7417)" stroke-dasharray="8 4"/>
<defs>
<filter id="filter0_i_77_7417" x="227" y="20" width="250" height="36" filterUnits="userSpaceOnUse" color-interpolation-filters="sRGB">
<feFlood flood-opacity="0" result="BackgroundImageFix"/>
<feBlend mode="normal" in="SourceGraphic" in2="BackgroundImageFix" result="shape"/>
<feColorMatrix in="SourceAlpha" type="matrix" values="0 0 0 0 0 0 0 0 0 0 0 0 0 0 0 0 0 0 127 0" result="hardAlpha"/>
<feOffset/>
<feGaussianBlur stdDeviation="1"/>
<feComposite in2="hardAlpha" operator="arithmetic" k2="-1" k3="1"/>
<feColorMatrix type="matrix" values="0 0 0 0 0 0 0 0 0 0 0 0 0 0 0 0 0 0 0.1 0"/>
<feBlend mode="normal" in2="shape" result="effect1_innerShadow_77_7417"/>
</filter>
<linearGradient id="paint0_linear_77_7417" x1="352" y1="0" x2="352" y2="426" gradientUnits="userSpaceOnUse">
<stop stop-color="#212332"/>
<stop offset="0.776042" stop-color="#212332" stop-opacity="0"/>
</linearGradient>
<radialGradient id="paint1_radial_77_7417" cx="0" cy="0" r="1" gradientUnits="userSpaceOnUse" gradientTransform="translate(32.5 67.9999) scale(639 9530.58)">
<stop stop-color="#E2E8F0" stop-opacity="0.5"/>
<stop offset="0.494792" stop-color="#E2E8F0"/>
<stop offset="0.994792" stop-color="#E2E8F0" stop-opacity="0.5"/>
</radialGradient>
<linearGradient id="paint2_linear_77_7417" x1="352" y1="88" x2="352" y2="449" gradientUnits="userSpaceOnUse">
<stop stop-color="#E2E6EA"/>
<stop offset="0.833333" stop-color="#E2E6EA" stop-opacity="0"/>
</linearGradient>
</defs>
</svg>
