<svg width="368" height="258" viewBox="0 0 368 258" fill="none" xmlns="http://www.w3.org/2000/svg">
<path opacity="0.5" d="M1.68457 15V5.19727H3.57812L6.51758 13.25H6.58594L9.52539 5.19727H11.4121V15H10.2227V6.66699H10.1543L7.07812 15H6.02539L2.94238 6.66699H2.87402V15H1.68457ZM15.6914 14.1592C16.375 14.1592 16.9173 13.9655 17.3184 13.5781C17.724 13.1908 17.9268 12.7077 17.9268 12.1289V11.6367H15.8965C15.3451 11.6367 14.9281 11.7507 14.6455 11.9785C14.363 12.2018 14.2217 12.5094 14.2217 12.9014C14.2217 13.2842 14.3516 13.5895 14.6113 13.8174C14.8757 14.0452 15.2357 14.1592 15.6914 14.1592ZM15.6914 15.1367C14.9349 15.1367 14.3242 14.9248 13.8594 14.501C13.3991 14.0771 13.1689 13.5439 13.1689 12.9014C13.1689 12.2497 13.4105 11.7142 13.8936 11.2949C14.3812 10.8711 15.0488 10.6592 15.8965 10.6592H17.9268V10.167C17.9268 9.68392 17.765 9.29655 17.4414 9.00488C17.1224 8.70866 16.7008 8.56055 16.1768 8.56055C15.2881 8.56055 14.7275 8.91146 14.4951 9.61328H13.3809C13.5495 8.96159 13.8799 8.46029 14.3721 8.10938C14.8688 7.75846 15.4704 7.58301 16.1768 7.58301C17.0426 7.58301 17.7262 7.81771 18.2275 8.28711C18.7288 8.75651 18.9795 9.38314 18.9795 10.167V15H18.1387L17.9951 14.0225H17.9268C17.7673 14.3005 17.4824 14.5557 17.0723 14.7881C16.6667 15.0205 16.2064 15.1367 15.6914 15.1367ZM20.9346 15V5.19727H21.9805V11.1514L25.4121 7.71973H26.7451L23.1699 11.2881L26.9502 15H25.624L21.9805 11.4316V15H20.9346ZM30.6689 15.1367C29.6618 15.1367 28.8483 14.8063 28.2285 14.1455C27.6133 13.4847 27.3057 12.5573 27.3057 11.3633C27.3057 10.1647 27.611 9.23503 28.2217 8.57422C28.8324 7.91341 29.623 7.58301 30.5938 7.58301C31.127 7.58301 31.61 7.68783 32.043 7.89746C32.4805 8.1071 32.8291 8.38053 33.0889 8.71777C33.3486 9.05046 33.5469 9.4082 33.6836 9.79102C33.8203 10.1738 33.8887 10.5566 33.8887 10.9395L33.8135 11.6367H28.3584C28.3949 12.4479 28.625 13.0723 29.0488 13.5098C29.4727 13.9427 30.0127 14.1592 30.6689 14.1592C31.5075 14.1592 32.1364 13.8105 32.5557 13.1133H33.6768C33.4352 13.765 33.0501 14.2663 32.5215 14.6172C31.9974 14.9635 31.3799 15.1367 30.6689 15.1367ZM28.3584 10.7275H32.8359C32.7721 10.0439 32.5352 9.51302 32.125 9.13477C31.7148 8.75195 31.2044 8.56055 30.5938 8.56055C29.9876 8.56055 29.4795 8.75195 29.0693 9.13477C28.6592 9.51302 28.4222 10.0439 28.3584 10.7275ZM39.125 17.8027L40.2461 15L37.2314 7.71973H38.3525L40.7314 13.5303H40.7998L43.1104 7.71973H44.2314L40.2461 17.8027H39.125ZM50.5889 14.1455C49.9736 14.8063 49.1602 15.1367 48.1484 15.1367C47.1413 15.1367 46.3301 14.8063 45.7148 14.1455C45.0996 13.4847 44.792 12.5573 44.792 11.3633C44.792 10.1647 45.0996 9.23503 45.7148 8.57422C46.3301 7.91341 47.1413 7.58301 48.1484 7.58301C49.1602 7.58301 49.9736 7.91341 50.5889 8.57422C51.2041 9.23503 51.5117 10.1647 51.5117 11.3633C51.5117 12.5573 51.2041 13.4847 50.5889 14.1455ZM46.4805 13.4277C46.9043 13.9154 47.4603 14.1592 48.1484 14.1592C48.8411 14.1592 49.3994 13.9154 49.8232 13.4277C50.2516 12.9355 50.4658 12.2474 50.4658 11.3633C50.4658 10.4746 50.2516 9.78646 49.8232 9.29883C49.3994 8.80664 48.8411 8.56055 48.1484 8.56055C47.4603 8.56055 46.9043 8.80664 46.4805 9.29883C46.0566 9.78646 45.8447 10.4746 45.8447 11.3633C45.8447 12.2474 46.0566 12.9355 46.4805 13.4277ZM55.8594 15.1367C55.0755 15.1367 54.4238 14.8701 53.9043 14.3369C53.3848 13.7992 53.125 13.0859 53.125 12.1973V7.71973H54.1777V12.1973C54.1777 12.8125 54.3441 13.2933 54.6768 13.6396C55.014 13.986 55.4538 14.1592 55.9961 14.1592C56.5475 14.1592 57.0124 13.9655 57.3906 13.5781C57.7689 13.1908 57.958 12.7305 57.958 12.1973V7.71973H59.0107V15H58.1699L58.0264 14.0225H57.958C57.5205 14.7653 56.821 15.1367 55.8594 15.1367ZM60.959 15V7.71973H61.7998L61.9434 8.69727H62.0117C62.4036 8.04557 63.0576 7.71973 63.9736 7.71973H64.7393V8.69727H63.9736C63.4131 8.69727 62.946 8.87044 62.5723 9.2168C62.1986 9.56315 62.0117 9.99837 62.0117 10.5225V15H60.959ZM74.0361 14.1455C73.4209 14.8063 72.6074 15.1367 71.5957 15.1367C70.5885 15.1367 69.7773 14.8063 69.1621 14.1455C68.5469 13.4847 68.2393 12.5573 68.2393 11.3633C68.2393 10.1647 68.5469 9.23503 69.1621 8.57422C69.7773 7.91341 70.5885 7.58301 71.5957 7.58301C72.6074 7.58301 73.4209 7.91341 74.0361 8.57422C74.6514 9.23503 74.959 10.1647 74.959 11.3633C74.959 12.5573 74.6514 13.4847 74.0361 14.1455ZM69.9277 13.4277C70.3516 13.9154 70.9076 14.1592 71.5957 14.1592C72.2884 14.1592 72.8467 13.9154 73.2705 13.4277C73.6989 12.9355 73.9131 12.2474 73.9131 11.3633C73.9131 10.4746 73.6989 9.78646 73.2705 9.29883C72.8467 8.80664 72.2884 8.56055 71.5957 8.56055C70.9076 8.56055 70.3516 8.80664 69.9277 9.29883C69.5039 9.78646 69.292 10.4746 69.292 11.3633C69.292 12.2474 69.5039 12.9355 69.9277 13.4277ZM77.7617 15L75.7314 7.71973H76.7842L78.3975 13.5986H78.4658L80.0723 7.71973H81.2617L82.875 13.5986H82.9434L84.5566 7.71973H85.6025L83.5723 15H82.2461L80.708 9.33301H80.6328L79.0947 15H77.7617ZM86.7168 15V7.71973H87.5576L87.7012 8.69727H87.7695C88.207 7.94987 88.9066 7.57845 89.8682 7.58301C90.652 7.58301 91.3037 7.85189 91.8232 8.38965C92.3428 8.92285 92.6025 9.63379 92.6025 10.5225V15H91.5498V10.5225C91.5498 9.90723 91.3812 9.42643 91.0439 9.08008C90.7067 8.73372 90.2692 8.56055 89.7314 8.56055C89.18 8.56055 88.7152 8.75423 88.3369 9.1416C87.9587 9.52897 87.7695 9.98926 87.7695 10.5225V15H86.7168Z" fill="white"/>
<path d="M18.6592 57L16.1367 47.1973H17.6816L19.5684 55.1133H19.6367L21.5303 47.1973H23.3486L25.2422 55.1133H25.3105L27.1973 47.1973H28.7422L26.2197 57H24.333L22.4668 49.1592H22.4121L20.5527 57H18.6592ZM29.7881 57V49.583H30.8408L31.0459 50.5605H31.1211C31.513 49.9089 32.1419 49.583 33.0078 49.583H33.8486V50.8408H33.0762C32.4883 50.8408 32.0143 51.0117 31.6543 51.3535C31.2988 51.6908 31.1211 52.126 31.1211 52.6592V57H29.7881ZM34.9697 57V49.583H36.3027V57H34.9697ZM35.6396 48.7422C35.3799 48.7422 35.168 48.6602 35.0039 48.4961C34.8398 48.332 34.7578 48.1247 34.7578 47.874C34.7578 47.6143 34.8398 47.4023 35.0039 47.2383C35.168 47.0742 35.3799 46.9922 35.6396 46.9922C35.8903 46.9922 36.0977 47.0742 36.2617 47.2383C36.4258 47.3978 36.5078 47.6097 36.5078 47.874C36.5078 48.1247 36.4258 48.332 36.2617 48.4961C36.0977 48.6602 35.8903 48.7422 35.6396 48.7422ZM40.6367 57C40.0488 57 39.5749 56.8177 39.2148 56.4531C38.8548 56.0885 38.6748 55.6169 38.6748 55.0381V50.8408H37.4854V49.583H38.6748L38.8867 47.6211H40.0078V49.583H41.8262V50.8408H40.0078V54.9014C40.0078 55.152 40.0739 55.3548 40.2061 55.5098C40.3428 55.6647 40.5319 55.7422 40.7734 55.7422H41.8262V57H40.6367ZM46.3105 57.1367C45.2487 57.1367 44.3988 56.7972 43.7607 56.1182C43.1273 55.4346 42.8105 54.4912 42.8105 53.2881C42.8105 52.085 43.1227 51.1439 43.7471 50.4648C44.3714 49.7812 45.2031 49.4395 46.2422 49.4395C47.2949 49.4395 48.1289 49.7949 48.7441 50.5059C49.3594 51.2122 49.667 52.0234 49.667 52.9395L49.5986 53.7119H44.1982C44.2347 54.4046 44.4443 54.9401 44.8271 55.3184C45.21 55.6921 45.7044 55.8789 46.3105 55.8789C47.0762 55.8789 47.6595 55.5758 48.0605 54.9697H49.5303C49.2796 55.6214 48.874 56.1455 48.3135 56.542C47.7529 56.9385 47.0853 57.1367 46.3105 57.1367ZM44.1982 52.5908H48.2998C48.2178 51.9938 47.9945 51.529 47.6299 51.1963C47.2653 50.8636 46.8027 50.6973 46.2422 50.6973C45.6816 50.6973 45.2191 50.8636 44.8545 51.1963C44.4899 51.529 44.2712 51.9938 44.1982 52.5908ZM54.2881 57V47.1973H55.6211V57H54.2881ZM57.5146 57V49.583H58.8477V57H57.5146ZM58.1846 48.7422C57.9248 48.7422 57.7129 48.6602 57.5488 48.4961C57.3848 48.332 57.3027 48.1247 57.3027 47.874C57.3027 47.6143 57.3848 47.4023 57.5488 47.2383C57.7129 47.0742 57.9248 46.9922 58.1846 46.9922C58.4352 46.9922 58.6426 47.0742 58.8066 47.2383C58.9707 47.3978 59.0527 47.6097 59.0527 47.874C59.0527 48.1247 58.9707 48.332 58.8066 48.4961C58.6426 48.6602 58.4352 48.7422 58.1846 48.7422ZM60.7275 57V47.1973H62.0605V53.0078L65.2803 49.583H66.9619L63.5303 53.2197L67.167 57H65.4922L62.0605 53.4316V57H60.7275ZM70.8789 57.1367C69.8171 57.1367 68.9671 56.7972 68.3291 56.1182C67.6956 55.4346 67.3789 54.4912 67.3789 53.2881C67.3789 52.085 67.6911 51.1439 68.3154 50.4648C68.9398 49.7812 69.7715 49.4395 70.8105 49.4395C71.8633 49.4395 72.6973 49.7949 73.3125 50.5059C73.9277 51.2122 74.2354 52.0234 74.2354 52.9395L74.167 53.7119H68.7666C68.8031 54.4046 69.0127 54.9401 69.3955 55.3184C69.7783 55.6921 70.2728 55.8789 70.8789 55.8789C71.6445 55.8789 72.2279 55.5758 72.6289 54.9697H74.0986C73.848 55.6214 73.4424 56.1455 72.8818 56.542C72.3213 56.9385 71.6536 57.1367 70.8789 57.1367ZM68.7666 52.5908H72.8682C72.7861 51.9938 72.5628 51.529 72.1982 51.1963C71.8337 50.8636 71.3711 50.6973 70.8105 50.6973C70.25 50.6973 69.7874 50.8636 69.4229 51.1963C69.0583 51.529 68.8395 51.9938 68.7666 52.5908ZM82.0078 57.1367C80.9915 57.1367 80.153 56.8906 79.4922 56.3984C78.8359 55.9017 78.4372 55.2158 78.2959 54.3408H79.7656C80.0436 55.3206 80.791 55.8105 82.0078 55.8105C82.7188 55.8105 83.2588 55.6738 83.6279 55.4004C83.9971 55.1224 84.1816 54.7464 84.1816 54.2725C84.1816 53.9626 84.0768 53.7051 83.8672 53.5C83.6621 53.2949 83.3932 53.1423 83.0605 53.042C82.7324 52.9372 82.3701 52.8438 81.9736 52.7617C81.5771 52.6751 81.1807 52.5703 80.7842 52.4473C80.3877 52.3197 80.0231 52.1602 79.6904 51.9688C79.3623 51.7773 79.0934 51.4971 78.8838 51.1279C78.6787 50.7588 78.5762 50.3122 78.5762 49.7881C78.5762 48.9769 78.8861 48.3206 79.5059 47.8193C80.1302 47.3135 80.9642 47.0605 82.0078 47.0605C82.9694 47.0605 83.7487 47.2861 84.3457 47.7373C84.9427 48.1839 85.3301 48.7992 85.5078 49.583H84.0381C83.7191 48.79 83.0423 48.3913 82.0078 48.3867C81.4017 48.3867 80.9232 48.5212 80.5723 48.79C80.2214 49.0544 80.0459 49.387 80.0459 49.7881C80.0459 50.1162 80.1507 50.3896 80.3604 50.6084C80.5745 50.8271 80.8457 50.9958 81.1738 51.1143C81.5065 51.2282 81.8757 51.333 82.2812 51.4287C82.6868 51.5199 83.0902 51.6292 83.4912 51.7568C83.8923 51.8844 84.2591 52.0394 84.5918 52.2217C84.9245 52.404 85.1956 52.6683 85.4053 53.0146C85.6149 53.3564 85.7197 53.7757 85.7197 54.2725C85.7197 55.0745 85.387 55.7536 84.7217 56.3096C84.0609 56.861 83.1562 57.1367 82.0078 57.1367ZM87.1826 57V47.1973H88.5156V50.4922H88.584C88.7891 50.1549 89.0739 49.8952 89.4385 49.7129C89.8031 49.5306 90.195 49.4395 90.6143 49.4395C91.4255 49.4395 92.0817 49.7152 92.583 50.2666C93.0889 50.818 93.3418 51.5449 93.3418 52.4473V57H92.0156V52.5225C92.0156 51.9437 91.8607 51.4948 91.5508 51.1758C91.2454 50.8568 90.8398 50.6973 90.334 50.6973C89.819 50.6973 89.3861 50.8773 89.0352 51.2373C88.6888 51.5973 88.5156 52.0257 88.5156 52.5225V57H87.1826ZM97.4092 55.9473C98.0244 55.9473 98.5166 55.7786 98.8857 55.4414C99.2549 55.0996 99.4395 54.6621 99.4395 54.1289V53.7119H97.4775C96.9945 53.7119 96.6276 53.8122 96.377 54.0127C96.1309 54.2132 96.0078 54.4867 96.0078 54.833C96.0078 55.1748 96.1309 55.446 96.377 55.6465C96.6276 55.847 96.9717 55.9473 97.4092 55.9473ZM97.1973 57.1367C96.4499 57.1367 95.8438 56.9134 95.3789 56.4668C94.9141 56.0202 94.6816 55.4756 94.6816 54.833C94.6816 54.1722 94.9277 53.623 95.4199 53.1855C95.9167 52.7435 96.6025 52.5225 97.4775 52.5225H99.4395V52.167C99.4395 51.7113 99.2936 51.3535 99.002 51.0938C98.7148 50.8294 98.3229 50.6973 97.8262 50.6973C97.4251 50.6973 97.0993 50.7839 96.8486 50.957C96.598 51.1302 96.4339 51.349 96.3564 51.6133H94.9619C95.1032 50.998 95.4359 50.4831 95.96 50.0684C96.4886 49.6491 97.1107 49.4395 97.8262 49.4395C98.7513 49.4395 99.4736 49.6901 99.9932 50.1914C100.513 50.6882 100.772 51.3467 100.772 52.167V57H99.6514L99.5078 56.0908H99.4395C99.2799 56.3597 98.9974 56.6012 98.5918 56.8154C98.1862 57.0296 97.7214 57.1367 97.1973 57.1367ZM102.591 57V47.1973H103.924V53.0078L107.144 49.583H108.825L105.394 53.2197L109.03 57H107.355L103.924 53.4316V57H102.591ZM112.742 57.1367C111.68 57.1367 110.83 56.7972 110.192 56.1182C109.559 55.4346 109.242 54.4912 109.242 53.2881C109.242 52.085 109.554 51.1439 110.179 50.4648C110.803 49.7812 111.635 49.4395 112.674 49.4395C113.727 49.4395 114.561 49.7949 115.176 50.5059C115.791 51.2122 116.099 52.0234 116.099 52.9395L116.03 53.7119H110.63C110.666 54.4046 110.876 54.9401 111.259 55.3184C111.642 55.6921 112.136 55.8789 112.742 55.8789C113.508 55.8789 114.091 55.5758 114.492 54.9697H115.962C115.711 55.6214 115.306 56.1455 114.745 56.542C114.185 56.9385 113.517 57.1367 112.742 57.1367ZM110.63 52.5908H114.731C114.649 51.9938 114.426 51.529 114.062 51.1963C113.697 50.8636 113.234 50.6973 112.674 50.6973C112.113 50.6973 111.651 50.8636 111.286 51.1963C110.922 51.529 110.703 51.9938 110.63 52.5908ZM120.029 57.1367C119.245 57.1367 118.582 56.9362 118.04 56.5352C117.498 56.1341 117.156 55.6123 117.015 54.9697H118.484C118.671 55.5758 119.186 55.8789 120.029 55.8789C120.562 55.8789 120.964 55.7923 121.232 55.6191C121.501 55.446 121.636 55.2295 121.636 54.9697C121.636 54.7191 121.529 54.5186 121.314 54.3682C121.1 54.2178 120.831 54.113 120.508 54.0537C120.189 53.9945 119.842 53.9147 119.469 53.8145C119.095 53.7096 118.746 53.5911 118.423 53.459C118.099 53.3268 117.83 53.1035 117.616 52.7891C117.402 52.4701 117.295 52.0781 117.295 51.6133C117.295 50.998 117.534 50.4831 118.013 50.0684C118.496 49.6491 119.143 49.4395 119.954 49.4395C120.711 49.4395 121.355 49.6263 121.889 50C122.422 50.3737 122.757 50.8636 122.894 51.4697H121.424C121.164 50.9548 120.674 50.6973 119.954 50.6973C119.065 50.6973 118.623 51.0026 118.628 51.6133C118.628 51.8639 118.735 52.0667 118.949 52.2217C119.163 52.3721 119.43 52.4792 119.749 52.543C120.073 52.6022 120.421 52.6865 120.795 52.7959C121.169 52.9007 121.515 53.0192 121.834 53.1514C122.158 53.279 122.426 53.5 122.641 53.8145C122.859 54.1289 122.969 54.514 122.969 54.9697C122.969 55.585 122.707 56.0999 122.183 56.5146C121.663 56.9294 120.945 57.1367 120.029 57.1367ZM124.302 59.8027V49.583H125.354L125.56 50.5605H125.635C126.214 49.8132 126.984 49.4395 127.945 49.4395C128.889 49.4395 129.647 49.7767 130.222 50.4512C130.8 51.1211 131.09 52.069 131.09 53.2949C131.09 54.5163 130.8 55.4619 130.222 56.1318C129.643 56.8018 128.884 57.1367 127.945 57.1367C126.975 57.1367 126.227 56.7881 125.703 56.0908H125.635V59.8027H124.302ZM127.733 55.8789C128.349 55.8789 128.841 55.6602 129.21 55.2227C129.579 54.7852 129.764 54.1426 129.764 53.2949C129.764 52.4427 129.579 51.7979 129.21 51.3604C128.841 50.9183 128.349 50.6973 127.733 50.6973C127.109 50.6973 126.603 50.9206 126.216 51.3672C125.828 51.8092 125.635 52.4518 125.635 53.2949C125.635 54.1335 125.828 54.7738 126.216 55.2158C126.603 55.6579 127.109 55.8789 127.733 55.8789ZM135.711 57.1367C134.649 57.1367 133.799 56.7972 133.161 56.1182C132.528 55.4346 132.211 54.4912 132.211 53.2881C132.211 52.085 132.523 51.1439 133.147 50.4648C133.772 49.7812 134.604 49.4395 135.643 49.4395C136.695 49.4395 137.529 49.7949 138.145 50.5059C138.76 51.2122 139.067 52.0234 139.067 52.9395L138.999 53.7119H133.599C133.635 54.4046 133.845 54.9401 134.228 55.3184C134.61 55.6921 135.105 55.8789 135.711 55.8789C136.477 55.8789 137.06 55.5758 137.461 54.9697H138.931C138.68 55.6214 138.274 56.1455 137.714 56.542C137.153 56.9385 136.486 57.1367 135.711 57.1367ZM133.599 52.5908H137.7C137.618 51.9938 137.395 51.529 137.03 51.1963C136.666 50.8636 136.203 50.6973 135.643 50.6973C135.082 50.6973 134.619 50.8636 134.255 51.1963C133.89 51.529 133.672 51.9938 133.599 52.5908ZM142.854 55.9473C143.47 55.9473 143.962 55.7786 144.331 55.4414C144.7 55.0996 144.885 54.6621 144.885 54.1289V53.7119H142.923C142.44 53.7119 142.073 53.8122 141.822 54.0127C141.576 54.2132 141.453 54.4867 141.453 54.833C141.453 55.1748 141.576 55.446 141.822 55.6465C142.073 55.847 142.417 55.9473 142.854 55.9473ZM142.643 57.1367C141.895 57.1367 141.289 56.9134 140.824 56.4668C140.359 56.0202 140.127 55.4756 140.127 54.833C140.127 54.1722 140.373 53.623 140.865 53.1855C141.362 52.7435 142.048 52.5225 142.923 52.5225H144.885V52.167C144.885 51.7113 144.739 51.3535 144.447 51.0938C144.16 50.8294 143.768 50.6973 143.271 50.6973C142.87 50.6973 142.545 50.7839 142.294 50.957C142.043 51.1302 141.879 51.349 141.802 51.6133H140.407C140.549 50.998 140.881 50.4831 141.405 50.0684C141.934 49.6491 142.556 49.4395 143.271 49.4395C144.197 49.4395 144.919 49.6901 145.438 50.1914C145.958 50.6882 146.218 51.3467 146.218 52.167V57H145.097L144.953 56.0908H144.885C144.725 56.3597 144.443 56.6012 144.037 56.8154C143.632 57.0296 143.167 57.1367 142.643 57.1367ZM147.968 57V49.583H149.021L149.226 50.5605H149.301C149.693 49.9089 150.322 49.583 151.188 49.583H152.028V50.8408H151.256C150.668 50.8408 150.194 51.0117 149.834 51.3535C149.479 51.6908 149.301 52.126 149.301 52.6592V57H147.968ZM156.014 57.1367C154.952 57.1367 154.102 56.7972 153.464 56.1182C152.83 55.4346 152.514 54.4912 152.514 53.2881C152.514 52.085 152.826 51.1439 153.45 50.4648C154.075 49.7812 154.906 49.4395 155.945 49.4395C156.998 49.4395 157.832 49.7949 158.447 50.5059C159.062 51.2122 159.37 52.0234 159.37 52.9395L159.302 53.7119H153.901C153.938 54.4046 154.147 54.9401 154.53 55.3184C154.913 55.6921 155.408 55.8789 156.014 55.8789C156.779 55.8789 157.363 55.5758 157.764 54.9697H159.233C158.983 55.6214 158.577 56.1455 158.017 56.542C157.456 56.9385 156.788 57.1367 156.014 57.1367ZM153.901 52.5908H158.003C157.921 51.9938 157.698 51.529 157.333 51.1963C156.968 50.8636 156.506 50.6973 155.945 50.6973C155.385 50.6973 154.922 50.8636 154.558 51.1963C154.193 51.529 153.974 51.9938 153.901 52.5908Z" fill="white"/>
<rect x="316" y="40" width="30" height="22" rx="11" fill="url(#paint0_linear_77_7293)"/>
<path d="M332.185 46.753L336.122 50.6905C336.163 50.7311 336.195 50.7794 336.217 50.8325C336.239 50.8856 336.25 50.9425 336.25 51C336.25 51.0575 336.239 51.1144 336.217 51.1675C336.195 51.2206 336.163 51.2689 336.122 51.3095L332.185 55.247C332.102 55.3291 331.991 55.3752 331.875 55.3752C331.759 55.3752 331.648 55.3291 331.565 55.247C331.483 55.1649 331.437 55.0536 331.437 54.9375C331.437 54.8214 331.483 54.7101 331.565 54.628L334.756 51.4375H326.187C326.071 51.4375 325.96 51.3914 325.878 51.3094C325.796 51.2273 325.75 51.116 325.75 51C325.75 50.884 325.796 50.7727 325.878 50.6906C325.96 50.6086 326.071 50.5625 326.187 50.5625H334.756L331.565 47.372C331.483 47.2899 331.437 47.1786 331.437 47.0625C331.437 46.9464 331.483 46.8351 331.565 46.753C331.648 46.6709 331.759 46.6248 331.875 46.6248C331.991 46.6248 332.102 46.6709 332.185 46.753Z" fill="white"/>
<line x1="162.5" y1="43" x2="162.5" y2="61" stroke="white"/>
<rect x="0.5" y="34.5" width="361" height="33" rx="16.5" stroke="black" stroke-dasharray="2 2"/>
<path opacity="0.5" d="M5.28223 107.137C3.94694 107.137 2.87598 106.699 2.06934 105.824C1.26725 104.945 0.866211 103.703 0.866211 102.099C0.866211 100.494 1.26725 99.2549 2.06934 98.3799C2.87598 97.5003 3.94694 97.0605 5.28223 97.0605C7.24186 97.0605 8.57031 97.9697 9.26758 99.7881H8.00977C7.48568 98.667 6.5765 98.1087 5.28223 98.1133C4.31152 98.1133 3.52995 98.4619 2.9375 99.1592C2.34961 99.8519 2.05566 100.834 2.05566 102.105C2.05566 103.372 2.34961 104.354 2.9375 105.052C3.52995 105.744 4.31152 106.091 5.28223 106.091C6.58105 106.091 7.49023 105.53 8.00977 104.409H9.26758C8.57031 106.228 7.24186 107.137 5.28223 107.137ZM10.8877 107V97.1973H11.9336V100.629H12.002C12.4486 99.9271 13.1253 99.5785 14.0322 99.583C14.7979 99.583 15.445 99.8451 15.9736 100.369C16.5023 100.889 16.7666 101.606 16.7666 102.522V107H15.7139V102.522C15.7139 101.907 15.5452 101.426 15.208 101.08C14.8753 100.734 14.4378 100.561 13.8955 100.561C13.3441 100.561 12.8792 100.754 12.501 101.142C12.1227 101.529 11.9336 101.989 11.9336 102.522V107H10.8877ZM24.0947 106.146C23.4795 106.806 22.666 107.137 21.6543 107.137C20.6471 107.137 19.8359 106.806 19.2207 106.146C18.6055 105.485 18.2979 104.557 18.2979 103.363C18.2979 102.165 18.6055 101.235 19.2207 100.574C19.8359 99.9134 20.6471 99.583 21.6543 99.583C22.666 99.583 23.4795 99.9134 24.0947 100.574C24.71 101.235 25.0176 102.165 25.0176 103.363C25.0176 104.557 24.71 105.485 24.0947 106.146ZM19.9863 105.428C20.4102 105.915 20.9661 106.159 21.6543 106.159C22.347 106.159 22.9053 105.915 23.3291 105.428C23.7575 104.936 23.9717 104.247 23.9717 103.363C23.9717 102.475 23.7575 101.786 23.3291 101.299C22.9053 100.807 22.347 100.561 21.6543 100.561C20.9661 100.561 20.4102 100.807 19.9863 101.299C19.5625 101.786 19.3506 102.475 19.3506 103.363C19.3506 104.247 19.5625 104.936 19.9863 105.428ZM32.0791 106.146C31.4639 106.806 30.6504 107.137 29.6387 107.137C28.6315 107.137 27.8203 106.806 27.2051 106.146C26.5898 105.485 26.2822 104.557 26.2822 103.363C26.2822 102.165 26.5898 101.235 27.2051 100.574C27.8203 99.9134 28.6315 99.583 29.6387 99.583C30.6504 99.583 31.4639 99.9134 32.0791 100.574C32.6943 101.235 33.002 102.165 33.002 103.363C33.002 104.557 32.6943 105.485 32.0791 106.146ZM27.9707 105.428C28.3945 105.915 28.9505 106.159 29.6387 106.159C30.3314 106.159 30.8896 105.915 31.3135 105.428C31.7419 104.936 31.9561 104.247 31.9561 103.363C31.9561 102.475 31.7419 101.786 31.3135 101.299C30.8896 100.807 30.3314 100.561 29.6387 100.561C28.9505 100.561 28.3945 100.807 27.9707 101.299C27.5469 101.786 27.335 102.475 27.335 103.363C27.335 104.247 27.5469 104.936 27.9707 105.428ZM36.9258 107.137C36.2057 107.137 35.5928 106.952 35.0869 106.583C34.5856 106.209 34.2666 105.719 34.1299 105.113H35.251C35.3558 105.451 35.5609 105.71 35.8662 105.893C36.1715 106.07 36.5247 106.159 36.9258 106.159C37.4954 106.159 37.9284 106.057 38.2246 105.852C38.5254 105.646 38.6758 105.375 38.6758 105.038C38.6758 104.76 38.5687 104.535 38.3545 104.361C38.1403 104.188 37.8714 104.067 37.5479 103.999C37.2288 103.926 36.8825 103.84 36.5088 103.739C36.1351 103.634 35.7865 103.523 35.4629 103.404C35.1439 103.281 34.875 103.067 34.6562 102.762C34.4421 102.452 34.335 102.069 34.335 101.613C34.335 101.062 34.5719 100.586 35.0459 100.185C35.5244 99.7835 36.151 99.583 36.9258 99.583C37.5775 99.583 38.1494 99.7425 38.6416 100.062C39.1338 100.376 39.4482 100.823 39.585 101.401H38.4707C38.2292 100.841 37.7142 100.561 36.9258 100.561C36.4108 100.561 36.0257 100.654 35.7705 100.841C35.5153 101.028 35.3877 101.285 35.3877 101.613C35.3877 101.96 35.5358 102.229 35.832 102.42C36.1328 102.607 36.4951 102.748 36.9189 102.844C37.3428 102.935 37.7666 103.04 38.1904 103.158C38.6188 103.272 38.9811 103.486 39.2773 103.801C39.5781 104.115 39.7285 104.528 39.7285 105.038C39.7285 105.617 39.4733 106.111 38.9629 106.521C38.4525 106.932 37.7734 107.137 36.9258 107.137ZM44.2061 107.137C43.1989 107.137 42.3854 106.806 41.7656 106.146C41.1504 105.485 40.8428 104.557 40.8428 103.363C40.8428 102.165 41.1481 101.235 41.7588 100.574C42.3695 99.9134 43.1602 99.583 44.1309 99.583C44.6641 99.583 45.1471 99.6878 45.5801 99.8975C46.0176 100.107 46.3662 100.381 46.626 100.718C46.8857 101.05 47.084 101.408 47.2207 101.791C47.3574 102.174 47.4258 102.557 47.4258 102.939L47.3506 103.637H41.8955C41.932 104.448 42.1621 105.072 42.5859 105.51C43.0098 105.943 43.5498 106.159 44.2061 106.159C45.0446 106.159 45.6735 105.811 46.0928 105.113H47.2139C46.9723 105.765 46.5872 106.266 46.0586 106.617C45.5345 106.964 44.917 107.137 44.2061 107.137ZM41.8955 102.728H46.373C46.3092 102.044 46.0723 101.513 45.6621 101.135C45.252 100.752 44.7415 100.561 44.1309 100.561C43.5247 100.561 43.0166 100.752 42.6064 101.135C42.1963 101.513 41.9593 102.044 41.8955 102.728ZM54.4121 107.137C53.6921 107.137 53.0791 106.952 52.5732 106.583C52.0719 106.209 51.7529 105.719 51.6162 105.113H52.7373C52.8421 105.451 53.0472 105.71 53.3525 105.893C53.6579 106.07 54.0111 106.159 54.4121 106.159C54.9818 106.159 55.4147 106.057 55.7109 105.852C56.0117 105.646 56.1621 105.375 56.1621 105.038C56.1621 104.76 56.055 104.535 55.8408 104.361C55.6266 104.188 55.3577 104.067 55.0342 103.999C54.7152 103.926 54.3688 103.84 53.9951 103.739C53.6214 103.634 53.2728 103.523 52.9492 103.404C52.6302 103.281 52.3613 103.067 52.1426 102.762C51.9284 102.452 51.8213 102.069 51.8213 101.613C51.8213 101.062 52.0583 100.586 52.5322 100.185C53.0107 99.7835 53.6374 99.583 54.4121 99.583C55.0638 99.583 55.6357 99.7425 56.1279 100.062C56.6201 100.376 56.9346 100.823 57.0713 101.401H55.957C55.7155 100.841 55.2005 100.561 54.4121 100.561C53.8971 100.561 53.512 100.654 53.2568 100.841C53.0016 101.028 52.874 101.285 52.874 101.613C52.874 101.96 53.0221 102.229 53.3184 102.42C53.6191 102.607 53.9814 102.748 54.4053 102.844C54.8291 102.935 55.2529 103.04 55.6768 103.158C56.1051 103.272 56.4674 103.486 56.7637 103.801C57.0645 104.115 57.2148 104.528 57.2148 105.038C57.2148 105.617 56.9596 106.111 56.4492 106.521C55.9388 106.932 55.2598 107.137 54.4121 107.137ZM60.9883 107C60.4642 107 60.029 106.827 59.6826 106.48C59.3408 106.134 59.1699 105.701 59.1699 105.182V100.697H58.0488V99.7197H59.1699L59.3135 97.7578H60.2227V99.7197H62.1094V100.697H60.2227V105.182C60.2227 105.423 60.3001 105.624 60.4551 105.783C60.6146 105.943 60.8174 106.022 61.0635 106.022H62.1094V107H60.9883ZM64.502 109.803L65.623 107L62.6084 99.7197H63.7295L66.1084 105.53H66.1768L68.4873 99.7197H69.6084L65.623 109.803H64.502ZM70.7295 107V97.1973H71.7754V107H70.7295ZM76.8135 107.137C75.8063 107.137 74.9928 106.806 74.373 106.146C73.7578 105.485 73.4502 104.557 73.4502 103.363C73.4502 102.165 73.7555 101.235 74.3662 100.574C74.9769 99.9134 75.7676 99.583 76.7383 99.583C77.2715 99.583 77.7546 99.6878 78.1875 99.8975C78.625 100.107 78.9736 100.381 79.2334 100.718C79.4932 101.05 79.6914 101.408 79.8281 101.791C79.9648 102.174 80.0332 102.557 80.0332 102.939L79.958 103.637H74.5029C74.5394 104.448 74.7695 105.072 75.1934 105.51C75.6172 105.943 76.1572 106.159 76.8135 106.159C77.652 106.159 78.2809 105.811 78.7002 105.113H79.8213C79.5798 105.765 79.1947 106.266 78.666 106.617C78.1419 106.964 77.5244 107.137 76.8135 107.137ZM74.5029 102.728H78.9805C78.9167 102.044 78.6797 101.513 78.2695 101.135C77.8594 100.752 77.349 100.561 76.7383 100.561C76.1322 100.561 75.624 100.752 75.2139 101.135C74.8037 101.513 74.5667 102.044 74.5029 102.728ZM84.709 109.803V99.7197H85.5498L85.6934 100.697H85.7617C86.2858 99.9499 87.0788 99.5785 88.1406 99.583C89.0749 99.583 89.8337 99.9134 90.417 100.574C91.0003 101.235 91.292 102.165 91.292 103.363C91.292 104.557 91.0003 105.485 90.417 106.146C89.8337 106.806 89.0749 107.137 88.1406 107.137C87.1426 107.137 86.3724 106.788 85.8301 106.091H85.7617V109.803H84.709ZM86.3701 105.435C86.7757 105.918 87.318 106.159 87.9971 106.159C88.6807 106.159 89.2253 105.918 89.6309 105.435C90.0365 104.947 90.2393 104.257 90.2393 103.363C90.2393 102.465 90.0365 101.775 89.6309 101.292C89.2253 100.804 88.6807 100.561 87.9971 100.561C87.318 100.561 86.7757 100.804 86.3701 101.292C85.9645 101.775 85.7617 102.465 85.7617 103.363C85.7617 104.257 85.9645 104.947 86.3701 105.435ZM92.8984 107V99.7197H93.7393L93.8828 100.697H93.9512C94.3431 100.046 94.9971 99.7197 95.9131 99.7197H96.6787V100.697H95.9131C95.3525 100.697 94.8854 100.87 94.5117 101.217C94.138 101.563 93.9512 101.998 93.9512 102.522V107H92.8984ZM100.603 107.137C99.5954 107.137 98.7819 106.806 98.1621 106.146C97.5469 105.485 97.2393 104.557 97.2393 103.363C97.2393 102.165 97.5446 101.235 98.1553 100.574C98.766 99.9134 99.5566 99.583 100.527 99.583C101.061 99.583 101.544 99.6878 101.977 99.8975C102.414 100.107 102.763 100.381 103.022 100.718C103.282 101.05 103.48 101.408 103.617 101.791C103.754 102.174 103.822 102.557 103.822 102.939L103.747 103.637H98.292C98.3285 104.448 98.5586 105.072 98.9824 105.51C99.4062 105.943 99.9463 106.159 100.603 106.159C101.441 106.159 102.07 105.811 102.489 105.113H103.61C103.369 105.765 102.984 106.266 102.455 106.617C101.931 106.964 101.313 107.137 100.603 107.137ZM98.292 102.728H102.77C102.706 102.044 102.469 101.513 102.059 101.135C101.648 100.752 101.138 100.561 100.527 100.561C99.9212 100.561 99.4131 100.752 99.0029 101.135C98.5928 101.513 98.3558 102.044 98.292 102.728ZM107.732 107.137C107.012 107.137 106.399 106.952 105.894 106.583C105.392 106.209 105.073 105.719 104.937 105.113H106.058C106.162 105.451 106.368 105.71 106.673 105.893C106.978 106.07 107.331 106.159 107.732 106.159C108.302 106.159 108.735 106.057 109.031 105.852C109.332 105.646 109.482 105.375 109.482 105.038C109.482 104.76 109.375 104.535 109.161 104.361C108.947 104.188 108.678 104.067 108.354 103.999C108.035 103.926 107.689 103.84 107.315 103.739C106.942 103.634 106.593 103.523 106.27 103.404C105.951 103.281 105.682 103.067 105.463 102.762C105.249 102.452 105.142 102.069 105.142 101.613C105.142 101.062 105.379 100.586 105.853 100.185C106.331 99.7835 106.958 99.583 107.732 99.583C108.384 99.583 108.956 99.7425 109.448 100.062C109.94 100.376 110.255 100.823 110.392 101.401H109.277C109.036 100.841 108.521 100.561 107.732 100.561C107.217 100.561 106.832 100.654 106.577 100.841C106.322 101.028 106.194 101.285 106.194 101.613C106.194 101.96 106.342 102.229 106.639 102.42C106.939 102.607 107.302 102.748 107.726 102.844C108.149 102.935 108.573 103.04 108.997 103.158C109.425 103.272 109.788 103.486 110.084 103.801C110.385 104.115 110.535 104.528 110.535 105.038C110.535 105.617 110.28 106.111 109.77 106.521C109.259 106.932 108.58 107.137 107.732 107.137ZM115.013 107.137C114.006 107.137 113.192 106.806 112.572 106.146C111.957 105.485 111.649 104.557 111.649 103.363C111.649 102.165 111.955 101.235 112.565 100.574C113.176 99.9134 113.967 99.583 114.938 99.583C115.471 99.583 115.954 99.6878 116.387 99.8975C116.824 100.107 117.173 100.381 117.433 100.718C117.692 101.05 117.891 101.408 118.027 101.791C118.164 102.174 118.232 102.557 118.232 102.939L118.157 103.637H112.702C112.739 104.448 112.969 105.072 113.393 105.51C113.816 105.943 114.356 106.159 115.013 106.159C115.851 106.159 116.48 105.811 116.899 105.113H118.021C117.779 105.765 117.394 106.266 116.865 106.617C116.341 106.964 115.724 107.137 115.013 107.137ZM112.702 102.728H117.18C117.116 102.044 116.879 101.513 116.469 101.135C116.059 100.752 115.548 100.561 114.938 100.561C114.331 100.561 113.823 100.752 113.413 101.135C113.003 101.513 112.766 102.044 112.702 102.728ZM122.143 107C121.618 107 121.183 106.827 120.837 106.48C120.495 106.134 120.324 105.701 120.324 105.182V100.697H119.203V99.7197H120.324L120.468 97.7578H121.377V99.7197H123.264V100.697H121.377V105.182C121.377 105.423 121.454 105.624 121.609 105.783C121.769 105.943 121.972 106.022 122.218 106.022H123.264V107H122.143Z" fill="white"/>
<path d="M39.6025 140.338L28.3525 134.338C28.244 134.28 28.1229 134.25 28 134.25C27.8771 134.25 27.756 134.28 27.6475 134.338L16.3975 140.338C16.2775 140.402 16.1772 140.498 16.1072 140.614C16.0372 140.731 16.0002 140.864 16.0002 141C16.0002 141.136 16.0372 141.27 16.1072 141.386C16.1772 141.503 16.2775 141.598 16.3975 141.662L19 143.05V147.59C18.9992 147.958 19.1348 148.314 19.3806 148.588C20.6088 149.956 23.3603 152.25 28 152.25C29.5384 152.263 31.0653 151.984 32.5 151.429V154.5C32.5 154.699 32.579 154.89 32.7197 155.03C32.8603 155.171 33.0511 155.25 33.25 155.25C33.4489 155.25 33.6397 155.171 33.7803 155.03C33.921 154.89 34 154.699 34 154.5V150.704C34.978 150.14 35.8618 149.426 36.6194 148.588C36.8652 148.314 37.0008 147.958 37 147.59V143.05L39.6025 141.662C39.7225 141.598 39.8229 141.503 39.8928 141.386C39.9628 141.27 39.9998 141.136 39.9998 141C39.9998 140.864 39.9628 140.731 39.8928 140.614C39.8229 140.498 39.7225 140.402 39.6025 140.338ZM28 150.75C23.9434 150.75 21.5575 148.768 20.5 147.59V143.85L27.6475 147.662C27.756 147.72 27.8771 147.75 28 147.75C28.1229 147.75 28.244 147.72 28.3525 147.662L32.5 145.45V149.795C31.3188 150.346 29.83 150.75 28 150.75ZM35.5 147.586C35.0504 148.085 34.5474 148.533 34 148.922V144.65L35.5 143.85V147.586ZM33.625 143.151L33.6044 143.139L28.3544 140.338C28.1792 140.249 27.9759 140.232 27.7883 140.291C27.6007 140.35 27.4437 140.48 27.3513 140.654C27.2588 140.827 27.2382 141.03 27.294 141.219C27.3498 141.407 27.4774 141.567 27.6494 141.662L32.0313 144L28 146.15L18.3438 141L28 135.85L37.6563 141L33.625 143.151Z" fill="white"/>
<path d="M54.6592 150L52.1367 140.197H53.6816L55.5684 148.113H55.6367L57.5303 140.197H59.3486L61.2422 148.113H61.3105L63.1973 140.197H64.7422L62.2197 150H60.333L58.4668 142.159H58.4121L56.5527 150H54.6592ZM65.7881 150V142.583H66.8408L67.0459 143.561H67.1211C67.513 142.909 68.1419 142.583 69.0078 142.583H69.8486V143.841H69.0762C68.4883 143.841 68.0143 144.012 67.6543 144.354C67.2988 144.691 67.1211 145.126 67.1211 145.659V150H65.7881ZM70.9697 150V142.583H72.3027V150H70.9697ZM71.6396 141.742C71.3799 141.742 71.168 141.66 71.0039 141.496C70.8398 141.332 70.7578 141.125 70.7578 140.874C70.7578 140.614 70.8398 140.402 71.0039 140.238C71.168 140.074 71.3799 139.992 71.6396 139.992C71.8903 139.992 72.0977 140.074 72.2617 140.238C72.4258 140.398 72.5078 140.61 72.5078 140.874C72.5078 141.125 72.4258 141.332 72.2617 141.496C72.0977 141.66 71.8903 141.742 71.6396 141.742ZM76.6367 150C76.0488 150 75.5749 149.818 75.2148 149.453C74.8548 149.089 74.6748 148.617 74.6748 148.038V143.841H73.4854V142.583H74.6748L74.8867 140.621H76.0078V142.583H77.8262V143.841H76.0078V147.901C76.0078 148.152 76.0739 148.355 76.2061 148.51C76.3428 148.665 76.5319 148.742 76.7734 148.742H77.8262V150H76.6367ZM82.3105 150.137C81.2487 150.137 80.3988 149.797 79.7607 149.118C79.1273 148.435 78.8105 147.491 78.8105 146.288C78.8105 145.085 79.1227 144.144 79.7471 143.465C80.3714 142.781 81.2031 142.439 82.2422 142.439C83.2949 142.439 84.1289 142.795 84.7441 143.506C85.3594 144.212 85.667 145.023 85.667 145.939L85.5986 146.712H80.1982C80.2347 147.405 80.4443 147.94 80.8271 148.318C81.21 148.692 81.7044 148.879 82.3105 148.879C83.0762 148.879 83.6595 148.576 84.0605 147.97H85.5303C85.2796 148.621 84.874 149.146 84.3135 149.542C83.7529 149.938 83.0853 150.137 82.3105 150.137ZM80.1982 145.591H84.2998C84.2178 144.994 83.9945 144.529 83.6299 144.196C83.2653 143.864 82.8027 143.697 82.2422 143.697C81.6816 143.697 81.2191 143.864 80.8545 144.196C80.4899 144.529 80.2712 144.994 80.1982 145.591ZM90.2881 150V140.197H91.6211V150H90.2881ZM93.5146 150V142.583H94.8477V150H93.5146ZM94.1846 141.742C93.9248 141.742 93.7129 141.66 93.5488 141.496C93.3848 141.332 93.3027 141.125 93.3027 140.874C93.3027 140.614 93.3848 140.402 93.5488 140.238C93.7129 140.074 93.9248 139.992 94.1846 139.992C94.4352 139.992 94.6426 140.074 94.8066 140.238C94.9707 140.398 95.0527 140.61 95.0527 140.874C95.0527 141.125 94.9707 141.332 94.8066 141.496C94.6426 141.66 94.4352 141.742 94.1846 141.742ZM96.7275 150V140.197H98.0605V146.008L101.28 142.583H102.962L99.5303 146.22L103.167 150H101.492L98.0605 146.432V150H96.7275ZM106.879 150.137C105.817 150.137 104.967 149.797 104.329 149.118C103.696 148.435 103.379 147.491 103.379 146.288C103.379 145.085 103.691 144.144 104.315 143.465C104.94 142.781 105.771 142.439 106.811 142.439C107.863 142.439 108.697 142.795 109.312 143.506C109.928 144.212 110.235 145.023 110.235 145.939L110.167 146.712H104.767C104.803 147.405 105.013 147.94 105.396 148.318C105.778 148.692 106.273 148.879 106.879 148.879C107.645 148.879 108.228 148.576 108.629 147.97H110.099C109.848 148.621 109.442 149.146 108.882 149.542C108.321 149.938 107.654 150.137 106.879 150.137ZM104.767 145.591H108.868C108.786 144.994 108.563 144.529 108.198 144.196C107.834 143.864 107.371 143.697 106.811 143.697C106.25 143.697 105.787 143.864 105.423 144.196C105.058 144.529 104.84 144.994 104.767 145.591ZM117.099 148.947C117.714 148.947 118.206 148.779 118.575 148.441C118.944 148.1 119.129 147.662 119.129 147.129V146.712H117.167C116.684 146.712 116.317 146.812 116.066 147.013C115.82 147.213 115.697 147.487 115.697 147.833C115.697 148.175 115.82 148.446 116.066 148.646C116.317 148.847 116.661 148.947 117.099 148.947ZM116.887 150.137C116.139 150.137 115.533 149.913 115.068 149.467C114.604 149.02 114.371 148.476 114.371 147.833C114.371 147.172 114.617 146.623 115.109 146.186C115.606 145.743 116.292 145.522 117.167 145.522H119.129V145.167C119.129 144.711 118.983 144.354 118.691 144.094C118.404 143.829 118.012 143.697 117.516 143.697C117.115 143.697 116.789 143.784 116.538 143.957C116.287 144.13 116.123 144.349 116.046 144.613H114.651C114.793 143.998 115.125 143.483 115.649 143.068C116.178 142.649 116.8 142.439 117.516 142.439C118.441 142.439 119.163 142.69 119.683 143.191C120.202 143.688 120.462 144.347 120.462 145.167V150H119.341L119.197 149.091H119.129C118.969 149.36 118.687 149.601 118.281 149.815C117.876 150.03 117.411 150.137 116.887 150.137ZM122.212 150V142.583H123.265L123.47 143.561H123.545C124.001 142.813 124.7 142.439 125.644 142.439C126.455 142.439 127.111 142.715 127.612 143.267C128.118 143.818 128.371 144.545 128.371 145.447V150H127.045V145.522C127.045 144.944 126.89 144.495 126.58 144.176C126.275 143.857 125.869 143.697 125.363 143.697C124.848 143.697 124.415 143.877 124.064 144.237C123.718 144.597 123.545 145.026 123.545 145.522V150H122.212ZM135.515 148.947C136.13 148.947 136.622 148.779 136.991 148.441C137.36 148.1 137.545 147.662 137.545 147.129V146.712H135.583C135.1 146.712 134.733 146.812 134.482 147.013C134.236 147.213 134.113 147.487 134.113 147.833C134.113 148.175 134.236 148.446 134.482 148.646C134.733 148.847 135.077 148.947 135.515 148.947ZM135.303 150.137C134.555 150.137 133.949 149.913 133.484 149.467C133.02 149.02 132.787 148.476 132.787 147.833C132.787 147.172 133.033 146.623 133.525 146.186C134.022 145.743 134.708 145.522 135.583 145.522H137.545V145.167C137.545 144.711 137.399 144.354 137.107 144.094C136.82 143.829 136.428 143.697 135.932 143.697C135.531 143.697 135.205 143.784 134.954 143.957C134.703 144.13 134.539 144.349 134.462 144.613H133.067C133.209 143.998 133.541 143.483 134.065 143.068C134.594 142.649 135.216 142.439 135.932 142.439C136.857 142.439 137.579 142.69 138.099 143.191C138.618 143.688 138.878 144.347 138.878 145.167V150H137.757L137.613 149.091H137.545C137.385 149.36 137.103 149.601 136.697 149.815C136.292 150.03 135.827 150.137 135.303 150.137ZM143.779 150.137C142.717 150.137 141.868 149.797 141.229 149.118C140.596 148.435 140.279 147.491 140.279 146.288C140.279 145.085 140.596 144.144 141.229 143.465C141.863 142.781 142.713 142.439 143.779 142.439C144.563 142.439 145.231 142.642 145.782 143.048C146.334 143.453 146.716 143.998 146.931 144.682H145.529C145.165 144.03 144.581 143.702 143.779 143.697C143.137 143.697 142.613 143.925 142.207 144.381C141.806 144.832 141.605 145.47 141.605 146.295C141.605 147.115 141.806 147.751 142.207 148.202C142.613 148.653 143.137 148.879 143.779 148.879C144.581 148.879 145.165 148.553 145.529 147.901H146.931C146.716 148.585 146.334 149.13 145.782 149.535C145.231 149.936 144.563 150.137 143.779 150.137ZM150.636 148.947C151.251 148.947 151.743 148.779 152.112 148.441C152.481 148.1 152.666 147.662 152.666 147.129V146.712H150.704C150.221 146.712 149.854 146.812 149.604 147.013C149.357 147.213 149.234 147.487 149.234 147.833C149.234 148.175 149.357 148.446 149.604 148.646C149.854 148.847 150.198 148.947 150.636 148.947ZM150.424 150.137C149.676 150.137 149.07 149.913 148.605 149.467C148.141 149.02 147.908 148.476 147.908 147.833C147.908 147.172 148.154 146.623 148.646 146.186C149.143 145.743 149.829 145.522 150.704 145.522H152.666V145.167C152.666 144.711 152.52 144.354 152.229 144.094C151.941 143.829 151.549 143.697 151.053 143.697C150.652 143.697 150.326 143.784 150.075 143.957C149.825 144.13 149.66 144.349 149.583 144.613H148.188C148.33 143.998 148.662 143.483 149.187 143.068C149.715 142.649 150.337 142.439 151.053 142.439C151.978 142.439 152.7 142.69 153.22 143.191C153.739 143.688 153.999 144.347 153.999 145.167V150H152.878L152.734 149.091H152.666C152.507 149.36 152.224 149.601 151.818 149.815C151.413 150.03 150.948 150.137 150.424 150.137ZM158.757 148.879C159.381 148.879 159.887 148.658 160.274 148.216C160.666 147.774 160.862 147.133 160.862 146.295C160.862 145.452 160.669 144.809 160.281 144.367C159.894 143.921 159.386 143.697 158.757 143.697C158.142 143.697 157.649 143.918 157.28 144.36C156.911 144.798 156.727 145.443 156.727 146.295C156.727 147.143 156.911 147.785 157.28 148.223C157.649 148.66 158.142 148.879 158.757 148.879ZM158.552 150.137C157.608 150.137 156.847 149.802 156.269 149.132C155.69 148.462 155.4 147.514 155.4 146.288C155.4 145.058 155.694 144.11 156.282 143.444C156.87 142.774 157.649 142.439 158.62 142.439C159.545 142.439 160.268 142.79 160.787 143.492H160.862V140.197H162.188V150H161.143L160.931 149.022H160.862C160.284 149.765 159.513 150.137 158.552 150.137ZM167.227 150.137C166.165 150.137 165.315 149.797 164.677 149.118C164.043 148.435 163.727 147.491 163.727 146.288C163.727 145.085 164.039 144.144 164.663 143.465C165.287 142.781 166.119 142.439 167.158 142.439C168.211 142.439 169.045 142.795 169.66 143.506C170.275 144.212 170.583 145.023 170.583 145.939L170.515 146.712H165.114C165.151 147.405 165.36 147.94 165.743 148.318C166.126 148.692 166.62 148.879 167.227 148.879C167.992 148.879 168.576 148.576 168.977 147.97H170.446C170.196 148.621 169.79 149.146 169.229 149.542C168.669 149.938 168.001 150.137 167.227 150.137ZM165.114 145.591H169.216C169.134 144.994 168.91 144.529 168.546 144.196C168.181 143.864 167.719 143.697 167.158 143.697C166.598 143.697 166.135 143.864 165.771 144.196C165.406 144.529 165.187 144.994 165.114 145.591ZM172.06 150V142.583H173.112L173.317 143.561H173.393C173.867 142.813 174.495 142.439 175.279 142.439C175.785 142.439 176.216 142.562 176.571 142.809C176.931 143.05 177.2 143.371 177.378 143.772H177.453C177.667 143.371 177.975 143.05 178.376 142.809C178.777 142.562 179.24 142.439 179.764 142.439C180.52 142.439 181.14 142.711 181.623 143.253C182.106 143.795 182.348 144.527 182.348 145.447V150H181.021V145.522C181.021 144.944 180.88 144.495 180.598 144.176C180.32 143.857 179.948 143.697 179.483 143.697C179.046 143.697 178.668 143.866 178.349 144.203C178.03 144.54 177.87 144.98 177.87 145.522V150H176.537V145.522C176.537 144.944 176.398 144.495 176.12 144.176C175.842 143.857 175.468 143.697 174.999 143.697C174.562 143.697 174.183 143.866 173.864 144.203C173.55 144.54 173.393 144.98 173.393 145.522V150H172.06ZM184.104 150V142.583H185.438V150H184.104ZM184.774 141.742C184.515 141.742 184.303 141.66 184.139 141.496C183.975 141.332 183.893 141.125 183.893 140.874C183.893 140.614 183.975 140.402 184.139 140.238C184.303 140.074 184.515 139.992 184.774 139.992C185.025 139.992 185.232 140.074 185.396 140.238C185.561 140.398 185.643 140.61 185.643 140.874C185.643 141.125 185.561 141.332 185.396 141.496C185.232 141.66 185.025 141.742 184.774 141.742ZM189.56 148.947C190.175 148.947 190.667 148.779 191.036 148.441C191.405 148.1 191.59 147.662 191.59 147.129V146.712H189.628C189.145 146.712 188.778 146.812 188.527 147.013C188.281 147.213 188.158 147.487 188.158 147.833C188.158 148.175 188.281 148.446 188.527 148.646C188.778 148.847 189.122 148.947 189.56 148.947ZM189.348 150.137C188.6 150.137 187.994 149.913 187.529 149.467C187.064 149.02 186.832 148.476 186.832 147.833C186.832 147.172 187.078 146.623 187.57 146.186C188.067 145.743 188.753 145.522 189.628 145.522H191.59V145.167C191.59 144.711 191.444 144.354 191.152 144.094C190.865 143.829 190.473 143.697 189.977 143.697C189.576 143.697 189.25 143.784 188.999 143.957C188.748 144.13 188.584 144.349 188.507 144.613H187.112C187.254 143.998 187.586 143.483 188.11 143.068C188.639 142.649 189.261 142.439 189.977 142.439C190.902 142.439 191.624 142.69 192.144 143.191C192.663 143.688 192.923 144.347 192.923 145.167V150H191.802L191.658 149.091H191.59C191.43 149.36 191.148 149.601 190.742 149.815C190.337 150.03 189.872 150.137 189.348 150.137Z" fill="white"/>
<rect x="316" y="133" width="30" height="22" rx="11" fill="url(#paint1_linear_77_7293)"/>
<path d="M332.185 139.753L336.122 143.69C336.163 143.731 336.195 143.779 336.217 143.832C336.239 143.886 336.25 143.943 336.25 144C336.25 144.057 336.239 144.114 336.217 144.168C336.195 144.221 336.163 144.269 336.122 144.31L332.185 148.247C332.102 148.329 331.991 148.375 331.875 148.375C331.759 148.375 331.648 148.329 331.565 148.247C331.483 148.165 331.437 148.054 331.437 147.938C331.437 147.821 331.483 147.71 331.565 147.628L334.756 144.438H326.187C326.071 144.438 325.96 144.391 325.878 144.309C325.796 144.227 325.75 144.116 325.75 144C325.75 143.884 325.796 143.773 325.878 143.691C325.96 143.609 326.071 143.563 326.187 143.563H334.756L331.565 140.372C331.483 140.29 331.437 140.179 331.437 140.062C331.437 139.946 331.483 139.835 331.565 139.753C331.648 139.671 331.759 139.625 331.875 139.625C331.991 139.625 332.102 139.671 332.185 139.753Z" fill="white"/>
<rect x="0.5" y="126.5" width="361" height="35" rx="17.5" stroke="black" stroke-dasharray="2 2"/>
<path d="M27.2275 200.432C27.187 200.594 27.0933 200.738 26.9615 200.841C26.8297 200.944 26.6673 201 26.5 201C26.4368 201 26.3738 200.993 26.3125 200.977L23.3125 200.227C23.229 200.207 23.1497 200.171 23.0781 200.123L20.8281 198.623C20.6627 198.513 20.5478 198.341 20.5089 198.146C20.4699 197.951 20.5101 197.749 20.6205 197.583C20.7309 197.418 20.9025 197.303 21.0976 197.264C21.2926 197.225 21.4952 197.265 21.6606 197.376L23.8019 198.803L26.6763 199.522C26.7723 199.546 26.8628 199.588 26.9425 199.646C27.0223 199.705 27.0897 199.778 27.1409 199.863C27.1921 199.947 27.2262 200.041 27.241 200.139C27.2559 200.236 27.2513 200.336 27.2275 200.432ZM39.6672 191.389C39.6057 191.576 39.5077 191.749 39.379 191.897C39.2502 192.046 39.0933 192.168 38.9172 192.256L36.6972 193.366L31.5335 198.531C31.4418 198.622 31.328 198.688 31.2031 198.723C31.0783 198.757 30.9466 198.759 30.8209 198.727L24.8209 197.227C24.7297 197.205 24.6435 197.165 24.5669 197.11L19.3619 193.394L17.0856 192.256C16.7299 192.078 16.4593 191.766 16.3335 191.389C16.2076 191.012 16.2367 190.6 16.4144 190.244L18.7441 185.586C18.9219 185.23 19.2338 184.959 19.611 184.833C19.9883 184.708 20.4001 184.737 20.756 184.914L22.8241 185.946L27.7928 184.526C27.9276 184.488 28.0705 184.488 28.2053 184.526L33.1741 185.946L35.2422 184.914C35.598 184.737 36.0098 184.708 36.3871 184.833C36.7644 184.959 37.0762 185.23 37.2541 185.586L39.5838 190.244C39.6726 190.42 39.7257 190.612 39.7401 190.808C39.7544 191.005 39.7296 191.202 39.6672 191.389ZM35.3378 192.602L32.7869 187.5H29.8038L25.75 191.437C26.9369 192.196 28.7978 192.405 30.4675 190.722C30.5979 190.591 30.7723 190.512 30.9572 190.502C31.142 190.491 31.3242 190.549 31.4688 190.665L34.6947 193.25L35.3378 192.602ZM17.756 190.914L19.4144 191.744L21.7441 187.086L20.0856 186.256L17.756 190.914ZM33.625 194.312L31.0272 192.232C29.1953 193.732 26.8694 193.929 24.9419 192.7C24.7523 192.58 24.5922 192.418 24.4735 192.227C24.3547 192.036 24.2804 191.821 24.2559 191.598C24.2314 191.375 24.2574 191.149 24.332 190.937C24.4066 190.725 24.5279 190.532 24.6869 190.373C24.6891 190.371 24.6917 190.368 24.6944 190.366L28.9 186.287L28 186.03L23.2731 187.381L20.7072 192.512L25.3197 195.807L30.7703 197.169L33.625 194.312ZM38.2413 190.914L35.9144 186.256L34.256 187.086L36.5856 191.744L38.2413 190.914Z" fill="white"/>
<path d="M54.6592 198L52.1367 188.197H53.6816L55.5684 196.113H55.6367L57.5303 188.197H59.3486L61.2422 196.113H61.3105L63.1973 188.197H64.7422L62.2197 198H60.333L58.4668 190.159H58.4121L56.5527 198H54.6592ZM65.7881 198V190.583H66.8408L67.0459 191.561H67.1211C67.513 190.909 68.1419 190.583 69.0078 190.583H69.8486V191.841H69.0762C68.4883 191.841 68.0143 192.012 67.6543 192.354C67.2988 192.691 67.1211 193.126 67.1211 193.659V198H65.7881ZM70.9697 198V190.583H72.3027V198H70.9697ZM71.6396 189.742C71.3799 189.742 71.168 189.66 71.0039 189.496C70.8398 189.332 70.7578 189.125 70.7578 188.874C70.7578 188.614 70.8398 188.402 71.0039 188.238C71.168 188.074 71.3799 187.992 71.6396 187.992C71.8903 187.992 72.0977 188.074 72.2617 188.238C72.4258 188.398 72.5078 188.61 72.5078 188.874C72.5078 189.125 72.4258 189.332 72.2617 189.496C72.0977 189.66 71.8903 189.742 71.6396 189.742ZM76.6367 198C76.0488 198 75.5749 197.818 75.2148 197.453C74.8548 197.089 74.6748 196.617 74.6748 196.038V191.841H73.4854V190.583H74.6748L74.8867 188.621H76.0078V190.583H77.8262V191.841H76.0078V195.901C76.0078 196.152 76.0739 196.355 76.2061 196.51C76.3428 196.665 76.5319 196.742 76.7734 196.742H77.8262V198H76.6367ZM82.3105 198.137C81.2487 198.137 80.3988 197.797 79.7607 197.118C79.1273 196.435 78.8105 195.491 78.8105 194.288C78.8105 193.085 79.1227 192.144 79.7471 191.465C80.3714 190.781 81.2031 190.439 82.2422 190.439C83.2949 190.439 84.1289 190.795 84.7441 191.506C85.3594 192.212 85.667 193.023 85.667 193.939L85.5986 194.712H80.1982C80.2347 195.405 80.4443 195.94 80.8271 196.318C81.21 196.692 81.7044 196.879 82.3105 196.879C83.0762 196.879 83.6595 196.576 84.0605 195.97H85.5303C85.2796 196.621 84.874 197.146 84.3135 197.542C83.7529 197.938 83.0853 198.137 82.3105 198.137ZM80.1982 193.591H84.2998C84.2178 192.994 83.9945 192.529 83.6299 192.196C83.2653 191.864 82.8027 191.697 82.2422 191.697C81.6816 191.697 81.2191 191.864 80.8545 192.196C80.4899 192.529 80.2712 192.994 80.1982 193.591ZM90.2197 198V190.583H91.5527V198H90.2197ZM90.8896 189.742C90.6299 189.742 90.418 189.66 90.2539 189.496C90.0898 189.332 90.0078 189.125 90.0078 188.874C90.0078 188.614 90.0898 188.402 90.2539 188.238C90.418 188.074 90.6299 187.992 90.8896 187.992C91.1403 187.992 91.3477 188.074 91.5117 188.238C91.6758 188.398 91.7578 188.61 91.7578 188.874C91.7578 189.125 91.6758 189.332 91.5117 189.496C91.3477 189.66 91.1403 189.742 90.8896 189.742ZM93.3643 198V190.583H94.417L94.6221 191.561H94.6973C95.153 190.813 95.8525 190.439 96.7959 190.439C97.6071 190.439 98.2633 190.715 98.7646 191.267C99.2705 191.818 99.5234 192.545 99.5234 193.447V198H98.1973V193.522C98.1973 192.944 98.0423 192.495 97.7324 192.176C97.4271 191.857 97.0215 191.697 96.5156 191.697C96.0007 191.697 95.5677 191.877 95.2168 192.237C94.8704 192.597 94.6973 193.026 94.6973 193.522V198H93.3643ZM104.917 198V191.841H103.728V190.583H104.917V190.022C104.917 189.425 105.095 188.949 105.45 188.594C105.806 188.238 106.282 188.061 106.879 188.061H108.068V189.318H107.016C106.774 189.318 106.585 189.389 106.448 189.53C106.316 189.672 106.25 189.858 106.25 190.091V190.583H108.068V191.841H106.25V198H104.917ZM114.686 197.118C114.061 197.797 113.229 198.137 112.19 198.137C111.156 198.137 110.326 197.797 109.702 197.118C109.078 196.435 108.766 195.491 108.766 194.288C108.766 193.085 109.078 192.144 109.702 191.465C110.326 190.781 111.156 190.439 112.19 190.439C113.229 190.439 114.061 190.781 114.686 191.465C115.31 192.144 115.622 193.085 115.622 194.288C115.622 195.491 115.31 196.435 114.686 197.118ZM110.673 196.216C111.06 196.658 111.566 196.879 112.19 196.879C112.819 196.879 113.327 196.658 113.715 196.216C114.102 195.774 114.296 195.133 114.296 194.295C114.296 193.452 114.102 192.809 113.715 192.367C113.327 191.921 112.819 191.697 112.19 191.697C111.566 191.697 111.06 191.921 110.673 192.367C110.285 192.809 110.092 193.452 110.092 194.295C110.092 195.133 110.285 195.774 110.673 196.216ZM117.099 198V190.583H118.151L118.356 191.561H118.432C118.824 190.909 119.452 190.583 120.318 190.583H121.159V191.841H120.387C119.799 191.841 119.325 192.012 118.965 192.354C118.609 192.691 118.432 193.126 118.432 193.659V198H117.099ZM122.28 198V190.583H123.333L123.538 191.561H123.613C124.087 190.813 124.716 190.439 125.5 190.439C126.006 190.439 126.437 190.562 126.792 190.809C127.152 191.05 127.421 191.371 127.599 191.772H127.674C127.888 191.371 128.196 191.05 128.597 190.809C128.998 190.562 129.46 190.439 129.984 190.439C130.741 190.439 131.361 190.711 131.844 191.253C132.327 191.795 132.568 192.527 132.568 193.447V198H131.242V193.522C131.242 192.944 131.101 192.495 130.818 192.176C130.54 191.857 130.169 191.697 129.704 191.697C129.267 191.697 128.888 191.866 128.569 192.203C128.25 192.54 128.091 192.98 128.091 193.522V198H126.758V193.522C126.758 192.944 126.619 192.495 126.341 192.176C126.063 191.857 125.689 191.697 125.22 191.697C124.782 191.697 124.404 191.866 124.085 192.203C123.771 192.54 123.613 192.98 123.613 193.522V198H122.28ZM136.636 196.947C137.251 196.947 137.743 196.779 138.112 196.441C138.481 196.1 138.666 195.662 138.666 195.129V194.712H136.704C136.221 194.712 135.854 194.812 135.604 195.013C135.357 195.213 135.234 195.487 135.234 195.833C135.234 196.175 135.357 196.446 135.604 196.646C135.854 196.847 136.198 196.947 136.636 196.947ZM136.424 198.137C135.676 198.137 135.07 197.913 134.605 197.467C134.141 197.02 133.908 196.476 133.908 195.833C133.908 195.172 134.154 194.623 134.646 194.186C135.143 193.743 135.829 193.522 136.704 193.522H138.666V193.167C138.666 192.711 138.52 192.354 138.229 192.094C137.941 191.829 137.549 191.697 137.053 191.697C136.652 191.697 136.326 191.784 136.075 191.957C135.825 192.13 135.66 192.349 135.583 192.613H134.188C134.33 191.998 134.662 191.483 135.187 191.068C135.715 190.649 136.337 190.439 137.053 190.439C137.978 190.439 138.7 190.69 139.22 191.191C139.739 191.688 139.999 192.347 139.999 193.167V198H138.878L138.734 197.091H138.666C138.507 197.36 138.224 197.601 137.818 197.815C137.413 198.03 136.948 198.137 136.424 198.137ZM141.817 198V188.197H143.15V198H141.817ZM151.62 196.879C152.235 196.879 152.728 196.66 153.097 196.223C153.466 195.785 153.65 195.143 153.65 194.295C153.65 193.443 153.466 192.798 153.097 192.36C152.728 191.918 152.235 191.697 151.62 191.697C150.996 191.697 150.49 191.921 150.103 192.367C149.715 192.809 149.521 193.452 149.521 194.295C149.521 195.133 149.715 195.774 150.103 196.216C150.49 196.658 150.996 196.879 151.62 196.879ZM151.832 198.137C150.87 198.137 150.1 197.765 149.521 197.022H149.453L149.241 198H148.188V188.197H149.521V191.492H149.59C150.114 190.79 150.861 190.439 151.832 190.439C152.775 190.439 153.536 190.777 154.115 191.451C154.694 192.121 154.983 193.069 154.983 194.295C154.983 195.516 154.694 196.462 154.115 197.132C153.536 197.802 152.775 198.137 151.832 198.137ZM159.174 198.137C158.363 198.137 157.704 197.863 157.198 197.316C156.697 196.765 156.446 196.036 156.446 195.129V190.583H157.779V195.061C157.779 195.639 157.932 196.088 158.237 196.407C158.547 196.722 158.953 196.879 159.454 196.879C159.969 196.879 160.402 196.699 160.753 196.339C161.104 195.979 161.279 195.553 161.279 195.061V190.583H162.605V198H161.56L161.348 197.022H161.279C160.819 197.765 160.117 198.137 159.174 198.137ZM166.885 198.137C166.101 198.137 165.438 197.936 164.896 197.535C164.353 197.134 164.011 196.612 163.87 195.97H165.34C165.527 196.576 166.042 196.879 166.885 196.879C167.418 196.879 167.819 196.792 168.088 196.619C168.357 196.446 168.491 196.229 168.491 195.97C168.491 195.719 168.384 195.519 168.17 195.368C167.956 195.218 167.687 195.113 167.363 195.054C167.044 194.994 166.698 194.915 166.324 194.814C165.951 194.71 165.602 194.591 165.278 194.459C164.955 194.327 164.686 194.104 164.472 193.789C164.257 193.47 164.15 193.078 164.15 192.613C164.15 191.998 164.39 191.483 164.868 191.068C165.351 190.649 165.998 190.439 166.81 190.439C167.566 190.439 168.211 190.626 168.744 191C169.277 191.374 169.612 191.864 169.749 192.47H168.279C168.02 191.955 167.53 191.697 166.81 191.697C165.921 191.697 165.479 192.003 165.483 192.613C165.483 192.864 165.59 193.067 165.805 193.222C166.019 193.372 166.285 193.479 166.604 193.543C166.928 193.602 167.277 193.687 167.65 193.796C168.024 193.901 168.37 194.019 168.689 194.151C169.013 194.279 169.282 194.5 169.496 194.814C169.715 195.129 169.824 195.514 169.824 195.97C169.824 196.585 169.562 197.1 169.038 197.515C168.519 197.929 167.801 198.137 166.885 198.137ZM171.157 198V190.583H172.49V198H171.157ZM171.827 189.742C171.567 189.742 171.355 189.66 171.191 189.496C171.027 189.332 170.945 189.125 170.945 188.874C170.945 188.614 171.027 188.402 171.191 188.238C171.355 188.074 171.567 187.992 171.827 187.992C172.078 187.992 172.285 188.074 172.449 188.238C172.613 188.398 172.695 188.61 172.695 188.874C172.695 189.125 172.613 189.332 172.449 189.496C172.285 189.66 172.078 189.742 171.827 189.742ZM174.302 198V190.583H175.354L175.56 191.561H175.635C176.09 190.813 176.79 190.439 177.733 190.439C178.545 190.439 179.201 190.715 179.702 191.267C180.208 191.818 180.461 192.545 180.461 193.447V198H179.135V193.522C179.135 192.944 178.98 192.495 178.67 192.176C178.365 191.857 177.959 191.697 177.453 191.697C176.938 191.697 176.505 191.877 176.154 192.237C175.808 192.597 175.635 193.026 175.635 193.522V198H174.302ZM185.369 198.137C184.307 198.137 183.457 197.797 182.819 197.118C182.186 196.435 181.869 195.491 181.869 194.288C181.869 193.085 182.181 192.144 182.806 191.465C183.43 190.781 184.262 190.439 185.301 190.439C186.354 190.439 187.188 190.795 187.803 191.506C188.418 192.212 188.726 193.023 188.726 193.939L188.657 194.712H183.257C183.293 195.405 183.503 195.94 183.886 196.318C184.269 196.692 184.763 196.879 185.369 196.879C186.135 196.879 186.718 196.576 187.119 195.97H188.589C188.338 196.621 187.933 197.146 187.372 197.542C186.812 197.938 186.144 198.137 185.369 198.137ZM183.257 193.591H187.358C187.276 192.994 187.053 192.529 186.688 192.196C186.324 191.864 185.861 191.697 185.301 191.697C184.74 191.697 184.278 191.864 183.913 192.196C183.549 192.529 183.33 192.994 183.257 193.591ZM192.656 198.137C191.872 198.137 191.209 197.936 190.667 197.535C190.125 197.134 189.783 196.612 189.642 195.97H191.111C191.298 196.576 191.813 196.879 192.656 196.879C193.189 196.879 193.59 196.792 193.859 196.619C194.128 196.446 194.263 196.229 194.263 195.97C194.263 195.719 194.156 195.519 193.941 195.368C193.727 195.218 193.458 195.113 193.135 195.054C192.816 194.994 192.469 194.915 192.096 194.814C191.722 194.71 191.373 194.591 191.05 194.459C190.726 194.327 190.457 194.104 190.243 193.789C190.029 193.47 189.922 193.078 189.922 192.613C189.922 191.998 190.161 191.483 190.64 191.068C191.123 190.649 191.77 190.439 192.581 190.439C193.338 190.439 193.982 190.626 194.516 191C195.049 191.374 195.384 191.864 195.521 192.47H194.051C193.791 191.955 193.301 191.697 192.581 191.697C191.692 191.697 191.25 192.003 191.255 192.613C191.255 192.864 191.362 193.067 191.576 193.222C191.79 193.372 192.057 193.479 192.376 193.543C192.7 193.602 193.048 193.687 193.422 193.796C193.796 193.901 194.142 194.019 194.461 194.151C194.785 194.279 195.053 194.5 195.268 194.814C195.486 195.129 195.596 195.514 195.596 195.97C195.596 196.585 195.334 197.1 194.81 197.515C194.29 197.929 193.572 198.137 192.656 198.137ZM199.383 198.137C198.599 198.137 197.936 197.936 197.394 197.535C196.851 197.134 196.509 196.612 196.368 195.97H197.838C198.025 196.576 198.54 196.879 199.383 196.879C199.916 196.879 200.317 196.792 200.586 196.619C200.855 196.446 200.989 196.229 200.989 195.97C200.989 195.719 200.882 195.519 200.668 195.368C200.454 195.218 200.185 195.113 199.861 195.054C199.542 194.994 199.196 194.915 198.822 194.814C198.449 194.71 198.1 194.591 197.776 194.459C197.453 194.327 197.184 194.104 196.97 193.789C196.756 193.47 196.648 193.078 196.648 192.613C196.648 191.998 196.888 191.483 197.366 191.068C197.849 190.649 198.496 190.439 199.308 190.439C200.064 190.439 200.709 190.626 201.242 191C201.775 191.374 202.11 191.864 202.247 192.47H200.777C200.518 191.955 200.028 191.697 199.308 191.697C198.419 191.697 197.977 192.003 197.981 192.613C197.981 192.864 198.089 193.067 198.303 193.222C198.517 193.372 198.784 193.479 199.103 193.543C199.426 193.602 199.775 193.687 200.148 193.796C200.522 193.901 200.868 194.019 201.188 194.151C201.511 194.279 201.78 194.5 201.994 194.814C202.213 195.129 202.322 195.514 202.322 195.97C202.322 196.585 202.06 197.1 201.536 197.515C201.017 197.929 200.299 198.137 199.383 198.137ZM209.883 198.137C208.821 198.137 207.971 197.797 207.333 197.118C206.7 196.435 206.383 195.491 206.383 194.288C206.383 193.085 206.7 192.144 207.333 191.465C207.966 190.781 208.816 190.439 209.883 190.439C210.667 190.439 211.334 190.642 211.886 191.048C212.437 191.453 212.82 191.998 213.034 192.682H211.633C211.268 192.03 210.685 191.702 209.883 191.697C209.24 191.697 208.716 191.925 208.311 192.381C207.91 192.832 207.709 193.47 207.709 194.295C207.709 195.115 207.91 195.751 208.311 196.202C208.716 196.653 209.24 196.879 209.883 196.879C210.685 196.879 211.268 196.553 211.633 195.901H213.034C212.82 196.585 212.437 197.13 211.886 197.535C211.334 197.936 210.667 198.137 209.883 198.137ZM220 197.118C219.376 197.797 218.544 198.137 217.505 198.137C216.47 198.137 215.641 197.797 215.017 197.118C214.392 196.435 214.08 195.491 214.08 194.288C214.08 193.085 214.392 192.144 215.017 191.465C215.641 190.781 216.47 190.439 217.505 190.439C218.544 190.439 219.376 190.781 220 191.465C220.624 192.144 220.937 193.085 220.937 194.288C220.937 195.491 220.624 196.435 220 197.118ZM215.987 196.216C216.375 196.658 216.881 196.879 217.505 196.879C218.134 196.879 218.642 196.658 219.029 196.216C219.417 195.774 219.61 195.133 219.61 194.295C219.61 193.452 219.417 192.809 219.029 192.367C218.642 191.921 218.134 191.697 217.505 191.697C216.881 191.697 216.375 191.921 215.987 192.367C215.6 192.809 215.406 193.452 215.406 194.295C215.406 195.133 215.6 195.774 215.987 196.216ZM222.413 198V190.583H223.466L223.671 191.561H223.746C224.22 190.813 224.849 190.439 225.633 190.439C226.139 190.439 226.569 190.562 226.925 190.809C227.285 191.05 227.554 191.371 227.731 191.772H227.807C228.021 191.371 228.328 191.05 228.729 190.809C229.131 190.562 229.593 190.439 230.117 190.439C230.874 190.439 231.493 190.711 231.977 191.253C232.46 191.795 232.701 192.527 232.701 193.447V198H231.375V193.522C231.375 192.944 231.234 192.495 230.951 192.176C230.673 191.857 230.302 191.697 229.837 191.697C229.399 191.697 229.021 191.866 228.702 192.203C228.383 192.54 228.224 192.98 228.224 193.522V198H226.891V193.522C226.891 192.944 226.752 192.495 226.474 192.176C226.196 191.857 225.822 191.697 225.353 191.697C224.915 191.697 224.537 191.866 224.218 192.203C223.903 192.54 223.746 192.98 223.746 193.522V198H222.413ZM234.458 198V190.583H235.511L235.716 191.561H235.791C236.265 190.813 236.894 190.439 237.678 190.439C238.184 190.439 238.614 190.562 238.97 190.809C239.33 191.05 239.599 191.371 239.776 191.772H239.852C240.066 191.371 240.373 191.05 240.774 190.809C241.175 190.562 241.638 190.439 242.162 190.439C242.919 190.439 243.538 190.711 244.021 191.253C244.505 191.795 244.746 192.527 244.746 193.447V198H243.42V193.522C243.42 192.944 243.279 192.495 242.996 192.176C242.718 191.857 242.347 191.697 241.882 191.697C241.444 191.697 241.066 191.866 240.747 192.203C240.428 192.54 240.269 192.98 240.269 193.522V198H238.936V193.522C238.936 192.944 238.797 192.495 238.519 192.176C238.241 191.857 237.867 191.697 237.397 191.697C236.96 191.697 236.582 191.866 236.263 192.203C235.948 192.54 235.791 192.98 235.791 193.522V198H234.458ZM249.23 198.137C248.419 198.137 247.761 197.863 247.255 197.316C246.754 196.765 246.503 196.036 246.503 195.129V190.583H247.836V195.061C247.836 195.639 247.989 196.088 248.294 196.407C248.604 196.722 249.009 196.879 249.511 196.879C250.026 196.879 250.459 196.699 250.81 196.339C251.16 195.979 251.336 195.553 251.336 195.061V190.583H252.662V198H251.616L251.404 197.022H251.336C250.876 197.765 250.174 198.137 249.23 198.137ZM254.487 198V190.583H255.54L255.745 191.561H255.82C256.276 190.813 256.976 190.439 257.919 190.439C258.73 190.439 259.386 190.715 259.888 191.267C260.394 191.818 260.646 192.545 260.646 193.447V198H259.32V193.522C259.32 192.944 259.165 192.495 258.855 192.176C258.55 191.857 258.145 191.697 257.639 191.697C257.124 191.697 256.691 191.877 256.34 192.237C255.993 192.597 255.82 193.026 255.82 193.522V198H254.487ZM262.403 198V190.583H263.736V198H262.403ZM263.073 189.742C262.813 189.742 262.602 189.66 262.438 189.496C262.273 189.332 262.191 189.125 262.191 188.874C262.191 188.614 262.273 188.402 262.438 188.238C262.602 188.074 262.813 187.992 263.073 187.992C263.324 187.992 263.531 188.074 263.695 188.238C263.859 188.398 263.941 188.61 263.941 188.874C263.941 189.125 263.859 189.332 263.695 189.496C263.531 189.66 263.324 189.742 263.073 189.742ZM268.699 198.137C267.637 198.137 266.787 197.797 266.149 197.118C265.516 196.435 265.199 195.491 265.199 194.288C265.199 193.085 265.516 192.144 266.149 191.465C266.783 190.781 267.633 190.439 268.699 190.439C269.483 190.439 270.151 190.642 270.702 191.048C271.254 191.453 271.636 191.998 271.851 192.682H270.449C270.085 192.03 269.501 191.702 268.699 191.697C268.057 191.697 267.533 191.925 267.127 192.381C266.726 192.832 266.525 193.47 266.525 194.295C266.525 195.115 266.726 195.751 267.127 196.202C267.533 196.653 268.057 196.879 268.699 196.879C269.501 196.879 270.085 196.553 270.449 195.901H271.851C271.636 196.585 271.254 197.13 270.702 197.535C270.151 197.936 269.483 198.137 268.699 198.137ZM275.556 196.947C276.171 196.947 276.663 196.779 277.032 196.441C277.401 196.1 277.586 195.662 277.586 195.129V194.712H275.624C275.141 194.712 274.774 194.812 274.523 195.013C274.277 195.213 274.154 195.487 274.154 195.833C274.154 196.175 274.277 196.446 274.523 196.646C274.774 196.847 275.118 196.947 275.556 196.947ZM275.344 198.137C274.596 198.137 273.99 197.913 273.525 197.467C273.061 197.02 272.828 196.476 272.828 195.833C272.828 195.172 273.074 194.623 273.566 194.186C274.063 193.743 274.749 193.522 275.624 193.522H277.586V193.167C277.586 192.711 277.44 192.354 277.148 192.094C276.861 191.829 276.469 191.697 275.973 191.697C275.572 191.697 275.246 191.784 274.995 191.957C274.744 192.13 274.58 192.349 274.503 192.613H273.108C273.25 191.998 273.582 191.483 274.106 191.068C274.635 190.649 275.257 190.439 275.973 190.439C276.898 190.439 277.62 190.69 278.14 191.191C278.659 191.688 278.919 192.347 278.919 193.167V198H277.798L277.654 197.091H277.586C277.426 197.36 277.144 197.601 276.738 197.815C276.333 198.03 275.868 198.137 275.344 198.137ZM283.191 198C282.604 198 282.13 197.818 281.77 197.453C281.41 197.089 281.229 196.617 281.229 196.038V191.841H280.04V190.583H281.229L281.441 188.621H282.562V190.583H284.381V191.841H282.562V195.901C282.562 196.152 282.629 196.355 282.761 196.51C282.897 196.665 283.087 196.742 283.328 196.742H284.381V198H283.191ZM285.851 198V190.583H287.184V198H285.851ZM286.521 189.742C286.261 189.742 286.049 189.66 285.885 189.496C285.721 189.332 285.639 189.125 285.639 188.874C285.639 188.614 285.721 188.402 285.885 188.238C286.049 188.074 286.261 187.992 286.521 187.992C286.771 187.992 286.979 188.074 287.143 188.238C287.307 188.398 287.389 188.61 287.389 188.874C287.389 189.125 287.307 189.332 287.143 189.496C286.979 189.66 286.771 189.742 286.521 189.742ZM294.566 197.118C293.942 197.797 293.11 198.137 292.071 198.137C291.037 198.137 290.207 197.797 289.583 197.118C288.959 196.435 288.646 195.491 288.646 194.288C288.646 193.085 288.959 192.144 289.583 191.465C290.207 190.781 291.037 190.439 292.071 190.439C293.11 190.439 293.942 190.781 294.566 191.465C295.191 192.144 295.503 193.085 295.503 194.288C295.503 195.491 295.191 196.435 294.566 197.118ZM290.554 196.216C290.941 196.658 291.447 196.879 292.071 196.879C292.7 196.879 293.208 196.658 293.596 196.216C293.983 195.774 294.177 195.133 294.177 194.295C294.177 193.452 293.983 192.809 293.596 192.367C293.208 191.921 292.7 191.697 292.071 191.697C291.447 191.697 290.941 191.921 290.554 192.367C290.166 192.809 289.973 193.452 289.973 194.295C289.973 195.133 290.166 195.774 290.554 196.216ZM296.979 198V190.583H298.032L298.237 191.561H298.312C298.768 190.813 299.468 190.439 300.411 190.439C301.222 190.439 301.879 190.715 302.38 191.267C302.886 191.818 303.139 192.545 303.139 193.447V198H301.812V193.522C301.812 192.944 301.658 192.495 301.348 192.176C301.042 191.857 300.637 191.697 300.131 191.697C299.616 191.697 299.183 191.877 298.832 192.237C298.486 192.597 298.312 193.026 298.312 193.522V198H296.979Z" fill="white"/>
<rect x="316" y="181" width="30" height="22" rx="11" fill="url(#paint2_linear_77_7293)"/>
<path d="M332.185 187.753L336.122 191.69C336.163 191.731 336.195 191.779 336.217 191.832C336.239 191.886 336.25 191.943 336.25 192C336.25 192.057 336.239 192.114 336.217 192.168C336.195 192.221 336.163 192.269 336.122 192.31L332.185 196.247C332.102 196.329 331.991 196.375 331.875 196.375C331.759 196.375 331.648 196.329 331.565 196.247C331.483 196.165 331.437 196.054 331.437 195.938C331.437 195.821 331.483 195.71 331.565 195.628L334.756 192.438H326.187C326.071 192.438 325.96 192.391 325.878 192.309C325.796 192.227 325.75 192.116 325.75 192C325.75 191.884 325.796 191.773 325.878 191.691C325.96 191.609 326.071 191.563 326.187 191.563H334.756L331.565 188.372C331.483 188.29 331.437 188.179 331.437 188.062C331.437 187.946 331.483 187.835 331.565 187.753C331.648 187.671 331.759 187.625 331.875 187.625C331.991 187.625 332.102 187.671 332.185 187.753Z" fill="white"/>
<rect x="0.5" y="174.5" width="361" height="35" rx="17.5" stroke="black" stroke-dasharray="2 2"/>
<path d="M28 230.25C26.0716 230.25 24.1866 230.822 22.5832 231.893C20.9798 232.965 19.7301 234.487 18.9922 236.269C18.2542 238.05 18.0611 240.011 18.4373 241.902C18.8136 243.793 19.7422 245.531 21.1057 246.894C22.4693 248.258 24.2066 249.186 26.0979 249.563C27.9892 249.939 29.9496 249.746 31.7312 249.008C33.5127 248.27 35.0355 247.02 36.1068 245.417C37.1782 243.813 37.75 241.928 37.75 240C37.7473 237.415 36.7192 234.937 34.8913 233.109C33.0634 231.281 30.585 230.253 28 230.25ZM28 248.25C26.3683 248.25 24.7733 247.766 23.4165 246.86C22.0598 245.953 21.0024 244.665 20.378 243.157C19.7536 241.65 19.5902 239.991 19.9085 238.391C20.2269 236.79 21.0126 235.32 22.1664 234.166C23.3202 233.013 24.7902 232.227 26.3905 231.909C27.9909 231.59 29.6497 231.754 31.1571 232.378C32.6646 233.002 33.9531 234.06 34.8596 235.417C35.7661 236.773 36.25 238.368 36.25 240C36.2475 242.187 35.3775 244.284 33.8309 245.831C32.2843 247.378 30.1873 248.248 28 248.25ZM23.5 238.125C23.5 237.902 23.566 237.685 23.6896 237.5C23.8132 237.315 23.9889 237.171 24.1945 237.086C24.4001 237 24.6263 236.978 24.8445 237.022C25.0627 237.065 25.2632 237.172 25.4205 237.33C25.5778 237.487 25.685 237.687 25.7284 237.906C25.7718 238.124 25.7495 238.35 25.6644 238.556C25.5792 238.761 25.435 238.937 25.25 239.06C25.065 239.184 24.8475 239.25 24.625 239.25C24.3266 239.25 24.0405 239.131 23.8295 238.92C23.6185 238.71 23.5 238.423 23.5 238.125ZM32.5 238.125C32.5 238.348 32.434 238.565 32.3104 238.75C32.1868 238.935 32.0111 239.079 31.8055 239.164C31.6 239.25 31.3738 239.272 31.1555 239.228C30.9373 239.185 30.7368 239.078 30.5795 238.92C30.4222 238.763 30.315 238.563 30.2716 238.344C30.2282 238.126 30.2505 237.9 30.3356 237.694C30.4208 237.489 30.565 237.313 30.75 237.19C30.935 237.066 31.1525 237 31.375 237C31.6734 237 31.9595 237.119 32.1705 237.33C32.3815 237.54 32.5 237.827 32.5 238.125ZM32.3997 242.625C31.435 244.293 29.8309 245.25 28 245.25C26.1691 245.25 24.5659 244.294 23.6013 242.625C23.547 242.54 23.5106 242.444 23.4941 242.344C23.4777 242.245 23.4817 242.142 23.5057 242.044C23.5298 241.946 23.5735 241.854 23.6342 241.773C23.6949 241.692 23.7713 241.624 23.8589 241.573C23.9464 241.523 24.0433 241.49 24.1438 241.478C24.2442 241.466 24.346 241.474 24.4432 241.502C24.5403 241.531 24.6307 241.578 24.709 241.642C24.7873 241.706 24.8519 241.785 24.8988 241.875C25.5991 243.085 26.6997 243.75 28 243.75C29.3003 243.75 30.4009 243.084 31.1003 241.875C31.1998 241.703 31.3636 241.577 31.5558 241.525C31.7479 241.474 31.9527 241.501 32.125 241.6C32.2973 241.7 32.4231 241.864 32.4746 242.056C32.5261 242.248 32.4991 242.453 32.3997 242.625Z" fill="white"/>
<path d="M54.6592 246L52.1367 236.197H53.6816L55.5684 244.113H55.6367L57.5303 236.197H59.3486L61.2422 244.113H61.3105L63.1973 236.197H64.7422L62.2197 246H60.333L58.4668 238.159H58.4121L56.5527 246H54.6592ZM65.7881 246V238.583H66.8408L67.0459 239.561H67.1211C67.513 238.909 68.1419 238.583 69.0078 238.583H69.8486V239.841H69.0762C68.4883 239.841 68.0143 240.012 67.6543 240.354C67.2988 240.691 67.1211 241.126 67.1211 241.659V246H65.7881ZM70.9697 246V238.583H72.3027V246H70.9697ZM71.6396 237.742C71.3799 237.742 71.168 237.66 71.0039 237.496C70.8398 237.332 70.7578 237.125 70.7578 236.874C70.7578 236.614 70.8398 236.402 71.0039 236.238C71.168 236.074 71.3799 235.992 71.6396 235.992C71.8903 235.992 72.0977 236.074 72.2617 236.238C72.4258 236.398 72.5078 236.61 72.5078 236.874C72.5078 237.125 72.4258 237.332 72.2617 237.496C72.0977 237.66 71.8903 237.742 71.6396 237.742ZM76.6367 246C76.0488 246 75.5749 245.818 75.2148 245.453C74.8548 245.089 74.6748 244.617 74.6748 244.038V239.841H73.4854V238.583H74.6748L74.8867 236.621H76.0078V238.583H77.8262V239.841H76.0078V243.901C76.0078 244.152 76.0739 244.355 76.2061 244.51C76.3428 244.665 76.5319 244.742 76.7734 244.742H77.8262V246H76.6367ZM82.3105 246.137C81.2487 246.137 80.3988 245.797 79.7607 245.118C79.1273 244.435 78.8105 243.491 78.8105 242.288C78.8105 241.085 79.1227 240.144 79.7471 239.465C80.3714 238.781 81.2031 238.439 82.2422 238.439C83.2949 238.439 84.1289 238.795 84.7441 239.506C85.3594 240.212 85.667 241.023 85.667 241.939L85.5986 242.712H80.1982C80.2347 243.405 80.4443 243.94 80.8271 244.318C81.21 244.692 81.7044 244.879 82.3105 244.879C83.0762 244.879 83.6595 244.576 84.0605 243.97H85.5303C85.2796 244.621 84.874 245.146 84.3135 245.542C83.7529 245.938 83.0853 246.137 82.3105 246.137ZM80.1982 241.591H84.2998C84.2178 240.994 83.9945 240.529 83.6299 240.196C83.2653 239.864 82.8027 239.697 82.2422 239.697C81.6816 239.697 81.2191 239.864 80.8545 240.196C80.4899 240.529 80.2712 240.994 80.1982 241.591ZM90.2197 246V238.583H91.5527V246H90.2197ZM90.8896 237.742C90.6299 237.742 90.418 237.66 90.2539 237.496C90.0898 237.332 90.0078 237.125 90.0078 236.874C90.0078 236.614 90.0898 236.402 90.2539 236.238C90.418 236.074 90.6299 235.992 90.8896 235.992C91.1403 235.992 91.3477 236.074 91.5117 236.238C91.6758 236.398 91.7578 236.61 91.7578 236.874C91.7578 237.125 91.6758 237.332 91.5117 237.496C91.3477 237.66 91.1403 237.742 90.8896 237.742ZM93.3643 246V238.583H94.417L94.6221 239.561H94.6973C95.153 238.813 95.8525 238.439 96.7959 238.439C97.6071 238.439 98.2633 238.715 98.7646 239.267C99.2705 239.818 99.5234 240.545 99.5234 241.447V246H98.1973V241.522C98.1973 240.944 98.0423 240.495 97.7324 240.176C97.4271 239.857 97.0215 239.697 96.5156 239.697C96.0007 239.697 95.5677 239.877 95.2168 240.237C94.8704 240.597 94.6973 241.026 94.6973 241.522V246H93.3643ZM106.667 244.947C107.282 244.947 107.774 244.779 108.144 244.441C108.513 244.1 108.697 243.662 108.697 243.129V242.712H106.735C106.252 242.712 105.885 242.812 105.635 243.013C105.389 243.213 105.266 243.487 105.266 243.833C105.266 244.175 105.389 244.446 105.635 244.646C105.885 244.847 106.229 244.947 106.667 244.947ZM106.455 246.137C105.708 246.137 105.102 245.913 104.637 245.467C104.172 245.02 103.939 244.476 103.939 243.833C103.939 243.172 104.186 242.623 104.678 242.186C105.174 241.743 105.86 241.522 106.735 241.522H108.697V241.167C108.697 240.711 108.551 240.354 108.26 240.094C107.973 239.829 107.581 239.697 107.084 239.697C106.683 239.697 106.357 239.784 106.106 239.957C105.856 240.13 105.692 240.349 105.614 240.613H104.22C104.361 239.998 104.694 239.483 105.218 239.068C105.746 238.649 106.368 238.439 107.084 238.439C108.009 238.439 108.731 238.69 109.251 239.191C109.771 239.688 110.03 240.347 110.03 241.167V246H108.909L108.766 245.091H108.697C108.538 245.36 108.255 245.601 107.85 245.815C107.444 246.03 106.979 246.137 106.455 246.137ZM118.008 246.137C116.946 246.137 116.096 245.797 115.458 245.118C114.825 244.435 114.508 243.491 114.508 242.288C114.508 241.085 114.825 240.144 115.458 239.465C116.091 238.781 116.941 238.439 118.008 238.439C118.792 238.439 119.459 238.642 120.011 239.048C120.562 239.453 120.945 239.998 121.159 240.682H119.758C119.393 240.03 118.81 239.702 118.008 239.697C117.365 239.697 116.841 239.925 116.436 240.381C116.035 240.832 115.834 241.47 115.834 242.295C115.834 243.115 116.035 243.751 116.436 244.202C116.841 244.653 117.365 244.879 118.008 244.879C118.81 244.879 119.393 244.553 119.758 243.901H121.159C120.945 244.585 120.562 245.13 120.011 245.535C119.459 245.936 118.792 246.137 118.008 246.137ZM124.864 244.947C125.479 244.947 125.972 244.779 126.341 244.441C126.71 244.1 126.895 243.662 126.895 243.129V242.712H124.933C124.45 242.712 124.083 242.812 123.832 243.013C123.586 243.213 123.463 243.487 123.463 243.833C123.463 244.175 123.586 244.446 123.832 244.646C124.083 244.847 124.427 244.947 124.864 244.947ZM124.652 246.137C123.905 246.137 123.299 245.913 122.834 245.467C122.369 245.02 122.137 244.476 122.137 243.833C122.137 243.172 122.383 242.623 122.875 242.186C123.372 241.743 124.058 241.522 124.933 241.522H126.895V241.167C126.895 240.711 126.749 240.354 126.457 240.094C126.17 239.829 125.778 239.697 125.281 239.697C124.88 239.697 124.554 239.784 124.304 239.957C124.053 240.13 123.889 240.349 123.812 240.613H122.417C122.558 239.998 122.891 239.483 123.415 239.068C123.944 238.649 124.566 238.439 125.281 238.439C126.206 238.439 126.929 238.69 127.448 239.191C127.968 239.688 128.228 240.347 128.228 241.167V246H127.106L126.963 245.091H126.895C126.735 245.36 126.452 245.601 126.047 245.815C125.641 246.03 125.176 246.137 124.652 246.137ZM132.432 246.137C131.648 246.137 130.985 245.936 130.442 245.535C129.9 245.134 129.558 244.612 129.417 243.97H130.887C131.074 244.576 131.589 244.879 132.432 244.879C132.965 244.879 133.366 244.792 133.635 244.619C133.904 244.446 134.038 244.229 134.038 243.97C134.038 243.719 133.931 243.519 133.717 243.368C133.503 243.218 133.234 243.113 132.91 243.054C132.591 242.994 132.245 242.915 131.871 242.814C131.497 242.71 131.149 242.591 130.825 242.459C130.502 242.327 130.233 242.104 130.019 241.789C129.804 241.47 129.697 241.078 129.697 240.613C129.697 239.998 129.937 239.483 130.415 239.068C130.898 238.649 131.545 238.439 132.356 238.439C133.113 238.439 133.758 238.626 134.291 239C134.824 239.374 135.159 239.864 135.296 240.47H133.826C133.566 239.955 133.076 239.697 132.356 239.697C131.468 239.697 131.026 240.003 131.03 240.613C131.03 240.864 131.137 241.067 131.352 241.222C131.566 241.372 131.832 241.479 132.151 241.543C132.475 241.602 132.824 241.687 133.197 241.796C133.571 241.901 133.917 242.019 134.236 242.151C134.56 242.279 134.829 242.5 135.043 242.814C135.262 243.129 135.371 243.514 135.371 243.97C135.371 244.585 135.109 245.1 134.585 245.515C134.065 245.929 133.348 246.137 132.432 246.137ZM139.432 246.137C138.62 246.137 137.962 245.863 137.456 245.316C136.955 244.765 136.704 244.036 136.704 243.129V238.583H138.037V243.061C138.037 243.639 138.19 244.088 138.495 244.407C138.805 244.722 139.211 244.879 139.712 244.879C140.227 244.879 140.66 244.699 141.011 244.339C141.362 243.979 141.537 243.553 141.537 243.061V238.583H142.863V246H141.817L141.605 245.022H141.537C141.077 245.765 140.375 246.137 139.432 246.137ZM146.999 244.947C147.614 244.947 148.106 244.779 148.476 244.441C148.845 244.1 149.029 243.662 149.029 243.129V242.712H147.067C146.584 242.712 146.217 242.812 145.967 243.013C145.721 243.213 145.598 243.487 145.598 243.833C145.598 244.175 145.721 244.446 145.967 244.646C146.217 244.847 146.562 244.947 146.999 244.947ZM146.787 246.137C146.04 246.137 145.434 245.913 144.969 245.467C144.504 245.02 144.271 244.476 144.271 243.833C144.271 243.172 144.518 242.623 145.01 242.186C145.507 241.743 146.192 241.522 147.067 241.522H149.029V241.167C149.029 240.711 148.883 240.354 148.592 240.094C148.305 239.829 147.913 239.697 147.416 239.697C147.015 239.697 146.689 239.784 146.438 239.957C146.188 240.13 146.024 240.349 145.946 240.613H144.552C144.693 239.998 145.026 239.483 145.55 239.068C146.078 238.649 146.701 238.439 147.416 238.439C148.341 238.439 149.063 238.69 149.583 239.191C150.103 239.688 150.362 240.347 150.362 241.167V246H149.241L149.098 245.091H149.029C148.87 245.36 148.587 245.601 148.182 245.815C147.776 246.03 147.311 246.137 146.787 246.137ZM152.181 246V236.197H153.514V246H152.181ZM159.317 246L157.219 238.583H158.552L160.158 244.25H160.233L161.703 238.583H163.173L164.643 244.25H164.711L166.317 238.583H167.65L165.552 246H163.938L162.469 240.613H162.4L160.931 246H159.317ZM170.938 244.947C171.554 244.947 172.046 244.779 172.415 244.441C172.784 244.1 172.969 243.662 172.969 243.129V242.712H171.007C170.524 242.712 170.157 242.812 169.906 243.013C169.66 243.213 169.537 243.487 169.537 243.833C169.537 244.175 169.66 244.446 169.906 244.646C170.157 244.847 170.501 244.947 170.938 244.947ZM170.727 246.137C169.979 246.137 169.373 245.913 168.908 245.467C168.443 245.02 168.211 244.476 168.211 243.833C168.211 243.172 168.457 242.623 168.949 242.186C169.446 241.743 170.132 241.522 171.007 241.522H172.969V241.167C172.969 240.711 172.823 240.354 172.531 240.094C172.244 239.829 171.852 239.697 171.355 239.697C170.954 239.697 170.629 239.784 170.378 239.957C170.127 240.13 169.963 240.349 169.886 240.613H168.491C168.632 239.998 168.965 239.483 169.489 239.068C170.018 238.649 170.64 238.439 171.355 238.439C172.281 238.439 173.003 238.69 173.522 239.191C174.042 239.688 174.302 240.347 174.302 241.167V246H173.181L173.037 245.091H172.969C172.809 245.36 172.527 245.601 172.121 245.815C171.715 246.03 171.251 246.137 170.727 246.137ZM176.893 248.803L178.014 246L175.006 238.583H176.407L178.643 244.25H178.718L180.953 238.583H182.354L178.294 248.803H176.893Z" fill="white"/>
<rect x="316" y="229" width="30" height="22" rx="11" fill="url(#paint3_linear_77_7293)"/>
<path d="M332.185 235.753L336.122 239.69C336.163 239.731 336.195 239.779 336.217 239.832C336.239 239.886 336.25 239.943 336.25 240C336.25 240.057 336.239 240.114 336.217 240.168C336.195 240.221 336.163 240.269 336.122 240.31L332.185 244.247C332.102 244.329 331.991 244.375 331.875 244.375C331.759 244.375 331.648 244.329 331.565 244.247C331.483 244.165 331.437 244.054 331.437 243.938C331.437 243.821 331.483 243.71 331.565 243.628L334.756 240.438H326.187C326.071 240.438 325.96 240.391 325.878 240.309C325.796 240.227 325.75 240.116 325.75 240C325.75 239.884 325.796 239.773 325.878 239.691C325.96 239.609 326.071 239.563 326.187 239.563H334.756L331.565 236.372C331.483 236.29 331.437 236.179 331.437 236.062C331.437 235.946 331.483 235.835 331.565 235.753C331.648 235.671 331.759 235.625 331.875 235.625C331.991 235.625 332.102 235.671 332.185 235.753Z" fill="white"/>
<rect x="0.5" y="222.5" width="361" height="35" rx="17.5" stroke="black" stroke-dasharray="2 2"/>
<defs>
<linearGradient id="paint0_linear_77_7293" x1="316" y1="40" x2="346.566" y2="40.8166" gradientUnits="userSpaceOnUse">
<stop offset="0.0916" stop-color="#455EB5"/>
<stop offset="0.527145" stop-color="#4A92C8"/>
<stop offset="1" stop-color="#1F7FC7"/>
</linearGradient>
<linearGradient id="paint1_linear_77_7293" x1="316" y1="133" x2="346.566" y2="133.817" gradientUnits="userSpaceOnUse">
<stop offset="0.0916" stop-color="#455EB5"/>
<stop offset="0.527145" stop-color="#4A92C8"/>
<stop offset="1" stop-color="#1F7FC7"/>
</linearGradient>
<linearGradient id="paint2_linear_77_7293" x1="316" y1="181" x2="346.566" y2="181.817" gradientUnits="userSpaceOnUse">
<stop offset="0.0916" stop-color="#455EB5"/>
<stop offset="0.527145" stop-color="#4A92C8"/>
<stop offset="1" stop-color="#1F7FC7"/>
</linearGradient>
<linearGradient id="paint3_linear_77_7293" x1="316" y1="229" x2="346.566" y2="229.817" gradientUnits="userSpaceOnUse">
<stop offset="0.0916" stop-color="#455EB5"/>
<stop offset="0.527145" stop-color="#4A92C8"/>
<stop offset="1" stop-color="#1F7FC7"/>
</linearGradient>
</defs>
</svg>
