<svg width="202" height="45" viewBox="0 0 202 45" fill="none" xmlns="http://www.w3.org/2000/svg">
<path d="M21.0156 27.5127L16.4898 22.9869L14.3687 25.108L14.2281 25.2486L14.0456 25.4311L14.0406 25.4262C13.1996 26.1784 12.1242 26.5928 10.9848 26.5928C9.75895 26.5928 8.60467 26.1143 7.73896 25.2486C6.87079 24.3804 6.39477 23.2286 6.39477 22.0028C6.39477 20.777 6.87325 19.6227 7.73896 18.757C8.60714 17.8888 9.75895 17.4128 10.9848 17.4128C11.1278 17.4128 11.2684 17.4202 11.4114 17.4326L11.3769 17.3808L11.4016 17.3857C10.2547 15.494 9.64303 13.3358 9.62329 11.0964C7.20622 11.3973 4.94206 12.5047 3.21311 14.2312C-1.07104 18.5153 -1.07104 25.4878 3.21311 29.7744C5.28489 31.8462 8.0448 32.9882 10.9848 32.9882C13.9222 32.9882 16.6821 31.8487 18.7539 29.7769L21.0156 27.5127Z" fill="#D6D7CF"/>
<path d="M29.8205 25.3275L29.7786 25.2708L29.7737 25.2683L29.749 25.2313L21.3188 16.8012L18.5639 14.0462L18.5688 14.0412C17.8166 13.2002 17.4022 12.1248 17.4022 10.9854C17.4022 9.75956 17.8807 8.60529 18.7464 7.73958C19.6121 6.87387 20.7664 6.39538 21.9922 6.39538C23.218 6.39538 24.3723 6.87387 25.238 7.73958C26.1061 8.60775 26.5822 9.75956 26.5822 10.9854C26.5822 11.1284 26.5748 11.269 26.5624 11.412L26.6142 11.3775L26.6093 11.4022C28.501 10.2553 30.6591 9.64364 32.8986 9.62391C32.5977 7.20683 31.4903 4.94267 29.7638 3.21372C27.692 1.14194 24.9321 0 21.9922 0C19.0522 0 16.2923 1.14194 14.2205 3.21372C12.1488 5.2855 11.0068 8.04541 11.0068 10.9854C11.0068 13.9229 12.1488 16.6828 14.2205 18.757L14.4055 18.942L16.7905 21.327L25.6819 30.2184H25.6277C26.2467 31.0175 26.5797 31.9917 26.5797 33.0202C26.5797 34.246 26.1012 35.3978 25.2355 36.266C24.3673 37.1342 23.2155 37.6102 21.9897 37.6102C20.7639 37.6102 19.6096 37.1317 18.7439 36.266C17.8757 35.3978 17.3997 34.246 17.3997 33.0202C17.3997 32.8772 17.4071 32.7366 17.4195 32.5935L17.3677 32.6281L17.3726 32.6034C15.4809 33.7503 13.3228 34.3619 11.0833 34.3817C11.3842 36.7988 12.4916 39.0629 14.2181 40.7919C16.2899 42.8636 19.0498 44.0056 21.9897 44.0056C24.9297 44.0056 27.6896 42.8636 29.7613 40.7919C34.0208 36.5324 34.0455 29.6166 29.8353 25.325H29.8205V25.3275Z" fill="#D6D7CF"/>
<path d="M40.7864 14.2336C36.5022 9.94945 29.5297 9.94945 25.2456 14.2311L22.9814 16.4953L27.5072 21.0211L29.9539 18.5745L29.9589 18.5794C30.7999 17.8271 31.8753 17.4128 33.0147 17.4128C34.2405 17.4128 35.3923 17.8913 36.2605 18.757C37.1287 19.6252 37.6047 20.777 37.6047 22.0028C37.6047 23.2286 37.1262 24.3829 36.2605 25.2486C35.3923 26.1167 34.2405 26.5927 33.0147 26.5927C32.8717 26.5927 32.7311 26.5854 32.588 26.573L32.6226 26.6248L32.5979 26.6199C33.7448 28.5116 34.3565 30.6697 34.3762 32.9092C36.7933 32.6083 39.0574 31.5009 40.7864 29.7744C45.073 25.4927 45.073 18.5177 40.7864 14.2336Z" fill="#D6D7CF"/>
<path d="M85.5886 13.1163V25.9811H81.4721V24.1806C80.9567 24.9008 80.3154 25.4706 79.5434 25.8923C78.7714 26.3116 77.9402 26.5213 77.0474 26.5213C76.0707 26.5213 75.1853 26.2672 74.3985 25.7616C73.6092 25.256 72.9877 24.5481 72.5339 23.638C72.0801 22.7279 71.8532 21.6822 71.8532 20.4983V13.1163H75.9449V20.3972C75.9449 21.2037 76.1546 21.8375 76.5763 22.3012C76.9956 22.7649 77.5826 22.9968 78.3398 22.9968C79.2326 22.9968 79.9775 22.6786 80.5793 22.0447C81.1786 21.4109 81.4795 20.5945 81.4795 19.6005V13.1163H85.5886Z" fill="#D6D7CF"/>
<path d="M92.1221 13.1163V14.685C92.4131 14.0511 92.8891 13.5455 93.5501 13.1681C94.2111 12.7908 95.0028 12.6009 95.9302 12.6009C97.1141 12.6009 98.1845 12.9067 99.1464 13.5134C100.106 14.1226 100.858 14.9661 101.398 16.0489C101.938 17.1292 102.21 18.3377 102.21 19.677C102.21 21.0656 101.931 22.2766 101.374 23.3051C100.816 24.3335 100.061 25.1228 99.1094 25.6728C98.1574 26.2204 97.0993 26.4966 95.9327 26.4966C94.1988 26.4966 92.9311 25.8528 92.1245 24.5679V31.1285H88.0081V13.1163H92.1221ZM93.0618 21.8622C93.6019 22.395 94.3172 22.6589 95.21 22.6589C96.0856 22.6589 96.7836 22.3925 97.3064 21.8622C97.8293 21.3295 98.0908 20.6019 98.0908 19.6745C98.0908 18.7323 97.8244 17.9604 97.2941 17.3586C96.7614 16.7592 96.0683 16.4583 95.21 16.4583C94.3344 16.4583 93.6241 16.7592 93.0741 17.3586C92.5241 17.9604 92.2503 18.7299 92.2503 19.6745C92.2503 20.6019 92.5216 21.3319 93.0618 21.8622Z" fill="#D6D7CF"/>
<path d="M115.343 13.4616C116.416 14.0363 117.247 14.8502 117.839 15.9058C118.431 16.9615 118.727 18.1749 118.727 19.5463C118.727 19.8891 118.702 20.259 118.651 20.6537L108.95 20.629C109.138 21.2629 109.478 21.7562 109.967 22.1089C110.455 22.4616 111.042 22.6367 111.73 22.6367C112.329 22.6367 112.852 22.5207 113.299 22.2889C113.745 22.0571 114.071 21.7364 114.275 21.3245L118.056 23.0239C117.627 24.0696 116.848 24.9107 115.716 25.5446C114.584 26.1784 113.296 26.4966 111.856 26.4966C110.45 26.4966 109.207 26.2006 108.124 25.6087C107.044 25.0167 106.198 24.1856 105.589 23.1127C104.979 22.0398 104.676 20.8189 104.676 19.4451C104.676 18.0738 104.96 16.8727 105.525 15.8442C106.092 14.8157 106.896 14.0166 107.944 13.4518C108.99 12.8845 110.208 12.6033 111.597 12.6033C113.022 12.6009 114.27 12.887 115.343 13.4616ZM110.055 16.885C109.592 17.1687 109.259 17.5657 109.051 18.0812H114.352C114.147 17.5657 113.817 17.1687 113.36 16.885C112.906 16.6014 112.361 16.4608 111.728 16.4608C111.076 16.4608 110.519 16.6014 110.055 16.885Z" fill="#D6D7CF"/>
<path d="M135.299 13.7724C136.389 14.5691 137.077 15.637 137.371 16.9763L133.666 18.3649C133.528 17.8839 133.242 17.4991 132.805 17.2081C132.369 16.9171 131.848 16.7716 131.249 16.7716C130.425 16.7716 129.752 17.0429 129.229 17.583C128.706 18.1231 128.445 18.831 128.445 19.7066V22.8981H131.533V25.986H120.878V22.8981H124.249V19.4501C124.249 18.0442 124.585 16.7913 125.253 15.6937H120.621V12.6058H125.382V15.4866C125.981 14.5592 126.792 13.8439 127.813 13.3383C128.834 12.8327 129.979 12.5787 131.249 12.5787C132.86 12.5737 134.211 12.9733 135.299 13.7724Z" fill="#D6D7CF"/>
<path d="M139.637 15.8565C140.205 14.8182 141.009 14.0166 142.057 13.4518C143.103 12.8845 144.328 12.6033 145.737 12.6033C147.35 12.6033 148.738 12.9684 149.905 13.696C151.072 14.426 151.903 15.4422 152.401 16.7444L148.489 18.0812C148.317 17.6003 147.979 17.2106 147.473 16.9097C146.968 16.6088 146.388 16.4583 145.737 16.4583C144.878 16.4583 144.193 16.7321 143.677 17.2821C143.162 17.8321 142.905 18.5696 142.905 19.4945C142.905 20.4391 143.177 21.1963 143.717 21.771C144.257 22.3456 144.955 22.6317 145.813 22.6317C146.516 22.6317 147.113 22.4468 147.601 22.0793C148.09 21.7118 148.42 21.2012 148.593 20.5476L152.401 22.168C151.92 23.5246 151.094 24.5827 149.917 25.3448C148.743 26.1069 147.347 26.4892 145.737 26.4892C144.348 26.4892 143.13 26.2006 142.084 25.6259C141.038 25.0513 140.227 24.2374 139.652 23.1817C139.077 22.1261 138.789 20.8954 138.789 19.4895C138.789 18.1059 139.073 16.8924 139.637 15.8565Z" fill="#D6D7CF"/>
<path d="M168.179 13.1163V25.9811H164.062V24.1806C163.547 24.9008 162.905 25.4706 162.133 25.8923C161.361 26.3116 160.53 26.5213 159.637 26.5213C158.661 26.5213 157.775 26.2672 156.988 25.7616C156.199 25.256 155.578 24.5481 155.124 23.638C154.67 22.7279 154.441 21.6822 154.441 20.4983V13.1163H158.532V20.3972C158.532 21.2037 158.742 21.8375 159.161 22.3012C159.581 22.7649 160.17 22.9968 160.925 22.9968C161.815 22.9968 162.563 22.6786 163.164 22.0447C163.764 21.4109 164.065 20.5945 164.065 19.6005V13.1163H168.179Z" fill="#D6D7CF"/>
<path d="M172.154 25.2979C171.185 24.5013 170.702 23.458 170.702 22.173C170.702 19.7386 172.478 18.3476 176.027 18.0048C177.262 17.8839 178.101 17.7433 178.547 17.5805C178.994 17.4178 179.216 17.1982 179.216 16.9245C179.216 16.6162 179.006 16.372 178.584 16.192C178.163 16.0119 177.627 15.9206 176.976 15.9206C176.377 15.9206 175.879 16.007 175.484 16.1772C175.089 16.3498 174.84 16.5816 174.739 16.8727L171.163 15.9206C171.301 15.2695 171.673 14.6899 172.283 14.1843C172.892 13.6787 173.654 13.2841 174.571 13.0004C175.489 12.7168 176.463 12.5762 177.492 12.5762C179.413 12.5762 180.893 13.0572 181.929 14.0166C182.967 14.9785 183.485 16.2733 183.485 17.9012V21.5539C183.485 21.9658 183.665 22.2667 184.025 22.4541C184.23 22.5405 184.462 22.5824 184.721 22.5824C184.891 22.5824 185.022 22.575 185.108 22.5577V25.9022C184.575 26.176 184.028 26.3141 183.46 26.3141C183.118 26.3141 182.792 26.2623 182.484 26.1587C182.02 26.0206 181.625 25.8085 181.3 25.515C180.974 25.2239 180.777 24.8984 180.708 24.5383C180.553 25.1055 180.047 25.5717 179.191 25.9416C178.333 26.3091 177.433 26.4941 176.49 26.4941C174.569 26.4941 173.124 26.0946 172.154 25.2979ZM178.523 22.5059C179.07 22.025 179.346 21.3837 179.346 20.5772C179.191 20.7671 178.875 20.9151 178.394 21.0286C177.913 21.1396 177.262 21.2382 176.439 21.3245C175.358 21.4281 174.818 21.7463 174.818 22.2766C174.818 22.5676 174.959 22.7994 175.242 22.9721C175.526 23.1447 175.923 23.2286 176.439 23.2286C177.28 23.2261 177.973 22.9869 178.523 22.5059Z" fill="#D6D7CF"/>
<path d="M198.836 13.3334C199.633 13.839 200.259 14.5469 200.715 15.457C201.169 16.3671 201.396 17.4128 201.396 18.5967V25.9811H197.28V18.7003C197.28 17.8938 197.07 17.2599 196.648 16.7962C196.227 16.3325 195.64 16.1007 194.885 16.1007C193.992 16.1007 193.247 16.4189 192.645 17.0527C192.046 17.6866 191.745 18.503 191.745 19.4969V25.9811H187.629V13.1163H191.745V14.9168C192.261 14.1966 192.902 13.6269 193.674 13.2051C194.446 12.7858 195.277 12.5737 196.17 12.5737C197.151 12.5737 198.037 12.8278 198.836 13.3334Z" fill="#D6D7CF"/>
<path d="M69.4879 7.12051C69.4879 5.23371 68.4914 3.49983 67.2706 2.45408C65.8055 1.20115 63.8521 0.510551 61.773 0.510551C59.6938 0.510551 57.7404 1.20115 56.2753 2.45408C54.8103 3.70701 54.0013 5.37677 54.0013 7.15258C54.0013 8.92839 54.8078 10.5981 56.2753 11.8511L56.4061 11.9621L58.0931 13.4049L64.3849 18.7817H64.3479C64.7844 19.2651 65.0212 19.8546 65.0212 20.4761C65.0212 21.2185 64.6833 21.914 64.0692 22.4393C63.4551 22.9647 62.6411 23.2533 61.773 23.2533C60.9048 23.2533 60.0909 22.9647 59.4767 22.4393C58.6431 21.8104 58.5247 20.4761 58.5247 20.4761C58.5247 20.4761 55.6415 20.481 54.058 20.4909C54.058 22.5207 55.0545 24.1288 56.2753 25.1746C57.7404 26.4275 59.6938 27.1181 61.773 27.1181C63.8521 27.1181 65.8055 26.4275 67.2706 25.1746C70.2845 22.5997 70.3018 18.4166 67.3224 15.822H67.3076L67.278 15.7875L67.273 15.785L67.2558 15.7628L61.292 10.6672L59.3436 9.00238L59.3485 8.99991C58.8157 8.49183 58.5247 7.8407 58.5247 7.15258C58.5247 6.41019 58.8626 5.71466 59.4767 5.18932C60.0909 4.66398 60.9048 4.3754 61.773 4.3754C62.6411 4.3754 63.4551 4.66398 64.0692 5.18932C64.6833 5.71466 65.0212 6.41019 65.0212 7.15258" fill="#D6D7CF"/>
<path d="M104.355 40.856C104.59 41.8672 105.362 42.3753 106.674 42.3753C107.313 42.3753 107.848 42.2692 108.28 42.0547C108.711 41.8426 108.926 41.5491 108.926 41.1766C108.926 40.8782 108.763 40.6291 108.437 40.4244C108.112 40.2221 107.545 40.047 106.736 39.8966C105.552 39.6845 104.706 39.386 104.195 39.0013C103.685 38.6165 103.428 38.106 103.428 37.4672C103.428 36.6902 103.722 36.1131 104.306 35.7407C104.893 35.3683 105.702 35.1808 106.736 35.1808C107.705 35.1808 108.462 35.3485 109.005 35.6839C109.547 36.0194 109.858 36.4855 109.932 37.0824L108.733 37.4672C108.647 36.6902 107.981 36.3005 106.736 36.3005C106.139 36.3005 105.65 36.3967 105.273 36.5891C104.896 36.7815 104.706 37.075 104.706 37.4672C104.706 37.7557 104.844 38.0024 105.123 38.2095C105.399 38.4167 105.936 38.6017 106.736 38.762C107.919 38.9963 108.793 39.3046 109.357 39.6894C109.922 40.0741 110.203 40.5674 110.203 41.1766C110.203 41.9338 109.893 42.5085 109.269 42.9031C108.645 43.2977 107.801 43.495 106.736 43.495C105.692 43.495 104.866 43.3002 104.259 42.9105C103.653 42.5208 103.3 41.9856 103.204 41.3049L104.355 40.856Z" fill="#D6D7CF"/>
<path d="M112.465 42.8291C111.915 42.3876 111.641 41.8031 111.641 41.078C111.641 40.375 111.908 39.7979 112.44 39.3441C112.973 38.8903 113.676 38.6387 114.549 38.5844C115.657 38.5203 116.461 38.3994 116.964 38.2243C117.464 38.0492 117.716 37.7853 117.716 37.4326C117.716 37.0923 117.496 36.816 117.06 36.6088C116.623 36.4017 116.073 36.2981 115.415 36.2981C114.732 36.2981 114.184 36.4115 113.77 36.6409C113.353 36.8703 113.114 37.181 113.05 37.5757L111.866 37.1909C111.952 36.5842 112.315 36.0958 112.953 35.7283C113.592 35.3608 114.413 35.1759 115.415 35.1759C116.522 35.1759 117.385 35.4028 118.005 35.8541C118.621 36.3079 118.932 36.9393 118.932 37.7483V40.8659C118.932 41.549 119.033 41.9807 119.235 42.1607C119.322 42.247 119.428 42.289 119.556 42.289C119.61 42.289 119.689 42.2791 119.795 42.2569V43.3767C119.613 43.4309 119.442 43.4556 119.285 43.4556C118.996 43.4556 118.73 43.3816 118.486 43.2311C118.049 42.9549 117.81 42.506 117.765 41.8894C117.659 42.3679 117.319 42.7551 116.742 43.0486C116.167 43.3421 115.484 43.4876 114.697 43.4876C113.757 43.4926 113.015 43.2706 112.465 42.8291ZM116.263 41.9511C116.722 41.6699 117.08 41.2753 117.334 40.7672C117.59 40.2616 117.718 39.6721 117.718 39.0013C117.536 39.2035 117.193 39.3589 116.688 39.4649C116.182 39.571 115.469 39.6524 114.554 39.7042C114.063 39.7264 113.669 39.8645 113.373 40.1185C113.074 40.375 112.924 40.6932 112.924 41.078C112.924 41.4726 113.084 41.7858 113.402 42.0201C113.723 42.2544 114.155 42.3728 114.697 42.3728C115.282 42.3728 115.805 42.2322 116.263 41.9511Z" fill="#D6D7CF"/>
<path d="M128.339 36.1797C128.95 36.8456 129.259 37.7286 129.259 38.8261V43.3347H127.981V38.8261C127.981 38.0591 127.772 37.4474 127.35 36.9887C126.928 36.5299 126.351 36.3005 125.616 36.3005C125.041 36.3005 124.528 36.4411 124.082 36.7248C123.635 37.0084 123.283 37.408 123.026 37.9234C122.77 38.4414 122.641 39.0333 122.641 39.7066V43.3347H121.364V32.1447H122.641V36.8432C122.866 36.3523 123.278 35.9528 123.88 35.6445C124.481 35.3362 125.14 35.1808 125.853 35.1808C126.896 35.1808 127.725 35.5138 128.339 36.1797Z" fill="#D6D7CF"/>
<path d="M131.646 42.8291C131.096 42.3876 130.822 41.8031 130.822 41.078C130.822 40.375 131.089 39.7979 131.622 39.3441C132.154 38.8903 132.857 38.6387 133.73 38.5844C134.838 38.5203 135.642 38.3994 136.145 38.2243C136.646 38.0492 136.897 37.7853 136.897 37.4326C136.897 37.0923 136.678 36.816 136.241 36.6088C135.805 36.4017 135.255 36.2981 134.596 36.2981C133.913 36.2981 133.365 36.4115 132.951 36.6409C132.534 36.8703 132.295 37.181 132.231 37.5757L131.047 37.1909C131.133 36.5842 131.496 36.0958 132.135 35.7283C132.773 35.3608 133.595 35.1759 134.596 35.1759C135.703 35.1759 136.567 35.4028 137.186 35.8541C137.802 36.3079 138.113 36.9393 138.113 37.7483V40.8659C138.113 41.549 138.214 41.9807 138.417 42.1607C138.503 42.247 138.609 42.289 138.737 42.289C138.791 42.289 138.87 42.2791 138.976 42.2569V43.3767C138.794 43.4309 138.624 43.4556 138.466 43.4556C138.177 43.4556 137.911 43.3816 137.667 43.2311C137.23 42.9549 136.991 42.506 136.947 41.8894C136.841 42.3679 136.5 42.7551 135.923 43.0486C135.348 43.3421 134.665 43.4876 133.878 43.4876C132.939 43.4926 132.196 43.2706 131.646 42.8291ZM135.442 41.9511C135.901 41.6699 136.258 41.2753 136.512 40.7672C136.769 40.2616 136.897 39.6721 136.897 39.0013C136.715 39.2035 136.372 39.3589 135.866 39.4649C135.361 39.571 134.648 39.6524 133.733 39.7042C133.242 39.7264 132.847 39.8645 132.551 40.1185C132.253 40.375 132.103 40.6932 132.103 41.078C132.103 41.4726 132.263 41.7858 132.581 42.0201C132.902 42.2544 133.333 42.3728 133.876 42.3728C134.463 42.3728 134.986 42.2322 135.442 41.9511Z" fill="#D6D7CF"/>
<path d="M140.607 35.3411H141.884V36.6187C142.077 36.1723 142.35 35.8196 142.708 35.5631C143.066 35.3066 143.483 35.1783 143.963 35.1783C144.538 35.1783 145.063 35.3534 145.537 35.7061C146.011 36.0588 146.311 36.5053 146.44 37.0479C146.568 36.4831 146.852 36.0292 147.296 35.6889C147.737 35.3485 148.28 35.1783 148.918 35.1783C149.515 35.1783 150.046 35.3312 150.509 35.6346C150.973 35.938 151.338 36.3671 151.604 36.9221C151.871 37.477 152.004 38.1109 152.004 38.8237V43.3323H150.726V38.8237C150.726 38.0566 150.566 37.445 150.248 36.9862C149.927 36.5275 149.486 36.2981 148.921 36.2981C148.346 36.2981 147.87 36.5324 147.498 37.001C147.125 37.4696 146.938 38.0764 146.938 38.8237V43.3323H145.66V38.8237C145.66 38.0566 145.495 37.445 145.165 36.9862C144.834 36.5275 144.38 36.2981 143.806 36.2981C143.241 36.2981 142.78 36.52 142.422 36.9615C142.064 37.403 141.887 37.9777 141.887 38.6806V43.3323H140.609V35.3411H140.607Z" fill="#D6D7CF"/>
</svg>
