<svg width="154" height="154" viewBox="0 0 154 154" fill="none" xmlns="http://www.w3.org/2000/svg">
<path d="M73.3422 96.0076L57.5475 80.2144L50.1451 87.6161L49.6544 88.1067L49.0175 88.7436L49.0003 88.7264C46.0651 91.3514 42.3122 92.7973 38.3356 92.7973C34.0577 92.7973 30.0294 91.1277 27.0081 88.1067C23.9783 85.0772 22.3171 81.0578 22.3171 76.7803C22.3171 72.5028 23.9869 68.4749 27.0081 65.454C30.038 62.4244 34.0577 60.7633 38.3356 60.7633C38.8348 60.7633 39.3254 60.7892 39.8247 60.8322L39.7042 60.6515L39.7902 60.6687C35.7878 54.0674 33.6531 46.5365 33.5843 38.7217C25.1489 39.7717 17.2472 43.6361 11.2134 49.6608C-3.7378 64.6105 -3.7378 88.9415 11.2134 103.9C18.4437 111.13 28.0755 115.114 38.3356 115.114C48.5871 115.114 58.2189 111.138 65.4492 103.909L73.3422 96.0076Z" fill="#FEFFF7"/>
<path d="M104.07 88.3817L103.924 88.1838L103.907 88.1752L103.821 88.0461L74.4005 58.6286L64.7859 49.0149L64.8031 48.9977C62.1779 46.0628 60.7318 42.3103 60.7318 38.3341C60.7318 34.0565 62.4017 30.0286 65.4229 27.0077C68.4441 23.9868 72.4724 22.3171 76.7503 22.3171C81.0282 22.3171 85.0566 23.9868 88.0778 27.0077C91.1076 30.0372 92.7689 34.0565 92.7689 38.3341C92.7689 38.8332 92.743 39.3238 92.7 39.823L92.8808 39.7025L92.8635 39.7886C99.4655 35.7865 106.997 33.652 114.813 33.5832C113.763 25.1486 109.898 17.2477 103.873 11.2145C96.6422 3.98488 87.0105 0 76.7503 0C66.4902 0 56.8584 3.98488 49.6281 11.2145C42.3979 18.4441 38.4126 28.0749 38.4126 38.3341C38.4126 48.5846 42.3979 58.2154 49.6281 65.4536L50.2737 66.0991L58.5971 74.4218L89.6271 105.449H89.4378C91.5982 108.237 92.7603 111.637 92.7603 115.226C92.7603 119.503 91.0904 123.523 88.0692 126.552C85.0393 129.582 81.0196 131.243 76.7417 131.243C72.4638 131.243 68.4355 129.573 65.4143 126.552C62.3844 123.523 60.7232 119.503 60.7232 115.226C60.7232 114.727 60.749 114.236 60.7921 113.737L60.6113 113.857L60.6285 113.771C54.0266 117.773 46.495 119.908 38.6794 119.977C39.7295 128.411 43.5943 136.312 49.6195 142.345C56.8498 149.575 66.4816 153.56 76.7417 153.56C87.0018 153.56 96.6336 149.575 103.864 142.345C118.729 127.482 118.815 103.349 104.122 88.3732H104.07V88.3817Z" fill="#FEFFF7"/>
<path d="M142.34 49.6685C127.389 34.7187 103.056 34.7187 88.1043 49.6599L80.2026 57.5608L95.9974 73.354L104.536 64.8162L104.553 64.8334C107.488 62.2084 111.241 60.7625 115.218 60.7625C119.496 60.7625 123.515 62.4322 126.545 65.4531C129.575 68.4826 131.236 72.5019 131.236 76.7794C131.236 81.0569 129.567 85.0849 126.545 88.1058C123.515 91.1354 119.496 92.7964 115.218 92.7964C114.719 92.7964 114.228 92.7706 113.729 92.7276L113.849 92.9083L113.763 92.8911C117.766 99.4924 119.9 107.023 119.969 114.838C128.405 113.788 136.306 109.924 142.34 103.899C157.3 88.9579 157.3 64.6182 142.34 49.6685Z" fill="#FEFFF7"/>
</svg>
