<svg width="215" height="48" viewBox="0 0 215 48" fill="none" xmlns="http://www.w3.org/2000/svg">
<path d="M22.4597 29.4033L17.6228 24.5664L15.356 26.8333L15.2057 26.9835L15.0107 27.1786L15.0054 27.1733C14.1066 27.9772 12.9573 28.4201 11.7396 28.4201C10.4295 28.4201 9.19593 27.9087 8.27074 26.9835C7.34291 26.0557 6.83418 24.8247 6.83418 23.5147C6.83418 22.2047 7.34554 20.9711 8.27074 20.0459C9.19857 19.1181 10.4295 18.6093 11.7396 18.6093C11.8924 18.6093 12.0427 18.6172 12.1956 18.6304L12.1587 18.5751L12.185 18.5803C10.9593 16.5586 10.3056 14.2522 10.2846 11.8588C7.70139 12.1804 5.28165 13.3639 3.43389 15.209C-1.14463 19.7876 -1.14463 27.2392 3.43389 31.8204C5.64804 34.0345 8.59759 35.2549 11.7396 35.2549C14.8789 35.2549 17.8284 34.0371 20.0426 31.823L22.4597 29.4033Z" fill="#1F365F"/>
<path d="M31.8696 27.0679L31.8248 27.0072L31.8196 27.0046L31.7932 26.9651L22.7838 17.9556L19.8395 15.0113L19.8448 15.0061C19.0408 14.1072 18.598 12.958 18.598 11.7402C18.598 10.4302 19.1093 9.19659 20.0345 8.2714C20.9597 7.3462 22.1933 6.83484 23.5034 6.83484C24.8134 6.83484 26.047 7.3462 26.9722 8.2714C27.9 9.19923 28.4087 10.4302 28.4087 11.7402C28.4087 11.8931 28.4008 12.0433 28.3876 12.1962L28.443 12.1593L28.4377 12.1857C30.4594 10.96 32.7658 10.3063 35.1592 10.2852C34.8376 7.70204 33.6541 5.28231 31.809 3.43455C29.5949 1.22041 26.6453 0 23.5034 0C20.3614 0 17.4118 1.22041 15.1977 3.43455C12.9836 5.64869 11.7631 8.59825 11.7631 11.7402C11.7631 14.8796 12.9836 17.8291 15.1977 20.0459L15.3954 20.2436L17.9443 22.7925L27.4466 32.2948H27.3886C28.0502 33.1488 28.4061 34.19 28.4061 35.2892C28.4061 36.5992 27.8947 37.8302 26.9695 38.758C26.0417 39.6858 24.8108 40.1946 23.5007 40.1946C22.1907 40.1946 20.9571 39.6832 20.0319 38.758C19.1041 37.8302 18.5953 36.5992 18.5953 35.2892C18.5953 35.1363 18.6033 34.986 18.6164 34.8332L18.5611 34.8701L18.5663 34.8437C16.5446 36.0694 14.2382 36.7231 11.8448 36.7442C12.1664 39.3273 13.3499 41.7471 15.1951 43.5948C17.4092 45.809 20.3587 47.0294 23.5007 47.0294C26.6427 47.0294 29.5922 45.809 31.8064 43.5948C36.3585 39.0427 36.3849 31.6517 31.8855 27.0652H31.8696V27.0679Z" fill="#1F365F"/>
<path d="M43.589 15.2116C39.0104 10.6331 31.5588 10.6331 26.9803 15.209L24.5605 17.6287L29.3974 22.4656L32.0122 19.8508L32.0175 19.8561C32.9163 19.0521 34.0655 18.6093 35.2833 18.6093C36.5933 18.6093 37.8243 19.1207 38.7521 20.0459C39.68 20.9737 40.1887 22.2046 40.1887 23.5147C40.1887 24.8247 39.6773 26.0583 38.7521 26.9835C37.8243 27.9113 36.5933 28.42 35.2833 28.42C35.1304 28.42 34.9802 28.4121 34.8273 28.399L34.8642 28.4543L34.8378 28.449C36.0635 30.4708 36.7172 32.7772 36.7383 35.1705C39.3215 34.849 41.7412 33.6655 43.589 31.8203C48.1701 27.2444 48.1701 19.7902 43.589 15.2116Z" fill="#1F365F"/>
<path d="M90.7826 14.0176V27.7664H86.3833V25.8422C85.8324 26.6119 85.1471 27.2207 84.322 27.6715C83.497 28.1196 82.6087 28.3436 81.6545 28.3436C80.6107 28.3436 79.6644 28.0721 78.8236 27.5318C77.9801 26.9914 77.3158 26.2349 76.8308 25.2623C76.3458 24.2897 76.1033 23.172 76.1033 21.9068V14.0176H80.4763V21.7987C80.4763 22.6607 80.7003 23.3381 81.1511 23.8336C81.5992 24.3292 82.2265 24.577 83.0357 24.577C83.9899 24.577 84.7859 24.2369 85.4291 23.5595C86.0696 22.8821 86.3912 22.0096 86.3912 20.9474V14.0176H90.7826Z" fill="#1F365F"/>
<path d="M97.765 14.0176V15.694C98.0761 15.0166 98.5848 14.4763 99.2912 14.073C99.9976 13.6697 100.844 13.4667 101.835 13.4667C103.1 13.4667 104.244 13.7936 105.272 14.442C106.297 15.0931 107.101 15.9945 107.679 17.1517C108.256 18.3062 108.546 19.5978 108.546 21.0291C108.546 22.5131 108.248 23.8073 107.652 24.9064C107.056 26.0056 106.25 26.8491 105.232 27.4369C104.215 28.0221 103.084 28.3173 101.837 28.3173C99.9844 28.3173 98.6296 27.6293 97.7677 26.256V33.2675H93.3684V14.0176H97.765ZM98.7693 23.3645C99.3465 23.9338 100.111 24.2158 101.065 24.2158C102.001 24.2158 102.747 23.9312 103.306 23.3645C103.864 22.7951 104.144 22.0175 104.144 21.0264C104.144 20.0195 103.859 19.1945 103.292 18.5513C102.723 17.9108 101.982 17.5892 101.065 17.5892C100.129 17.5892 99.3703 17.9108 98.7825 18.5513C98.1947 19.1945 97.9021 20.0169 97.9021 21.0264C97.9021 22.0175 98.192 22.7977 98.7693 23.3645Z" fill="#1F365F"/>
<path d="M122.582 14.3866C123.728 15.0008 124.617 15.8706 125.249 16.9988C125.882 18.127 126.198 19.4238 126.198 20.8894C126.198 21.2558 126.172 21.6511 126.117 22.0729L115.75 22.0465C115.95 22.7239 116.314 23.2511 116.836 23.628C117.358 24.005 117.985 24.1921 118.72 24.1921C119.361 24.1921 119.92 24.0682 120.397 23.8205C120.874 23.5727 121.222 23.23 121.441 22.7898L125.481 24.6059C125.023 25.7236 124.19 26.6224 122.98 27.2998C121.77 27.9773 120.394 28.3173 118.855 28.3173C117.352 28.3173 116.024 28.001 114.867 27.3684C113.712 26.7358 112.808 25.8475 112.157 24.7009C111.506 23.5542 111.182 22.2495 111.182 20.7813C111.182 19.3157 111.485 18.0321 112.088 16.9329C112.695 15.8337 113.554 14.9797 114.674 14.3761C115.792 13.7698 117.094 13.4694 118.578 13.4694C120.101 13.4667 121.435 13.7725 122.582 14.3866ZM116.931 18.0453C116.435 18.3484 116.079 18.7727 115.858 19.3236H121.522C121.303 18.7727 120.95 18.3484 120.463 18.0453C119.978 17.7421 119.395 17.5919 118.718 17.5919C118.022 17.5919 117.426 17.7421 116.931 18.0453Z" fill="#1F365F"/>
<path d="M143.909 14.7188C145.074 15.5702 145.809 16.7115 146.123 18.1428L142.164 19.6268C142.016 19.1128 141.71 18.7016 141.244 18.3906C140.777 18.0795 140.221 17.924 139.581 17.924C138.7 17.924 137.981 18.2139 137.422 18.7912C136.863 19.3685 136.584 20.125 136.584 21.0607V24.4715H139.884V27.7716H128.497V24.4715H132.1V20.7866C132.1 19.2841 132.458 17.9451 133.173 16.7721H128.223V13.472H133.31V16.5507C133.95 15.5596 134.818 14.7952 135.909 14.2549C137 13.7145 138.223 13.443 139.581 13.443C141.302 13.4377 142.746 13.8647 143.909 14.7188Z" fill="#1F365F"/>
<path d="M148.545 16.9461C149.152 15.8364 150.011 14.9797 151.131 14.3761C152.249 13.7698 153.559 13.4693 155.064 13.4693C156.788 13.4693 158.272 13.8595 159.518 14.6371C160.765 15.4173 161.654 16.5033 162.186 17.895L158.005 19.3236C157.821 18.8097 157.46 18.3932 156.919 18.0716C156.379 17.75 155.76 17.5892 155.064 17.5892C154.147 17.5892 153.414 17.8818 152.863 18.4696C152.312 19.0574 152.038 19.8455 152.038 20.834C152.038 21.8435 152.328 22.6528 152.905 23.2669C153.482 23.8811 154.228 24.1869 155.146 24.1869C155.897 24.1869 156.535 23.9892 157.057 23.5964C157.578 23.2037 157.932 22.658 158.116 21.9595L162.186 23.6913C161.672 25.141 160.789 26.2718 159.532 27.0863C158.277 27.9008 156.785 28.3094 155.064 28.3094C153.58 28.3094 152.278 28.001 151.16 27.3868C150.042 26.7727 149.175 25.9028 148.561 24.7746C147.947 23.6465 147.639 22.3312 147.639 20.8287C147.639 19.35 147.942 18.0531 148.545 16.9461Z" fill="#1F365F"/>
<path d="M179.048 14.0176V27.7664H174.648V25.8422C174.098 26.6119 173.412 27.2207 172.587 27.6715C171.762 28.1196 170.874 28.3436 169.92 28.3436C168.876 28.3436 167.93 28.0721 167.089 27.5318C166.245 26.9914 165.581 26.2349 165.096 25.2623C164.611 24.2897 164.366 23.172 164.366 21.9068V14.0176H168.739V21.7987C168.739 22.6607 168.963 23.3381 169.411 23.8336C169.859 24.3292 170.489 24.577 171.296 24.577C172.247 24.577 173.046 24.2369 173.689 23.5595C174.329 22.8821 174.651 22.0096 174.651 20.9474V14.0176H179.048Z" fill="#1F365F"/>
<path d="M183.297 27.0362C182.261 26.1849 181.744 25.0699 181.744 23.6966C181.744 21.095 183.642 19.6083 187.435 19.2419C188.756 19.1128 189.652 18.9625 190.129 18.7886C190.606 18.6146 190.843 18.38 190.843 18.0874C190.843 17.7579 190.619 17.497 190.168 17.3046C189.718 17.1122 189.146 17.0146 188.45 17.0146C187.809 17.0146 187.277 17.1069 186.855 17.2888C186.433 17.4733 186.167 17.721 186.059 18.0321L182.237 17.0146C182.385 16.3187 182.783 15.6993 183.434 15.159C184.085 14.6186 184.899 14.1969 185.88 13.8937C186.86 13.5906 187.902 13.4404 189.001 13.4404C191.054 13.4404 192.636 13.9544 193.743 14.9797C194.852 16.0077 195.406 17.3916 195.406 19.1312V23.035C195.406 23.4752 195.598 23.7967 195.983 23.9971C196.202 24.0893 196.45 24.1341 196.727 24.1341C196.908 24.1341 197.048 24.1262 197.14 24.1078V27.682C196.571 27.9746 195.986 28.1222 195.38 28.1222C195.013 28.1222 194.665 28.0669 194.336 27.9562C193.84 27.8086 193.419 27.5819 193.071 27.2682C192.723 26.9572 192.512 26.6092 192.438 26.2244C192.272 26.8306 191.732 27.3288 190.817 27.7242C189.9 28.1169 188.938 28.3146 187.931 28.3146C185.877 28.3146 184.333 27.8876 183.297 27.0362ZM190.103 24.0524C190.688 23.5384 190.983 22.8531 190.983 21.9912C190.817 22.1941 190.48 22.3523 189.966 22.4735C189.452 22.5921 188.756 22.6976 187.875 22.7898C186.721 22.9005 186.144 23.2406 186.144 23.8073C186.144 24.1183 186.294 24.3661 186.597 24.5506C186.9 24.7351 187.324 24.8247 187.875 24.8247C188.774 24.8221 189.515 24.5664 190.103 24.0524Z" fill="#1F365F"/>
<path d="M211.812 14.2496C212.663 14.7899 213.333 15.5464 213.82 16.5191C214.305 17.4917 214.548 18.6093 214.548 19.8746V27.7664H210.148V19.9853C210.148 19.1233 209.924 18.4459 209.474 17.9503C209.023 17.4548 208.396 17.207 207.589 17.207C206.635 17.207 205.839 17.5471 205.196 18.2245C204.555 18.9019 204.234 19.7744 204.234 20.8366V27.7664H199.834V14.0176H204.234V15.9418C204.784 15.1721 205.47 14.5632 206.295 14.1125C207.12 13.6644 208.008 13.4377 208.962 13.4377C210.011 13.4377 210.958 13.7092 211.812 14.2496Z" fill="#1F365F"/>
<path d="M73.5755 7.60979C73.5755 5.59334 72.5106 3.74032 71.2059 2.62271C69.6402 1.28368 67.5525 0.545633 65.3305 0.545633C63.1085 0.545633 61.0208 1.28368 59.4551 2.62271C57.8894 3.96174 57.0248 5.74622 57.0248 7.64406C57.0248 9.54189 57.8868 11.3264 59.4551 12.6654L59.5948 12.784L61.3978 14.326L68.1219 20.0722H68.0824C68.5489 20.5889 68.802 21.2189 68.802 21.8831C68.802 22.6765 68.4408 23.4198 67.7845 23.9812C67.1282 24.5427 66.2583 24.8511 65.3305 24.8511C64.4027 24.8511 63.5328 24.5427 62.8765 23.9812C61.9856 23.3091 61.859 21.8831 61.859 21.8831C61.859 21.8831 58.7777 21.8884 57.0855 21.8989C57.0855 24.0682 58.1504 25.7868 59.4551 26.9044C61.0208 28.2435 63.1085 28.9815 65.3305 28.9815C67.5525 28.9815 69.6402 28.2435 71.2059 26.9044C74.4269 24.1526 74.4454 19.6821 71.2612 16.9092H71.2454L71.2138 16.8723L71.2085 16.8696L71.1901 16.8459L64.8165 11.4002L62.7342 9.62097L62.7394 9.61833C62.1701 9.07534 61.859 8.37947 61.859 7.64406C61.859 6.85066 62.2202 6.10734 62.8765 5.5459C63.5328 4.98446 64.4027 4.67605 65.3305 4.67605C66.2583 4.67605 67.1282 4.98446 67.7845 5.5459C68.4408 6.10734 68.802 6.85066 68.802 7.64406" fill="#1F365F"/>
<path d="M110.839 43.6634C111.089 44.7441 111.914 45.2871 113.317 45.2871C113.999 45.2871 114.571 45.1737 115.033 44.9444C115.494 44.7177 115.723 44.4041 115.723 44.006C115.723 43.6871 115.549 43.4209 115.201 43.2021C114.853 42.986 114.247 42.7988 113.383 42.638C112.117 42.4113 111.213 42.0924 110.668 41.6812C110.122 41.27 109.848 40.7244 109.848 40.0417C109.848 39.2114 110.162 38.5946 110.786 38.1966C111.414 37.7986 112.278 37.5982 113.383 37.5982C114.419 37.5982 115.228 37.7775 115.808 38.1359C116.388 38.4944 116.72 38.9926 116.799 39.6305L115.518 40.0417C115.425 39.2114 114.714 38.7949 113.383 38.7949C112.745 38.7949 112.223 38.8977 111.82 39.1033C111.416 39.3089 111.213 39.6226 111.213 40.0417C111.213 40.3501 111.361 40.6137 111.659 40.8351C111.954 41.0565 112.529 41.2542 113.383 41.4255C114.648 41.6759 115.581 42.0054 116.185 42.4166C116.788 42.8278 117.089 43.355 117.089 44.006C117.089 44.8153 116.757 45.4294 116.09 45.8512C115.423 46.2729 114.521 46.4838 113.383 46.4838C112.268 46.4838 111.385 46.2755 110.736 45.8591C110.088 45.4426 109.711 44.8706 109.608 44.1431L110.839 43.6634Z" fill="#1F365F"/>
<path d="M119.506 45.7721C118.918 45.3003 118.625 44.6756 118.625 43.9006C118.625 43.1494 118.91 42.5326 119.479 42.0476C120.049 41.5626 120.8 41.2937 121.733 41.2357C122.917 41.1672 123.776 41.038 124.314 40.8509C124.849 40.6637 125.118 40.3817 125.118 40.0048C125.118 39.641 124.883 39.3458 124.416 39.1244C123.95 38.903 123.362 38.7923 122.658 38.7923C121.928 38.7923 121.343 38.9135 120.9 39.1587C120.455 39.4038 120.199 39.7359 120.131 40.1576L118.865 39.7465C118.958 39.098 119.345 38.5761 120.028 38.1834C120.71 37.7906 121.588 37.5929 122.658 37.5929C123.842 37.5929 124.764 37.8354 125.426 38.3178C126.085 38.8028 126.417 39.4776 126.417 40.3422V43.6739C126.417 44.4041 126.525 44.8653 126.741 45.0578C126.834 45.15 126.947 45.1948 127.084 45.1948C127.142 45.1948 127.226 45.1843 127.34 45.1606V46.3572C127.145 46.4152 126.963 46.4416 126.794 46.4416C126.486 46.4416 126.201 46.3625 125.94 46.2017C125.473 45.9065 125.218 45.4268 125.17 44.7678C125.057 45.2792 124.693 45.693 124.076 46.0067C123.462 46.3203 122.732 46.4759 121.891 46.4759C120.887 46.4811 120.094 46.2439 119.506 45.7721ZM123.565 44.8337C124.055 44.5332 124.438 44.1115 124.709 43.5685C124.983 43.0281 125.12 42.3982 125.12 41.6812C124.925 41.8973 124.559 42.0634 124.018 42.1767C123.478 42.2901 122.716 42.3771 121.738 42.4324C121.214 42.4561 120.792 42.6038 120.476 42.8753C120.157 43.1494 119.996 43.4894 119.996 43.9006C119.996 44.3223 120.167 44.6571 120.507 44.9075C120.85 45.1579 121.311 45.2844 121.891 45.2844C122.516 45.2844 123.075 45.1342 123.565 44.8337Z" fill="#1F365F"/>
<path d="M136.47 38.6657C137.124 39.3774 137.454 40.3211 137.454 41.494V46.3124H136.088V41.494C136.088 40.6743 135.864 40.0206 135.413 39.5303C134.963 39.04 134.346 38.7949 133.56 38.7949C132.946 38.7949 132.398 38.9452 131.921 39.2483C131.444 39.5514 131.067 39.9784 130.793 40.5293C130.519 41.0829 130.381 41.7155 130.381 42.4351V46.3124H129.016V34.3534H130.381V39.3748C130.621 38.8503 131.062 38.4233 131.705 38.0938C132.348 37.7643 133.052 37.5982 133.813 37.5982C134.928 37.5982 135.814 37.9541 136.47 38.6657Z" fill="#1F365F"/>
<path d="M140.005 45.7721C139.417 45.3003 139.125 44.6756 139.125 43.9006C139.125 43.1494 139.409 42.5326 139.979 42.0476C140.548 41.5626 141.299 41.2937 142.232 41.2357C143.416 41.1672 144.275 41.038 144.813 40.8509C145.348 40.6637 145.617 40.3817 145.617 40.0048C145.617 39.641 145.382 39.3458 144.916 39.1244C144.449 38.903 143.861 38.7923 143.158 38.7923C142.427 38.7923 141.842 38.9135 141.399 39.1587C140.954 39.4038 140.698 39.7359 140.63 40.1576L139.365 39.7465C139.457 39.098 139.844 38.5761 140.527 38.1834C141.21 37.7906 142.087 37.5929 143.158 37.5929C144.341 37.5929 145.264 37.8354 145.925 38.3178C146.584 38.8028 146.916 39.4776 146.916 40.3422V43.6739C146.916 44.4041 147.024 44.8653 147.241 45.0578C147.333 45.15 147.446 45.1948 147.583 45.1948C147.641 45.1948 147.726 45.1843 147.839 45.1606V46.3572C147.644 46.4152 147.462 46.4416 147.293 46.4416C146.985 46.4416 146.7 46.3625 146.439 46.2017C145.973 45.9065 145.717 45.4268 145.67 44.7678C145.556 45.2792 145.193 45.693 144.576 46.0067C143.962 46.3203 143.231 46.4759 142.391 46.4759C141.386 46.4811 140.593 46.2439 140.005 45.7721ZM144.062 44.8337C144.552 44.5332 144.934 44.1115 145.206 43.5685C145.48 43.0281 145.617 42.3982 145.617 41.6812C145.422 41.8973 145.055 42.0634 144.515 42.1767C143.975 42.2901 143.213 42.3771 142.235 42.4324C141.71 42.4561 141.289 42.6038 140.972 42.8753C140.654 43.1494 140.493 43.4894 140.493 43.9006C140.493 44.3223 140.664 44.6571 141.004 44.9075C141.347 45.1579 141.808 45.2844 142.388 45.2844C143.015 45.2844 143.574 45.1342 144.062 44.8337Z" fill="#1F365F"/>
<path d="M149.581 37.7695H150.947V39.1349C151.152 38.6578 151.445 38.2809 151.827 38.0068C152.209 37.7326 152.655 37.5956 153.169 37.5956C153.783 37.5956 154.344 37.7827 154.85 38.1597C155.356 38.5366 155.678 39.0137 155.815 39.5936C155.952 38.99 156.255 38.505 156.73 38.1412C157.202 37.7775 157.781 37.5956 158.464 37.5956C159.102 37.5956 159.669 37.759 160.164 38.0832C160.66 38.4074 161.05 38.8661 161.335 39.4591C161.619 40.0522 161.762 40.7296 161.762 41.4914V46.3098H160.396V41.4914C160.396 40.6717 160.225 40.018 159.885 39.5277C159.542 39.0374 159.07 38.7923 158.467 38.7923C157.853 38.7923 157.344 39.0427 156.946 39.5435C156.548 40.0443 156.348 40.6927 156.348 41.4914V46.3098H154.982V41.4914C154.982 40.6717 154.806 40.018 154.452 39.5277C154.099 39.0374 153.614 38.7923 153 38.7923C152.396 38.7923 151.903 39.0295 151.521 39.5013C151.139 39.9731 150.949 40.5873 150.949 41.3385V46.3098H149.584V37.7695H149.581Z" fill="#1F365F"/>
</svg>
