<svg width="30" height="29" viewBox="0 0 30 29" fill="none" xmlns="http://www.w3.org/2000/svg">
<path d="M14.3612 18.048L11.4252 15.112L10.0492 16.488L9.95802 16.5792L9.83962 16.6976L9.83642 16.6944C9.29082 17.1824 8.59322 17.4512 7.85402 17.4512C7.05882 17.4512 6.31002 17.1408 5.74842 16.5792C5.18522 16.016 4.87642 15.2688 4.87642 14.4736C4.87642 13.6784 5.18682 12.9296 5.74842 12.368C6.31162 11.8048 7.05882 11.496 7.85402 11.496C7.94682 11.496 8.03802 11.5008 8.13082 11.5088L8.10842 11.4752L8.12442 11.4784C7.38042 10.2512 6.98362 8.85117 6.97082 7.39838C5.40282 7.59358 3.93402 8.31198 2.81243 9.43198C0.033228 12.2112 0.033228 16.7344 2.81243 19.5152C4.15642 20.8592 5.94682 21.6 7.85402 21.6C9.75962 21.6 11.55 20.8608 12.894 19.5168L14.3612 18.048Z" fill="#1F365F"/>
<path d="M20.073 16.6304L20.0458 16.5936L20.0426 16.592L20.0265 16.568L14.5578 11.0992L12.7706 9.31197L12.7738 9.30877C12.2858 8.76317 12.017 8.06557 12.017 7.32638C12.017 6.53118 12.3274 5.78238 12.889 5.22078C13.4506 4.65918 14.1994 4.34878 14.9946 4.34878C15.7898 4.34878 16.5386 4.65918 17.1002 5.22078C17.6634 5.78398 17.9722 6.53118 17.9722 7.32638C17.9722 7.41918 17.9674 7.51037 17.9594 7.60317L17.993 7.58077L17.9898 7.59678C19.217 6.85278 20.617 6.45597 22.0698 6.44317C21.8746 4.87518 21.1562 3.40638 20.0362 2.28478C18.6922 0.940781 16.9018 0.199982 14.9946 0.199982C13.0874 0.199982 11.297 0.940781 9.95296 2.28478C8.60896 3.62878 7.86816 5.41918 7.86816 7.32638C7.86816 9.23197 8.60896 11.0224 9.95296 12.368L10.073 12.488L11.6202 14.0352L17.3882 19.8032H17.353C17.7546 20.3216 17.9706 20.9536 17.9706 21.6208C17.9706 22.416 17.6602 23.1632 17.0986 23.7264C16.5354 24.2896 15.7882 24.5984 14.993 24.5984C14.1978 24.5984 13.449 24.288 12.8874 23.7264C12.3242 23.1632 12.0154 22.416 12.0154 21.6208C12.0154 21.528 12.0202 21.4368 12.0282 21.344L11.9946 21.3664L11.9978 21.3504C10.7706 22.0944 9.37056 22.4912 7.91776 22.504C8.11296 24.072 8.83136 25.5408 9.95136 26.6624C11.2954 28.0063 13.0858 28.7472 14.993 28.7472C16.9002 28.7472 18.6906 28.0063 20.0346 26.6624C22.7977 23.8992 22.8137 19.4128 20.0826 16.6288H20.073V16.6304Z" fill="#1F365F"/>
<path d="M27.1866 9.4336C24.4074 6.6544 19.8842 6.6544 17.105 9.432L15.6362 10.9008L18.5722 13.8368L20.1594 12.2496L20.1626 12.2528C20.7082 11.7648 21.4058 11.496 22.145 11.496C22.9402 11.496 23.6874 11.8064 24.2506 12.368C24.8138 12.9312 25.1226 13.6784 25.1226 14.4736C25.1226 15.2688 24.8122 16.0176 24.2506 16.5792C23.6874 17.1424 22.9402 17.4512 22.145 17.4512C22.0522 17.4512 21.961 17.4464 21.8682 17.4384L21.8906 17.472L21.8746 17.4688C22.6186 18.696 23.0154 20.096 23.0282 21.5488C24.5962 21.3536 26.065 20.6352 27.1866 19.5152C29.9674 16.7376 29.9674 12.2128 27.1866 9.4336Z" fill="#1F365F"/>
</svg>
