<svg width="72" height="72" viewBox="0 0 72 72" fill="none" xmlns="http://www.w3.org/2000/svg">
<path d="M34.083 44.6198L26.743 37.2798L23.303 40.7198L23.075 40.9478L22.779 41.2438L22.771 41.2358C21.407 42.4558 19.663 43.1278 17.815 43.1278C15.827 43.1278 13.955 42.3518 12.551 40.9478C11.143 39.5398 10.371 37.6718 10.371 35.6838C10.371 33.6958 11.147 31.8238 12.551 30.4198C13.959 29.0118 15.827 28.2398 17.815 28.2398C18.047 28.2398 18.275 28.2518 18.507 28.2718L18.451 28.1878L18.491 28.1958C16.631 25.1278 15.639 21.6278 15.607 17.9958C11.687 18.4838 8.015 20.2798 5.211 23.0798C-1.737 30.0278 -1.737 41.3358 5.211 48.2878C8.571 51.6478 13.047 53.4998 17.815 53.4998C22.579 53.4998 27.055 51.6518 30.415 48.2918L34.083 44.6198Z" fill="#D6D7CF"/>
<path d="M48.3631 41.0757L48.2951 40.9837L48.2871 40.9797L48.2471 40.9198L34.5751 27.2478L30.1071 22.7798L30.1151 22.7717C28.8951 21.4077 28.2231 19.6638 28.2231 17.8158C28.2231 15.8278 28.9991 13.9558 30.4031 12.5518C31.8071 11.1478 33.6791 10.3718 35.6671 10.3718C37.6551 10.3718 39.5271 11.1478 40.9311 12.5518C42.3391 13.9598 43.1111 15.8278 43.1111 17.8158C43.1111 18.0478 43.0991 18.2757 43.0791 18.5077L43.1631 18.4518L43.1551 18.4918C46.2231 16.6318 49.7231 15.6397 53.3551 15.6077C52.8671 11.6877 51.0711 8.01575 48.2711 5.21175C44.9111 1.85176 40.4351 -0.000244141 35.6671 -0.000244141C30.8991 -0.000244141 26.4231 1.85176 23.0631 5.21175C19.7031 8.57175 17.8511 13.0478 17.8511 17.8158C17.8511 22.5798 19.7031 27.0558 23.0631 30.4198L23.3631 30.7198L27.2311 34.5877L41.6511 49.0077H41.5631C42.5671 50.3037 43.1071 51.8837 43.1071 53.5517C43.1071 55.5397 42.3311 57.4077 40.9271 58.8157C39.5191 60.2237 37.6511 60.9958 35.6631 60.9958C33.6751 60.9958 31.8031 60.2197 30.3991 58.8157C28.9911 57.4077 28.2191 55.5397 28.2191 53.5517C28.2191 53.3197 28.2311 53.0917 28.2511 52.8597L28.1671 52.9157L28.1751 52.8757C25.1071 54.7357 21.6071 55.7277 17.9751 55.7597C18.4631 59.6797 20.2591 63.3517 23.0591 66.1557C26.4191 69.5157 30.8951 71.3677 35.6631 71.3677C40.4311 71.3677 44.9071 69.5157 48.2671 66.1557C55.1751 59.2477 55.2151 48.0318 48.3871 41.0718H48.3631V41.0757Z" fill="#D6D7CF"/>
<path d="M66.147 23.0837C59.199 16.1357 47.891 16.1357 40.943 23.0797L37.271 26.7517L44.611 34.0917L48.579 30.1237L48.587 30.1317C49.951 28.9117 51.695 28.2397 53.543 28.2397C55.531 28.2397 57.399 29.0157 58.807 30.4197C60.215 31.8277 60.987 33.6957 60.987 35.6837C60.987 37.6717 60.211 39.5437 58.807 40.9477C57.399 42.3557 55.531 43.1277 53.543 43.1277C53.311 43.1277 53.083 43.1157 52.851 43.0957L52.907 43.1797L52.867 43.1717C54.727 46.2397 55.719 49.7397 55.751 53.3717C59.671 52.8837 63.343 51.0877 66.147 48.2877C73.099 41.3437 73.099 30.0317 66.147 23.0837Z" fill="#D6D7CF"/>
</svg>
