<svg width="473" height="154" viewBox="0 0 473 154" fill="none" xmlns="http://www.w3.org/2000/svg">
<path d="M101.797 40.417V81.6633H88.6037V75.8907C86.9516 78.1997 84.8964 80.0264 82.4221 81.3786C79.9479 82.7229 77.284 83.3951 74.4225 83.3951C71.2922 83.3951 68.4543 82.5806 65.9327 80.9595C63.4031 79.3384 61.4111 77.0689 59.9566 74.151C58.5021 71.2331 57.7749 67.8802 57.7749 64.0846V40.417H70.889V63.7604C70.889 66.3462 71.5609 68.3784 72.9126 69.865C74.2565 71.3517 76.1378 72.095 78.5646 72.095C81.4261 72.095 83.8134 71.0749 85.7422 69.0427C87.663 67.0104 88.6274 64.393 88.6274 61.2062V40.417H101.797Z" fill="#FEFFF7"/>
<path d="M122.737 40.4168V45.4461C123.67 43.4138 125.195 41.7928 127.314 40.5829C129.432 39.373 131.97 38.7642 134.942 38.7642C138.736 38.7642 142.167 39.7447 145.25 41.6899C148.325 43.6431 150.736 46.3476 152.467 49.819C154.198 53.2826 155.067 57.1573 155.067 61.4512C155.067 65.9032 154.174 69.7858 152.388 73.0833C150.601 76.3808 148.182 78.9113 145.131 80.6747C142.08 82.4302 138.689 83.3158 134.95 83.3158C129.393 83.3158 125.33 81.2519 122.745 77.132V98.1664H109.552V40.4168H122.737ZM125.748 68.4574C127.48 70.1654 129.772 71.0115 132.634 71.0115C135.44 71.0115 137.677 70.1575 139.353 68.4574C141.029 66.7493 141.866 64.4166 141.866 61.4433C141.866 58.4226 141.013 55.9475 139.313 54.018C137.606 52.0964 135.384 51.1317 132.634 51.1317C129.827 51.1317 127.551 52.0964 125.788 54.018C124.025 55.9475 123.148 58.4146 123.148 61.4433C123.148 64.4166 124.017 66.7572 125.748 68.4574Z" fill="#FEFFF7"/>
<path d="M197.161 41.5239C200.599 43.3664 203.263 45.9759 205.16 49.3604C207.057 52.7448 208.006 56.6354 208.006 61.0321C208.006 62.1312 207.927 63.3174 207.761 64.5826L176.671 64.5035C177.272 66.5358 178.363 68.1173 179.928 69.2481C181.493 70.3789 183.375 70.9404 185.58 70.9404C187.501 70.9404 189.177 70.5687 190.607 69.8254C192.038 69.082 193.082 68.0541 193.738 66.7335L205.856 72.1818C204.48 75.5347 201.983 78.2312 198.354 80.2635C194.726 82.2957 190.6 83.3158 185.983 83.3158C181.477 83.3158 177.493 82.3669 174.023 80.4691C170.561 78.5712 167.849 75.9064 165.897 72.4665C163.944 69.0267 162.972 65.1124 162.972 60.7079C162.972 56.3112 163.881 52.4602 165.691 49.1627C167.51 45.8652 170.087 43.3031 173.446 41.4923C176.798 39.6735 180.703 38.772 185.153 38.772C189.722 38.7641 193.722 39.6814 197.161 41.5239ZM180.213 52.4997C178.726 53.4091 177.659 54.6822 176.995 56.3349H193.983C193.327 54.6822 192.267 53.4091 190.805 52.4997C189.351 51.5904 187.604 51.1396 185.572 51.1396C183.485 51.1396 181.699 51.5904 180.213 52.4997Z" fill="#FEFFF7"/>
<path d="M261.119 42.5203C264.613 45.0745 266.818 48.4985 267.759 52.7924L255.886 57.2444C255.443 55.7024 254.526 54.4688 253.127 53.5357C251.728 52.6026 250.06 52.136 248.139 52.136C245.499 52.136 243.341 53.0058 241.665 54.7376C239.989 56.4694 239.151 58.7389 239.151 61.5461V71.7786H249.048V81.679H214.899V71.7786H225.705V60.7237C225.705 56.2163 226.78 52.1993 228.922 48.6804H214.077V38.78H229.333V48.0161C231.254 45.0428 233.855 42.7497 237.128 41.1286C240.4 39.5075 244.068 38.693 248.139 38.693C253.301 38.6772 257.633 39.9583 261.119 42.5203Z" fill="#FEFFF7"/>
<path d="M275.023 49.2022C276.841 45.873 279.418 43.3031 282.778 41.4922C286.13 39.6734 290.058 38.772 294.572 38.772C299.742 38.772 304.192 39.9423 307.931 42.2751C311.67 44.6158 314.334 47.8737 315.931 52.0489L303.394 56.3349C302.84 54.7929 301.757 53.5435 300.137 52.5787C298.516 51.614 296.659 51.1316 294.572 51.1316C291.821 51.1316 289.623 52.0094 287.971 53.7728C286.319 55.5362 285.497 57.9006 285.497 60.8659C285.497 63.8946 286.367 66.3222 288.098 68.1647C289.829 70.0072 292.066 70.9245 294.817 70.9245C297.07 70.9245 298.983 70.3314 300.548 69.1532C302.113 67.9749 303.172 66.338 303.726 64.2425L315.931 69.4378C314.389 73.787 311.741 77.1794 307.971 79.6229C304.208 82.0663 299.734 83.292 294.572 83.292C290.121 83.292 286.216 82.3669 282.865 80.5244C279.513 78.6819 276.912 76.0723 275.071 72.6879C273.229 69.3034 272.304 65.3575 272.304 60.8501C272.304 56.414 273.213 52.5234 275.023 49.2022Z" fill="#FEFFF7"/>
<path d="M366.498 40.417V81.6633H353.305V75.8907C351.653 78.1997 349.597 80.0264 347.123 81.3786C344.649 82.7229 341.985 83.3951 339.123 83.3951C335.993 83.3951 333.155 82.5806 330.634 80.9595C328.104 79.3384 326.112 77.0689 324.658 74.151C323.203 71.2331 322.468 67.8802 322.468 64.0846V40.417H335.582V63.7604C335.582 66.3462 336.254 68.3784 337.598 69.865C338.942 71.3517 340.831 72.095 343.25 72.095C346.103 72.095 348.499 71.0749 350.427 69.0427C352.348 67.0104 353.313 64.393 353.313 61.2062V40.417H366.498Z" fill="#FEFFF7"/>
<path d="M379.24 79.4727C376.134 76.9185 374.584 73.5736 374.584 69.4537C374.584 61.6489 380.276 57.189 391.651 56.0898C395.611 55.7023 398.299 55.2516 399.73 54.7297C401.16 54.2078 401.872 53.504 401.872 52.6262C401.872 51.6378 401.2 50.855 399.848 50.2777C398.497 49.7004 396.781 49.4078 394.694 49.4078C392.773 49.4078 391.177 49.6846 389.912 50.2302C388.647 50.7838 387.849 51.5271 387.525 52.4602L376.063 49.4078C376.505 47.3202 377.699 45.4619 379.651 43.8409C381.604 42.2198 384.047 40.9546 386.987 40.0452C389.928 39.1358 393.05 38.6851 396.346 38.6851C402.504 38.6851 407.247 40.2271 410.567 43.3031C413.895 46.3871 415.555 50.5386 415.555 55.7577V67.4689C415.555 68.7895 416.132 69.7542 417.286 70.3552C417.942 70.6319 418.685 70.7664 419.515 70.7664C420.061 70.7664 420.48 70.7427 420.757 70.6873V81.4101C419.049 82.2878 417.294 82.7306 415.476 82.7306C414.377 82.7306 413.334 82.5646 412.346 82.2325C410.86 81.7896 409.595 81.1096 408.551 80.1686C407.508 79.2355 406.876 78.1917 406.654 77.0371C406.156 78.8559 404.536 80.3504 401.793 81.5366C399.042 82.7148 396.157 83.3079 393.137 83.3079C386.979 83.3079 382.347 82.0269 379.24 79.4727ZM399.651 70.5212C401.405 68.9793 402.291 66.9233 402.291 64.3375C401.793 64.9463 400.781 65.4208 399.24 65.7846C397.698 66.1404 395.611 66.4567 392.971 66.7335C389.509 67.0656 387.778 68.0857 387.778 69.7858C387.778 70.7189 388.228 71.4623 389.137 72.0158C390.046 72.5693 391.319 72.8382 392.971 72.8382C395.667 72.8303 397.888 72.0632 399.651 70.5212Z" fill="#FEFFF7"/>
<path d="M464.755 41.1128C467.308 42.7339 469.316 45.0034 470.778 47.9213C472.233 50.8392 472.96 54.1921 472.96 57.9877V81.6632H459.767V58.3199C459.767 55.7341 459.095 53.7018 457.743 52.2151C456.392 50.7285 454.51 49.9852 452.091 49.9852C449.23 49.9852 446.843 51.0053 444.914 53.0376C442.993 55.0698 442.029 57.6872 442.029 60.874V81.6632H428.835V40.4169H442.029V46.1895C443.681 43.8805 445.736 42.0538 448.21 40.7016C450.684 39.3573 453.348 38.6772 456.21 38.6772C459.356 38.6772 462.194 39.4917 464.755 41.1128Z" fill="#FEFFF7"/>
<path d="M50.1945 21.1949C50.1945 15.1456 47.0009 9.58651 43.088 6.23367C38.3926 2.21659 32.1319 0.00244141 25.4682 0.00244141C18.8044 0.00244141 12.5438 2.21659 7.84831 6.23367C3.15284 10.2508 0.560059 15.6042 0.560059 21.2977C0.560059 26.9912 3.14494 32.3447 7.84831 36.3618L8.26726 36.7176L13.6742 41.3436L33.8394 58.5823H33.7208C35.1199 60.1322 35.8788 62.0221 35.8788 64.0148C35.8788 66.395 34.7959 68.6249 32.8276 70.3093C30.8593 71.9936 28.2507 72.9188 25.4682 72.9188C22.6857 72.9188 20.0771 71.9936 18.1088 70.3093C15.4369 68.2928 15.0575 64.0148 15.0575 64.0148C15.0575 64.0148 5.81675 64.0306 0.741854 64.0623C0.741854 70.5703 3.93542 75.726 7.84831 79.0789C12.5438 83.096 18.8044 85.3101 25.4682 85.3101C32.1319 85.3101 38.3926 83.096 43.088 79.0789C52.7477 70.8233 52.803 57.4119 43.254 49.0931H43.2066L43.1117 48.9824L43.0959 48.9745L43.0406 48.9033L23.9267 32.5661L17.6819 27.2285L17.6977 27.2205C15.9903 25.5916 15.0575 23.504 15.0575 21.2977C15.0575 18.9175 16.1405 16.6876 18.1088 15.0032C20.0771 13.3189 22.6857 12.3937 25.4682 12.3937C28.2507 12.3937 30.8593 13.3189 32.8276 15.0032C34.7959 16.6876 35.8788 18.9175 35.8788 21.2977" fill="#FEFFF7"/>
<path d="M162.249 145.096C163 148.339 165.474 149.967 169.68 149.967C171.727 149.967 173.442 149.627 174.826 148.939C176.209 148.259 176.897 147.318 176.897 146.124C176.897 145.168 176.375 144.369 175.332 143.713C174.288 143.064 172.47 142.503 169.877 142.02C166.083 141.34 163.372 140.383 161.735 139.15C160.099 137.916 159.277 136.279 159.277 134.231C159.277 131.74 160.218 129.89 162.091 128.696C163.972 127.502 166.565 126.901 169.877 126.901C172.984 126.901 175.411 127.439 177.15 128.514C178.889 129.589 179.885 131.084 180.122 132.998L176.28 134.231C176.004 131.74 173.869 130.491 169.877 130.491C167.964 130.491 166.399 130.799 165.19 131.416C163.98 132.033 163.372 132.974 163.372 134.231C163.372 135.156 163.814 135.947 164.708 136.611C165.593 137.276 167.316 137.869 169.877 138.383C173.672 139.134 176.47 140.122 178.28 141.356C180.09 142.59 180.991 144.171 180.991 146.124C180.991 148.552 179.995 150.394 177.996 151.66C175.996 152.925 173.292 153.558 169.877 153.558C166.534 153.558 163.885 152.933 161.941 151.683C159.996 150.434 158.866 148.718 158.558 146.536L162.249 145.096Z" fill="#FEFFF7"/>
<path d="M188.24 151.422C186.478 150.007 185.6 148.133 185.6 145.808C185.6 143.554 186.454 141.704 188.161 140.249C189.869 138.794 192.122 137.987 194.92 137.813C198.469 137.608 201.046 137.22 202.659 136.659C204.263 136.097 205.07 135.251 205.07 134.12C205.07 133.029 204.366 132.143 202.967 131.479C201.568 130.815 199.805 130.483 197.694 130.483C195.505 130.483 193.75 130.846 192.422 131.582C191.086 132.317 190.319 133.314 190.114 134.579L186.319 133.345C186.596 131.4 187.758 129.834 189.805 128.656C191.853 127.478 194.485 126.885 197.694 126.885C201.244 126.885 204.01 127.612 205.995 129.059C207.971 130.514 208.967 132.539 208.967 135.132V145.128C208.967 147.318 209.291 148.702 209.939 149.279C210.216 149.556 210.556 149.69 210.967 149.69C211.141 149.69 211.394 149.659 211.733 149.588V153.178C211.148 153.352 210.603 153.431 210.097 153.431C209.172 153.431 208.319 153.194 207.536 152.711C206.137 151.825 205.37 150.386 205.228 148.409C204.888 149.943 203.797 151.185 201.947 152.126C200.105 153.067 197.916 153.534 195.394 153.534C192.382 153.549 190.003 152.838 188.24 151.422ZM200.414 148.607C201.884 147.706 203.03 146.44 203.844 144.811C204.667 143.19 205.078 141.3 205.078 139.15C204.493 139.798 203.394 140.296 201.773 140.636C200.153 140.976 197.868 141.237 194.936 141.403C193.363 141.474 192.098 141.917 191.149 142.732C190.193 143.554 189.711 144.574 189.711 145.808C189.711 147.073 190.224 148.077 191.244 148.828C192.272 149.58 193.655 149.959 195.394 149.959C197.268 149.959 198.943 149.509 200.414 148.607Z" fill="#FEFFF7"/>
<path d="M239.116 130.103C241.076 132.238 242.064 135.069 242.064 138.588V153.043H237.97V138.588C237.97 136.129 237.298 134.168 235.946 132.697C234.594 131.226 232.745 130.491 230.389 130.491C228.547 130.491 226.903 130.942 225.472 131.851C224.041 132.76 222.911 134.041 222.089 135.694C221.267 137.355 220.856 139.253 220.856 141.411V153.043H216.761V117.167H220.856V132.231C221.575 130.657 222.895 129.376 224.824 128.387C226.753 127.399 228.863 126.901 231.148 126.901C234.492 126.901 237.148 127.968 239.116 130.103Z" fill="#FEFFF7"/>
<path d="M249.716 151.422C247.953 150.007 247.076 148.133 247.076 145.808C247.076 143.554 247.93 141.704 249.637 140.249C251.345 138.794 253.597 137.987 256.396 137.813C259.945 137.608 262.522 137.22 264.135 136.659C265.739 136.097 266.546 135.251 266.546 134.12C266.546 133.029 265.842 132.143 264.443 131.479C263.044 130.815 261.281 130.483 259.17 130.483C256.981 130.483 255.226 130.846 253.898 131.582C252.562 132.317 251.795 133.314 251.59 134.579L247.795 133.345C248.072 131.4 249.234 129.834 251.281 128.656C253.329 127.478 255.961 126.885 259.17 126.885C262.72 126.885 265.486 127.612 267.47 129.059C269.447 130.514 270.443 132.539 270.443 135.132V145.128C270.443 147.318 270.767 148.702 271.415 149.279C271.692 149.556 272.031 149.69 272.442 149.69C272.616 149.69 272.869 149.659 273.209 149.588V153.178C272.624 153.352 272.079 153.431 271.573 153.431C270.648 153.431 269.794 153.194 269.012 152.711C267.613 151.825 266.846 150.386 266.704 148.409C266.364 149.943 265.273 151.185 263.423 152.126C261.581 153.067 259.392 153.534 256.87 153.534C253.858 153.549 251.479 152.838 249.716 151.422ZM261.882 148.607C263.352 147.706 264.498 146.44 265.312 144.811C266.134 143.19 266.546 141.3 266.546 139.15C265.961 139.798 264.862 140.296 263.241 140.636C261.621 140.976 259.336 141.237 256.404 141.403C254.831 141.474 253.566 141.917 252.617 142.732C251.661 143.554 251.179 144.574 251.179 145.808C251.179 147.073 251.692 148.077 252.712 148.828C253.74 149.58 255.123 149.959 256.862 149.959C258.743 149.959 260.419 149.509 261.882 148.607Z" fill="#FEFFF7"/>
<path d="M278.434 127.415H282.529V131.511C283.146 130.08 284.023 128.949 285.169 128.127C286.315 127.304 287.651 126.893 289.193 126.893C291.035 126.893 292.718 127.455 294.236 128.585C295.754 129.716 296.718 131.147 297.129 132.887C297.54 131.076 298.449 129.621 299.872 128.53C301.287 127.439 303.026 126.893 305.074 126.893C306.987 126.893 308.686 127.383 310.172 128.356C311.658 129.329 312.828 130.705 313.682 132.484C314.536 134.263 314.963 136.295 314.963 138.581V153.036H310.868V138.581C310.868 136.121 310.354 134.16 309.334 132.689C308.307 131.219 306.892 130.483 305.081 130.483C303.24 130.483 301.714 131.234 300.52 132.737C299.327 134.239 298.726 136.185 298.726 138.581V153.036H294.631V138.581C294.631 136.121 294.102 134.16 293.042 132.689C291.983 131.219 290.529 130.483 288.687 130.483C286.877 130.483 285.398 131.195 284.252 132.61C283.106 134.026 282.537 135.868 282.537 138.122V153.036H278.442V127.415H278.434Z" fill="#FEFFF7"/>
</svg>
